<?xml version="1.0" encoding="UTF-8" standalone="no"?><svg xmlns="http://www.w3.org/2000/svg" xmlns:xlink="http://www.w3.org/1999/xlink" contentScriptType="application/ecmascript" contentStyleType="text/css" height="582px" preserveAspectRatio="none" style="width:1089px;height:582px;background:#FFFFFF;" version="1.1" viewBox="0 0 1089 582" width="1089px" zoomAndPan="magnify"><defs><filter height="300%" id="fvdtof4rtqolo" width="300%" x="-1" y="-1"><feGaussianBlur result="blurOut" stdDeviation="2.0"/><feColorMatrix in="blurOut" result="blurOut2" type="matrix" values="0 0 0 0 0 0 0 0 0 0 0 0 0 0 0 0 0 0 .4 0"/><feOffset dx="4.0" dy="4.0" in="blurOut2" result="blurOut3"/><feBlend in="SourceGraphic" in2="blurOut3" mode="normal"/></filter></defs><g><rect fill="#FEFECE" filter="url(#fvdtof4rtqolo)" height="35.0938" style="stroke:#A80036;stroke-width:1.5;" width="57" x="346.5" y="197"/><text fill="#000000" font-family="sans-serif" font-size="12" lengthAdjust="spacing" textLength="43" x="353.5" y="211.457">:Square</text><line style="stroke:#A80036;stroke-width:1.5;" x1="347.5" x2="402.5" y1="216.0938" y2="216.0938"/><rect fill="#FEFECE" filter="url(#fvdtof4rtqolo)" height="35.0938" style="stroke:#A80036;stroke-width:1.5;" width="57" x="438.5" y="197"/><text fill="#000000" font-family="sans-serif" font-size="12" lengthAdjust="spacing" textLength="43" x="445.5" y="211.457">:Square</text><line style="stroke:#A80036;stroke-width:1.5;" x1="439.5" x2="494.5" y1="216.0938" y2="216.0938"/><rect fill="#FEFECE" filter="url(#fvdtof4rtqolo)" height="35.0938" style="stroke:#A80036;stroke-width:1.5;" width="57" x="530.5" y="197"/><text fill="#000000" font-family="sans-serif" font-size="12" lengthAdjust="spacing" textLength="43" x="537.5" y="211.457">:Square</text><line style="stroke:#A80036;stroke-width:1.5;" x1="531.5" x2="586.5" y1="216.0938" y2="216.0938"/><rect fill="#FEFECE" filter="url(#fvdtof4rtqolo)" height="35.0938" style="stroke:#A80036;stroke-width:1.5;" width="57" x="346.5" y="300.5"/><text fill="#000000" font-family="sans-serif" font-size="12" lengthAdjust="spacing" textLength="43" x="353.5" y="314.957">:Square</text><line style="stroke:#A80036;stroke-width:1.5;" x1="347.5" x2="402.5" y1="319.5938" y2="319.5938"/><rect fill="#FEFECE" filter="url(#fvdtof4rtqolo)" height="35.0938" style="stroke:#A80036;stroke-width:1.5;" width="57" x="438.5" y="300.5"/><text fill="#000000" font-family="sans-serif" font-size="12" lengthAdjust="spacing" textLength="43" x="445.5" y="314.957">:Square</text><line style="stroke:#A80036;stroke-width:1.5;" x1="439.5" x2="494.5" y1="319.5938" y2="319.5938"/><rect fill="#FEFECE" filter="url(#fvdtof4rtqolo)" height="35.0938" style="stroke:#A80036;stroke-width:1.5;" width="57" x="530.5" y="300.5"/><text fill="#000000" font-family="sans-serif" font-size="12" lengthAdjust="spacing" textLength="43" x="537.5" y="314.957">:Square</text><line style="stroke:#A80036;stroke-width:1.5;" x1="531.5" x2="586.5" y1="319.5938" y2="319.5938"/><rect fill="#FEFECE" filter="url(#fvdtof4rtqolo)" height="35.0938" style="stroke:#A80036;stroke-width:1.5;" width="57" x="346.5" y="412.5"/><text fill="#000000" font-family="sans-serif" font-size="12" lengthAdjust="spacing" textLength="43" x="353.5" y="426.957">:Square</text><line style="stroke:#A80036;stroke-width:1.5;" x1="347.5" x2="402.5" y1="431.5938" y2="431.5938"/><rect fill="#FEFECE" filter="url(#fvdtof4rtqolo)" height="35.0938" style="stroke:#A80036;stroke-width:1.5;" width="57" x="438.5" y="412.5"/><text fill="#000000" font-family="sans-serif" font-size="12" lengthAdjust="spacing" textLength="43" x="445.5" y="426.957">:Square</text><line style="stroke:#A80036;stroke-width:1.5;" x1="439.5" x2="494.5" y1="431.5938" y2="431.5938"/><rect fill="#FEFECE" filter="url(#fvdtof4rtqolo)" height="35.0938" style="stroke:#A80036;stroke-width:1.5;" width="57" x="530.5" y="412.5"/><text fill="#000000" font-family="sans-serif" font-size="12" lengthAdjust="spacing" textLength="43" x="537.5" y="426.957">:Square</text><line style="stroke:#A80036;stroke-width:1.5;" x1="531.5" x2="586.5" y1="431.5938" y2="431.5938"/><rect fill="#FEFECE" filter="url(#fvdtof4rtqolo)" height="52.25" style="stroke:#A80036;stroke-width:1.5;" width="78" x="623" y="292"/><text fill="#000000" font-family="sans-serif" font-size="12" lengthAdjust="spacing" textLength="64" x="630" y="306.457">:Coordinate</text><line style="stroke:#A80036;stroke-width:1.5;" x1="624" x2="700" y1="311.0938" y2="311.0938"/><text fill="#000000" font-family="sans-serif" font-size="10" lengthAdjust="spacing" textLength="34" x="629" y="325.4746">row = 1</text><text fill="#000000" font-family="sans-serif" font-size="10" lengthAdjust="spacing" textLength="54" x="629" y="338.0527">column = 1</text><rect fill="#FEFECE" filter="url(#fvdtof4rtqolo)" height="52.25" style="stroke:#A80036;stroke-width:1.5;" width="78" x="736" y="292"/><text fill="#000000" font-family="sans-serif" font-size="12" lengthAdjust="spacing" textLength="64" x="743" y="306.457">:Coordinate</text><line style="stroke:#A80036;stroke-width:1.5;" x1="737" x2="813" y1="311.0938" y2="311.0938"/><text fill="#000000" font-family="sans-serif" font-size="10" lengthAdjust="spacing" textLength="34" x="742" y="325.4746">row = 1</text><text fill="#000000" font-family="sans-serif" font-size="10" lengthAdjust="spacing" textLength="54" x="742" y="338.0527">column = 2</text><rect fill="#FEFECE" filter="url(#fvdtof4rtqolo)" height="52.25" style="stroke:#A80036;stroke-width:1.5;" width="78" x="849" y="292"/><text fill="#000000" font-family="sans-serif" font-size="12" lengthAdjust="spacing" textLength="64" x="856" y="306.457">:Coordinate</text><line style="stroke:#A80036;stroke-width:1.5;" x1="850" x2="926" y1="311.0938" y2="311.0938"/><text fill="#000000" font-family="sans-serif" font-size="10" lengthAdjust="spacing" textLength="34" x="855" y="325.4746">row = 1</text><text fill="#000000" font-family="sans-serif" font-size="10" lengthAdjust="spacing" textLength="54" x="855" y="338.0527">column = 3</text><rect fill="#FEFECE" filter="url(#fvdtof4rtqolo)" height="52.25" style="stroke:#A80036;stroke-width:1.5;" width="78" x="7" y="404"/><text fill="#000000" font-family="sans-serif" font-size="12" lengthAdjust="spacing" textLength="64" x="14" y="418.457">:Coordinate</text><line style="stroke:#A80036;stroke-width:1.5;" x1="8" x2="84" y1="423.0938" y2="423.0938"/><text fill="#000000" font-family="sans-serif" font-size="10" lengthAdjust="spacing" textLength="34" x="13" y="437.4746">row = 2</text><text fill="#000000" font-family="sans-serif" font-size="10" lengthAdjust="spacing" textLength="54" x="13" y="450.0527">column = 1</text><rect fill="#FEFECE" filter="url(#fvdtof4rtqolo)" height="52.25" style="stroke:#A80036;stroke-width:1.5;" width="78" x="120" y="404"/><text fill="#000000" font-family="sans-serif" font-size="12" lengthAdjust="spacing" textLength="64" x="127" y="418.457">:Coordinate</text><line style="stroke:#A80036;stroke-width:1.5;" x1="121" x2="197" y1="423.0938" y2="423.0938"/><text fill="#000000" font-family="sans-serif" font-size="10" lengthAdjust="spacing" textLength="34" x="126" y="437.4746">row = 2</text><text fill="#000000" font-family="sans-serif" font-size="10" lengthAdjust="spacing" textLength="54" x="126" y="450.0527">column = 2</text><rect fill="#FEFECE" filter="url(#fvdtof4rtqolo)" height="52.25" style="stroke:#A80036;stroke-width:1.5;" width="78" x="233" y="404"/><text fill="#000000" font-family="sans-serif" font-size="12" lengthAdjust="spacing" textLength="64" x="240" y="418.457">:Coordinate</text><line style="stroke:#A80036;stroke-width:1.5;" x1="234" x2="310" y1="423.0938" y2="423.0938"/><text fill="#000000" font-family="sans-serif" font-size="10" lengthAdjust="spacing" textLength="34" x="239" y="437.4746">row = 2</text><text fill="#000000" font-family="sans-serif" font-size="10" lengthAdjust="spacing" textLength="54" x="239" y="450.0527">column = 3</text><rect fill="#FEFECE" filter="url(#fvdtof4rtqolo)" height="52.25" style="stroke:#A80036;stroke-width:1.5;" width="78" x="315" y="516"/><text fill="#000000" font-family="sans-serif" font-size="12" lengthAdjust="spacing" textLength="64" x="322" y="530.457">:Coordinate</text><line style="stroke:#A80036;stroke-width:1.5;" x1="316" x2="392" y1="535.0938" y2="535.0938"/><text fill="#000000" font-family="sans-serif" font-size="10" lengthAdjust="spacing" textLength="34" x="321" y="549.4746">row = 3</text><text fill="#000000" font-family="sans-serif" font-size="10" lengthAdjust="spacing" textLength="54" x="321" y="562.0527">column = 1</text><rect fill="#FEFECE" filter="url(#fvdtof4rtqolo)" height="52.25" style="stroke:#A80036;stroke-width:1.5;" width="78" x="428" y="516"/><text fill="#000000" font-family="sans-serif" font-size="12" lengthAdjust="spacing" textLength="64" x="435" y="530.457">:Coordinate</text><line style="stroke:#A80036;stroke-width:1.5;" x1="429" x2="505" y1="535.0938" y2="535.0938"/><text fill="#000000" font-family="sans-serif" font-size="10" lengthAdjust="spacing" textLength="34" x="434" y="549.4746">row = 3</text><text fill="#000000" font-family="sans-serif" font-size="10" lengthAdjust="spacing" textLength="54" x="434" y="562.0527">column = 2</text><rect fill="#FEFECE" filter="url(#fvdtof4rtqolo)" height="52.25" style="stroke:#A80036;stroke-width:1.5;" width="78" x="541" y="516"/><text fill="#000000" font-family="sans-serif" font-size="12" lengthAdjust="spacing" textLength="64" x="548" y="530.457">:Coordinate</text><line style="stroke:#A80036;stroke-width:1.5;" x1="542" x2="618" y1="535.0938" y2="535.0938"/><text fill="#000000" font-family="sans-serif" font-size="10" lengthAdjust="spacing" textLength="34" x="547" y="549.4746">row = 3</text><text fill="#000000" font-family="sans-serif" font-size="10" lengthAdjust="spacing" textLength="54" x="547" y="562.0527">column = 3</text><rect fill="#FEFECE" filter="url(#fvdtof4rtqolo)" height="35.0938" style="stroke:#A80036;stroke-width:1.5;" width="74" x="430" y="7"/><text fill="#000000" font-family="sans-serif" font-size="12" lengthAdjust="spacing" textLength="60" x="437" y="21.457">:TicTacToe</text><line style="stroke:#A80036;stroke-width:1.5;" x1="431" x2="503" y1="26.0938" y2="26.0938"/><rect fill="#FEFECE" filter="url(#fvdtof4rtqolo)" height="35.0938" style="stroke:#A80036;stroke-width:1.5;" width="50" x="442" y="102"/><text fill="#000000" font-family="sans-serif" font-size="12" lengthAdjust="spacing" textLength="36" x="449" y="116.457">:Board</text><line style="stroke:#A80036;stroke-width:1.5;" x1="443" x2="491" y1="121.0938" y2="121.0938"/><!--MD5=[a737d2231371e146ba098899a67f3b67]
link TicTacToe to Board--><path codeLine="59" d="M467,54.13 C467,54.13 467,77.95 467,88.65 " fill="none" id="TicTacToe-Board" style="stroke:#A80036;stroke-width:1.0;"/><polygon fill="#A80036" points="467,101.7,471,92.7,467,96.7,463,92.7,467,101.7" style="stroke:#A80036;stroke-width:1.0;"/><line style="stroke:#A80036;stroke-width:1.0;" x1="467" x2="467" y1="96.7" y2="88.7"/><polygon fill="#A80036" points="467,42.13,463,48.13,467,54.13,471,48.13,467,42.13" style="stroke:#A80036;stroke-width:1.0;"/><!--MD5=[9f00f453158db019cc737f926bf9b344]
link Board to Square11--><path codeLine="61" d="M450.55,137.13 C435.08,152.77 411.87,176.23 395.26,193.02 " fill="none" id="Board-to-Square11" style="stroke:#A80036;stroke-width:1.0;"/><polygon fill="#A80036" points="391.62,196.7,400.7908,193.1088,395.134,193.1431,395.0998,187.4864,391.62,196.7" style="stroke:#A80036;stroke-width:1.0;"/><!--MD5=[265f7b6f317decc132767c5f623ca0bc]
link Board to Square12--><path codeLine="62" d="M467,137.13 C467,152.24 467,174.66 467,191.3 " fill="none" id="Board-to-Square12" style="stroke:#A80036;stroke-width:1.0;"/><polygon fill="#A80036" points="467,196.7,471,187.7,467,191.7,463,187.7,467,196.7" style="stroke:#A80036;stroke-width:1.0;"/><!--MD5=[a41aa9ba3b884d8d882a9db495d28b5f]
link Board to Square13--><path codeLine="63" d="M483.45,137.13 C498.92,152.77 522.13,176.23 538.74,193.02 " fill="none" id="Board-to-Square13" style="stroke:#A80036;stroke-width:1.0;"/><polygon fill="#A80036" points="542.38,196.7,538.9002,187.4864,538.866,193.1431,533.2092,193.1088,542.38,196.7" style="stroke:#A80036;stroke-width:1.0;"/><!--MD5=[2a48127550db072d047e28db107daefc]
link Board to Square21--><path codeLine="64" d="M441.66,122.72 C389.27,127.9 271.91,142.68 248,173 C231.76,193.59 235.65,208.87 248,232 C267.63,268.77 311,292.42 341.57,305.2 " fill="none" id="Board-to-Square21" style="stroke:#A80036;stroke-width:1.0;"/><polygon fill="#A80036" points="346.36,307.16,339.5532,300.0419,341.7345,305.2613,336.5152,307.4427,346.36,307.16" style="stroke:#A80036;stroke-width:1.0;"/><!--MD5=[ad753e41380b62aa8c2dbe48e4770887]
link Board to Square22--><path codeLine="65" d="M441.99,123.3 C393.23,129.33 288.38,145.29 267,173 C250.98,193.76 252.2,210.35 267,232 C308.45,292.64 354.37,261.07 421,292 C425.12,293.91 429.38,296.03 433.57,298.2 " fill="none" id="Board-to-Square22" style="stroke:#A80036;stroke-width:1.0;"/><polygon fill="#A80036" points="438.08,300.57,431.9756,292.841,433.6545,298.243,428.2525,299.9219,438.08,300.57" style="stroke:#A80036;stroke-width:1.0;"/><!--MD5=[7da35c0c2c3faed87a2d1aaa1ed6e28c]
link Board to Square23--><path codeLine="66" d="M441.94,121.85 C409.6,125.1 354.46,136.07 329,173 C314.12,194.59 313.6,210.78 329,232 C379.52,301.61 433.99,257.99 513,292 C517.17,293.79 521.46,295.84 525.67,297.97 " fill="none" id="Board-to-Square23" style="stroke:#A80036;stroke-width:1.0;"/><polygon fill="#A80036" points="530.2,300.31,524.0464,292.6202,525.7597,298.0113,520.3686,299.7246,530.2,300.31" style="stroke:#A80036;stroke-width:1.0;"/><!--MD5=[5070af6906697e6c9c700f9ddd6704a8]
link Board to Square31--><path codeLine="67" d="M492.37,122.77 C608.99,134.1 1082.21,190.18 945,344 C866.98,431.46 532.76,368.7 421,404 C416.06,405.56 411.04,407.67 406.22,409.99 " fill="none" id="Board-to-Square31" style="stroke:#A80036;stroke-width:1.0;"/><polygon fill="#A80036" points="401.47,412.39,411.3069,411.9051,405.9335,410.1368,407.7019,404.7635,401.47,412.39" style="stroke:#A80036;stroke-width:1.0;"/><!--MD5=[1a6312cdfa05f693b263f27f42f20b15]
link Board to Square32--><path codeLine="68" d="M492.17,121.01 C593.91,123.33 971.06,134.49 1006,173 C1057.07,229.28 1056.39,287.11 1006,344 C932.83,426.62 618.12,370.39 513,404 C508.07,405.58 503.05,407.69 498.23,410.03 " fill="none" id="Board-to-Square32" style="stroke:#A80036;stroke-width:1.0;"/><polygon fill="#A80036" points="493.49,412.42,503.3263,411.9225,497.9506,410.1611,499.712,404.7854,493.49,412.42" style="stroke:#A80036;stroke-width:1.0;"/><!--MD5=[981ae21fb6fdb24b10d83f99158e49a7]
link Board to Square33--><path codeLine="69" d="M492.33,120.82 C599.39,122.44 1010.93,131.34 1049,173 C1065.76,191.34 1075.69,310.49 1047,344 C987.86,413.07 693.44,426.03 592.8,428.45 " fill="none" id="Board-to-Square33" style="stroke:#A80036;stroke-width:1.0;"/><polygon fill="#A80036" points="587.58,428.57,596.6691,432.3633,592.5787,428.4557,596.4862,424.3654,587.58,428.57" style="stroke:#A80036;stroke-width:1.0;"/><!--MD5=[094fd51dec5cb6758b0902982cbf7950]
link Square11 to Coordinate11--><path codeLine="71" d="M414.9866,229.9118 C414.9866,229.9118 419.42,231.46 421,232 C501.96,259.79 523.95,261.7 604,292 C606.21,292.84 608.46,293.71 610.73,294.61 " fill="none" id="Square11-Coordinate11" style="stroke:#A80036;stroke-width:1.0;"/><polygon fill="#A80036" points="622.88,299.57,616.0613,292.4633,618.2514,297.679,613.0357,299.869,622.88,299.57" style="stroke:#A80036;stroke-width:1.0;"/><line style="stroke:#A80036;stroke-width:1.0;" x1="618.2514" x2="610.85" y1="297.679" y2="294.66"/><polygon fill="#A80036" points="403.67,225.92,407.9977,231.6881,414.9866,229.9118,410.6589,224.1437,403.67,225.92" style="stroke:#A80036;stroke-width:1.0;"/><!--MD5=[ab27c5eee5da0929e420fc712adbbb26]
link Square12 to Coordinate12--><path codeLine="72" d="M506.9627,229.9872 C506.9627,229.9872 511.41,231.48 513,232 C603.7,261.45 629.48,259.15 719,292 C720.55,292.57 722.11,293.16 723.68,293.77 " fill="none" id="Square12-Coordinate12" style="stroke:#A80036;stroke-width:1.0;"/><polygon fill="#A80036" points="735.81,298.7,728.9811,291.603,731.1787,296.8156,725.9661,299.0131,735.81,298.7" style="stroke:#A80036;stroke-width:1.0;"/><line style="stroke:#A80036;stroke-width:1.0;" x1="731.1787" x2="723.765" y1="296.8156" y2="293.795"/><polygon fill="#A80036" points="495.62,226.07,499.9856,231.8095,506.9627,229.9872,502.5971,224.2477,495.62,226.07" style="stroke:#A80036;stroke-width:1.0;"/><!--MD5=[ce6232b1a7de4998175bff455bbfb9fd]
link Square13 to Coordinate13--><path codeLine="73" d="M599.4028,224.863 C599.4028,224.863 751.55,262.95 832,292 C833.55,292.56 835.12,293.14 836.69,293.74 " fill="none" id="Square13-Coordinate13" style="stroke:#A80036;stroke-width:1.0;"/><polygon fill="#A80036" points="848.83,298.64,841.9838,291.5598,844.1941,296.767,838.9869,298.9773,848.83,298.64" style="stroke:#A80036;stroke-width:1.0;"/><line style="stroke:#A80036;stroke-width:1.0;" x1="844.1941" x2="836.775" y1="296.767" y2="293.78"/><polygon fill="#A80036" points="587.73,222.08,592.6387,227.3624,599.4028,224.863,594.4941,219.5806,587.73,222.08" style="stroke:#A80036;stroke-width:1.0;"/><!--MD5=[5852f88f6dddd41b26308efcb764cc54]
link Square21 to Coordinate21--><path codeLine="74" d="M334.7623,329.912 C334.7623,329.912 182.71,373.54 102,404 C100.46,404.58 98.9,405.18 97.33,405.8 " fill="none" id="Square21-Coordinate21" style="stroke:#A80036;stroke-width:1.0;"/><polygon fill="#A80036" points="85.22,410.79,95.0652,411.059,89.8428,408.8849,92.017,403.6625,85.22,410.79" style="stroke:#A80036;stroke-width:1.0;"/><line style="stroke:#A80036;stroke-width:1.0;" x1="89.8428" x2="97.245" y1="408.8849" y2="405.84"/><polygon fill="#A80036" points="346.33,326.72,339.4822,324.4601,334.7623,329.912,341.6102,332.1719,346.33,326.72" style="stroke:#A80036;stroke-width:1.0;"/><!--MD5=[2f77f89dd4fd8aa9197ae7bcfe08a3d1]
link Square22 to Coordinate22--><path codeLine="75" d="M427.9906,340.8938 C427.9906,340.8938 422.93,343.21 421,344 C332.82,380.31 304.52,371.15 215,404 C213.45,404.57 211.89,405.16 210.32,405.77 " fill="none" id="Square22-Coordinate22" style="stroke:#A80036;stroke-width:1.0;"/><polygon fill="#A80036" points="198.19,410.7,208.0339,411.0131,202.8213,408.8156,205.0189,403.603,198.19,410.7" style="stroke:#A80036;stroke-width:1.0;"/><line style="stroke:#A80036;stroke-width:1.0;" x1="202.8213" x2="210.235" y1="408.8156" y2="405.795"/><polygon fill="#A80036" points="438.75,335.58,431.5991,334.6504,427.9906,340.8938,435.1416,341.8233,438.75,335.58" style="stroke:#A80036;stroke-width:1.0;"/><!--MD5=[b02370306a447e34a2c7b78048065bbb]
link Square23 to Coordinate23--><path codeLine="76" d="M519.4516,341.036 C519.4516,341.036 514.77,343.23 513,344 C434.41,377.91 410.05,373.7 330,404 C327.79,404.84 325.54,405.71 323.27,406.61 " fill="none" id="Square23-Coordinate23" style="stroke:#A80036;stroke-width:1.0;"/><polygon fill="#A80036" points="311.12,411.57,320.9643,411.869,315.7486,409.679,317.9387,404.4633,311.12,411.57" style="stroke:#A80036;stroke-width:1.0;"/><line style="stroke:#A80036;stroke-width:1.0;" x1="315.7486" x2="323.15" y1="409.679" y2="406.66"/><polygon fill="#A80036" points="530.19,335.68,523.0355,334.7785,519.4516,341.036,526.6061,341.9375,530.19,335.68" style="stroke:#A80036;stroke-width:1.0;"/><!--MD5=[dc01c2d16fcb2427f6a9a7949a207b43]
link Square31 to Coordinate31--><path codeLine="77" d="M369.5556,459.4963 C369.5556,459.4963 363.95,488.9 361.3,502.76 " fill="none" id="Square31-Coordinate31" style="stroke:#A80036;stroke-width:1.0;"/><polygon fill="#A80036" points="358.78,515.95,364.3996,507.8617,359.7193,511.039,356.542,506.3588,358.78,515.95" style="stroke:#A80036;stroke-width:1.0;"/><line style="stroke:#A80036;stroke-width:1.0;" x1="359.7193" x2="361.22" y1="511.039" y2="503.185"/><polygon fill="#A80036" points="371.81,447.71,366.754,452.8517,369.5556,459.4963,374.6116,454.3546,371.81,447.71" style="stroke:#A80036;stroke-width:1.0;"/><!--MD5=[ddc094be38da63e3fb056f9a1ab43589]
link Square32 to Coordinate32--><path codeLine="78" d="M467,459.71 C467,459.71 467,489.05 467,502.83 " fill="none" id="Square32-Coordinate32" style="stroke:#A80036;stroke-width:1.0;"/><polygon fill="#A80036" points="467,515.95,471,506.95,467,510.95,463,506.95,467,515.95" style="stroke:#A80036;stroke-width:1.0;"/><line style="stroke:#A80036;stroke-width:1.0;" x1="467" x2="467" y1="510.95" y2="502.95"/><polygon fill="#A80036" points="467,447.71,463,453.71,467,459.71,471,453.71,467,447.71" style="stroke:#A80036;stroke-width:1.0;"/><!--MD5=[45fee7e179397dc4fc1c457f49931fdd]
link Square33 to Coordinate33--><path codeLine="79" d="M564.4444,459.4963 C564.4444,459.4963 570.05,488.9 572.7,502.76 " fill="none" id="Square33-Coordinate33" style="stroke:#A80036;stroke-width:1.0;"/><polygon fill="#A80036" points="575.22,515.95,577.458,506.3588,574.2807,511.039,569.6004,507.8617,575.22,515.95" style="stroke:#A80036;stroke-width:1.0;"/><line style="stroke:#A80036;stroke-width:1.0;" x1="574.2807" x2="572.78" y1="511.039" y2="503.185"/><polygon fill="#A80036" points="562.19,447.71,559.3884,454.3546,564.4444,459.4963,567.246,452.8517,562.19,447.71" style="stroke:#A80036;stroke-width:1.0;"/><!--MD5=[13a5bfcd547bcca90bd72ebe5fcbc39e]
link Square11 to Square12--><!--MD5=[bc76116199aafd8295781c7dcab3176f]
link Square12 to Square13--><!--MD5=[c89ffb18fbb7b46681bd5913015ae5e3]
link Square21 to Square22--><!--MD5=[e010c8769b92a1a5952e305a724ea8e4]
link Square22 to Square23--><!--MD5=[f50abd7b4c3d728b1750fcedc3b0f127]
link Square31 to Square32--><!--MD5=[602970f58178e45676872601d2c7aa36]
link Square32 to Square33--><!--MD5=[0f6bfcf04e14b42cde8cbfcc74aaa622]
link Square11 to Square21--><!--MD5=[25839071d6f91f37be67e06b1ae5341a]
link Square12 to Square22--><!--MD5=[f622953a480c4fc89b837fd30211fa77]
link Square13 to Square23--><!--MD5=[a91b861c62fa236fffcb0f2237862284]
link Square21 to Square31--><!--MD5=[72223308d08a89680f2dbb886c02d26d]
link Square22 to Square32--><!--MD5=[090cfe2b176d307a1968440006917c83]
link Square23 to Square33--><!--MD5=[da99b0d0ed7975e3ebf6204cc93c97e6]
@startuml initialState

together {
    object ":Square" as Square11
    object ":Square" as Square12
    object ":Square" as Square13

    object ":Square" as Square21
    object ":Square" as Square22
    object ":Square" as Square23

    object ":Square" as Square31
    object ":Square" as Square32
    object ":Square" as Square33

}

object ":Coordinate" as Coordinate11 {
    row = 1
    column = 1
}
object ":Coordinate" as Coordinate12 {
    row = 1
    column = 2
}
object ":Coordinate" as Coordinate13 {
    row = 1
    column = 3
}

object ":Coordinate" as Coordinate21 {
    row = 2
    column = 1
}
object ":Coordinate" as Coordinate22 {
    row = 2
    column = 2
}
object ":Coordinate" as Coordinate23 {
    row = 2
    column = 3
}

object ":Coordinate" as Coordinate31 {
    row = 3
    column = 1
}
object ":Coordinate" as Coordinate32 {
    row = 3
    column = 2
}
object ":Coordinate" as Coordinate33 {
    row = 3
    column = 3
}

object ":TicTacToe" as TicTacToe
object ":Board" as Board

TicTacToe *-down-> Board

Board - ->  Square11
Board - ->  Square12
Board - ->  Square13
Board - ->  Square21
Board - ->  Square22
Board - ->  Square23
Board - ->  Square31
Board - ->  Square32
Board - ->  Square33

Square11 *-down-> Coordinate11
Square12 *-down-> Coordinate12
Square13 *-down-> Coordinate13
Square21 *-down-> Coordinate21
Square22 *-down-> Coordinate22
Square23 *-down-> Coordinate23
Square31 *-down-> Coordinate31
Square32 *-down-> Coordinate32
Square33 *-down-> Coordinate33

Square11 -[hidden]right-> Square12
Square12 -[hidden]right-> Square13
Square21 -[hidden]right-> Square22
Square22 -[hidden]right-> Square23
Square31 -[hidden]right-> Square32
Square32 -[hidden]right-> Square33

Square11 -[hidden]down-> Square21
Square12 -[hidden]down-> Square22
Square13 -[hidden]down-> Square23

Square21 -[hidden]down-> Square31
Square22 -[hidden]down-> Square32
Square23 -[hidden]down-> Square33

@enduml

PlantUML version 1.2021.16(Wed Dec 08 18:25:22 CET 2021)
(GPL source distribution)
Java Runtime: Java(TM) SE Runtime Environment
JVM: Java HotSpot(TM) Client VM
Default Encoding: Cp1252
Language: es
Country: ES
--></g></svg>