<?xml version="1.0" encoding="UTF-8" standalone="no"?><svg xmlns="http://www.w3.org/2000/svg" xmlns:xlink="http://www.w3.org/1999/xlink" contentScriptType="application/ecmascript" contentStyleType="text/css" height="180px" preserveAspectRatio="none" style="width:214px;height:180px;background:#FFFFFF;" version="1.1" viewBox="0 0 214 180" width="214px" zoomAndPan="magnify"><defs><filter height="300%" id="f1xd51hmmhm2ly" width="300%" x="-1" y="-1"><feGaussianBlur result="blurOut" stdDeviation="2.0"/><feColorMatrix in="blurOut" result="blurOut2" type="matrix" values="0 0 0 0 0 0 0 0 0 0 0 0 0 0 0 0 0 0 .4 0"/><feOffset dx="4.0" dy="4.0" in="blurOut2" result="blurOut3"/><feBlend in="SourceGraphic" in2="blurOut3" mode="normal"/></filter></defs><g><!--MD5=[de2effd8dc5bf946a609466312d0f75f]
entity Player--><ellipse cx="26" cy="55.5" fill="#FEFECE" filter="url(#f1xd51hmmhm2ly)" rx="8" ry="8" style="stroke:#A80036;stroke-width:1.5;"/><path d="M26,63.5 L26,90.5 M13,71.5 L39,71.5 M26,90.5 L13,105.5 M26,90.5 L39,105.5 " fill="none" filter="url(#f1xd51hmmhm2ly)" style="stroke:#A80036;stroke-width:1.5;"/><text fill="#000000" font-family="sans-serif" font-size="14" lengthAdjust="spacing" textLength="40" x="6" y="125.5332">Player</text><ellipse cx="154.6985" cy="21.4517" fill="#FEFECE" filter="url(#f1xd51hmmhm2ly)" rx="32.6985" ry="15.4517" style="stroke:#A80036;stroke-width:1.5;"/><text fill="#000000" font-family="sans-serif" font-size="14" lengthAdjust="spacing" textLength="30" x="139.6985" y="25.1802">Start</text><ellipse cx="154.5772" cy="87.4517" fill="#FEFECE" filter="url(#f1xd51hmmhm2ly)" rx="30.5772" ry="15.4517" style="stroke:#A80036;stroke-width:1.5;"/><text fill="#000000" font-family="sans-serif" font-size="14" lengthAdjust="spacing" textLength="27" x="141.0772" y="91.1802">Play</text><ellipse cx="154.361" cy="153.4809" fill="#FEFECE" filter="url(#f1xd51hmmhm2ly)" rx="48.361" ry="15.4809" style="stroke:#A80036;stroke-width:1.5;"/><text fill="#000000" font-family="sans-serif" font-size="14" lengthAdjust="spacing" textLength="52" x="126.1681" y="157.8128">Resume</text><!--MD5=[39353cd92ba960c69c4d2a9385fee2c7]
link Player to Start--><path d="M46.21,77.48 C67.85,66.18 103.15,47.77 127.31,35.16 " fill="none" id="Player-to-Start" style="stroke:#A80036;stroke-width:1.0;"/><polygon fill="#A80036" points="131.99,32.73,122.1609,33.3533,127.5586,35.0458,125.8661,40.4435,131.99,32.73" style="stroke:#A80036;stroke-width:1.0;"/><!--MD5=[9a505df3ac87f02537cb93af365c2474]
link Player to Play--><path d="M46.21,87.5 C65.36,87.5 95.2,87.5 118.55,87.5 " fill="none" id="Player-to-Play" style="stroke:#A80036;stroke-width:1.0;"/><polygon fill="#A80036" points="123.73,87.5,114.73,83.5,118.73,87.5,114.73,91.5,123.73,87.5" style="stroke:#A80036;stroke-width:1.0;"/><!--MD5=[5fec2ab2a197ce562aec9d83f689b0ce]
link Player to Resume--><path d="M46.21,97.52 C66.82,108.27 99.8,125.48 123.76,137.99 " fill="none" id="Player-to-Resume" style="stroke:#A80036;stroke-width:1.0;"/><polygon fill="#A80036" points="128.43,140.42,122.3061,132.7065,123.9986,138.1042,118.6009,139.7967,128.43,140.42" style="stroke:#A80036;stroke-width:1.0;"/><!--MD5=[088b167f57c8fd55d2fd9dd91e73affb]
@startuml actorsUseCaseDiagram
left to right direction
actor Player
usecase Start
usecase Play
usecase Resume

Player - -> Start
Player - -> Play
Player - -> Resume
@enduml

PlantUML version 1.2021.16(Wed Dec 08 18:25:22 CET 2021)
(GPL source distribution)
Java Runtime: Java(TM) SE Runtime Environment
JVM: Java HotSpot(TM) Client VM
Default Encoding: Cp1252
Language: es
Country: ES
--></g></svg>