<?xml version="1.0" encoding="UTF-8" standalone="no"?><svg xmlns="http://www.w3.org/2000/svg" xmlns:xlink="http://www.w3.org/1999/xlink" contentScriptType="application/ecmascript" contentStyleType="text/css" height="792px" preserveAspectRatio="none" style="width:204px;height:792px;background:#FFFFFF;" version="1.1" viewBox="0 0 204 792" width="204px" zoomAndPan="magnify"><defs><filter height="300%" id="f1tf52vvidllse" width="300%" x="-1" y="-1"><feGaussianBlur result="blurOut" stdDeviation="2.0"/><feColorMatrix in="blurOut" result="blurOut2" type="matrix" values="0 0 0 0 0 0 0 0 0 0 0 0 0 0 0 0 0 0 .4 0"/><feOffset dx="4.0" dy="4.0" in="blurOut2" result="blurOut3"/><feBlend in="SourceGraphic" in2="blurOut3" mode="normal"/></filter></defs><g><ellipse cx="93" cy="20" fill="#000000" filter="url(#f1tf52vvidllse)" rx="10" ry="10" style="stroke:none;stroke-width:1.0;"/><rect fill="#FEFECE" filter="url(#f1tf52vvidllse)" height="35.0938" rx="12.5" ry="12.5" style="stroke:#A80036;stroke-width:1.5;" width="47" x="69.5" y="94"/><text fill="#000000" font-family="sans-serif" font-size="12" lengthAdjust="spacing" textLength="27" x="79.5" y="116.457">put X</text><rect fill="#FEFECE" filter="url(#f1tf52vvidllse)" height="35.0938" rx="12.5" ry="12.5" style="stroke:#A80036;stroke-width:1.5;" width="49" x="68.5" y="156.5938"/><text fill="#000000" font-family="sans-serif" font-size="12" lengthAdjust="spacing" textLength="29" x="78.5" y="179.0508">put O</text><polygon fill="#FEFECE" filter="url(#f1tf52vvidllse)" points="93,50,105,62,93,74,81,62,93,50" style="stroke:#A80036;stroke-width:1.5;"/><polygon fill="#FEFECE" filter="url(#f1tf52vvidllse)" points="32,211.6875,154,211.6875,166,223.6875,154,235.6875,32,235.6875,20,223.6875,32,211.6875" style="stroke:#A80036;stroke-width:1.5;"/><text fill="#000000" font-family="sans-serif" font-size="11" lengthAdjust="spacing" textLength="122" x="32" y="228.1885">areThere two X on board</text><rect fill="#FEFECE" filter="url(#f1tf52vvidllse)" height="35.0938" rx="12.5" ry="12.5" style="stroke:#A80036;stroke-width:1.5;" width="47" x="69.5" y="255.6875"/><text fill="#000000" font-family="sans-serif" font-size="12" lengthAdjust="spacing" textLength="27" x="79.5" y="278.1445">put X</text><rect fill="#FEFECE" filter="url(#f1tf52vvidllse)" height="35.0938" rx="12.5" ry="12.5" style="stroke:#A80036;stroke-width:1.5;" width="49" x="68.5" y="359.6992"/><text fill="#000000" font-family="sans-serif" font-size="12" lengthAdjust="spacing" textLength="29" x="78.5" y="382.1563">put O</text><rect fill="#FEFECE" filter="url(#f1tf52vvidllse)" height="35.0938" rx="12.5" ry="12.5" style="stroke:#A80036;stroke-width:1.5;" width="47" x="69.5" y="471.7119"/><text fill="#000000" font-family="sans-serif" font-size="12" lengthAdjust="spacing" textLength="27" x="79.5" y="494.1689">put X</text><rect fill="#FEFECE" filter="url(#f1tf52vvidllse)" height="35.0938" rx="12.5" ry="12.5" style="stroke:#A80036;stroke-width:1.5;" width="49" x="68.5" y="588.1768"/><text fill="#000000" font-family="sans-serif" font-size="12" lengthAdjust="spacing" textLength="29" x="78.5" y="610.6338">put O</text><polygon fill="#FEFECE" filter="url(#f1tf52vvidllse)" points="63,539.2588,123,539.2588,135,551.2588,123,563.2588,63,563.2588,51,551.2588,63,539.2588" style="stroke:#A80036;stroke-width:1.5;"/><text fill="#000000" font-family="sans-serif" font-size="11" lengthAdjust="spacing" textLength="12" x="97" y="574.6777">no</text><text fill="#000000" font-family="sans-serif" font-size="11" lengthAdjust="spacing" textLength="60" x="63" y="555.7598">!isTicTacToe</text><text fill="#000000" font-family="sans-serif" font-size="11" lengthAdjust="spacing" textLength="18" x="135" y="548.8418">yes</text><polygon fill="#FEFECE" filter="url(#f1tf52vvidllse)" points="93,643.2705,105,655.2705,93,667.2705,81,655.2705,93,643.2705" style="stroke:#A80036;stroke-width:1.5;"/><polygon fill="#FEFECE" filter="url(#f1tf52vvidllse)" points="63,414.793,123,414.793,135,426.793,123,438.793,63,438.793,51,426.793,63,414.793" style="stroke:#A80036;stroke-width:1.5;"/><text fill="#000000" font-family="sans-serif" font-size="11" lengthAdjust="spacing" textLength="18" x="97" y="450.2119">yes</text><text fill="#000000" font-family="sans-serif" font-size="11" lengthAdjust="spacing" textLength="60" x="63" y="431.2939">!isTicTacToe</text><text fill="#000000" font-family="sans-serif" font-size="11" lengthAdjust="spacing" textLength="12" x="39" y="424.376">no</text><polygon fill="#FEFECE" filter="url(#f1tf52vvidllse)" points="61,310.7813,125,310.7813,137,322.7813,125,334.7813,61,334.7813,49,322.7813,61,310.7813" style="stroke:#A80036;stroke-width:1.5;"/><text fill="#000000" font-family="sans-serif" font-size="11" lengthAdjust="spacing" textLength="12" x="97" y="346.2002">no</text><text fill="#000000" font-family="sans-serif" font-size="11" lengthAdjust="spacing" textLength="64" x="61" y="327.2822">isTicTacToe?</text><text fill="#000000" font-family="sans-serif" font-size="11" lengthAdjust="spacing" textLength="18" x="137" y="320.3643">yes</text><polygon fill="#FEFECE" filter="url(#f1tf52vvidllse)" points="93,709.2705,105,721.2705,93,733.2705,81,721.2705,93,709.2705" style="stroke:#A80036;stroke-width:1.5;"/><ellipse cx="93" cy="764.2705" fill="#FFFFFF" filter="url(#f1tf52vvidllse)" rx="11" ry="11" style="stroke:#000000;stroke-width:1.0;"/><ellipse cx="93" cy="764.2705" fill="#000000" rx="6" ry="6" style="stroke:#7F7F7F;stroke-width:1.0;"/><line style="stroke:#A80036;stroke-width:1.5;" x1="93" x2="93" y1="129.0938" y2="156.5938"/><polygon fill="#A80036" points="89,146.5938,93,156.5938,97,146.5938,93,150.5938" style="stroke:#A80036;stroke-width:1.0;"/><line style="stroke:#A80036;stroke-width:1.5;" x1="93" x2="93" y1="74" y2="94"/><polygon fill="#A80036" points="89,84,93,94,97,84,93,88" style="stroke:#A80036;stroke-width:1.0;"/><line style="stroke:#A80036;stroke-width:1.5;" x1="166" x2="178" y1="223.6875" y2="223.6875"/><polygon fill="#A80036" points="174,149.0938,178,139.0938,182,149.0938,178,145.0938" style="stroke:#A80036;stroke-width:1.5;"/><line style="stroke:#A80036;stroke-width:1.5;" x1="178" x2="178" y1="62" y2="223.6875"/><line style="stroke:#A80036;stroke-width:1.5;" x1="178" x2="105" y1="62" y2="62"/><polygon fill="#A80036" points="115,58,105,62,115,66,111,62" style="stroke:#A80036;stroke-width:1.0;"/><line style="stroke:#A80036;stroke-width:1.5;" x1="93" x2="93" y1="191.6875" y2="211.6875"/><polygon fill="#A80036" points="89,201.6875,93,211.6875,97,201.6875,93,205.6875" style="stroke:#A80036;stroke-width:1.0;"/><line style="stroke:#A80036;stroke-width:1.5;" x1="93" x2="93" y1="30" y2="50"/><polygon fill="#A80036" points="89,40,93,50,97,40,93,44" style="stroke:#A80036;stroke-width:1.0;"/><line style="stroke:#A80036;stroke-width:1.5;" x1="93" x2="93" y1="235.6875" y2="255.6875"/><polygon fill="#A80036" points="89,245.6875,93,255.6875,97,245.6875,93,249.6875" style="stroke:#A80036;stroke-width:1.0;"/><line style="stroke:#A80036;stroke-width:1.5;" x1="93" x2="93" y1="563.2588" y2="588.1768"/><polygon fill="#A80036" points="89,578.1768,93,588.1768,97,578.1768,93,582.1768" style="stroke:#A80036;stroke-width:1.0;"/><line style="stroke:#A80036;stroke-width:1.5;" x1="135" x2="147" y1="551.2588" y2="551.2588"/><polygon fill="#A80036" points="143,595.7236,147,605.7236,151,595.7236,147,599.7236" style="stroke:#A80036;stroke-width:1.5;"/><line style="stroke:#A80036;stroke-width:1.5;" x1="147" x2="147" y1="551.2588" y2="655.2705"/><line style="stroke:#A80036;stroke-width:1.5;" x1="147" x2="105" y1="655.2705" y2="655.2705"/><polygon fill="#A80036" points="115,651.2705,105,655.2705,115,659.2705,111,655.2705" style="stroke:#A80036;stroke-width:1.0;"/><line style="stroke:#A80036;stroke-width:1.5;" x1="93" x2="93" y1="623.2705" y2="643.2705"/><polygon fill="#A80036" points="89,633.2705,93,643.2705,97,633.2705,93,637.2705" style="stroke:#A80036;stroke-width:1.0;"/><line style="stroke:#A80036;stroke-width:1.5;" x1="93" x2="93" y1="506.8057" y2="539.2588"/><polygon fill="#A80036" points="89,529.2588,93,539.2588,97,529.2588,93,533.2588" style="stroke:#A80036;stroke-width:1.0;"/><line style="stroke:#A80036;stroke-width:1.5;" x1="93" x2="93" y1="438.793" y2="471.7119"/><polygon fill="#A80036" points="89,461.7119,93,471.7119,97,461.7119,93,465.7119" style="stroke:#A80036;stroke-width:1.0;"/><line style="stroke:#A80036;stroke-width:1.5;" x1="93" x2="93" y1="667.2705" y2="677.2705"/><line style="stroke:#A80036;stroke-width:1.5;" x1="93" x2="159" y1="677.2705" y2="677.2705"/><polygon fill="#A80036" points="155,561.7588,159,551.7588,163,561.7588,159,557.7588" style="stroke:#A80036;stroke-width:1.5;"/><line style="stroke:#A80036;stroke-width:1.5;" x1="159" x2="159" y1="426.793" y2="677.2705"/><line style="stroke:#A80036;stroke-width:1.5;" x1="159" x2="135" y1="426.793" y2="426.793"/><polygon fill="#A80036" points="145,422.793,135,426.793,145,430.793,141,426.793" style="stroke:#A80036;stroke-width:1.0;"/><line style="stroke:#A80036;stroke-width:1.5;" x1="51" x2="39" y1="426.793" y2="426.793"/><polygon fill="#A80036" points="35,547.7588,39,557.7588,43,547.7588,39,551.7588" style="stroke:#A80036;stroke-width:1.5;"/><line style="stroke:#A80036;stroke-width:1.5;" x1="39" x2="39" y1="426.793" y2="689.2705"/><line style="stroke:#A80036;stroke-width:1.5;" x1="39" x2="93" y1="689.2705" y2="689.2705"/><line style="stroke:#A80036;stroke-width:1.5;" x1="93" x2="93" y1="689.2705" y2="709.2705"/><polygon fill="#A80036" points="89,699.2705,93,709.2705,97,699.2705,93,703.2705" style="stroke:#A80036;stroke-width:1.0;"/><line style="stroke:#A80036;stroke-width:1.5;" x1="93" x2="93" y1="394.793" y2="414.793"/><polygon fill="#A80036" points="89,404.793,93,414.793,97,404.793,93,408.793" style="stroke:#A80036;stroke-width:1.0;"/><line style="stroke:#A80036;stroke-width:1.5;" x1="93" x2="93" y1="334.7813" y2="359.6992"/><polygon fill="#A80036" points="89,349.6992,93,359.6992,97,349.6992,93,353.6992" style="stroke:#A80036;stroke-width:1.0;"/><line style="stroke:#A80036;stroke-width:1.5;" x1="137" x2="169" y1="322.7813" y2="322.7813"/><polygon fill="#A80036" points="165,509.2588,169,519.2588,173,509.2588,169,513.2588" style="stroke:#A80036;stroke-width:1.5;"/><line style="stroke:#A80036;stroke-width:1.5;" x1="169" x2="169" y1="322.7813" y2="721.2705"/><line style="stroke:#A80036;stroke-width:1.5;" x1="169" x2="105" y1="721.2705" y2="721.2705"/><polygon fill="#A80036" points="115,717.2705,105,721.2705,115,725.2705,111,721.2705" style="stroke:#A80036;stroke-width:1.0;"/><line style="stroke:#A80036;stroke-width:1.5;" x1="93" x2="93" y1="290.7813" y2="310.7813"/><polygon fill="#A80036" points="89,300.7813,93,310.7813,97,300.7813,93,304.7813" style="stroke:#A80036;stroke-width:1.0;"/><line style="stroke:#A80036;stroke-width:1.5;" x1="93" x2="93" y1="733.2705" y2="753.2705"/><polygon fill="#A80036" points="89,743.2705,93,753.2705,97,743.2705,93,747.2705" style="stroke:#A80036;stroke-width:1.0;"/><!--MD5=[225f87f0eee4bc22b3e5e0faa0aa697a]
@startuml instructionsActivity

start
repeat
  :put X;
  :put O;
repeat while (areThere two X on board)
:put X;
if (isTicTacToe?) then (yes)
else (no)
  :put O;
  while (!isTicTacToe) is (yes)
    :put X;
    if (!isTicTacToe) then (yes)
    else (no)
    :put O;
    endif
  endwhile (no)
endif

stop

@enduml

PlantUML version 1.2021.16(Wed Dec 08 18:25:22 CET 2021)
(GPL source distribution)
Java Runtime: Java(TM) SE Runtime Environment
JVM: Java HotSpot(TM) Client VM
Default Encoding: Cp1252
Language: es
Country: ES
--></g></svg>