<?xml version="1.0" encoding="UTF-8" standalone="no"?><svg xmlns="http://www.w3.org/2000/svg" xmlns:xlink="http://www.w3.org/1999/xlink" contentScriptType="application/ecmascript" contentStyleType="text/css" height="1009px" preserveAspectRatio="none" style="width:514px;height:1009px;" version="1.1" viewBox="0 0 514 1009" width="514px" zoomAndPan="magnify"><defs><filter height="300%" id="f18p4eq20migqd" width="300%" x="-1" y="-1"><feGaussianBlur result="blurOut" stdDeviation="2.0"/><feColorMatrix in="blurOut" result="blurOut2" type="matrix" values="0 0 0 0 0 0 0 0 0 0 0 0 0 0 0 0 0 0 .4 0"/><feOffset dx="4.0" dy="4.0" in="blurOut2" result="blurOut3"/><feBlend in="SourceGraphic" in2="blurOut3" mode="normal"/></filter></defs><g><g id="INITIAL"><rect fill="#FEFECE" filter="url(#f18p4eq20migqd)" height="50" rx="12.5" ry="12.5" style="stroke:#A80036;stroke-width:1.5;" width="69" x="259.9346" y="87"/><line style="stroke:#A80036;stroke-width:1.5;" x1="259.9346" x2="328.9346" y1="113.2969" y2="113.2969"/><text fill="#000000" font-family="sans-serif" font-size="14" lengthAdjust="spacing" textLength="49" x="269.9346" y="104.9951">INITIAL</text></g><g id="IN_GAME"><rect fill="#FEFECE" filter="url(#f18p4eq20migqd)" height="50" rx="12.5" ry="12.5" style="stroke:#A80036;stroke-width:1.5;" width="83" x="159.9346" y="299"/><line style="stroke:#A80036;stroke-width:1.5;" x1="159.9346" x2="242.9346" y1="325.2969" y2="325.2969"/><text fill="#000000" font-family="sans-serif" font-size="14" lengthAdjust="spacing" textLength="63" x="169.9346" y="316.9951">IN_GAME</text></g><g id="OUT_GAME"><rect fill="#FEFECE" filter="url(#f18p4eq20migqd)" height="50" rx="12.5" ry="12.5" style="stroke:#A80036;stroke-width:1.5;" width="98" x="113.435" y="527"/><line style="stroke:#A80036;stroke-width:1.5;" x1="113.435" x2="211.435" y1="553.2969" y2="553.2969"/><text fill="#000000" font-family="sans-serif" font-size="14" lengthAdjust="spacing" textLength="78" x="123.435" y="544.9951">OUT_GAME</text></g><g id="EXIT"><rect fill="#FEFECE" filter="url(#f18p4eq20migqd)" height="50" rx="12.5" ry="12.5" style="stroke:#A80036;stroke-width:1.5;" width="52" x="353.4346" y="866"/><line style="stroke:#A80036;stroke-width:1.5;" x1="353.4346" x2="405.4346" y1="892.2969" y2="892.2969"/><text fill="#000000" font-family="sans-serif" font-size="14" lengthAdjust="spacing" textLength="32" x="363.4346" y="883.9951">EXIT</text></g><g id="FINAL"><rect fill="#FEFECE" filter="url(#f18p4eq20migqd)" height="50" rx="12.5" ry="12.5" style="stroke:#A80036;stroke-width:1.5;" width="60" x="270.4346" y="654"/><line style="stroke:#A80036;stroke-width:1.5;" x1="270.4346" x2="330.4346" y1="680.2969" y2="680.2969"/><text fill="#000000" font-family="sans-serif" font-size="14" lengthAdjust="spacing" textLength="40" x="280.4346" y="671.9951">FINAL</text></g><polygon fill="#FEFECE" filter="url(#f18p4eq20migqd)" points="162.4346,426,174.4346,438,162.4346,450,150.4346,438,162.4346,426" style="stroke:#A80036;stroke-width:1.5;"/><polygon fill="#FEFECE" filter="url(#f18p4eq20migqd)" points="379.4346,781,391.4346,793,379.4346,805,367.4346,793,379.4346,781" style="stroke:#A80036;stroke-width:1.5;"/><polygon fill="#FEFECE" filter="url(#f18p4eq20migqd)" points="294.4346,214,306.4346,226,294.4346,238,282.4346,226,294.4346,214" style="stroke:#A80036;stroke-width:1.5;"/><ellipse cx="294.4346" cy="16" fill="#000000" filter="url(#f18p4eq20migqd)" rx="10" ry="10" style="stroke:none;stroke-width:1.0;"/><ellipse cx="379.4346" cy="987" filter="url(#f18p4eq20migqd)" rx="10" ry="10" style="stroke:#000000;stroke-width:1.0;fill:none;"/><ellipse cx="379.9346" cy="987.5" fill="#000000" rx="6" ry="6" style="stroke:none;stroke-width:1.0;"/><!--MD5=[06c3f2024f4ea60966e79307ee69ec5f]
link *start to INITIAL--><path d="M294.4346,26.013 C294.4346,38.698 294.4346,62.409 294.4346,81.57 " fill="none" id="*start-to-INITIAL" style="stroke:#A80036;stroke-width:1.0;"/><polygon fill="#A80036" points="294.4346,86.84,298.4346,77.84,294.4346,81.84,290.4346,77.84,294.4346,86.84" style="stroke:#A80036;stroke-width:1.0;"/><!--MD5=[c6210ae09f2e397a3dfeeac0c7e340d4]
link INITIAL to IN_GAME--><path d="M276.5306,137.206 C262.5946,157.004 243.6316,186.177 231.4346,214 C220.0066,240.071 211.8986,271.586 207.0166,294.009 " fill="none" id="INITIAL-to-IN_GAME" style="stroke:#A80036;stroke-width:1.0;"/><polygon fill="#A80036" points="205.9646,298.934,211.756,290.9678,207.0088,294.0443,203.9324,289.2971,205.9646,298.934" style="stroke:#A80036;stroke-width:1.0;"/><text fill="#000000" font-family="sans-serif" font-size="13" lengthAdjust="spacing" textLength="31" x="232.4346" y="230.5669">Start</text><!--MD5=[0662c40c37419fd573d17f0ec06dc7d2]
link INITIAL to if_finished2--><path d="M294.4346,137.027 C294.4346,158.579 294.4346,189.634 294.4346,208.501 " fill="none" id="INITIAL-to-if_finished2" style="stroke:#A80036;stroke-width:1.0;"/><polygon fill="#A80036" points="294.4346,213.941,298.4346,204.941,294.4346,208.941,290.4346,204.941,294.4346,213.941" style="stroke:#A80036;stroke-width:1.0;"/><text fill="#000000" font-family="sans-serif" font-size="13" lengthAdjust="spacing" textLength="34" x="295.4346" y="180.0669">Open</text><!--MD5=[d987054945d11dd7f5ec212ff639d530]
link if_finished2 to IN_GAME--><path d="M288.8956,232.718 C277.2886,244.699 249.7446,273.132 228.6426,294.915 " fill="none" id="if_finished2-to-IN_GAME" style="stroke:#A80036;stroke-width:1.0;"/><polygon fill="#A80036" points="225.0496,298.624,234.1844,294.9422,228.5283,295.0325,228.438,289.3764,225.0496,298.624" style="stroke:#A80036;stroke-width:1.0;"/><!--MD5=[c849a58148af638cb40f5820c1eaf79e]
link if_finished2 to FINAL--><path d="M295.4796,237.077 C297.1996,254.548 300.4346,291.606 300.4346,323 C300.4346,323 300.4346,323 300.4346,553 C300.4346,585.619 300.4346,623.026 300.4346,648.354 " fill="none" id="if_finished2-to-FINAL" style="stroke:#A80036;stroke-width:1.0;"/><polygon fill="#A80036" points="300.4346,653.569,304.4346,644.569,300.4346,648.569,296.4346,644.569,300.4346,653.569" style="stroke:#A80036;stroke-width:1.0;"/><text fill="#000000" font-family="sans-serif" font-size="13" lengthAdjust="spacing" textLength="60" x="301.4346" y="442.5669">[finished]</text><!--MD5=[200846c1dd6de3f2a37d61d02f348d5e]
link IN_GAME to if_finished--><path d="M159.7336,327.764 C125.165,332.513 78.0105,345.224 54.435,379 C29.6907,414.451 112.2142,430.16 147.3536,435.137 " fill="none" id="IN_GAME-to-if_finished" style="stroke:#A80036;stroke-width:1.0;"/><polygon fill="#A80036" points="152.5626,435.845,144.1842,430.6678,147.6083,435.1707,143.1054,438.5947,152.5626,435.845" style="stroke:#A80036;stroke-width:1.0;"/><text fill="#000000" font-family="sans-serif" font-size="13" lengthAdjust="spacing" textLength="27" x="55.435" y="392.0669">Play</text><!--MD5=[200846c1dd6de3f2a37d61d02f348d5e]
link IN_GAME to if_finished--><path d="M159.5916,343.707 C145.4726,352.297 131.3082,363.973 123.435,379 C113.3299,398.286 136.5516,419.031 151.3446,429.715 " fill="none" id="IN_GAME-to-if_finished-1" style="stroke:#A80036;stroke-width:1.0;"/><polygon fill="#A80036" points="155.6196,432.695,150.5252,424.2661,151.5183,429.8351,145.9493,430.8282,155.6196,432.695" style="stroke:#A80036;stroke-width:1.0;"/><text fill="#000000" font-family="sans-serif" font-size="13" lengthAdjust="spacing" textLength="33" x="124.435" y="392.0669">Undo</text><!--MD5=[200846c1dd6de3f2a37d61d02f348d5e]
link IN_GAME to if_finished--><path d="M193.0686,349.027 C185.0896,371.94 173.3716,405.594 166.9886,423.923 " fill="none" id="IN_GAME-to-if_finished-2" style="stroke:#A80036;stroke-width:1.0;"/><polygon fill="#A80036" points="165.3376,428.665,172.0744,421.4806,166.9816,423.943,164.5192,418.8502,165.3376,428.665" style="stroke:#A80036;stroke-width:1.0;"/><text fill="#000000" font-family="sans-serif" font-size="13" lengthAdjust="spacing" textLength="33" x="183.4346" y="392.0669">Redo</text><!--MD5=[5848ef64f427518330d05d0e49dfaccc]
link if_finished to IN_GAME--><path d="M170.9326,434.423 C185.2456,429.569 213.7386,417.566 225.4346,396 C232.6246,382.744 228.3846,366.938 221.5916,353.608 " fill="none" id="if_finished-to-IN_GAME" style="stroke:#A80036;stroke-width:1.0;"/><polygon fill="#A80036" points="219.2026,349.19,219.9664,359.0092,221.5815,353.5878,227.0029,355.2029,219.2026,349.19" style="stroke:#A80036;stroke-width:1.0;"/><!--MD5=[c7c4fbbf3a5c3bb043eef47bc673d535]
link IN_GAME to OUT_GAME--><path d="M159.7296,326.359 C122.1709,330.066 68.9222,342.031 42.435,379 C6,429.853 72.5248,489.922 120.2183,523.93 " fill="none" id="IN_GAME-to-OUT_GAME" style="stroke:#A80036;stroke-width:1.0;"/><polygon fill="#A80036" points="124.4818,526.937,119.4328,518.4808,120.3959,524.055,114.8217,525.0182,124.4818,526.937" style="stroke:#A80036;stroke-width:1.0;"/><text fill="#000000" font-family="sans-serif" font-size="13" lengthAdjust="spacing" textLength="24" x="45.435" y="442.5669">Exit</text><!--MD5=[fb580c452284ecb35857e88f372e8dbe]
link if_finished to OUT_GAME--><path d="M162.4346,450.148 C162.4346,466.609 162.4346,497.991 162.4346,521.396 " fill="none" id="if_finished-to-OUT_GAME" style="stroke:#A80036;stroke-width:1.0;"/><polygon fill="#A80036" points="162.4346,526.56,166.4346,517.56,162.4346,521.56,158.4346,517.56,162.4346,526.56" style="stroke:#A80036;stroke-width:1.0;"/><text fill="#000000" font-family="sans-serif" font-size="13" lengthAdjust="spacing" textLength="60" x="163.4346" y="493.0669">[finished]</text><!--MD5=[6ff0ced844ada5674ca91a02c3186da9]
link OUT_GAME to FINAL--><path d="M188.7576,577.028 C203.8616,590.798 223.1926,608.394 240.4346,624 C249.8896,632.558 260.2046,641.855 269.5726,650.284 " fill="none" id="OUT_GAME-to-FINAL" style="stroke:#A80036;stroke-width:1.0;"/><polygon fill="#A80036" points="273.5246,653.839,269.5093,644.8458,269.8076,650.4948,264.1586,650.7931,273.5246,653.839" style="stroke:#A80036;stroke-width:1.0;"/><text fill="#000000" font-family="sans-serif" font-size="13" lengthAdjust="spacing" textLength="32" x="241.4346" y="620.0669">Save</text><!--MD5=[363afbe1e4eb49f4931343d3d88c52d2]
link FINAL to if_resumed--><path d="M317.3826,704.027 C334.1246,727.763 358.9966,763.024 371.5606,780.837 " fill="none" id="FINAL-to-if_resumed" style="stroke:#A80036;stroke-width:1.0;"/><polygon fill="#A80036" points="374.7616,785.375,372.8434,775.7147,371.8799,781.2889,366.3057,780.3254,374.7616,785.375" style="stroke:#A80036;stroke-width:1.0;"/><text fill="#000000" font-family="sans-serif" font-size="13" lengthAdjust="spacing" textLength="53" x="350.4346" y="747.0669">Resume</text><!--MD5=[36553ab13ef484d8e624246e921f8591]
link if_resumed to INITIAL--><path d="M384.9946,786.065 C391.8436,778.47 403.4296,764.657 410.4346,751 C425.5126,721.606 432.4346,713.036 432.4346,680 C432.4346,225 432.4346,225 432.4346,225 C432.4346,174.001 374.9116,142.169 334.1416,126.013 " fill="none" id="if_resumed-to-INITIAL" style="stroke:#A80036;stroke-width:1.0;"/><polygon fill="#A80036" points="329.2586,124.12,336.2049,131.102,333.9207,125.9269,339.0959,123.6426,329.2586,124.12" style="stroke:#A80036;stroke-width:1.0;"/><text fill="#000000" font-family="sans-serif" font-size="13" lengthAdjust="spacing" textLength="73" x="433.4346" y="442.5669">[continued]</text><!--MD5=[00ace724ee34ef802585e1261ed65fdc]
link if_resumed to EXIT--><path d="M379.4346,805.012 C379.4346,818.518 379.4346,841.935 379.4346,860.773 " fill="none" id="if_resumed-to-EXIT" style="stroke:#A80036;stroke-width:1.0;"/><polygon fill="#A80036" points="379.4346,865.953,383.4346,856.953,379.4346,860.953,375.4346,856.953,379.4346,865.953" style="stroke:#A80036;stroke-width:1.0;"/><!--MD5=[bd19b40b84bbe903342104a02ae53ed4]
link EXIT to *end--><path d="M379.4346,916.2073 C379.4346,933.8423 379.4346,957.1261 379.4346,971.8351 " fill="none" id="EXIT-to-*end" style="stroke:#A80036;stroke-width:1.0;"/><polygon fill="#A80036" points="379.4346,976.8399,383.4346,967.8399,379.4346,971.8399,375.4346,967.8399,379.4346,976.8399" style="stroke:#A80036;stroke-width:1.0;"/><!--MD5=[48239be3cc6a47766d695b6221aed3fd]
@startuml
state INITIAL
state IN_GAME
state OUT_GAME
state EXIT
state FINAL
state if_finished <<choice>>
state if_resumed <<choice>>
state if_finished2 <<choice>>

[*] - -> INITIAL
INITIAL - -> IN_GAME: Start
INITIAL - -> if_finished2: Open
if_finished2 - -> IN_GAME
if_finished2 - -> FINAL: [finished]
IN_GAME - -> if_finished: Play
IN_GAME - -> if_finished: Undo
IN_GAME - -> if_finished: Redo
if_finished - -> IN_GAME
IN_GAME - -> OUT_GAME: Exit
if_finished - -> OUT_GAME: [finished]
OUT_GAME - -> FINAL: Save
FINAL - -> if_resumed: Resume
if_resumed - -> INITIAL: [continued]
if_resumed - -> EXIT
EXIT - -> [*]
@enduml

PlantUML version 1.2021.4beta3(Unknown compile time)
(GPL source distribution)
Java Runtime: Java(TM) SE Runtime Environment
JVM: Java HotSpot(TM) 64-Bit Server VM
Default Encoding: UTF-8
Language: en
Country: US
--></g></svg>