<?xml version="1.0" encoding="UTF-8" standalone="no"?><svg xmlns="http://www.w3.org/2000/svg" xmlns:xlink="http://www.w3.org/1999/xlink" contentScriptType="application/ecmascript" contentStyleType="text/css" height="495px" preserveAspectRatio="none" style="width:227px;height:495px;" version="1.1" viewBox="0 0 227 495" width="227px" zoomAndPan="magnify"><defs><filter height="300%" id="ft7qjrzp27ohm" width="300%" x="-1" y="-1"><feGaussianBlur result="blurOut" stdDeviation="2.0"/><feColorMatrix in="blurOut" result="blurOut2" type="matrix" values="0 0 0 0 0 0 0 0 0 0 0 0 0 0 0 0 0 0 .4 0"/><feOffset dx="4.0" dy="4.0" in="blurOut2" result="blurOut3"/><feBlend in="SourceGraphic" in2="blurOut3" mode="normal"/></filter></defs><g><!--MD5=[de2effd8dc5bf946a609466312d0f75f]
entity Player--><ellipse cx="28" cy="213.5" fill="#FEFECE" filter="url(#ft7qjrzp27ohm)" rx="8" ry="8" style="stroke:#A80036;stroke-width:1.5;"/><path d="M28,221.5 L28,248.5 M15,229.5 L41,229.5 M28,248.5 L15,263.5 M28,248.5 L41,263.5 " fill="none" filter="url(#ft7qjrzp27ohm)" style="stroke:#A80036;stroke-width:1.5;"/><text fill="#000000" font-family="sans-serif" font-size="14" lengthAdjust="spacing" textLength="44" x="6" y="281.9951">Player</text><ellipse cx="162.7231" cy="20.5485" fill="#FEFECE" filter="url(#ft7qjrzp27ohm)" rx="37.7231" ry="14.5485" style="stroke:#A80036;stroke-width:1.5;"/><text fill="#000000" font-family="sans-serif" font-size="14" lengthAdjust="spacing" textLength="37" x="142.6116" y="23.9312">Start</text><ellipse cx="162.4914" cy="84.5236" fill="#FEFECE" filter="url(#ft7qjrzp27ohm)" rx="31.9914" ry="14.5236" style="stroke:#A80036;stroke-width:1.5;"/><text fill="#000000" font-family="sans-serif" font-size="14" lengthAdjust="spacing" textLength="29" x="147.9914" y="87.3703">Play</text><ellipse cx="162.6007" cy="148.715" fill="#FEFECE" filter="url(#ft7qjrzp27ohm)" rx="52.6007" ry="14.715" style="stroke:#A80036;stroke-width:1.5;"/><text fill="#000000" font-family="sans-serif" font-size="14" lengthAdjust="spacing" textLength="57" x="131.1007" y="152.4626">Resume</text><ellipse cx="162.4961" cy="212.5423" fill="#FEFECE" filter="url(#ft7qjrzp27ohm)" rx="36.9961" ry="14.5423" style="stroke:#A80036;stroke-width:1.5;"/><text fill="#000000" font-family="sans-serif" font-size="14" lengthAdjust="spacing" textLength="36" x="143.1301" y="215.8527">Undo</text><ellipse cx="162.7231" cy="276.5485" fill="#FEFECE" filter="url(#ft7qjrzp27ohm)" rx="37.7231" ry="14.5485" style="stroke:#A80036;stroke-width:1.5;"/><text fill="#000000" font-family="sans-serif" font-size="14" lengthAdjust="spacing" textLength="37" x="142.6116" y="279.9312">Redo</text><ellipse cx="162.2843" cy="340.5236" fill="#FEFECE" filter="url(#ft7qjrzp27ohm)" rx="31.2843" ry="14.5236" style="stroke:#A80036;stroke-width:1.5;"/><text fill="#000000" font-family="sans-serif" font-size="14" lengthAdjust="spacing" textLength="28" x="148.2843" y="343.3703">Exit</text><ellipse cx="162.5514" cy="404.5323" fill="#FEFECE" filter="url(#ft7qjrzp27ohm)" rx="35.5514" ry="14.5323" style="stroke:#A80036;stroke-width:1.5;"/><text fill="#000000" font-family="sans-serif" font-size="14" lengthAdjust="spacing" textLength="34" x="144.6581" y="407.6955">Save</text><ellipse cx="162.6869" cy="468.5634" fill="#FEFECE" filter="url(#ft7qjrzp27ohm)" rx="39.1869" ry="14.5634" style="stroke:#A80036;stroke-width:1.5;"/><text fill="#000000" font-family="sans-serif" font-size="14" lengthAdjust="spacing" textLength="39" x="141.0666" y="472.0876">Open</text><!--MD5=[39353cd92ba960c69c4d2a9385fee2c7]
link Player to Start--><path d="M38.344,203.874 C49.6054,162.111 71.9295,97.06 110,52.5 C116.288,45.14 124.705,38.938 132.91,34.012 " fill="none" id="Player-to-Start" style="stroke:#A80036;stroke-width:1.0;"/><polygon fill="#A80036" points="137.431,31.407,127.6359,32.4344,133.0987,33.9032,131.6298,39.366,137.431,31.407" style="stroke:#A80036;stroke-width:1.0;"/><!--MD5=[9a505df3ac87f02537cb93af365c2474]
link Player to Play--><path d="M48.4964,203.98 C62.8644,177 84.3264,141.963 110,116.5 C117.315,109.245 126.564,102.86 135.2,97.74 " fill="none" id="Player-to-Play" style="stroke:#A80036;stroke-width:1.0;"/><polygon fill="#A80036" points="139.918,95.029,130.1218,96.0463,135.5831,97.5208,134.1086,102.9821,139.918,95.029" style="stroke:#A80036;stroke-width:1.0;"/><!--MD5=[0380c48cc03698e9c08b2a5affc527cb]
link Player to Undo--><path d="M50.2884,239.359 C70.504,234.476 101.2948,227.04 125.356,221.229 " fill="none" id="Player-to-Undo" style="stroke:#A80036;stroke-width:1.0;"/><polygon fill="#A80036" points="130.382,220.015,120.6943,218.2407,125.5219,221.1893,122.5732,226.0169,130.382,220.015" style="stroke:#A80036;stroke-width:1.0;"/><!--MD5=[714833a1def7c2d3f9278f33fd9da27b]
link Player to Redo--><path d="M50.2884,249.641 C70.504,254.524 101.2948,261.96 125.356,267.771 " fill="none" id="Player-to-Redo" style="stroke:#A80036;stroke-width:1.0;"/><polygon fill="#A80036" points="130.382,268.985,122.5732,262.9831,125.5219,267.8107,120.6943,270.7593,130.382,268.985" style="stroke:#A80036;stroke-width:1.0;"/><!--MD5=[8e8f658c86bf230e4048e4af0c39e552]
link Player to Exit--><path d="M50.1547,262.29 C66.2111,275.526 89.0276,293.769 110,308.5 C118.722,314.626 128.6,320.912 137.356,326.273 " fill="none" id="Player-to-Exit" style="stroke:#A80036;stroke-width:1.0;"/><polygon fill="#A80036" points="142.091,329.149,136.4747,321.0585,137.8173,326.5537,132.3221,327.8963,142.091,329.149" style="stroke:#A80036;stroke-width:1.0;"/><!--MD5=[4b15e63cbdec9d7363171c88be305ecc]
link Player to Save--><path d="M48.4964,285.02 C62.8644,312 84.3264,347.037 110,372.5 C117.126,379.567 126.087,385.8093 134.529,390.8601 " fill="none" id="Player-to-Save" style="stroke:#A80036;stroke-width:1.0;"/><polygon fill="#A80036" points="139.15,393.5412,133.3718,385.5655,134.8249,391.0325,129.3579,392.4856,139.15,393.5412" style="stroke:#A80036;stroke-width:1.0;"/><!--MD5=[5fec2ab2a197ce562aec9d83f689b0ce]
link Player to Resume--><path d="M50.1547,226.71 C66.2111,213.474 89.0276,195.231 110,180.5 C117.849,174.987 126.636,169.344 134.698,164.362 " fill="none" id="Player-to-Resume" style="stroke:#A80036;stroke-width:1.0;"/><polygon fill="#A80036" points="139.092,161.668,129.3286,162.9623,134.8294,164.2815,133.5102,169.7824,139.092,161.668" style="stroke:#A80036;stroke-width:1.0;"/><!--MD5=[800a240c68129cf6765d067e017333e1]
link Player to Open--><path d="M38.344,285.126 C49.6054,326.889 71.9295,391.9397 110,436.5 C116.231,443.7929 124.551,449.9485 132.684,454.8524 " fill="none" id="Player-to-Open" style="stroke:#A80036;stroke-width:1.0;"/><polygon fill="#A80036" points="137.168,457.4472,131.3816,449.4774,132.8403,454.9429,127.3748,456.4017,137.168,457.4472" style="stroke:#A80036;stroke-width:1.0;"/><!--MD5=[aabd13d94358f837335ff3cd582fb17d]
@startuml
left to right direction
actor Player
usecase Start
usecase Play
usecase Resume
usecase Undo
usecase Redo
usecase Exit
usecase Save
usecase Open

Player - -> Start
Player - -> Play
Player - -> Undo
Player - -> Redo
Player - -> Exit
Player - -> Save
Player - -> Resume
Player - -> Open
@enduml

PlantUML version 1.2021.4beta3(Unknown compile time)
(GPL source distribution)
Java Runtime: Java(TM) SE Runtime Environment
JVM: Java HotSpot(TM) 64-Bit Server VM
Default Encoding: UTF-8
Language: en
Country: US
--></g></svg>