<?xml version="1.0" encoding="UTF-8" standalone="no"?><svg xmlns="http://www.w3.org/2000/svg" xmlns:xlink="http://www.w3.org/1999/xlink" contentScriptType="application/ecmascript" contentStyleType="text/css" height="175px" preserveAspectRatio="none" style="width:227px;height:175px;" version="1.1" viewBox="0 0 227 175" width="227px" zoomAndPan="magnify"><defs><filter height="300%" id="fivdw4dkvzcdm" width="300%" x="-1" y="-1"><feGaussianBlur result="blurOut" stdDeviation="2.0"/><feColorMatrix in="blurOut" result="blurOut2" type="matrix" values="0 0 0 0 0 0 0 0 0 0 0 0 0 0 0 0 0 0 .4 0"/><feOffset dx="4.0" dy="4.0" in="blurOut2" result="blurOut3"/><feBlend in="SourceGraphic" in2="blurOut3" mode="normal"/></filter></defs><g><!--MD5=[de2effd8dc5bf946a609466312d0f75f]
entity Player--><ellipse cx="28" cy="53.5" fill="#FEFECE" filter="url(#fivdw4dkvzcdm)" rx="8" ry="8" style="stroke:#A80036;stroke-width:1.5;"/><path d="M28,61.5 L28,88.5 M15,69.5 L41,69.5 M28,88.5 L15,103.5 M28,88.5 L41,103.5 " fill="none" filter="url(#fivdw4dkvzcdm)" style="stroke:#A80036;stroke-width:1.5;"/><text fill="#000000" font-family="sans-serif" font-size="14" lengthAdjust="spacing" textLength="44" x="6" y="121.9951">Player</text><ellipse cx="162.7231" cy="20.5485" fill="#FEFECE" filter="url(#fivdw4dkvzcdm)" rx="37.7231" ry="14.5485" style="stroke:#A80036;stroke-width:1.5;"/><text fill="#000000" font-family="sans-serif" font-size="14" lengthAdjust="spacing" textLength="37" x="142.6116" y="23.9312">Start</text><ellipse cx="162.4914" cy="84.5236" fill="#FEFECE" filter="url(#fivdw4dkvzcdm)" rx="31.9914" ry="14.5236" style="stroke:#A80036;stroke-width:1.5;"/><text fill="#000000" font-family="sans-serif" font-size="14" lengthAdjust="spacing" textLength="29" x="147.9914" y="87.3703">Play</text><ellipse cx="162.6007" cy="148.715" fill="#FEFECE" filter="url(#fivdw4dkvzcdm)" rx="52.6007" ry="14.715" style="stroke:#A80036;stroke-width:1.5;"/><text fill="#000000" font-family="sans-serif" font-size="14" lengthAdjust="spacing" textLength="57" x="131.1007" y="152.4626">Resume</text><!--MD5=[39353cd92ba960c69c4d2a9385fee2c7]
link Player to Start--><path d="M50.2884,74.2173 C72.8769,63.3066 108.669,46.018 133.523,34.013 " fill="none" id="Player-to-Start" style="stroke:#A80036;stroke-width:1.0;"/><polygon fill="#A80036" points="138.031,31.836,128.1871,32.1474,133.5284,34.0101,131.6657,39.3515,138.031,31.836" style="stroke:#A80036;stroke-width:1.0;"/><!--MD5=[9a505df3ac87f02537cb93af365c2474]
link Player to Play--><path d="M50.2884,84.5 C70.504,84.5 101.2948,84.5 125.356,84.5 " fill="none" id="Player-to-Play" style="stroke:#A80036;stroke-width:1.0;"/><polygon fill="#A80036" points="130.382,84.5,121.382,80.5,125.382,84.5,121.382,88.5,130.382,84.5" style="stroke:#A80036;stroke-width:1.0;"/><!--MD5=[5fec2ab2a197ce562aec9d83f689b0ce]
link Player to Resume--><path d="M50.2884,94.7827 C71.9602,105.2506 105.7857,121.5889 130.445,133.4997 " fill="none" id="Player-to-Resume" style="stroke:#A80036;stroke-width:1.0;"/><polygon fill="#A80036" points="135.248,135.8198,128.8831,128.304,130.7455,133.6454,125.4041,135.5079,135.248,135.8198" style="stroke:#A80036;stroke-width:1.0;"/><!--MD5=[aca4086162095b35b8fbd749fd5a2834]
@startuml
left to right direction
actor Player
usecase Start
usecase Play
usecase Resume

Player - -> Start
Player - -> Play
Player - -> Resume
@enduml

PlantUML version 1.2021.4beta3(Unknown compile time)
(GPL source distribution)
Java Runtime: Java(TM) SE Runtime Environment
JVM: Java HotSpot(TM) 64-Bit Server VM
Default Encoding: UTF-8
Language: en
Country: US
--></g></svg>