<?xml version="1.0" encoding="UTF-8" standalone="no"?><svg xmlns="http://www.w3.org/2000/svg" xmlns:xlink="http://www.w3.org/1999/xlink" contentScriptType="application/ecmascript" contentStyleType="text/css" height="801px" preserveAspectRatio="none" style="width:230px;height:801px;background:#FFFFFF;" version="1.1" viewBox="0 0 230 801" width="230px" zoomAndPan="magnify"><defs><filter height="300%" id="f2ed50grdojso" width="300%" x="-1" y="-1"><feGaussianBlur result="blurOut" stdDeviation="2.0"/><feColorMatrix in="blurOut" result="blurOut2" type="matrix" values="0 0 0 0 0 0 0 0 0 0 0 0 0 0 0 0 0 0 .4 0"/><feOffset dx="4.0" dy="4.0" in="blurOut2" result="blurOut3"/><feBlend in="SourceGraphic" in2="blurOut3" mode="normal"/></filter></defs><g><g id="INITIAL"><rect fill="#FEFECE" filter="url(#f2ed50grdojso)" height="50" rx="12.5" ry="12.5" style="stroke:#A80036;stroke-width:1.5;" width="64" x="78.5" y="87"/><line style="stroke:#A80036;stroke-width:1.5;" x1="78.5" x2="142.5" y1="114.6094" y2="114.6094"/><text fill="#000000" font-family="sans-serif" font-size="14" lengthAdjust="spacing" textLength="44" x="88.5" y="106.5332">INITIAL</text></g><g id="IN_GAME"><rect fill="#FEFECE" filter="url(#f2ed50grdojso)" height="50" rx="12.5" ry="12.5" style="stroke:#A80036;stroke-width:1.5;" width="80" x="24.5" y="215"/><line style="stroke:#A80036;stroke-width:1.5;" x1="24.5" x2="104.5" y1="242.6094" y2="242.6094"/><text fill="#000000" font-family="sans-serif" font-size="14" lengthAdjust="spacing" textLength="60" x="34.5" y="234.5332">IN_GAME</text></g><g id="OUT_GAME"><rect fill="#FEFECE" filter="url(#f2ed50grdojso)" height="50" rx="12.5" ry="12.5" style="stroke:#A80036;stroke-width:1.5;" width="97" x="7" y="445"/><line style="stroke:#A80036;stroke-width:1.5;" x1="7" x2="104" y1="472.6094" y2="472.6094"/><text fill="#000000" font-family="sans-serif" font-size="14" lengthAdjust="spacing" textLength="77" x="17" y="464.5332">OUT_GAME</text></g><g id="EXIT"><rect fill="#FEFECE" filter="url(#f2ed50grdojso)" height="50" rx="12.5" ry="12.5" style="stroke:#A80036;stroke-width:1.5;" width="50" x="81.5" y="658"/><line style="stroke:#A80036;stroke-width:1.5;" x1="81.5" x2="131.5" y1="685.6094" y2="685.6094"/><text fill="#000000" font-family="sans-serif" font-size="14" lengthAdjust="spacing" textLength="29" x="92" y="677.5332">EXIT</text></g><polygon fill="#FEFECE" filter="url(#f2ed50grdojso)" points="55.5,343,67.5,355,55.5,367,43.5,355,55.5,343" style="stroke:#A80036;stroke-width:1.5;"/><polygon fill="#FEFECE" filter="url(#f2ed50grdojso)" points="106.5,573,118.5,585,106.5,597,94.5,585,106.5,573" style="stroke:#A80036;stroke-width:1.5;"/><ellipse cx="110.5" cy="16" fill="#000000" filter="url(#f2ed50grdojso)" rx="10" ry="10" style="stroke:none;stroke-width:1.0;"/><ellipse cx="106.5" cy="779" filter="url(#f2ed50grdojso)" rx="10" ry="10" style="stroke:#000000;stroke-width:1.0;fill:none;"/><ellipse cx="107" cy="779.5" fill="#000000" rx="6" ry="6" style="stroke:none;stroke-width:1.0;"/><!--MD5=[06c3f2024f4ea60966e79307ee69ec5f]
link *start to INITIAL--><path d="M110.5,26.01 C110.5,38.7 110.5,62.41 110.5,81.57 " fill="none" id="*start-to-INITIAL" style="stroke:#A80036;stroke-width:1.0;"/><polygon fill="#A80036" points="110.5,86.84,114.5,77.84,110.5,81.84,106.5,77.84,110.5,86.84" style="stroke:#A80036;stroke-width:1.0;"/><!--MD5=[c6210ae09f2e397a3dfeeac0c7e340d4]
link INITIAL to IN_GAME--><path d="M101.63,137.29 C94.06,158.04 83.15,187.92 75.11,209.93 " fill="none" id="INITIAL-to-IN_GAME" style="stroke:#A80036;stroke-width:1.0;"/><polygon fill="#A80036" points="73.34,214.78,80.1818,207.6955,75.0533,210.0827,72.6661,204.9542,73.34,214.78" style="stroke:#A80036;stroke-width:1.0;"/><text fill="#000000" font-family="sans-serif" font-size="13" lengthAdjust="spacing" textLength="28" x="91.5" y="181.4951">Start</text><!--MD5=[200846c1dd6de3f2a37d61d02f348d5e]
link IN_GAME to if_finished--><path d="M45.81,265.2 C40.05,274.08 34.45,284.53 31.5,295 C26.53,312.67 38.09,332.22 46.84,343.8 " fill="none" id="IN_GAME-to-if_finished" style="stroke:#A80036;stroke-width:1.0;"/><polygon fill="#A80036" points="50.13,347.96,47.695,338.4169,47.0327,344.0349,41.4148,343.3726,50.13,347.96" style="stroke:#A80036;stroke-width:1.0;"/><text fill="#000000" font-family="sans-serif" font-size="13" lengthAdjust="spacing" textLength="26" x="32.5" y="309.4951">Play</text><!--MD5=[5848ef64f427518330d05d0e49dfaccc]
link if_finished to IN_GAME--><path d="M57.75,344.95 C59.69,336.69 62.35,324.11 63.5,313 C64.96,298.95 65.32,283.27 65.28,270.15 " fill="none" id="if_finished-to-IN_GAME" style="stroke:#A80036;stroke-width:1.0;"/><polygon fill="#A80036" points="65.24,265.06,61.3173,274.094,65.2829,270.0598,69.317,274.0254,65.24,265.06" style="stroke:#A80036;stroke-width:1.0;"/><!--MD5=[fb580c452284ecb35857e88f372e8dbe]
link if_finished to OUT_GAME--><path d="M55.5,367.25 C55.5,383.96 55.5,415.91 55.5,439.57 " fill="none" id="if_finished-to-OUT_GAME" style="stroke:#A80036;stroke-width:1.0;"/><polygon fill="#A80036" points="55.5,444.79,59.5,435.79,55.5,439.79,51.5,435.79,55.5,444.79" style="stroke:#A80036;stroke-width:1.0;"/><text fill="#000000" font-family="sans-serif" font-size="13" lengthAdjust="spacing" textLength="52" x="56.5" y="411.4951">[finished]</text><!--MD5=[636b806927507f296b22f82987e0fbb2]
link OUT_GAME to if_resumed--><path d="M62.88,495.16 C67.54,509.38 74.09,527.54 81.5,543 C86.51,553.46 93.46,564.66 98.76,572.71 " fill="none" id="OUT_GAME-to-if_resumed" style="stroke:#A80036;stroke-width:1.0;"/><polygon fill="#A80036" points="101.82,577.27,100.1328,567.5667,99.0366,573.1163,93.487,572.0201,101.82,577.27" style="stroke:#A80036;stroke-width:1.0;"/><text fill="#000000" font-family="sans-serif" font-size="13" lengthAdjust="spacing" textLength="48" x="82.5" y="539.4951">Resume</text><!--MD5=[36553ab13ef484d8e624246e921f8591]
link if_resumed to INITIAL--><path d="M111.68,578 C118.07,570.34 128.9,556.46 135.5,543 C150.24,512.96 157.5,504.46 157.5,471 C157.5,239 157.5,239 157.5,239 C157.5,203.83 141.23,166.43 127.83,141.6 " fill="none" id="if_resumed-to-INITIAL" style="stroke:#A80036;stroke-width:1.0;"/><polygon fill="#A80036" points="125.37,137.11,126.1815,146.9254,127.7703,141.4962,133.1994,143.0849,125.37,137.11" style="stroke:#A80036;stroke-width:1.0;"/><text fill="#000000" font-family="sans-serif" font-size="13" lengthAdjust="spacing" textLength="64" x="158.5" y="360.4951">[continued]</text><!--MD5=[00ace724ee34ef802585e1261ed65fdc]
link if_resumed to EXIT--><path d="M106.5,597.01 C106.5,610.52 106.5,633.94 106.5,652.77 " fill="none" id="if_resumed-to-EXIT" style="stroke:#A80036;stroke-width:1.0;"/><polygon fill="#A80036" points="106.5,657.95,110.5,648.95,106.5,652.95,102.5,648.95,106.5,657.95" style="stroke:#A80036;stroke-width:1.0;"/><!--MD5=[bd19b40b84bbe903342104a02ae53ed4]
link EXIT to *end--><path d="M106.5,708.21 C106.5,725.84 106.5,749.13 106.5,763.84 " fill="none" id="EXIT-to-*end" style="stroke:#A80036;stroke-width:1.0;"/><polygon fill="#A80036" points="106.5,768.84,110.5,759.84,106.5,763.84,102.5,759.84,106.5,768.84" style="stroke:#A80036;stroke-width:1.0;"/><!--MD5=[bce0a341ee82ea94eb3a1bcbd8e71df5]
@startuml useCaseContextDiagram
state INITIAL
state IN_GAME
state OUT_GAME
state EXIT
state if_finished <<choice>>
state if_resumed <<choice>>

[*] - -> INITIAL
INITIAL - -> IN_GAME: Start
IN_GAME - -> if_finished: Play
if_finished - -> IN_GAME
if_finished - -> OUT_GAME: [finished]
OUT_GAME - -> if_resumed: Resume
if_resumed - -> INITIAL: [continued]
if_resumed - -> EXIT
EXIT - -> [*]
@enduml

PlantUML version 1.2021.16(Wed Dec 08 18:25:22 CET 2021)
(GPL source distribution)
Java Runtime: Java(TM) SE Runtime Environment
JVM: Java HotSpot(TM) Client VM
Default Encoding: Cp1252
Language: es
Country: ES
--></g></svg>