<?xml version="1.0" encoding="UTF-8" standalone="no"?><svg xmlns="http://www.w3.org/2000/svg" xmlns:xlink="http://www.w3.org/1999/xlink" contentScriptType="application/ecmascript" contentStyleType="text/css" height="1777px" preserveAspectRatio="none" style="width:608px;height:1777px;background:#FFFFFF;" version="1.1" viewBox="0 0 608 1777" width="608px" zoomAndPan="magnify"><defs><filter height="300%" id="f1rh4rvdwniacp" width="300%" x="-1" y="-1"><feGaussianBlur result="blurOut" stdDeviation="2.0"/><feColorMatrix in="blurOut" result="blurOut2" type="matrix" values="0 0 0 0 0 0 0 0 0 0 0 0 0 0 0 0 0 0 .4 0"/><feOffset dx="4.0" dy="4.0" in="blurOut2" result="blurOut3"/><feBlend in="SourceGraphic" in2="blurOut3" mode="normal"/></filter></defs><g><g id="A"><rect fill="#FEFECE" filter="url(#f1rh4rvdwniacp)" height="50" rx="12.5" ry="12.5" style="stroke:#A80036;stroke-width:1.5;" width="80" x="142" y="87"/><line style="stroke:#A80036;stroke-width:1.5;" x1="142" x2="222" y1="114.6094" y2="114.6094"/><text fill="#000000" font-family="sans-serif" font-size="14" lengthAdjust="spacing" textLength="60" x="152" y="106.5332">IN_GAME</text></g><g id="B"><rect fill="#FEFECE" filter="url(#f1rh4rvdwniacp)" height="50" rx="12.5" ry="12.5" style="stroke:#A80036;stroke-width:1.5;" width="50" x="13" y="317"/><line style="stroke:#A80036;stroke-width:1.5;" x1="13" x2="63" y1="344.6094" y2="344.6094"/><text fill="#000000" font-family="sans-serif" font-size="14" lengthAdjust="spacing" textLength="0" x="40" y="336.5332"/></g><g id="C"><rect fill="#FEFECE" filter="url(#f1rh4rvdwniacp)" height="50" rx="12.5" ry="12.5" style="stroke:#A80036;stroke-width:1.5;" width="50" x="297" y="317"/><line style="stroke:#A80036;stroke-width:1.5;" x1="297" x2="347" y1="344.6094" y2="344.6094"/><text fill="#000000" font-family="sans-serif" font-size="14" lengthAdjust="spacing" textLength="0" x="324" y="336.5332"/></g><g id="D"><rect fill="#FEFECE" filter="url(#f1rh4rvdwniacp)" height="50" rx="12.5" ry="12.5" style="stroke:#A80036;stroke-width:1.5;" width="50" x="9" y="525"/><line style="stroke:#A80036;stroke-width:1.5;" x1="9" x2="59" y1="552.6094" y2="552.6094"/><text fill="#000000" font-family="sans-serif" font-size="14" lengthAdjust="spacing" textLength="0" x="36" y="544.5332"/></g><g id="E"><rect fill="#FEFECE" filter="url(#f1rh4rvdwniacp)" height="50" rx="12.5" ry="12.5" style="stroke:#A80036;stroke-width:1.5;" width="50" x="214" y="1307"/><line style="stroke:#A80036;stroke-width:1.5;" x1="214" x2="264" y1="1334.6094" y2="1334.6094"/><text fill="#000000" font-family="sans-serif" font-size="14" lengthAdjust="spacing" textLength="0" x="241" y="1326.5332"/></g><g id="F"><rect fill="#FEFECE" filter="url(#f1rh4rvdwniacp)" height="50" rx="12.5" ry="12.5" style="stroke:#A80036;stroke-width:1.5;" width="50" x="16" y="1227"/><line style="stroke:#A80036;stroke-width:1.5;" x1="16" x2="66" y1="1254.6094" y2="1254.6094"/><text fill="#000000" font-family="sans-serif" font-size="14" lengthAdjust="spacing" textLength="0" x="43" y="1246.5332"/></g><g id="I"><rect fill="#FEFECE" filter="url(#f1rh4rvdwniacp)" height="50" rx="12.5" ry="12.5" style="stroke:#A80036;stroke-width:1.5;" width="50" x="300" y="445"/><line style="stroke:#A80036;stroke-width:1.5;" x1="300" x2="350" y1="472.6094" y2="472.6094"/><text fill="#000000" font-family="sans-serif" font-size="14" lengthAdjust="spacing" textLength="0" x="327" y="464.5332"/></g><g id="J"><rect fill="#FEFECE" filter="url(#f1rh4rvdwniacp)" height="50" rx="12.5" ry="12.5" style="stroke:#A80036;stroke-width:1.5;" width="50" x="385" y="860"/><line style="stroke:#A80036;stroke-width:1.5;" x1="385" x2="435" y1="887.6094" y2="887.6094"/><text fill="#000000" font-family="sans-serif" font-size="14" lengthAdjust="spacing" textLength="0" x="412" y="879.5332"/></g><g id="K"><rect fill="#FEFECE" filter="url(#f1rh4rvdwniacp)" height="50" rx="12.5" ry="12.5" style="stroke:#A80036;stroke-width:1.5;" width="50" x="307" y="780"/><line style="stroke:#A80036;stroke-width:1.5;" x1="307" x2="357" y1="807.6094" y2="807.6094"/><text fill="#000000" font-family="sans-serif" font-size="14" lengthAdjust="spacing" textLength="0" x="334" y="799.5332"/></g><g id="L"><rect fill="#FEFECE" filter="url(#f1rh4rvdwniacp)" height="50" rx="12.5" ry="12.5" style="stroke:#A80036;stroke-width:1.5;" width="50" x="78" y="940"/><line style="stroke:#A80036;stroke-width:1.5;" x1="78" x2="128" y1="967.6094" y2="967.6094"/><text fill="#000000" font-family="sans-serif" font-size="14" lengthAdjust="spacing" textLength="0" x="105" y="959.5332"/></g><g id="O"><rect fill="#FEFECE" filter="url(#f1rh4rvdwniacp)" height="50" rx="12.5" ry="12.5" style="stroke:#A80036;stroke-width:1.5;" width="50" x="7" y="1489"/><line style="stroke:#A80036;stroke-width:1.5;" x1="7" x2="57" y1="1516.6094" y2="1516.6094"/><text fill="#000000" font-family="sans-serif" font-size="14" lengthAdjust="spacing" textLength="0" x="34" y="1508.5332"/></g><g id="P"><rect fill="#FEFECE" filter="url(#f1rh4rvdwniacp)" height="50" rx="12.5" ry="12.5" style="stroke:#A80036;stroke-width:1.5;" width="50" x="214" y="1489"/><line style="stroke:#A80036;stroke-width:1.5;" x1="214" x2="264" y1="1516.6094" y2="1516.6094"/><text fill="#000000" font-family="sans-serif" font-size="14" lengthAdjust="spacing" textLength="0" x="241" y="1508.5332"/></g><g id="Q"><rect fill="#FEFECE" filter="url(#f1rh4rvdwniacp)" height="50" rx="12.5" ry="12.5" style="stroke:#A80036;stroke-width:1.5;" width="50" x="18" y="1617"/><line style="stroke:#A80036;stroke-width:1.5;" x1="18" x2="68" y1="1644.6094" y2="1644.6094"/><text fill="#000000" font-family="sans-serif" font-size="14" lengthAdjust="spacing" textLength="0" x="45" y="1636.5332"/></g><polygon fill="#FEFECE" filter="url(#f1rh4rvdwniacp)" points="182,215,194,227,182,239,170,227,182,215" style="stroke:#A80036;stroke-width:1.5;"/><polygon fill="#FEFECE" filter="url(#f1rh4rvdwniacp)" points="76,1068,88,1080,76,1092,64,1080,76,1068" style="stroke:#A80036;stroke-width:1.5;"/><polygon fill="#FEFECE" filter="url(#f1rh4rvdwniacp)" points="332,605,344,617,332,629,320,617,332,605" style="stroke:#A80036;stroke-width:1.5;"/><polygon fill="#FEFECE" filter="url(#f1rh4rvdwniacp)" points="35,1387,47,1399,35,1411,23,1399,35,1387" style="stroke:#A80036;stroke-width:1.5;"/><ellipse cx="182" cy="16" fill="#000000" filter="url(#f1rh4rvdwniacp)" rx="10" ry="10" style="stroke:none;stroke-width:1.0;"/><ellipse cx="147" cy="1755" filter="url(#f1rh4rvdwniacp)" rx="10" ry="10" style="stroke:#000000;stroke-width:1.0;fill:none;"/><ellipse cx="147.5" cy="1755.5" fill="#000000" rx="6" ry="6" style="stroke:none;stroke-width:1.0;"/><!--MD5=[ba0fdac9700f9825b754e67fda8ee1b2]
link *start to A--><path d="M182,26.01 C182,38.7 182,62.41 182,81.57 " fill="none" id="*start-to-A" style="stroke:#A80036;stroke-width:1.0;"/><polygon fill="#A80036" points="182,86.84,186,77.84,182,81.84,178,77.84,182,86.84" style="stroke:#A80036;stroke-width:1.0;"/><!--MD5=[b08c169375971c036aa5498b0b0884cf]
link A to if--><path d="M182,137.24 C182,158.99 182,190.32 182,209.35 " fill="none" id="A-to-if" style="stroke:#A80036;stroke-width:1.0;"/><polygon fill="#A80036" points="182,214.84,186,205.84,182,209.84,178,205.84,182,214.84" style="stroke:#A80036;stroke-width:1.0;"/><text fill="#000000" font-family="sans-serif" font-size="13" lengthAdjust="spacing" textLength="191" x="183" y="181.4951">Current turn player requests Play</text><!--MD5=[4f0380399d6304d9deff548af9e8d040]
link if to B--><path d="M172.25,229.29 C142.78,233.41 55.63,247.25 39,269 C29.87,280.94 29.1,297.55 30.84,311.8 " fill="none" id="if-to-B" style="stroke:#A80036;stroke-width:1.0;"/><polygon fill="#A80036" points="31.59,316.94,34.2617,307.4604,30.8749,311.9914,26.3439,308.6046,31.59,316.94" style="stroke:#A80036;stroke-width:1.0;"/><text fill="#000000" font-family="sans-serif" font-size="13" lengthAdjust="spacing" textLength="249" x="40" y="283.4951">[pieces of current turn player on board 0..2]</text><!--MD5=[f9048a51dcd4704a001a3cf3d3813ebf]
link if to C--><path d="M192.6,228.71 C215.18,230.8 268.36,238.83 298,269 C309.18,280.39 315.16,297.12 318.35,311.58 " fill="none" id="if-to-C" style="stroke:#A80036;stroke-width:1.0;"/><polygon fill="#A80036" points="319.4,316.8,321.5519,307.1891,318.4167,311.8976,313.7081,308.7624,319.4,316.8" style="stroke:#A80036;stroke-width:1.0;"/><!--MD5=[635162b0568dccf9b81699e51957888e]
link B to D--><path d="M37.53,367.03 C36.8,405 35.36,478.73 34.57,519.73 " fill="none" id="B-to-D" style="stroke:#A80036;stroke-width:1.0;"/><polygon fill="#A80036" points="34.47,524.8,38.6492,515.8818,34.57,519.801,30.6508,515.7218,34.47,524.8" style="stroke:#A80036;stroke-width:1.0;"/><text fill="#000000" font-family="sans-serif" font-size="13" lengthAdjust="spacing" textLength="246" x="38" y="411.4951">System requests to introduce a coordinate</text><!--MD5=[72e9e687c2ff2b546080c460bf01ee17]
link D to if2--><path d="M31.45,575 C28.49,605.02 24,658 24,703.5 C24,703.5 24,703.5 24,966 C24,1007.01 52.62,1049.36 67.39,1068.49 " fill="none" id="D-to-if2" style="stroke:#A80036;stroke-width:1.0;"/><polygon fill="#A80036" points="70.82,1072.84,68.385,1063.2969,67.7227,1068.9149,62.1048,1068.2526,70.82,1072.84" style="stroke:#A80036;stroke-width:1.0;"/><text fill="#000000" font-family="sans-serif" font-size="13" lengthAdjust="spacing" textLength="246" x="25" y="810.4951">Current turn player introduces a coordinate</text><!--MD5=[a4292983f5a4db17aa7b8f7f6cf7e09a]
link if2 to E--><path d="M80.36,1087.69 C100.24,1118.19 182.98,1245.08 220.43,1302.52 " fill="none" id="if2-to-E" style="stroke:#A80036;stroke-width:1.0;"/><polygon fill="#A80036" points="223.27,1306.87,221.7061,1297.1461,220.5395,1302.6814,215.0043,1301.5149,223.27,1306.87" style="stroke:#A80036;stroke-width:1.0;"/><text fill="#000000" font-family="sans-serif" font-size="13" lengthAdjust="spacing" textLength="34" x="216" y="1136.4951">[error]</text><path d="M156,1145.3516 L156,1187.3516 L306,1187.3516 L306,1155.3516 L296,1145.3516 L156,1145.3516 " fill="#FBFB77" filter="url(#f1rh4rvdwniacp)" style="stroke:#A80036;stroke-width:1.0;"/><path d="M296,1145.3516 L296,1155.3516 L306,1155.3516 L296,1145.3516 " fill="#FBFB77" style="stroke:#A80036;stroke-width:1.0;"/><text fill="#000000" font-family="sans-serif" font-size="13" lengthAdjust="spacing" textLength="127" x="162" y="1163.8467">Coordinate is not valid</text><text fill="#000000" font-family="sans-serif" font-size="13" lengthAdjust="spacing" textLength="129" x="162" y="1180.1982">Coordinate is occuped</text><!--MD5=[cc1abbd5c7ed3a808edbd58025ba5132]
link if2 to F--><path d="M74.12,1090.14 C69.08,1114.63 55.1,1182.51 47.01,1221.83 " fill="none" id="if2-to-F" style="stroke:#A80036;stroke-width:1.0;"/><polygon fill="#A80036" points="45.95,1226.94,51.6913,1218.9376,46.9635,1222.0438,43.8573,1217.316,45.95,1226.94" style="stroke:#A80036;stroke-width:1.0;"/><!--MD5=[eae23ab883900b63609d8dffdc4ab822]
link E to P--><path d="M239,1357.28 C239,1390.11 239,1448.61 239,1483.8 " fill="none" id="E-to-P" style="stroke:#A80036;stroke-width:1.0;"/><polygon fill="#A80036" points="239,1488.82,243,1479.82,239,1483.82,235,1479.82,239,1488.82" style="stroke:#A80036;stroke-width:1.0;"/><text fill="#000000" font-family="sans-serif" font-size="13" lengthAdjust="spacing" textLength="116" x="240" y="1404.4951">System shows error</text><!--MD5=[70a8e270759a69ef06c33f275000f134]
link F to if5--><path d="M31.14,1277.04 C27.86,1286.25 24.63,1296.95 23,1307 C19.44,1328.94 19.85,1335 23,1357 C24.37,1366.54 27.44,1376.97 30.13,1384.92 " fill="none" id="F-to-if5" style="stroke:#A80036;stroke-width:1.0;"/><polygon fill="#A80036" points="31.91,1389.98,32.7255,1380.165,30.2646,1385.2585,25.1711,1382.7976,31.91,1389.98" style="stroke:#A80036;stroke-width:1.0;"/><text fill="#000000" font-family="sans-serif" font-size="13" lengthAdjust="spacing" textLength="172" x="24" y="1337.4951">System shows updated board</text><!--MD5=[199524e6c39ae6083a65dcba8f4f4738]
link C to I--><path d="M322.58,367.29 C323.07,387.95 323.78,417.67 324.3,439.65 " fill="none" id="C-to-I" style="stroke:#A80036;stroke-width:1.0;"/><polygon fill="#A80036" points="324.42,444.78,328.2133,435.6909,324.3057,439.7813,320.2154,435.8738,324.42,444.78" style="stroke:#A80036;stroke-width:1.0;"/><text fill="#000000" font-family="sans-serif" font-size="13" lengthAdjust="spacing" textLength="270" x="324" y="411.4951">System requests to introduce origin coordinate</text><!--MD5=[632236cb211cf936ecc522612b5b41a3]
link I to if3--><path d="M326.17,495.27 C327.61,525.1 330.01,574.87 331.24,600.18 " fill="none" id="I-to-if3" style="stroke:#A80036;stroke-width:1.0;"/><polygon fill="#A80036" points="331.49,605.48,335.0487,596.2965,331.2474,600.4859,327.0581,596.6847,331.49,605.48" style="stroke:#A80036;stroke-width:1.0;"/><text fill="#000000" font-family="sans-serif" font-size="13" lengthAdjust="spacing" textLength="270" x="330" y="555.4951">Current turn player introduces origin coordinate</text><!--MD5=[42310412a51d79bc6d9e96b7d81308fa]
link if3 to J--><path d="M336.96,624.3 C342.82,632.04 352.47,645.78 358,659 C386.02,726 400.42,810.83 406.45,854.72 " fill="none" id="if3-to-J" style="stroke:#A80036;stroke-width:1.0;"/><polygon fill="#A80036" points="407.14,859.86,409.8958,850.4046,406.4689,854.9052,401.9682,851.4783,407.14,859.86" style="stroke:#A80036;stroke-width:1.0;"/><text fill="#000000" font-family="sans-serif" font-size="13" lengthAdjust="spacing" textLength="34" x="466" y="673.4951">[error]</text><path d="M391,682.3516 L391,741.3516 L571,741.3516 L571,692.3516 L561,682.3516 L391,682.3516 " fill="#FBFB77" filter="url(#f1rh4rvdwniacp)" style="stroke:#A80036;stroke-width:1.0;"/><path d="M561,682.3516 L561,692.3516 L571,692.3516 L561,682.3516 " fill="#FBFB77" style="stroke:#A80036;stroke-width:1.0;"/><text fill="#000000" font-family="sans-serif" font-size="13" lengthAdjust="spacing" textLength="127" x="397" y="700.8467">Coordinate is not valid</text><text fill="#000000" font-family="sans-serif" font-size="13" lengthAdjust="spacing" textLength="116" x="397" y="717.1982">Coordinate is empty</text><text fill="#000000" font-family="sans-serif" font-size="13" lengthAdjust="spacing" textLength="159" x="397" y="733.5498">Piece is not of active player</text><!--MD5=[6bae2bd13401cbaea3aa64a640d1a2a5]
link if3 to K--><path d="M332,629.08 C332,657.28 332,732.51 332,774.55 " fill="none" id="if3-to-K" style="stroke:#A80036;stroke-width:1.0;"/><polygon fill="#A80036" points="332,779.76,336,770.76,332,774.76,328,770.76,332,779.76" style="stroke:#A80036;stroke-width:1.0;"/><!--MD5=[a9d7580a5e29a657f7fd1b01ae662b71]
link J to P--><path d="M410,910.12 C410,938.37 410,986.58 410,1028 C410,1028 410,1028 410,1400 C410,1466.74 318.21,1496.34 269.13,1507.4 " fill="none" id="J-to-P" style="stroke:#A80036;stroke-width:1.0;"/><polygon fill="#A80036" points="264.23,1508.47,273.8779,1510.4493,269.1139,1507.399,272.1643,1502.635,264.23,1508.47" style="stroke:#A80036;stroke-width:1.0;"/><text fill="#000000" font-family="sans-serif" font-size="13" lengthAdjust="spacing" textLength="116" x="411" y="1164.9951">System shows error</text><!--MD5=[eada28b63b3843c3c30fc61fede252c5]
link K to L--><path d="M306.89,819.27 C298.52,823.23 289.03,827.24 280,830 C239.96,842.22 121.15,828.13 94,860 C76.56,880.48 82.37,912.18 90.33,935.2 " fill="none" id="K-to-L" style="stroke:#A80036;stroke-width:1.0;"/><polygon fill="#A80036" points="92.06,939.97,92.7603,930.1461,90.3593,935.2681,85.2373,932.8672,92.06,939.97" style="stroke:#A80036;stroke-width:1.0;"/><text fill="#000000" font-family="sans-serif" font-size="13" lengthAdjust="spacing" textLength="272" x="95" y="890.4951">System requests to introduce target coordinate</text><!--MD5=[f739a58fdaa6bf26095f06d8cb4898c6]
link L to if2--><path d="M97.21,990.24 C91.79,1012.93 83.87,1046.05 79.4,1064.75 " fill="none" id="L-to-if2" style="stroke:#A80036;stroke-width:1.0;"/><polygon fill="#A80036" points="78.13,1070.07,84.1017,1062.2381,79.2855,1065.2054,76.3182,1060.3892,78.13,1070.07" style="stroke:#A80036;stroke-width:1.0;"/><text fill="#000000" font-family="sans-serif" font-size="13" lengthAdjust="spacing" textLength="272" x="91" y="1034.4951">Current turn player introduces target coordinate</text><!--MD5=[01720f07c43e9fab5de4881f7020f0bd]
link if5 to O--><path d="M34.71,1410.83 C34.27,1427.37 33.42,1459.5 32.79,1483.33 " fill="none" id="if5-to-O" style="stroke:#A80036;stroke-width:1.0;"/><polygon fill="#A80036" points="32.65,1488.58,36.88,1479.6858,32.7785,1483.5817,28.8827,1479.4802,32.65,1488.58" style="stroke:#A80036;stroke-width:1.0;"/><text fill="#000000" font-family="sans-serif" font-size="13" lengthAdjust="spacing" textLength="45" x="35" y="1455.4951">[winner]</text><!--MD5=[ab57eb48dd435761d2e729918c8e482b]
link O to Q--><path d="M28.38,1539.09 C26.84,1553.12 25.84,1571.12 28,1587 C29.12,1595.22 31.16,1603.96 33.38,1611.96 " fill="none" id="O-to-Q" style="stroke:#A80036;stroke-width:1.0;"/><polygon fill="#A80036" points="34.78,1616.83,36.1268,1607.0737,33.3932,1612.0262,28.4407,1609.2926,34.78,1616.83" style="stroke:#A80036;stroke-width:1.0;"/><text fill="#000000" font-family="sans-serif" font-size="13" lengthAdjust="spacing" textLength="184" x="29" y="1583.4951">System shows winner message</text><!--MD5=[80a7f67af607e34737e4d3a6ffb8dfd8]
link if5 to P--><path d="M42.26,1404.02 C68.73,1418.69 161.04,1469.81 209.21,1496.5 " fill="none" id="if5-to-P" style="stroke:#A80036;stroke-width:1.0;"/><polygon fill="#A80036" points="213.73,1499,207.8052,1491.1326,209.3592,1496.5718,203.92,1498.1258,213.73,1499" style="stroke:#A80036;stroke-width:1.0;"/><!--MD5=[1829e8d01ad626ab2023d1529b515cef]
link Q to *end--><path d="M49.4,1667.3 C54.37,1682.45 62.56,1701.54 75,1715 C90.96,1732.25 116.33,1743.49 132.3,1749.28 " fill="none" id="Q-to-*end" style="stroke:#A80036;stroke-width:1.0;"/><polygon fill="#A80036" points="137.33,1751.04,130.1658,1744.2817,132.6129,1749.3819,127.5128,1751.829,137.33,1751.04" style="stroke:#A80036;stroke-width:1.0;"/><text fill="#000000" font-family="sans-serif" font-size="13" lengthAdjust="spacing" textLength="137" x="76" y="1711.4951">System allows Resume</text><!--MD5=[48bca50d9895b2b86770dc0a74bb0dba]
link P to *end--><path d="M243.17,1539.23 C248.71,1579.41 254.04,1660.77 218,1715 C204.92,1734.68 178.43,1745.33 161.76,1750.32 " fill="none" id="P-to-*end" style="stroke:#A80036;stroke-width:1.0;"/><polygon fill="#A80036" points="156.52,1751.8,166.2688,1753.2005,161.3314,1750.4396,164.0922,1745.5022,156.52,1751.8" style="stroke:#A80036;stroke-width:1.0;"/><text fill="#000000" font-family="sans-serif" font-size="13" lengthAdjust="spacing" textLength="115" x="247" y="1647.4951">System allows Play</text><!--MD5=[c947645755eb9512c120fb06d26d803c]
@startuml playUseCaseSpecification
state A as "IN_GAME"
state B as " "
state C as " "
state D as " "
state E as " "
state F as " "
state I as " "
state J as " "
state K as " "
state L as " "
state O as " "
state P as " "
state Q as " "
state if <<choice>>
state if2 <<choice>>
state if3 <<choice>>
state if5 <<choice>>

[*] - -> A
A - -> if: Current turn player requests Play
if - -> B: [pieces of current turn player on board 0..2]
if - -> C
B - -> D: System requests to introduce a coordinate
D - -> if2: Current turn player introduces a coordinate
if2 - -> E: [error]
note on link
    Coordinate is not valid
    Coordinate is occuped
end note
if2 - -> F
E - -> P: System shows error
F - -> if5: System shows updated board
C - -> I: System requests to introduce origin coordinate
I - -> if3: Current turn player introduces origin coordinate
if3 - -> J: [error]
note on link
    Coordinate is not valid
    Coordinate is empty
    Piece is not of active player
end note
if3 - -> K
J - -> P: System shows error
K - -> L: System requests to introduce target coordinate
L - -> if2: Current turn player introduces target coordinate
if5 - -> O: [winner]
O - -> Q: System shows winner message
if5 - -> P
Q - -> [*]: System allows Resume
P - -> [*]: System allows Play
@enduml

PlantUML version 1.2021.16(Wed Dec 08 18:25:22 CET 2021)
(GPL source distribution)
Java Runtime: Java(TM) SE Runtime Environment
JVM: Java HotSpot(TM) Client VM
Default Encoding: Cp1252
Language: es
Country: ES
--></g></svg>