<?xml version="1.0" encoding="UTF-8" standalone="no"?><svg xmlns="http://www.w3.org/2000/svg" xmlns:xlink="http://www.w3.org/1999/xlink" contentScriptType="application/ecmascript" contentStyleType="text/css" height="677px" preserveAspectRatio="none" style="width:1171px;height:677px;background:#FFFFFF;" version="1.1" viewBox="0 0 1171 677" width="1171px" zoomAndPan="magnify"><defs><filter height="300%" id="f1e5b7qi87cn4" width="300%" x="-1" y="-1"><feGaussianBlur result="blurOut" stdDeviation="2.0"/><feColorMatrix in="blurOut" result="blurOut2" type="matrix" values="0 0 0 0 0 0 0 0 0 0 0 0 0 0 0 0 0 0 .4 0"/><feOffset dx="4.0" dy="4.0" in="blurOut2" result="blurOut3"/><feBlend in="SourceGraphic" in2="blurOut3" mode="normal"/></filter></defs><g><rect fill="#FEFECE" filter="url(#f1e5b7qi87cn4)" height="35.0938" style="stroke:#A80036;stroke-width:1.5;" width="57" x="512.5" y="197"/><text fill="#000000" font-family="sans-serif" font-size="12" lengthAdjust="spacing" textLength="43" x="519.5" y="211.457">:Square</text><line style="stroke:#A80036;stroke-width:1.5;" x1="513.5" x2="568.5" y1="216.0938" y2="216.0938"/><rect fill="#FEFECE" filter="url(#f1e5b7qi87cn4)" height="35.0938" style="stroke:#A80036;stroke-width:1.5;" width="57" x="604.5" y="197"/><text fill="#000000" font-family="sans-serif" font-size="12" lengthAdjust="spacing" textLength="43" x="611.5" y="211.457">:Square</text><line style="stroke:#A80036;stroke-width:1.5;" x1="605.5" x2="660.5" y1="216.0938" y2="216.0938"/><rect fill="#FEFECE" filter="url(#f1e5b7qi87cn4)" height="35.0938" style="stroke:#A80036;stroke-width:1.5;" width="57" x="696.5" y="197"/><text fill="#000000" font-family="sans-serif" font-size="12" lengthAdjust="spacing" textLength="43" x="703.5" y="211.457">:Square</text><line style="stroke:#A80036;stroke-width:1.5;" x1="697.5" x2="752.5" y1="216.0938" y2="216.0938"/><rect fill="#FEFECE" filter="url(#f1e5b7qi87cn4)" height="35.0938" style="stroke:#A80036;stroke-width:1.5;" width="57" x="512.5" y="300.5"/><text fill="#000000" font-family="sans-serif" font-size="12" lengthAdjust="spacing" textLength="43" x="519.5" y="314.957">:Square</text><line style="stroke:#A80036;stroke-width:1.5;" x1="513.5" x2="568.5" y1="319.5938" y2="319.5938"/><rect fill="#FEFECE" filter="url(#f1e5b7qi87cn4)" height="35.0938" style="stroke:#A80036;stroke-width:1.5;" width="57" x="604.5" y="300.5"/><text fill="#000000" font-family="sans-serif" font-size="12" lengthAdjust="spacing" textLength="43" x="611.5" y="314.957">:Square</text><line style="stroke:#A80036;stroke-width:1.5;" x1="605.5" x2="660.5" y1="319.5938" y2="319.5938"/><rect fill="#FEFECE" filter="url(#f1e5b7qi87cn4)" height="35.0938" style="stroke:#A80036;stroke-width:1.5;" width="57" x="696.5" y="300.5"/><text fill="#000000" font-family="sans-serif" font-size="12" lengthAdjust="spacing" textLength="43" x="703.5" y="314.957">:Square</text><line style="stroke:#A80036;stroke-width:1.5;" x1="697.5" x2="752.5" y1="319.5938" y2="319.5938"/><rect fill="#FEFECE" filter="url(#f1e5b7qi87cn4)" height="35.0938" style="stroke:#A80036;stroke-width:1.5;" width="57" x="512.5" y="412.5"/><text fill="#000000" font-family="sans-serif" font-size="12" lengthAdjust="spacing" textLength="43" x="519.5" y="426.957">:Square</text><line style="stroke:#A80036;stroke-width:1.5;" x1="513.5" x2="568.5" y1="431.5938" y2="431.5938"/><rect fill="#FEFECE" filter="url(#f1e5b7qi87cn4)" height="35.0938" style="stroke:#A80036;stroke-width:1.5;" width="57" x="696.5" y="412.5"/><text fill="#000000" font-family="sans-serif" font-size="12" lengthAdjust="spacing" textLength="43" x="703.5" y="426.957">:Square</text><line style="stroke:#A80036;stroke-width:1.5;" x1="697.5" x2="752.5" y1="431.5938" y2="431.5938"/><rect fill="#FEFECE" filter="url(#f1e5b7qi87cn4)" height="35.0938" style="stroke:#A80036;stroke-width:1.5;" width="57" x="604.5" y="412.5"/><text fill="#000000" font-family="sans-serif" font-size="12" lengthAdjust="spacing" textLength="43" x="611.5" y="426.957">:Square</text><line style="stroke:#A80036;stroke-width:1.5;" x1="605.5" x2="660.5" y1="431.5938" y2="431.5938"/><rect fill="#FEFECE" filter="url(#f1e5b7qi87cn4)" height="52.25" style="stroke:#A80036;stroke-width:1.5;" width="78" x="173" y="292"/><text fill="#000000" font-family="sans-serif" font-size="12" lengthAdjust="spacing" textLength="64" x="180" y="306.457">:Coordinate</text><line style="stroke:#A80036;stroke-width:1.5;" x1="174" x2="250" y1="311.0938" y2="311.0938"/><text fill="#000000" font-family="sans-serif" font-size="10" lengthAdjust="spacing" textLength="34" x="179" y="325.4746">row = 1</text><text fill="#000000" font-family="sans-serif" font-size="10" lengthAdjust="spacing" textLength="54" x="179" y="338.0527">column = 1</text><rect fill="#FEFECE" filter="url(#f1e5b7qi87cn4)" height="52.25" style="stroke:#A80036;stroke-width:1.5;" width="78" x="286" y="292"/><text fill="#000000" font-family="sans-serif" font-size="12" lengthAdjust="spacing" textLength="64" x="293" y="306.457">:Coordinate</text><line style="stroke:#A80036;stroke-width:1.5;" x1="287" x2="363" y1="311.0938" y2="311.0938"/><text fill="#000000" font-family="sans-serif" font-size="10" lengthAdjust="spacing" textLength="34" x="292" y="325.4746">row = 1</text><text fill="#000000" font-family="sans-serif" font-size="10" lengthAdjust="spacing" textLength="54" x="292" y="338.0527">column = 2</text><rect fill="#FEFECE" filter="url(#f1e5b7qi87cn4)" height="52.25" style="stroke:#A80036;stroke-width:1.5;" width="78" x="399" y="292"/><text fill="#000000" font-family="sans-serif" font-size="12" lengthAdjust="spacing" textLength="64" x="406" y="306.457">:Coordinate</text><line style="stroke:#A80036;stroke-width:1.5;" x1="400" x2="476" y1="311.0938" y2="311.0938"/><text fill="#000000" font-family="sans-serif" font-size="10" lengthAdjust="spacing" textLength="34" x="405" y="325.4746">row = 1</text><text fill="#000000" font-family="sans-serif" font-size="10" lengthAdjust="spacing" textLength="54" x="405" y="338.0527">column = 3</text><rect fill="#FEFECE" filter="url(#f1e5b7qi87cn4)" height="52.25" style="stroke:#A80036;stroke-width:1.5;" width="78" x="90" y="404"/><text fill="#000000" font-family="sans-serif" font-size="12" lengthAdjust="spacing" textLength="64" x="97" y="418.457">:Coordinate</text><line style="stroke:#A80036;stroke-width:1.5;" x1="91" x2="167" y1="423.0938" y2="423.0938"/><text fill="#000000" font-family="sans-serif" font-size="10" lengthAdjust="spacing" textLength="34" x="96" y="437.4746">row = 2</text><text fill="#000000" font-family="sans-serif" font-size="10" lengthAdjust="spacing" textLength="54" x="96" y="450.0527">column = 1</text><rect fill="#FEFECE" filter="url(#f1e5b7qi87cn4)" height="52.25" style="stroke:#A80036;stroke-width:1.5;" width="78" x="286" y="404"/><text fill="#000000" font-family="sans-serif" font-size="12" lengthAdjust="spacing" textLength="64" x="293" y="418.457">:Coordinate</text><line style="stroke:#A80036;stroke-width:1.5;" x1="287" x2="363" y1="423.0938" y2="423.0938"/><text fill="#000000" font-family="sans-serif" font-size="10" lengthAdjust="spacing" textLength="34" x="292" y="437.4746">row = 2</text><text fill="#000000" font-family="sans-serif" font-size="10" lengthAdjust="spacing" textLength="54" x="292" y="450.0527">column = 2</text><rect fill="#FEFECE" filter="url(#f1e5b7qi87cn4)" height="52.25" style="stroke:#A80036;stroke-width:1.5;" width="78" x="399" y="404"/><text fill="#000000" font-family="sans-serif" font-size="12" lengthAdjust="spacing" textLength="64" x="406" y="418.457">:Coordinate</text><line style="stroke:#A80036;stroke-width:1.5;" x1="400" x2="476" y1="423.0938" y2="423.0938"/><text fill="#000000" font-family="sans-serif" font-size="10" lengthAdjust="spacing" textLength="34" x="405" y="437.4746">row = 2</text><text fill="#000000" font-family="sans-serif" font-size="10" lengthAdjust="spacing" textLength="54" x="405" y="450.0527">column = 3</text><rect fill="#FEFECE" filter="url(#f1e5b7qi87cn4)" height="52.25" style="stroke:#A80036;stroke-width:1.5;" width="78" x="349" y="516"/><text fill="#000000" font-family="sans-serif" font-size="12" lengthAdjust="spacing" textLength="64" x="356" y="530.457">:Coordinate</text><line style="stroke:#A80036;stroke-width:1.5;" x1="350" x2="426" y1="535.0938" y2="535.0938"/><text fill="#000000" font-family="sans-serif" font-size="10" lengthAdjust="spacing" textLength="34" x="355" y="549.4746">row = 3</text><text fill="#000000" font-family="sans-serif" font-size="10" lengthAdjust="spacing" textLength="54" x="355" y="562.0527">column = 1</text><rect fill="#FEFECE" filter="url(#f1e5b7qi87cn4)" height="52.25" style="stroke:#A80036;stroke-width:1.5;" width="78" x="741" y="516"/><text fill="#000000" font-family="sans-serif" font-size="12" lengthAdjust="spacing" textLength="64" x="748" y="530.457">:Coordinate</text><line style="stroke:#A80036;stroke-width:1.5;" x1="742" x2="818" y1="535.0938" y2="535.0938"/><text fill="#000000" font-family="sans-serif" font-size="10" lengthAdjust="spacing" textLength="34" x="747" y="549.4746">row = 3</text><text fill="#000000" font-family="sans-serif" font-size="10" lengthAdjust="spacing" textLength="54" x="747" y="562.0527">column = 2</text><rect fill="#FEFECE" filter="url(#f1e5b7qi87cn4)" height="52.25" style="stroke:#A80036;stroke-width:1.5;" width="78" x="545" y="516"/><text fill="#000000" font-family="sans-serif" font-size="12" lengthAdjust="spacing" textLength="64" x="552" y="530.457">:Coordinate</text><line style="stroke:#A80036;stroke-width:1.5;" x1="546" x2="622" y1="535.0938" y2="535.0938"/><text fill="#000000" font-family="sans-serif" font-size="10" lengthAdjust="spacing" textLength="34" x="551" y="549.4746">row = 3</text><text fill="#000000" font-family="sans-serif" font-size="10" lengthAdjust="spacing" textLength="54" x="551" y="562.0527">column = 3</text><rect fill="#FEFECE" filter="url(#f1e5b7qi87cn4)" height="35.0938" style="stroke:#A80036;stroke-width:1.5;" width="74" x="841" y="7"/><text fill="#000000" font-family="sans-serif" font-size="12" lengthAdjust="spacing" textLength="60" x="848" y="21.457">:TicTacToe</text><line style="stroke:#A80036;stroke-width:1.5;" x1="842" x2="914" y1="26.0938" y2="26.0938"/><rect fill="#FEFECE" filter="url(#f1e5b7qi87cn4)" height="35.0938" style="stroke:#A80036;stroke-width:1.5;" width="50" x="853" y="102"/><text fill="#000000" font-family="sans-serif" font-size="12" lengthAdjust="spacing" textLength="36" x="860" y="116.457">:Board</text><line style="stroke:#A80036;stroke-width:1.5;" x1="854" x2="902" y1="121.0938" y2="121.0938"/><rect fill="#FEFECE" filter="url(#f1e5b7qi87cn4)" height="35.0938" style="stroke:#A80036;stroke-width:1.5;" width="48" x="462" y="524.5"/><text fill="#000000" font-family="sans-serif" font-size="12" lengthAdjust="spacing" textLength="34" x="469" y="538.957">:Piece</text><line style="stroke:#A80036;stroke-width:1.5;" x1="463" x2="509" y1="543.5938" y2="543.5938"/><rect fill="#FEFECE" filter="url(#f1e5b7qi87cn4)" height="35.0938" style="stroke:#A80036;stroke-width:1.5;" width="48" x="854" y="524.5"/><text fill="#000000" font-family="sans-serif" font-size="12" lengthAdjust="spacing" textLength="34" x="861" y="538.957">:Piece</text><line style="stroke:#A80036;stroke-width:1.5;" x1="855" x2="901" y1="543.5938" y2="543.5938"/><rect fill="#FEFECE" filter="url(#f1e5b7qi87cn4)" height="35.0938" style="stroke:#A80036;stroke-width:1.5;" width="48" x="658" y="524.5"/><text fill="#000000" font-family="sans-serif" font-size="12" lengthAdjust="spacing" textLength="34" x="665" y="538.957">:Piece</text><line style="stroke:#A80036;stroke-width:1.5;" x1="659" x2="705" y1="543.5938" y2="543.5938"/><rect fill="#FEFECE" filter="url(#f1e5b7qi87cn4)" height="35.0938" style="stroke:#A80036;stroke-width:1.5;" width="24" x="670" y="628"/><text fill="#000000" font-family="sans-serif" font-size="12" lengthAdjust="spacing" textLength="10" x="677" y="642.457">:X</text><line style="stroke:#A80036;stroke-width:1.5;" x1="671" x2="693" y1="647.0938" y2="647.0938"/><rect fill="#FEFECE" filter="url(#f1e5b7qi87cn4)" height="35.0938" style="stroke:#A80036;stroke-width:1.5;" width="48" x="7" y="412.5"/><text fill="#000000" font-family="sans-serif" font-size="12" lengthAdjust="spacing" textLength="34" x="14" y="426.957">:Piece</text><line style="stroke:#A80036;stroke-width:1.5;" x1="8" x2="54" y1="431.5938" y2="431.5938"/><rect fill="#FEFECE" filter="url(#f1e5b7qi87cn4)" height="35.0938" style="stroke:#A80036;stroke-width:1.5;" width="48" x="203" y="412.5"/><text fill="#000000" font-family="sans-serif" font-size="12" lengthAdjust="spacing" textLength="34" x="210" y="426.957">:Piece</text><line style="stroke:#A80036;stroke-width:1.5;" x1="204" x2="250" y1="431.5938" y2="431.5938"/><rect fill="#FEFECE" filter="url(#f1e5b7qi87cn4)" height="35.0938" style="stroke:#A80036;stroke-width:1.5;" width="26" x="116" y="524.5"/><text fill="#000000" font-family="sans-serif" font-size="12" lengthAdjust="spacing" textLength="12" x="123" y="538.957">:O</text><line style="stroke:#A80036;stroke-width:1.5;" x1="117" x2="141" y1="543.5938" y2="543.5938"/><!--MD5=[a737d2231371e146ba098899a67f3b67]
link TicTacToe to Board--><path codeLine="59" d="M878,54.13 C878,54.13 878,77.95 878,88.65 " fill="none" id="TicTacToe-Board" style="stroke:#A80036;stroke-width:1.0;"/><polygon fill="#A80036" points="878,101.7,882,92.7,878,96.7,874,92.7,878,101.7" style="stroke:#A80036;stroke-width:1.0;"/><line style="stroke:#A80036;stroke-width:1.0;" x1="878" x2="878" y1="96.7" y2="88.7"/><polygon fill="#A80036" points="878,42.13,874,48.13,878,54.13,882,48.13,878,42.13" style="stroke:#A80036;stroke-width:1.0;"/><!--MD5=[b05122aa053d47b32989bc17f6af2c2f]
link Piece1 to X--><path codeLine="67" d="M520.6306,563.8802 C520.6306,563.8802 525.91,566.86 528,568 C573.21,592.64 627.41,618.8 657.96,633.25 " fill="none" id="Piece1-X" style="stroke:#A80036;stroke-width:1.0;"/><polygon fill="#A80036" points="669.86,638.85,663.4142,631.4034,665.3343,636.7245,660.0133,638.6446,669.86,638.85" style="stroke:#A80036;stroke-width:1.0;"/><line style="stroke:#A80036;stroke-width:1.0;" x1="665.3343" x2="658.095" y1="636.7245" y2="633.32"/><polygon fill="#A80036" points="510.25,557.86,513.4336,564.3303,520.6306,563.8802,517.447,557.4099,510.25,557.86" style="stroke:#A80036;stroke-width:1.0;"/><!--MD5=[55dbc2e5d29490a8f245fd86056aa9fa]
link Piece2 to X--><path codeLine="68" d="M843.5915,564.2623 C843.5915,564.2623 838.82,567 837,568 C791.65,592.95 737.05,619.01 706.25,633.35 " fill="none" id="Piece2-X" style="stroke:#A80036;stroke-width:1.0;"/><polygon fill="#A80036" points="694.25,638.91,704.0976,638.7529,698.7861,636.8067,700.7323,631.4952,694.25,638.91" style="stroke:#A80036;stroke-width:1.0;"/><line style="stroke:#A80036;stroke-width:1.0;" x1="698.7861" x2="706.045" y1="636.8067" y2="633.45"/><polygon fill="#A80036" points="853.93,558.17,846.73,557.77,843.5915,564.2623,850.7915,564.6623,853.93,558.17" style="stroke:#A80036;stroke-width:1.0;"/><!--MD5=[fb5d3faaec123a4398c489648376a2be]
link Piece3 to X--><path codeLine="69" d="M682,571.76 C682,571.76 682,601.46 682,614.58 " fill="none" id="Piece3-X" style="stroke:#A80036;stroke-width:1.0;"/><polygon fill="#A80036" points="682,627.71,686,618.71,682,622.71,678,618.71,682,627.71" style="stroke:#A80036;stroke-width:1.0;"/><line style="stroke:#A80036;stroke-width:1.0;" x1="682" x2="682" y1="622.71" y2="614.71"/><polygon fill="#A80036" points="682,559.76,678,565.76,682,571.76,686,565.76,682,559.76" style="stroke:#A80036;stroke-width:1.0;"/><!--MD5=[a30e751f6120dc755217f8a8cb3facd9]
link Piece1b to O--><path codeLine="76" d="M53.8565,456.6753 C53.8565,456.6753 91.39,498.78 106.95,516.24 " fill="none" id="Piece1b-O" style="stroke:#A80036;stroke-width:1.0;"/><polygon fill="#A80036" points="115.86,526.25,112.8592,516.8694,112.5337,522.5169,106.8863,522.1914,115.86,526.25" style="stroke:#A80036;stroke-width:1.0;"/><line style="stroke:#A80036;stroke-width:1.0;" x1="112.5337" x2="107.215" y1="522.5169" y2="516.545"/><polygon fill="#A80036" points="45.88,447.71,46.8798,454.8515,53.8565,456.6753,52.8567,449.5338,45.88,447.71" style="stroke:#A80036;stroke-width:1.0;"/><!--MD5=[6558dc9c32954fa4c94633f680221aad]
link Piece2b to O--><path codeLine="77" d="M204.1435,456.6753 C204.1435,456.6753 166.61,498.78 151.05,516.24 " fill="none" id="Piece2b-O" style="stroke:#A80036;stroke-width:1.0;"/><polygon fill="#A80036" points="142.14,526.25,151.1137,522.1914,145.4663,522.5169,145.1408,516.8694,142.14,526.25" style="stroke:#A80036;stroke-width:1.0;"/><line style="stroke:#A80036;stroke-width:1.0;" x1="145.4663" x2="150.785" y1="522.5169" y2="516.545"/><polygon fill="#A80036" points="212.12,447.71,205.1433,449.5338,204.1435,456.6753,211.1202,454.8515,212.12,447.71" style="stroke:#A80036;stroke-width:1.0;"/><!--MD5=[9f00f453158db019cc737f926bf9b344]
link Board to Square11--><path codeLine="80" d="M852.87,120.58 C800.67,121.66 677.82,129.1 587,173 C576.79,177.93 567.11,185.78 559.29,193.25 " fill="none" id="Board-to-Square11" style="stroke:#A80036;stroke-width:1.0;"/><polygon fill="#A80036" points="555.6,196.88,564.8207,193.419,559.164,193.3732,559.2098,187.7165,555.6,196.88" style="stroke:#A80036;stroke-width:1.0;"/><!--MD5=[265f7b6f317decc132767c5f623ca0bc]
link Board to Square12--><path codeLine="81" d="M852.76,123.37 C813.59,128.62 736.7,142.23 679,173 C669.16,178.25 659.66,185.99 651.88,193.31 " fill="none" id="Board-to-Square12" style="stroke:#A80036;stroke-width:1.0;"/><polygon fill="#A80036" points="648.2,196.85,657.4551,193.4822,651.7992,193.3793,651.9021,187.7234,648.2,196.85" style="stroke:#A80036;stroke-width:1.0;"/><!--MD5=[a41aa9ba3b884d8d882a9db495d28b5f]
link Board to Square13--><path codeLine="82" d="M852.77,133.01 C832.89,143.14 804.67,158.12 781,173 C770.87,179.37 760.13,186.92 750.8,193.77 " fill="none" id="Board-to-Square13" style="stroke:#A80036;stroke-width:1.0;"/><polygon fill="#A80036" points="746.62,196.86,756.2337,194.7205,750.6388,193.8852,751.474,188.2904,746.62,196.86" style="stroke:#A80036;stroke-width:1.0;"/><!--MD5=[2a48127550db072d047e28db107daefc]
link Board to Square21--><path codeLine="83" d="M862.3,137.28 C833.91,167.57 776.45,228.58 771,232 C698.15,277.73 666.01,257.99 587,292 C582.83,293.79 578.54,295.84 574.33,297.97 " fill="none" id="Board-to-Square21" style="stroke:#A80036;stroke-width:1.0;"/><polygon fill="#A80036" points="569.8,300.31,579.6314,299.7246,574.2403,298.0113,575.9536,292.6202,569.8,300.31" style="stroke:#A80036;stroke-width:1.0;"/><!--MD5=[ad753e41380b62aa8c2dbe48e4770887]
link Board to Square22--><path codeLine="84" d="M875.52,137.16 C871.12,161.2 859.73,205.59 833,232 C780.75,283.63 745.63,261.07 679,292 C674.88,293.91 670.62,296.03 666.43,298.2 " fill="none" id="Board-to-Square22" style="stroke:#A80036;stroke-width:1.0;"/><polygon fill="#A80036" points="661.92,300.57,671.7475,299.9219,666.3455,298.243,668.0244,292.841,661.92,300.57" style="stroke:#A80036;stroke-width:1.0;"/><!--MD5=[7da35c0c2c3faed87a2d1aaa1ed6e28c]
link Board to Square23--><path codeLine="85" d="M889.27,137.31 C903.17,160.34 922.8,202.26 904,232 C872.03,282.58 800.87,303.66 758.54,311.99 " fill="none" id="Board-to-Square23" style="stroke:#A80036;stroke-width:1.0;"/><polygon fill="#A80036" points="753.52,312.94,763.1062,315.1994,758.4331,312.0117,761.6208,307.3385,753.52,312.94" style="stroke:#A80036;stroke-width:1.0;"/><!--MD5=[5070af6906697e6c9c700f9ddd6704a8]
link Board to Square31--><path codeLine="86" d="M903.09,137.11 C914.5,146.2 926.82,158.56 933,173 C943.32,197.11 945.18,208.78 933,232 C853.25,384.09 744.73,336.1 587,404 C582.83,405.79 578.54,407.84 574.33,409.97 " fill="none" id="Board-to-Square31" style="stroke:#A80036;stroke-width:1.0;"/><polygon fill="#A80036" points="569.8,412.31,579.6314,411.7246,574.2403,410.0113,575.9536,404.6202,569.8,412.31" style="stroke:#A80036;stroke-width:1.0;"/><!--MD5=[1a6312cdfa05f693b263f27f42f20b15]
link Board to Square32--><path codeLine="87" d="M903.07,122.15 C958.82,126.41 1090.31,139.81 1117,173 C1164.63,232.23 1164.71,284.84 1117,344 C1071.94,399.87 845.27,420.88 758.69,426.94 " fill="none" id="Board-to-Square32" style="stroke:#A80036;stroke-width:1.0;"/><polygon fill="#A80036" points="753.68,427.29,762.9332,430.6631,758.6682,426.947,762.3844,422.682,753.68,427.29" style="stroke:#A80036;stroke-width:1.0;"/><!--MD5=[981ae21fb6fdb24b10d83f99158e49a7]
link Board to Square33--><path codeLine="88" d="M903.11,119.88 C941.26,120.48 1012.88,127.95 1046,173 C1091.02,234.23 1095.21,286.09 1046,344 C992.49,406.97 757.18,377.23 679,404 C674.23,405.63 669.36,407.74 664.67,410.02 " fill="none" id="Board-to-Square33" style="stroke:#A80036;stroke-width:1.0;"/><polygon fill="#A80036" points="660.04,412.36,669.8769,411.8751,664.5035,410.1068,666.2719,404.7335,660.04,412.36" style="stroke:#A80036;stroke-width:1.0;"/><!--MD5=[094fd51dec5cb6758b0902982cbf7950]
link Square11 to Coordinate11--><path codeLine="90" d="M500.5972,224.863 C500.5972,224.863 348.45,262.95 268,292 C266.45,292.56 264.88,293.14 263.31,293.74 " fill="none" id="Square11-Coordinate11" style="stroke:#A80036;stroke-width:1.0;"/><polygon fill="#A80036" points="251.17,298.64,261.0131,298.9773,255.8059,296.767,258.0162,291.5598,251.17,298.64" style="stroke:#A80036;stroke-width:1.0;"/><line style="stroke:#A80036;stroke-width:1.0;" x1="255.8059" x2="263.225" y1="296.767" y2="293.78"/><polygon fill="#A80036" points="512.27,222.08,505.5059,219.5806,500.5972,224.863,507.3613,227.3624,512.27,222.08" style="stroke:#A80036;stroke-width:1.0;"/><!--MD5=[ab27c5eee5da0929e420fc712adbbb26]
link Square12 to Coordinate12--><path codeLine="91" d="M593.0373,229.9872 C593.0373,229.9872 588.59,231.48 587,232 C496.3,261.45 470.52,259.15 381,292 C379.45,292.57 377.89,293.16 376.32,293.77 " fill="none" id="Square12-Coordinate12" style="stroke:#A80036;stroke-width:1.0;"/><polygon fill="#A80036" points="364.19,298.7,374.0339,299.0131,368.8213,296.8156,371.0189,291.603,364.19,298.7" style="stroke:#A80036;stroke-width:1.0;"/><line style="stroke:#A80036;stroke-width:1.0;" x1="368.8213" x2="376.235" y1="296.8156" y2="293.795"/><polygon fill="#A80036" points="604.38,226.07,597.4029,224.2477,593.0373,229.9872,600.0144,231.8095,604.38,226.07" style="stroke:#A80036;stroke-width:1.0;"/><!--MD5=[ce6232b1a7de4998175bff455bbfb9fd]
link Square13 to Coordinate13--><path codeLine="92" d="M685.0134,229.9118 C685.0134,229.9118 680.58,231.46 679,232 C598.04,259.79 576.05,261.7 496,292 C493.79,292.84 491.54,293.71 489.27,294.61 " fill="none" id="Square13-Coordinate13" style="stroke:#A80036;stroke-width:1.0;"/><polygon fill="#A80036" points="477.12,299.57,486.9643,299.869,481.7486,297.679,483.9387,292.4633,477.12,299.57" style="stroke:#A80036;stroke-width:1.0;"/><line style="stroke:#A80036;stroke-width:1.0;" x1="481.7486" x2="489.15" y1="297.679" y2="294.66"/><polygon fill="#A80036" points="696.33,225.92,689.3411,224.1437,685.0134,229.9118,692.0023,231.6881,696.33,225.92" style="stroke:#A80036;stroke-width:1.0;"/><!--MD5=[5852f88f6dddd41b26308efcb764cc54]
link Square21 to Coordinate21--><path codeLine="93" d="M502.5962,340.9312 C502.5962,340.9312 497.21,343.21 495,344 C362.91,391.4 318.84,361.79 185,404 C183.43,404.5 181.84,405.02 180.25,405.57 " fill="none" id="Square21-Coordinate21" style="stroke:#A80036;stroke-width:1.0;"/><polygon fill="#A80036" points="168.03,410.22,177.8643,410.7559,172.7028,408.4409,175.0178,403.2795,168.03,410.22" style="stroke:#A80036;stroke-width:1.0;"/><line style="stroke:#A80036;stroke-width:1.0;" x1="172.7028" x2="180.18" y1="408.4409" y2="405.605"/><polygon fill="#A80036" points="513.42,335.75,506.281,334.7327,502.5962,340.9312,509.7352,341.9485,513.42,335.75" style="stroke:#A80036;stroke-width:1.0;"/><!--MD5=[2f77f89dd4fd8aa9197ae7bcfe08a3d1]
link Square22 to Coordinate22--><path codeLine="94" d="M593.9906,340.8938 C593.9906,340.8938 588.93,343.21 587,344 C498.82,380.31 470.52,371.15 381,404 C379.45,404.57 377.89,405.16 376.32,405.77 " fill="none" id="Square22-Coordinate22" style="stroke:#A80036;stroke-width:1.0;"/><polygon fill="#A80036" points="364.19,410.7,374.0339,411.0131,368.8213,408.8156,371.0189,403.603,364.19,410.7" style="stroke:#A80036;stroke-width:1.0;"/><line style="stroke:#A80036;stroke-width:1.0;" x1="368.8213" x2="376.235" y1="408.8156" y2="405.795"/><polygon fill="#A80036" points="604.75,335.58,597.5991,334.6504,593.9906,340.8938,601.1416,341.8233,604.75,335.58" style="stroke:#A80036;stroke-width:1.0;"/><!--MD5=[b02370306a447e34a2c7b78048065bbb]
link Square23 to Coordinate23--><path codeLine="95" d="M685.4516,341.036 C685.4516,341.036 680.77,343.23 679,344 C600.41,377.91 576.05,373.7 496,404 C493.79,404.84 491.54,405.71 489.27,406.61 " fill="none" id="Square23-Coordinate23" style="stroke:#A80036;stroke-width:1.0;"/><polygon fill="#A80036" points="477.12,411.57,486.9643,411.869,481.7486,409.679,483.9387,404.4633,477.12,411.57" style="stroke:#A80036;stroke-width:1.0;"/><line style="stroke:#A80036;stroke-width:1.0;" x1="481.7486" x2="489.15" y1="409.679" y2="406.66"/><polygon fill="#A80036" points="696.19,335.68,689.0355,334.7785,685.4516,341.036,692.6061,341.9375,696.19,335.68" style="stroke:#A80036;stroke-width:1.0;"/><!--MD5=[dc01c2d16fcb2427f6a9a7949a207b43]
link Square31 to Coordinate31--><path codeLine="96" d="M514.1758,455.7452 C514.1758,455.7452 501.04,466.92 495,471.5 C477.02,485.14 456.41,498.92 438.11,510.58 " fill="none" id="Square31-Coordinate31" style="stroke:#A80036;stroke-width:1.0;"/><polygon fill="#A80036" points="427.06,517.55,436.8071,516.1379,431.2907,514.8852,432.5434,509.3688,427.06,517.55" style="stroke:#A80036;stroke-width:1.0;"/><line style="stroke:#A80036;stroke-width:1.0;" x1="431.2907" x2="438.055" y1="514.8852" y2="510.62"/><polygon fill="#A80036" points="523.16,447.79,516.0162,448.7729,514.1758,455.7452,521.3196,454.7623,523.16,447.79" style="stroke:#A80036;stroke-width:1.0;"/><!--MD5=[ddc094be38da63e3fb056f9a1ab43589]
link Square32 to Coordinate32--><path codeLine="97" d="M738.7166,458.4431 C738.7166,458.4431 754.33,489.65 761.62,504.25 " fill="none" id="Square32-Coordinate32" style="stroke:#A80036;stroke-width:1.0;"/><polygon fill="#A80036" points="767.48,515.95,767.0328,506.1113,765.2439,511.4779,759.8774,509.689,767.48,515.95" style="stroke:#A80036;stroke-width:1.0;"/><line style="stroke:#A80036;stroke-width:1.0;" x1="765.2439" x2="761.66" y1="511.4779" y2="504.325"/><polygon fill="#A80036" points="733.35,447.71,732.4556,454.8654,738.7166,458.4431,739.611,451.2877,733.35,447.71" style="stroke:#A80036;stroke-width:1.0;"/><!--MD5=[45fee7e179397dc4fc1c457f49931fdd]
link Square33 to Coordinate33--><path codeLine="98" d="M620.679,458.6725 C620.679,458.6725 606.96,489.46 600.54,503.87 " fill="none" id="Square33-Coordinate33" style="stroke:#A80036;stroke-width:1.0;"/><polygon fill="#A80036" points="595.16,515.95,602.4815,509.3625,597.1983,511.3843,595.1765,506.1012,595.16,515.95" style="stroke:#A80036;stroke-width:1.0;"/><line style="stroke:#A80036;stroke-width:1.0;" x1="597.1983" x2="600.445" y1="511.3843" y2="504.075"/><polygon fill="#A80036" points="625.56,447.71,619.4653,451.5642,620.679,458.6725,626.7737,454.8182,625.56,447.71" style="stroke:#A80036;stroke-width:1.0;"/><!--MD5=[13a5bfcd547bcca90bd72ebe5fcbc39e]
link Square11 to Square12--><!--MD5=[bc76116199aafd8295781c7dcab3176f]
link Square12 to Square13--><!--MD5=[c89ffb18fbb7b46681bd5913015ae5e3]
link Square21 to Square22--><!--MD5=[e010c8769b92a1a5952e305a724ea8e4]
link Square22 to Square23--><!--MD5=[f50abd7b4c3d728b1750fcedc3b0f127]
link Square31 to Square32--><!--MD5=[602970f58178e45676872601d2c7aa36]
link Square32 to Square33--><!--MD5=[0f6bfcf04e14b42cde8cbfcc74aaa622]
link Square11 to Square21--><!--MD5=[25839071d6f91f37be67e06b1ae5341a]
link Square12 to Square22--><!--MD5=[f622953a480c4fc89b837fd30211fa77]
link Square13 to Square23--><!--MD5=[a91b861c62fa236fffcb0f2237862284]
link Square21 to Square31--><!--MD5=[72223308d08a89680f2dbb886c02d26d]
link Square22 to Square32--><!--MD5=[090cfe2b176d307a1968440006917c83]
link Square23 to Square33--><!--MD5=[fa70530dc42fecb5cfe59c51df3423b4]
link Square31 to Piece1--><path codeLine="115" d="M527.2834,458.4431 C527.2834,458.4431 508.41,496.19 500.27,512.47 " fill="none" id="Square31-Piece1" style="stroke:#A80036;stroke-width:1.0;"/><polygon fill="#A80036" points="494.25,524.5,501.8526,518.239,496.4861,520.0279,494.6972,514.6613,494.25,524.5" style="stroke:#A80036;stroke-width:1.0;"/><line style="stroke:#A80036;stroke-width:1.0;" x1="496.4861" x2="500.07" y1="520.0279" y2="512.865"/><polygon fill="#A80036" points="532.65,447.71,526.389,451.2877,527.2834,458.4431,533.5444,454.8654,532.65,447.71" style="stroke:#A80036;stroke-width:1.0;"/><!--MD5=[b413b0d45410fddf7b5f451dbea43a9a]
link Square32 to Piece2--><path codeLine="116" d="M757.9852,454.7123 C757.9852,454.7123 819.2,498.72 844.49,516.91 " fill="none" id="Square32-Piece2" style="stroke:#A80036;stroke-width:1.0;"/><polygon fill="#A80036" points="855.05,524.5,850.0828,515.9955,850.9921,521.5788,845.4088,522.4881,855.05,524.5" style="stroke:#A80036;stroke-width:1.0;"/><line style="stroke:#A80036;stroke-width:1.0;" x1="850.9921" x2="844.49" y1="521.5788" y2="516.905"/><polygon fill="#A80036" points="748.24,447.71,750.7785,454.4595,757.9852,454.7123,755.4467,447.9627,748.24,447.71" style="stroke:#A80036;stroke-width:1.0;"/><!--MD5=[8237126dfe67c80ca647b87dec1d2835]
link Square33 to Piece3--><path codeLine="117" d="M645.321,458.6725 C645.321,458.6725 662.11,496.34 669.32,512.53 " fill="none" id="Square33-Piece3" style="stroke:#A80036;stroke-width:1.0;"/><polygon fill="#A80036" points="674.65,524.5,674.6434,514.6511,672.6162,519.9323,667.3351,517.9051,674.65,524.5" style="stroke:#A80036;stroke-width:1.0;"/><line style="stroke:#A80036;stroke-width:1.0;" x1="672.6162" x2="669.355" y1="519.9323" y2="512.62"/><polygon fill="#A80036" points="640.44,447.71,639.2263,454.8182,645.321,458.6725,646.5347,451.5642,640.44,447.71" style="stroke:#A80036;stroke-width:1.0;"/><!--MD5=[a8cb8c73b2fd089cf7c799cdd6716bcc]
link Square11 to Piece1b--><path codeLine="119" d="M500.2512,215.3714 C500.2512,215.3714 267.52,228.26 155,292 C107.97,318.64 69.14,369.55 48.08,401.25 " fill="none" id="Square11-Piece1b" style="stroke:#A80036;stroke-width:1.0;"/><polygon fill="#A80036" points="40.9,412.37,49.1426,406.9793,43.6124,408.1696,42.422,402.6395,40.9,412.37" style="stroke:#A80036;stroke-width:1.0;"/><line style="stroke:#A80036;stroke-width:1.0;" x1="43.6124" x2="47.955" y1="408.1696" y2="401.45"/><polygon fill="#A80036" points="512.25,215.2,506.1935,211.2861,500.2512,215.3714,506.3077,219.2853,512.25,215.2" style="stroke:#A80036;stroke-width:1.0;"/><!--MD5=[55fd063141d7a757ca6dc8c1e47c4647]
link Square21 to Piece2b--><path codeLine="120" d="M502.0172,340.956 C502.0172,340.956 496.94,343.23 495,344 C398.02,382.52 363.99,363.08 268,404 C266.23,404.76 264.44,405.58 262.65,406.45 " fill="none" id="Square21-Piece2b" style="stroke:#A80036;stroke-width:1.0;"/><polygon fill="#A80036" points="251.1,412.73,260.9179,411.9491,255.4937,410.3434,257.0994,404.9193,251.1,412.73" style="stroke:#A80036;stroke-width:1.0;"/><line style="stroke:#A80036;stroke-width:1.0;" x1="255.4937" x2="262.52" y1="410.3434" y2="406.525"/><polygon fill="#A80036" points="512.8,335.69,505.6533,334.7287,502.0172,340.956,509.1639,341.9173,512.8,335.69" style="stroke:#A80036;stroke-width:1.0;"/><!--MD5=[bb05e13b012f42128d5ab9a88650889e]
@startuml EstadoFinal

together {
    object ":Square" as Square11
    object ":Square" as Square12
    object ":Square" as Square13

    object ":Square" as Square21
    object ":Square" as Square22
    object ":Square" as Square23

    object ":Square" as Square31
    object ":Square" as Square32
    object ":Square" as Square33

}

object ":Coordinate" as Coordinate11 {
    row = 1
    column = 1
}
object ":Coordinate" as Coordinate12 {
    row = 1
    column = 2
}
object ":Coordinate" as Coordinate13 {
    row = 1
    column = 3
}

object ":Coordinate" as Coordinate21 {
    row = 2
    column = 1
}
object ":Coordinate" as Coordinate22 {
    row = 2
    column = 2
}
object ":Coordinate" as Coordinate23 {
    row = 2
    column = 3
}

object ":Coordinate" as Coordinate31 {
    row = 3
    column = 1
}
object ":Coordinate" as Coordinate32 {
    row = 3
    column = 2
}
object ":Coordinate" as Coordinate33 {
    row = 3
    column = 3
}

object ":TicTacToe" as TicTacToe
object ":Board" as Board

TicTacToe *-down-> Board

object ":Piece" as Piece1
object ":Piece" as Piece2
object ":Piece" as Piece3

object ":X" as X

Piece1 *-down-> X
Piece2 *-down-> X
Piece3 *-down-> X

object ":Piece" as Piece1b
object ":Piece" as Piece2b

object ":O" as O

Piece1b *-down-> O
Piece2b *-down-> O


Board - ->  Square11
Board - ->  Square12
Board - ->  Square13
Board - ->  Square21
Board - ->  Square22
Board - ->  Square23
Board - ->  Square31
Board - ->  Square32
Board - ->  Square33

Square11 *-down-> Coordinate11
Square12 *-down-> Coordinate12
Square13 *-down-> Coordinate13
Square21 *-down-> Coordinate21
Square22 *-down-> Coordinate22
Square23 *-down-> Coordinate23
Square31 *-down-> Coordinate31
Square32 *-down-> Coordinate32
Square33 *-down-> Coordinate33

Square11 -[hidden]right-> Square12
Square12 -[hidden]right-> Square13
Square21 -[hidden]right-> Square22
Square22 -[hidden]right-> Square23
Square31 -[hidden]right-> Square32
Square32 -[hidden]right-> Square33

Square11 -[hidden]down-> Square21
Square12 -[hidden]down-> Square22
Square13 -[hidden]down-> Square23

Square21 -[hidden]down-> Square31
Square22 -[hidden]down-> Square32
Square23 -[hidden]down-> Square33

Square31 *-down-> Piece1
Square32 *-down-> Piece2
Square33 *-down-> Piece3

Square11 *-down-> Piece1b
Square21 *-down-> Piece2b

@enduml

PlantUML version 1.2021.16(Wed Dec 08 18:25:22 CET 2021)
(GPL source distribution)
Java Runtime: Java(TM) SE Runtime Environment
JVM: Java HotSpot(TM) Client VM
Default Encoding: Cp1252
Language: es
Country: ES
--></g></svg>