<?xml version="1.0" encoding="UTF-8" standalone="no"?><svg xmlns="http://www.w3.org/2000/svg" xmlns:xlink="http://www.w3.org/1999/xlink" contentScriptType="application/ecmascript" contentStyleType="text/css" height="484px" preserveAspectRatio="none" style="width:210px;height:484px;" version="1.1" viewBox="0 0 210 484" width="210px" zoomAndPan="magnify"><defs><filter height="300%" id="f13pow7m0c3j2s" width="300%" x="-1" y="-1"><feGaussianBlur result="blurOut" stdDeviation="2.0"/><feColorMatrix in="blurOut" result="blurOut2" type="matrix" values="0 0 0 0 0 0 0 0 0 0 0 0 0 0 0 0 0 0 .4 0"/><feOffset dx="4.0" dy="4.0" in="blurOut2" result="blurOut3"/><feBlend in="SourceGraphic" in2="blurOut3" mode="normal"/></filter></defs><g><g id="IN_GAME"><rect fill="#FEFECE" filter="url(#f13pow7m0c3j2s)" height="50" rx="12.5" ry="12.5" style="stroke:#A80036;stroke-width:1.5;" width="83" x="14.5" y="87"/><line style="stroke:#A80036;stroke-width:1.5;" x1="14.5" x2="97.5" y1="113.2969" y2="113.2969"/><text fill="#000000" font-family="sans-serif" font-size="14" lengthAdjust="spacing" textLength="63" x="24.5" y="104.9951">IN_GAME</text></g><g id="start"><rect fill="#FEFECE" filter="url(#f13pow7m0c3j2s)" height="50" rx="12.5" ry="12.5" style="stroke:#A80036;stroke-width:1.5;" width="50" x="31" y="214"/><line style="stroke:#A80036;stroke-width:1.5;" x1="31" x2="81" y1="240.2969" y2="240.2969"/><text fill="#000000" font-family="sans-serif" font-size="14" lengthAdjust="spacing" textLength="0" x="58" y="231.9951"/></g><g id="finished"><rect fill="#FEFECE" filter="url(#f13pow7m0c3j2s)" height="50" rx="12.5" ry="12.5" style="stroke:#A80036;stroke-width:1.5;" width="98" x="7" y="341"/><line style="stroke:#A80036;stroke-width:1.5;" x1="7" x2="105" y1="367.2969" y2="367.2969"/><text fill="#000000" font-family="sans-serif" font-size="14" lengthAdjust="spacing" textLength="78" x="17" y="358.9951">OUT_GAME</text></g><ellipse cx="56" cy="16" fill="#000000" filter="url(#f13pow7m0c3j2s)" rx="10" ry="10" style="stroke:none;stroke-width:1.0;"/><ellipse cx="56" cy="462" filter="url(#f13pow7m0c3j2s)" rx="10" ry="10" style="stroke:#000000;stroke-width:1.0;fill:none;"/><ellipse cx="56.5" cy="462.5" fill="#000000" rx="6" ry="6" style="stroke:none;stroke-width:1.0;"/><!--MD5=[bc741243a5bb3318d84c2be45b028a19]
link *start to IN_GAME--><path d="M56,26.013 C56,38.698 56,62.409 56,81.57 " fill="none" id="*start-to-IN_GAME" style="stroke:#A80036;stroke-width:1.0;"/><polygon fill="#A80036" points="56,86.84,60,77.84,56,81.84,52,77.84,56,86.84" style="stroke:#A80036;stroke-width:1.0;"/><!--MD5=[090db6be1f67c7819a10d418a7927dd3]
link IN_GAME to start--><path d="M56,137.101 C56,157.593 56,187.076 56,208.884 " fill="none" id="IN_GAME-to-start" style="stroke:#A80036;stroke-width:1.0;"/><polygon fill="#A80036" points="56,213.973,60,204.973,56,208.973,52,204.973,56,213.973" style="stroke:#A80036;stroke-width:1.0;"/><text fill="#000000" font-family="sans-serif" font-size="13" lengthAdjust="spacing" textLength="145" x="57" y="180.0669">Player requests to exit</text><!--MD5=[fbdfa1e75599811c1c5c934a11f27897]
link start to finished--><path d="M56,264.101 C56,284.593 56,314.076 56,335.884 " fill="none" id="start-to-finished" style="stroke:#A80036;stroke-width:1.0;"/><polygon fill="#A80036" points="56,340.973,60,331.973,56,335.973,52,331.973,56,340.973" style="stroke:#A80036;stroke-width:1.0;"/><text fill="#000000" font-family="sans-serif" font-size="13" lengthAdjust="spacing" textLength="129" x="57" y="307.0669">System allows Save</text><!--MD5=[f20ab7065c26ebabf49f7b8c32a28769]
link finished to *end--><path d="M56,391.2073 C56,408.8423 56,432.1261 56,446.8351 " fill="none" id="finished-to-*end" style="stroke:#A80036;stroke-width:1.0;"/><polygon fill="#A80036" points="56,451.8399,60,442.8399,56,446.8399,52,442.8399,56,451.8399" style="stroke:#A80036;stroke-width:1.0;"/><!--MD5=[85feb9142aad4d3c99eb87a0cc8fe22b]
@startuml
state IN_GAME
state start as " "
state finished as "OUT_GAME"

[*] - -> IN_GAME
IN_GAME - -> start: Player requests to exit
start - -> finished: System allows Save
finished - -> [*]
@enduml

PlantUML version 1.2021.4beta3(Unknown compile time)
(GPL source distribution)
Java Runtime: Java(TM) SE Runtime Environment
JVM: Java HotSpot(TM) 64-Bit Server VM
Default Encoding: UTF-8
Language: en
Country: US
--></g></svg>