<?xml version="1.0" encoding="UTF-8" standalone="no"?><svg xmlns="http://www.w3.org/2000/svg" xmlns:xlink="http://www.w3.org/1999/xlink" contentScriptType="application/ecmascript" contentStyleType="text/css" height="663px" preserveAspectRatio="none" style="width:1158px;height:663px;" version="1.1" viewBox="0 0 1158 663" width="1158px" zoomAndPan="magnify"><defs><filter height="300%" id="f1wlyi7kixjxbe" width="300%" x="-1" y="-1"><feGaussianBlur result="blurOut" stdDeviation="2.0"/><feColorMatrix in="blurOut" result="blurOut2" type="matrix" values="0 0 0 0 0 0 0 0 0 0 0 0 0 0 0 0 0 0 .4 0"/><feOffset dx="4.0" dy="4.0" in="blurOut2" result="blurOut3"/><feBlend in="SourceGraphic" in2="blurOut3" mode="normal"/></filter></defs><g><rect fill="#FEFECE" filter="url(#f1wlyi7kixjxbe)" height="33.9688" style="stroke:#A80036;stroke-width:1.5;" width="61" x="488.5" y="195"/><text fill="#000000" font-family="sans-serif" font-size="12" lengthAdjust="spacing" textLength="47" x="495.5" y="208.1387">:Square</text><line style="stroke:#A80036;stroke-width:1.5;" x1="489.5" x2="548.5" y1="212.9688" y2="212.9688"/><rect fill="#FEFECE" filter="url(#f1wlyi7kixjxbe)" height="33.9688" style="stroke:#A80036;stroke-width:1.5;" width="61" x="584.5" y="195"/><text fill="#000000" font-family="sans-serif" font-size="12" lengthAdjust="spacing" textLength="47" x="591.5" y="208.1387">:Square</text><line style="stroke:#A80036;stroke-width:1.5;" x1="585.5" x2="644.5" y1="212.9688" y2="212.9688"/><rect fill="#FEFECE" filter="url(#f1wlyi7kixjxbe)" height="33.9688" style="stroke:#A80036;stroke-width:1.5;" width="61" x="680.5" y="195"/><text fill="#000000" font-family="sans-serif" font-size="12" lengthAdjust="spacing" textLength="47" x="687.5" y="208.1387">:Square</text><line style="stroke:#A80036;stroke-width:1.5;" x1="681.5" x2="740.5" y1="212.9688" y2="212.9688"/><rect fill="#FEFECE" filter="url(#f1wlyi7kixjxbe)" height="33.9688" style="stroke:#A80036;stroke-width:1.5;" width="61" x="488.5" y="296.5"/><text fill="#000000" font-family="sans-serif" font-size="12" lengthAdjust="spacing" textLength="47" x="495.5" y="309.6387">:Square</text><line style="stroke:#A80036;stroke-width:1.5;" x1="489.5" x2="548.5" y1="314.4688" y2="314.4688"/><rect fill="#FEFECE" filter="url(#f1wlyi7kixjxbe)" height="33.9688" style="stroke:#A80036;stroke-width:1.5;" width="61" x="584.5" y="296.5"/><text fill="#000000" font-family="sans-serif" font-size="12" lengthAdjust="spacing" textLength="47" x="591.5" y="309.6387">:Square</text><line style="stroke:#A80036;stroke-width:1.5;" x1="585.5" x2="644.5" y1="314.4688" y2="314.4688"/><rect fill="#FEFECE" filter="url(#f1wlyi7kixjxbe)" height="33.9688" style="stroke:#A80036;stroke-width:1.5;" width="61" x="680.5" y="296.5"/><text fill="#000000" font-family="sans-serif" font-size="12" lengthAdjust="spacing" textLength="47" x="687.5" y="309.6387">:Square</text><line style="stroke:#A80036;stroke-width:1.5;" x1="681.5" x2="740.5" y1="314.4688" y2="314.4688"/><rect fill="#FEFECE" filter="url(#f1wlyi7kixjxbe)" height="33.9688" style="stroke:#A80036;stroke-width:1.5;" width="61" x="488.5" y="405.5"/><text fill="#000000" font-family="sans-serif" font-size="12" lengthAdjust="spacing" textLength="47" x="495.5" y="418.6387">:Square</text><line style="stroke:#A80036;stroke-width:1.5;" x1="489.5" x2="548.5" y1="423.4688" y2="423.4688"/><rect fill="#FEFECE" filter="url(#f1wlyi7kixjxbe)" height="33.9688" style="stroke:#A80036;stroke-width:1.5;" width="61" x="680.5" y="405.5"/><text fill="#000000" font-family="sans-serif" font-size="12" lengthAdjust="spacing" textLength="47" x="687.5" y="418.6387">:Square</text><line style="stroke:#A80036;stroke-width:1.5;" x1="681.5" x2="740.5" y1="423.4688" y2="423.4688"/><rect fill="#FEFECE" filter="url(#f1wlyi7kixjxbe)" height="33.9688" style="stroke:#A80036;stroke-width:1.5;" width="61" x="584.5" y="405.5"/><text fill="#000000" font-family="sans-serif" font-size="12" lengthAdjust="spacing" textLength="47" x="591.5" y="418.6387">:Square</text><line style="stroke:#A80036;stroke-width:1.5;" x1="585.5" x2="644.5" y1="423.4688" y2="423.4688"/><rect fill="#FEFECE" filter="url(#f1wlyi7kixjxbe)" height="49.25" style="stroke:#A80036;stroke-width:1.5;" width="84" x="131" y="289"/><text fill="#000000" font-family="sans-serif" font-size="12" lengthAdjust="spacing" textLength="70" x="138" y="302.1387">:Coordinate</text><line style="stroke:#A80036;stroke-width:1.5;" x1="132" x2="214" y1="306.9688" y2="306.9688"/><text fill="#000000" font-family="sans-serif" font-size="10" lengthAdjust="spacing" textLength="40" x="137" y="320.251">row = 1</text><text fill="#000000" font-family="sans-serif" font-size="10" lengthAdjust="spacing" textLength="62" x="137" y="331.8916">column = 1</text><rect fill="#FEFECE" filter="url(#f1wlyi7kixjxbe)" height="49.25" style="stroke:#A80036;stroke-width:1.5;" width="84" x="250" y="289"/><text fill="#000000" font-family="sans-serif" font-size="12" lengthAdjust="spacing" textLength="70" x="257" y="302.1387">:Coordinate</text><line style="stroke:#A80036;stroke-width:1.5;" x1="251" x2="333" y1="306.9688" y2="306.9688"/><text fill="#000000" font-family="sans-serif" font-size="10" lengthAdjust="spacing" textLength="40" x="256" y="320.251">row = 1</text><text fill="#000000" font-family="sans-serif" font-size="10" lengthAdjust="spacing" textLength="61" x="256" y="331.8916">column = 2</text><rect fill="#FEFECE" filter="url(#f1wlyi7kixjxbe)" height="49.25" style="stroke:#A80036;stroke-width:1.5;" width="84" x="369" y="289"/><text fill="#000000" font-family="sans-serif" font-size="12" lengthAdjust="spacing" textLength="70" x="376" y="302.1387">:Coordinate</text><line style="stroke:#A80036;stroke-width:1.5;" x1="370" x2="452" y1="306.9688" y2="306.9688"/><text fill="#000000" font-family="sans-serif" font-size="10" lengthAdjust="spacing" textLength="40" x="375" y="320.251">row = 1</text><text fill="#000000" font-family="sans-serif" font-size="10" lengthAdjust="spacing" textLength="62" x="375" y="331.8916">column = 3</text><rect fill="#FEFECE" filter="url(#f1wlyi7kixjxbe)" height="49.25" style="stroke:#A80036;stroke-width:1.5;" width="84" x="46" y="398"/><text fill="#000000" font-family="sans-serif" font-size="12" lengthAdjust="spacing" textLength="70" x="53" y="411.1387">:Coordinate</text><line style="stroke:#A80036;stroke-width:1.5;" x1="47" x2="129" y1="415.9688" y2="415.9688"/><text fill="#000000" font-family="sans-serif" font-size="10" lengthAdjust="spacing" textLength="39" x="52" y="429.251">row = 2</text><text fill="#000000" font-family="sans-serif" font-size="10" lengthAdjust="spacing" textLength="62" x="52" y="440.8916">column = 1</text><rect fill="#FEFECE" filter="url(#f1wlyi7kixjxbe)" height="49.25" style="stroke:#A80036;stroke-width:1.5;" width="84" x="250" y="398"/><text fill="#000000" font-family="sans-serif" font-size="12" lengthAdjust="spacing" textLength="70" x="257" y="411.1387">:Coordinate</text><line style="stroke:#A80036;stroke-width:1.5;" x1="251" x2="333" y1="415.9688" y2="415.9688"/><text fill="#000000" font-family="sans-serif" font-size="10" lengthAdjust="spacing" textLength="39" x="256" y="429.251">row = 2</text><text fill="#000000" font-family="sans-serif" font-size="10" lengthAdjust="spacing" textLength="61" x="256" y="440.8916">column = 2</text><rect fill="#FEFECE" filter="url(#f1wlyi7kixjxbe)" height="49.25" style="stroke:#A80036;stroke-width:1.5;" width="84" x="369" y="398"/><text fill="#000000" font-family="sans-serif" font-size="12" lengthAdjust="spacing" textLength="70" x="376" y="411.1387">:Coordinate</text><line style="stroke:#A80036;stroke-width:1.5;" x1="370" x2="452" y1="415.9688" y2="415.9688"/><text fill="#000000" font-family="sans-serif" font-size="10" lengthAdjust="spacing" textLength="39" x="375" y="429.251">row = 2</text><text fill="#000000" font-family="sans-serif" font-size="10" lengthAdjust="spacing" textLength="62" x="375" y="440.8916">column = 3</text><rect fill="#FEFECE" filter="url(#f1wlyi7kixjxbe)" height="49.25" style="stroke:#A80036;stroke-width:1.5;" width="84" x="318" y="507"/><text fill="#000000" font-family="sans-serif" font-size="12" lengthAdjust="spacing" textLength="70" x="325" y="520.1387">:Coordinate</text><line style="stroke:#A80036;stroke-width:1.5;" x1="319" x2="401" y1="524.9688" y2="524.9688"/><text fill="#000000" font-family="sans-serif" font-size="10" lengthAdjust="spacing" textLength="40" x="324" y="538.251">row = 3</text><text fill="#000000" font-family="sans-serif" font-size="10" lengthAdjust="spacing" textLength="62" x="324" y="549.8916">column = 1</text><rect fill="#FEFECE" filter="url(#f1wlyi7kixjxbe)" height="49.25" style="stroke:#A80036;stroke-width:1.5;" width="84" x="726" y="507"/><text fill="#000000" font-family="sans-serif" font-size="12" lengthAdjust="spacing" textLength="70" x="733" y="520.1387">:Coordinate</text><line style="stroke:#A80036;stroke-width:1.5;" x1="727" x2="809" y1="524.9688" y2="524.9688"/><text fill="#000000" font-family="sans-serif" font-size="10" lengthAdjust="spacing" textLength="40" x="732" y="538.251">row = 3</text><text fill="#000000" font-family="sans-serif" font-size="10" lengthAdjust="spacing" textLength="61" x="732" y="549.8916">column = 2</text><rect fill="#FEFECE" filter="url(#f1wlyi7kixjxbe)" height="49.25" style="stroke:#A80036;stroke-width:1.5;" width="84" x="522" y="507"/><text fill="#000000" font-family="sans-serif" font-size="12" lengthAdjust="spacing" textLength="70" x="529" y="520.1387">:Coordinate</text><line style="stroke:#A80036;stroke-width:1.5;" x1="523" x2="605" y1="524.9688" y2="524.9688"/><text fill="#000000" font-family="sans-serif" font-size="10" lengthAdjust="spacing" textLength="40" x="528" y="538.251">row = 3</text><text fill="#000000" font-family="sans-serif" font-size="10" lengthAdjust="spacing" textLength="62" x="528" y="549.8916">column = 3</text><rect fill="#FEFECE" filter="url(#f1wlyi7kixjxbe)" height="33.9688" style="stroke:#A80036;stroke-width:1.5;" width="79" x="826.5" y="7"/><text fill="#000000" font-family="sans-serif" font-size="12" lengthAdjust="spacing" textLength="65" x="833.5" y="20.1387">:TicTacToe</text><line style="stroke:#A80036;stroke-width:1.5;" x1="827.5" x2="904.5" y1="24.9688" y2="24.9688"/><rect fill="#FEFECE" filter="url(#f1wlyi7kixjxbe)" height="33.9688" style="stroke:#A80036;stroke-width:1.5;" width="54" x="839" y="101"/><text fill="#000000" font-family="sans-serif" font-size="12" lengthAdjust="spacing" textLength="40" x="846" y="114.1387">:Board</text><line style="stroke:#A80036;stroke-width:1.5;" x1="840" x2="892" y1="118.9688" y2="118.9688"/><rect fill="#FEFECE" filter="url(#f1wlyi7kixjxbe)" height="33.9688" style="stroke:#A80036;stroke-width:1.5;" width="50" x="437" y="514.5"/><text fill="#000000" font-family="sans-serif" font-size="12" lengthAdjust="spacing" textLength="36" x="444" y="527.6387">:Piece</text><line style="stroke:#A80036;stroke-width:1.5;" x1="438" x2="486" y1="532.4688" y2="532.4688"/><rect fill="#FEFECE" filter="url(#f1wlyi7kixjxbe)" height="33.9688" style="stroke:#A80036;stroke-width:1.5;" width="50" x="845" y="514.5"/><text fill="#000000" font-family="sans-serif" font-size="12" lengthAdjust="spacing" textLength="36" x="852" y="527.6387">:Piece</text><line style="stroke:#A80036;stroke-width:1.5;" x1="846" x2="894" y1="532.4688" y2="532.4688"/><rect fill="#FEFECE" filter="url(#f1wlyi7kixjxbe)" height="33.9688" style="stroke:#A80036;stroke-width:1.5;" width="50" x="641" y="514.5"/><text fill="#000000" font-family="sans-serif" font-size="12" lengthAdjust="spacing" textLength="36" x="648" y="527.6387">:Piece</text><line style="stroke:#A80036;stroke-width:1.5;" x1="642" x2="690" y1="532.4688" y2="532.4688"/><rect fill="#FEFECE" filter="url(#f1wlyi7kixjxbe)" height="33.9688" style="stroke:#A80036;stroke-width:1.5;" width="26" x="653" y="616"/><text fill="#000000" font-family="sans-serif" font-size="12" lengthAdjust="spacing" textLength="12" x="660" y="629.1387">:X</text><line style="stroke:#A80036;stroke-width:1.5;" x1="654" x2="678" y1="633.9688" y2="633.9688"/><rect fill="#FEFECE" filter="url(#f1wlyi7kixjxbe)" height="33.9688" style="stroke:#A80036;stroke-width:1.5;" width="50" x="7" y="296.5"/><text fill="#000000" font-family="sans-serif" font-size="12" lengthAdjust="spacing" textLength="36" x="14" y="309.6387">:Piece</text><line style="stroke:#A80036;stroke-width:1.5;" x1="8" x2="56" y1="314.4688" y2="314.4688"/><rect fill="#FEFECE" filter="url(#f1wlyi7kixjxbe)" height="33.9688" style="stroke:#A80036;stroke-width:1.5;" width="50" x="165" y="405.5"/><text fill="#000000" font-family="sans-serif" font-size="12" lengthAdjust="spacing" textLength="36" x="172" y="418.6387">:Piece</text><line style="stroke:#A80036;stroke-width:1.5;" x1="166" x2="214" y1="423.4688" y2="423.4688"/><rect fill="#FEFECE" filter="url(#f1wlyi7kixjxbe)" height="33.9688" style="stroke:#A80036;stroke-width:1.5;" width="28" x="78" y="514.5"/><text fill="#000000" font-family="sans-serif" font-size="12" lengthAdjust="spacing" textLength="14" x="85" y="527.6387">:O</text><line style="stroke:#A80036;stroke-width:1.5;" x1="79" x2="105" y1="532.4688" y2="532.4688"/><!--MD5=[a737d2231371e146ba098899a67f3b67]
link TicTacToe to Board--><path codeLine="58" d="M866,53.025 C866,53.025 866,77.034 866,87.779 " fill="none" id="TicTacToe-Board" style="stroke:#A80036;stroke-width:1.0;"/><polygon fill="#A80036" points="866,100.85,870,91.85,866,95.85,862,91.85,866,100.85" style="stroke:#A80036;stroke-width:1.0;"/><line style="stroke:#A80036;stroke-width:1.0;" x1="866" x2="866" y1="95.85" y2="87.85"/><polygon fill="#A80036" points="866,41.025,862,47.025,866,53.025,870,47.025,866,41.025" style="stroke:#A80036;stroke-width:1.0;"/><!--MD5=[b05122aa053d47b32989bc17f6af2c2f]
link Piece1 to X--><path codeLine="66" d="M497.7047,552.6918 C497.7047,552.6918 502.281,555.1174 504,556 C551.637,580.4616 608.571,606.4386 640.684,620.7997 " fill="none" id="Piece1-X" style="stroke:#A80036;stroke-width:1.0;"/><polygon fill="#A80036" points="652.827,626.205,646.2317,618.8905,648.2592,624.1715,642.9781,626.199,652.827,626.205" style="stroke:#A80036;stroke-width:1.0;"/><line style="stroke:#A80036;stroke-width:1.0;" x1="648.2592" x2="640.9505" y1="624.1715" y2="620.9185"/><polygon fill="#A80036" points="487.161,546.962,490.5229,553.3415,497.7047,552.6918,494.3428,546.3123,487.161,546.962" style="stroke:#A80036;stroke-width:1.0;"/><!--MD5=[55dbc2e5d29490a8f245fd86056aa9fa]
link Piece2 to X--><path codeLine="67" d="M834.0822,552.3234 C834.0822,552.3234 828.981,554.9922 827,556 C779.512,580.1581 722.98,606.2403 691.114,620.7026 " fill="none" id="Piece2-X" style="stroke:#A80036;stroke-width:1.0;"/><polygon fill="#A80036" points="679.065,626.1498,688.9137,626.0868,683.621,624.0899,685.6178,618.7972,679.065,626.1498" style="stroke:#A80036;stroke-width:1.0;"/><line style="stroke:#A80036;stroke-width:1.0;" x1="683.621" x2="690.9105" y1="624.0899" y2="620.7942"/><polygon fill="#A80036" points="844.666,546.668,837.489,545.9678,834.0822,552.3234,841.2593,553.0236,844.666,546.668" style="stroke:#A80036;stroke-width:1.0;"/><!--MD5=[fb5d3faaec123a4398c489648376a2be]
link Piece3 to X--><path codeLine="68" d="M666,560.93 C666,560.93 666,589.7633 666,602.5694 " fill="none" id="Piece3-X" style="stroke:#A80036;stroke-width:1.0;"/><polygon fill="#A80036" points="666,615.8753,670,606.8753,666,610.8753,662,606.8753,666,615.8753" style="stroke:#A80036;stroke-width:1.0;"/><line style="stroke:#A80036;stroke-width:1.0;" x1="666" x2="666" y1="610.8753" y2="602.8754"/><polygon fill="#A80036" points="666,548.93,662,554.93,666,560.93,670,554.93,666,548.93" style="stroke:#A80036;stroke-width:1.0;"/><!--MD5=[a30e751f6120dc755217f8a8cb3facd9]
link Piece1b to O--><path codeLine="75" d="M24.8343,342.6026 C24.8343,342.6026 12.3025,424.341 28,463.5 C35.9651,483.37 52.9438,500.687 67.4125,512.736 " fill="none" id="Piece1b-O" style="stroke:#A80036;stroke-width:1.0;"/><polygon fill="#A80036" points="77.7967,520.878,73.1824,512.177,73.862,517.7928,68.2461,518.4725,77.7967,520.878" style="stroke:#A80036;stroke-width:1.0;"/><line style="stroke:#A80036;stroke-width:1.0;" x1="73.862" x2="67.5665" y1="517.7928" y2="512.8565"/><polygon fill="#A80036" points="27.4717,330.896,22.2508,335.8702,24.8343,342.6026,30.0552,337.6284,27.4717,330.896" style="stroke:#A80036;stroke-width:1.0;"/><!--MD5=[6558dc9c32954fa4c94633f680221aad]
link Piece2b to O--><path codeLine="76" d="M167.0114,448.6006 C167.0114,448.6006 130.382,488.593 114.959,505.432 " fill="none" id="Piece2b-O" style="stroke:#A80036;stroke-width:1.0;"/><polygon fill="#A80036" points="106.0687,515.139,115.0976,511.2047,109.4462,511.4522,109.1987,505.8007,106.0687,515.139" style="stroke:#A80036;stroke-width:1.0;"/><line style="stroke:#A80036;stroke-width:1.0;" x1="109.4462" x2="114.849" y1="511.4522" y2="505.5525"/><polygon fill="#A80036" points="175.116,439.751,168.1138,441.4743,167.0114,448.6006,174.0136,446.8773,175.116,439.751" style="stroke:#A80036;stroke-width:1.0;"/><!--MD5=[9f00f453158db019cc737f926bf9b344]
link Board to Square11--><path codeLine="79" d="M838.625,119.109 C784.281,120.302 660.002,127.957 567,171 C556.34,175.933 546.111,183.85 537.854,191.343 " fill="none" id="Board-to-Square11" style="stroke:#A80036;stroke-width:1.0;"/><polygon fill="#A80036" points="533.967,194.972,543.2754,191.7542,537.6218,191.56,537.8161,185.9064,533.967,194.972" style="stroke:#A80036;stroke-width:1.0;"/><!--MD5=[265f7b6f317decc132767c5f623ca0bc]
link Board to Square12--><path codeLine="80" d="M838.7,122.099 C798.404,127.512 721.465,141.099 663,171 C652.708,176.263 642.668,184.076 634.452,191.403 " fill="none" id="Board-to-Square12" style="stroke:#A80036;stroke-width:1.0;"/><polygon fill="#A80036" points="630.573,194.948,639.916,191.8321,634.2649,191.5761,634.521,185.9251,630.573,194.948" style="stroke:#A80036;stroke-width:1.0;"/><!--MD5=[a41aa9ba3b884d8d882a9db495d28b5f]
link Board to Square13--><path codeLine="81" d="M838.786,132.556 C819.088,142.616 791.998,156.966 769,171 C758.402,177.467 747.09,185.094 737.297,191.945 " fill="none" id="Board-to-Square13" style="stroke:#A80036;stroke-width:1.0;"/><polygon fill="#A80036" points="733.199,194.827,742.8615,192.9204,737.2885,191.9502,738.2587,186.3772,733.199,194.827" style="stroke:#A80036;stroke-width:1.0;"/><!--MD5=[2a48127550db072d047e28db107daefc]
link Board to Square21--><path codeLine="82" d="M850.744,135.095 C822.511,164.822 764.476,225.635 759,229 C682.831,275.81 650.056,255.915 567,289 C562.822,290.664 558.506,292.541 554.253,294.489 " fill="none" id="Board-to-Square21" style="stroke:#A80036;stroke-width:1.0;"/><polygon fill="#A80036" points="549.673,296.626,559.5202,296.4454,554.2041,294.5119,556.1376,289.1957,549.673,296.626" style="stroke:#A80036;stroke-width:1.0;"/><!--MD5=[ad753e41380b62aa8c2dbe48e4770887]
link Board to Square22--><path codeLine="83" d="M863.562,135.079 C859.164,158.736 847.741,202.929 821,229 C767.216,281.436 731.916,259.12 663,289 C658.811,290.816 654.46,292.802 650.163,294.826 " fill="none" id="Board-to-Square22" style="stroke:#A80036;stroke-width:1.0;"/><polygon fill="#A80036" points="645.531,297.03,655.3765,296.774,650.0457,294.8812,651.9385,289.5504,645.531,297.03" style="stroke:#A80036;stroke-width:1.0;"/><!--MD5=[7da35c0c2c3faed87a2d1aaa1ed6e28c]
link Board to Square23--><path codeLine="84" d="M877.014,135.219 C890.903,157.891 910.828,199.579 892,229 C860.004,278.998 789.626,299.482 746.665,307.557 " fill="none" id="Board-to-Square23" style="stroke:#A80036;stroke-width:1.0;"/><polygon fill="#A80036" points="741.566,308.481,751.1349,310.8124,746.4859,307.5896,749.7087,302.9405,741.566,308.481" style="stroke:#A80036;stroke-width:1.0;"/><!--MD5=[5070af6906697e6c9c700f9ddd6704a8]
link Board to Square31--><path codeLine="85" d="M891.233,135.078 C902.934,144.068 915.636,156.406 922,171 C932.304,194.629 934.147,206.264 922,229 C839.655,383.126 729.338,333.333 567,398 C562.822,399.664 558.506,401.541 554.253,403.489 " fill="none" id="Board-to-Square31" style="stroke:#A80036;stroke-width:1.0;"/><polygon fill="#A80036" points="549.673,405.626,559.5202,405.4454,554.2041,403.5119,556.1376,398.1957,549.673,405.626" style="stroke:#A80036;stroke-width:1.0;"/><!--MD5=[1a6312cdfa05f693b263f27f42f20b15]
link Board to Square32--><path codeLine="86" d="M893.183,120.757 C950.076,125.061 1078.62,138.266 1105,171 C1151.57,228.793 1151.73,280.333 1105,338 C1059.95,393.596 835.089,413.667 746.731,419.481 " fill="none" id="Board-to-Square32" style="stroke:#A80036;stroke-width:1.0;"/><polygon fill="#A80036" points="741.616,419.811,750.8555,423.2216,746.6056,419.4882,750.339,415.2383,741.616,419.811" style="stroke:#A80036;stroke-width:1.0;"/><!--MD5=[981ae21fb6fdb24b10d83f99158e49a7]
link Board to Square33--><path codeLine="87" d="M893.005,118.332 C931.579,119.028 1001.387,126.766 1034,171 C1078.05,230.74 1082.11,281.483 1034,338 C979.864,401.594 742.59,372.697 663,398 C658.358,399.476 653.601,401.335 648.971,403.357 " fill="none" id="Board-to-Square33" style="stroke:#A80036;stroke-width:1.0;"/><polygon fill="#A80036" points="644.394,405.427,654.2427,405.3647,648.9501,403.3675,650.9474,398.0749,644.394,405.427" style="stroke:#A80036;stroke-width:1.0;"/><!--MD5=[094fd51dec5cb6758b0902982cbf7950]
link Square11 to Coordinate11--><path codeLine="89" d="M476.7907,222.4975 C476.7907,222.4975 317.186,260.869 232,289 C230.554,289.478 229.092,289.972 227.62,290.48 " fill="none" id="Square11-Coordinate11" style="stroke:#A80036;stroke-width:1.0;"/><polygon fill="#A80036" points="215.315,294.94,225.1394,295.6335,220.0157,293.2361,222.4132,288.1124,215.315,294.94" style="stroke:#A80036;stroke-width:1.0;"/><line style="stroke:#A80036;stroke-width:1.0;" x1="220.0157" x2="227.5365" y1="293.2361" y2="290.5105"/><polygon fill="#A80036" points="488.485,219.806,481.7407,217.2536,476.7907,222.4975,483.535,225.0498,488.485,219.806" style="stroke:#A80036;stroke-width:1.0;"/><!--MD5=[ab27c5eee5da0929e420fc712adbbb26]
link Square12 to Coordinate12--><path codeLine="90" d="M572.924,227.1513 C572.924,227.1513 568.583,228.517 567,229 C471.708,258.096 445.419,257.186 351,289 C349.443,289.525 347.866,290.068 346.279,290.626 " fill="none" id="Square12-Coordinate12" style="stroke:#A80036;stroke-width:1.0;"/><polygon fill="#A80036" points="334.014,295.125,343.841,295.781,338.7082,293.4031,341.086,288.2703,334.014,295.125" style="stroke:#A80036;stroke-width:1.0;"/><line style="stroke:#A80036;stroke-width:1.0;" x1="338.7082" x2="346.219" y1="293.4031" y2="290.648"/><polygon fill="#A80036" points="584.347,223.475,577.4101,221.5055,572.924,227.1513,579.8609,229.1208,584.347,223.475" style="stroke:#A80036;stroke-width:1.0;"/><!--MD5=[ce6232b1a7de4998175bff455bbfb9fd]
link Square13 to Coordinate13--><path codeLine="91" d="M668.9008,227.0775 C668.9008,227.0775 664.575,228.49 663,229 C578.346,256.403 556.002,259.658 472,289 C469.901,289.733 467.765,290.492 465.612,291.268 " fill="none" id="Square13-Coordinate13" style="stroke:#A80036;stroke-width:1.0;"/><polygon fill="#A80036" points="453.203,295.843,463.0311,296.4826,457.8943,294.1133,460.2636,288.9765,453.203,295.843" style="stroke:#A80036;stroke-width:1.0;"/><line style="stroke:#A80036;stroke-width:1.0;" x1="457.8943" x2="465.401" y1="294.1133" y2="291.346"/><polygon fill="#A80036" points="680.298,223.322,673.3476,221.4007,668.9008,227.0775,675.8513,228.9988,680.298,223.322" style="stroke:#A80036;stroke-width:1.0;"/><!--MD5=[5852f88f6dddd41b26308efcb764cc54]
link Square21 to Coordinate21--><path codeLine="92" d="M477.6083,335.225 C477.6083,335.225 472.127,337.306 470,338 C331.192,383.296 287.27,357.459 147,398 C145.537,398.423 144.06,398.868 142.575,399.333 " fill="none" id="Square21-Coordinate21" style="stroke:#A80036;stroke-width:1.0;"/><polygon fill="#A80036" points="130.193,403.548,140.0018,404.435,134.9264,401.9371,137.4243,396.8616,130.193,403.548" style="stroke:#A80036;stroke-width:1.0;"/><line style="stroke:#A80036;stroke-width:1.0;" x1="134.9264" x2="142.5" y1="401.9371" y2="399.3585"/><polygon fill="#A80036" points="488.667,330.566,481.5847,329.2093,477.6083,335.225,484.6907,336.5817,488.667,330.566" style="stroke:#A80036;stroke-width:1.0;"/><!--MD5=[2f77f89dd4fd8aa9197ae7bcfe08a3d1]
link Square22 to Coordinate22--><path codeLine="93" d="M573.4203,335.3987 C573.4203,335.3987 568.789,337.32 567,338 C473.862,373.389 445.419,366.186 351,398 C349.443,398.525 347.866,399.068 346.279,399.626 " fill="none" id="Square22-Coordinate22" style="stroke:#A80036;stroke-width:1.0;"/><polygon fill="#A80036" points="334.014,404.125,343.841,404.781,338.7082,402.4031,341.086,397.2703,334.014,404.125" style="stroke:#A80036;stroke-width:1.0;"/><line style="stroke:#A80036;stroke-width:1.0;" x1="338.7082" x2="346.219" y1="402.4031" y2="399.648"/><polygon fill="#A80036" points="584.386,330.525,577.2786,329.3066,573.4203,335.3987,580.5277,336.6171,584.386,330.525" style="stroke:#A80036;stroke-width:1.0;"/><!--MD5=[b02370306a447e34a2c7b78048065bbb]
link Square23 to Coordinate23--><path codeLine="94" d="M669.3924,335.3144 C669.3924,335.3144 664.777,337.29 663,338 C580.363,370.99 556.002,368.658 472,398 C469.901,398.733 467.765,399.492 465.612,400.268 " fill="none" id="Square23-Coordinate23" style="stroke:#A80036;stroke-width:1.0;"/><polygon fill="#A80036" points="453.203,404.843,463.0311,405.4826,457.8943,403.1133,460.2636,397.9765,453.203,404.843" style="stroke:#A80036;stroke-width:1.0;"/><line style="stroke:#A80036;stroke-width:1.0;" x1="457.8943" x2="465.401" y1="403.1133" y2="400.346"/><polygon fill="#A80036" points="680.325,330.367,673.2095,329.1965,669.3924,335.3144,676.5078,336.4849,680.325,330.367" style="stroke:#A80036;stroke-width:1.0;"/><!--MD5=[dc01c2d16fcb2427f6a9a7949a207b43]
link Square31 to Coordinate31--><path codeLine="95" d="M491.133,447.3331 C491.133,447.3331 476.661,458.786 470,463.5 C451.947,476.275 431.424,489.18 413.034,500.207 " fill="none" id="Square31-Coordinate31" style="stroke:#A80036;stroke-width:1.0;"/><polygon fill="#A80036" points="401.604,506.987,411.3852,505.835,405.9042,504.4358,407.3033,498.9547,401.604,506.987" style="stroke:#A80036;stroke-width:1.0;"/><line style="stroke:#A80036;stroke-width:1.0;" x1="405.9042" x2="412.7855" y1="504.4358" y2="500.355"/><polygon fill="#A80036" points="500.394,439.702,493.2198,440.4306,491.133,447.3331,498.3072,446.6046,500.394,439.702" style="stroke:#A80036;stroke-width:1.0;"/><!--MD5=[ddc094be38da63e3fb056f9a1ab43589]
link Square32 to Coordinate32--><path codeLine="96" d="M725.2992,450.3418 C725.2992,450.3418 741.548,480.844 749.121,495.06 " fill="none" id="Square32-Coordinate32" style="stroke:#A80036;stroke-width:1.0;"/><polygon fill="#A80036" points="755.448,506.938,754.7476,497.1141,753.0975,502.5249,747.6867,500.8749,755.448,506.938" style="stroke:#A80036;stroke-width:1.0;"/><line style="stroke:#A80036;stroke-width:1.0;" x1="753.0975" x2="749.336" y1="502.5249" y2="495.464"/><polygon fill="#A80036" points="719.657,439.751,718.9478,446.9271,725.2992,450.3418,726.0084,443.1657,719.657,439.751" style="stroke:#A80036;stroke-width:1.0;"/><!--MD5=[45fee7e179397dc4fc1c457f49931fdd]
link Square33 to Coordinate33--><path codeLine="97" d="M602.0904,450.5832 C602.0904,450.5832 587.603,480.979 580.863,495.12 " fill="none" id="Square33-Coordinate33" style="stroke:#A80036;stroke-width:1.0;"/><polygon fill="#A80036" points="575.231,506.938,582.7141,500.5346,577.3823,502.4245,575.4924,497.0926,575.231,506.938" style="stroke:#A80036;stroke-width:1.0;"/><line style="stroke:#A80036;stroke-width:1.0;" x1="577.3823" x2="580.824" y1="502.4245" y2="495.2025"/><polygon fill="#A80036" points="607.254,439.751,601.0615,443.4459,602.0904,450.5832,608.2829,446.8883,607.254,439.751" style="stroke:#A80036;stroke-width:1.0;"/><!--MD5=[13a5bfcd547bcca90bd72ebe5fcbc39e]
link Square11 to Square12--><!--MD5=[bc76116199aafd8295781c7dcab3176f]
link Square12 to Square13--><!--MD5=[c89ffb18fbb7b46681bd5913015ae5e3]
link Square21 to Square22--><!--MD5=[e010c8769b92a1a5952e305a724ea8e4]
link Square22 to Square23--><!--MD5=[f50abd7b4c3d728b1750fcedc3b0f127]
link Square31 to Square32--><!--MD5=[602970f58178e45676872601d2c7aa36]
link Square32 to Square33--><!--MD5=[0f6bfcf04e14b42cde8cbfcc74aaa622]
link Square11 to Square21--><!--MD5=[25839071d6f91f37be67e06b1ae5341a]
link Square12 to Square22--><!--MD5=[f622953a480c4fc89b837fd30211fa77]
link Square13 to Square23--><!--MD5=[a91b861c62fa236fffcb0f2237862284]
link Square21 to Square31--><!--MD5=[72223308d08a89680f2dbb886c02d26d]
link Square22 to Square32--><!--MD5=[090cfe2b176d307a1968440006917c83]
link Square23 to Square33--><!--MD5=[fa70530dc42fecb5cfe59c51df3423b4]
link Square31 to Piece1--><path codeLine="114" d="M504.7008,450.3418 C504.7008,450.3418 485.22,486.912 476.785,502.746 " fill="none" id="Square31-Piece1" style="stroke:#A80036;stroke-width:1.0;"/><polygon fill="#A80036" points="470.552,514.447,478.3133,508.3839,472.9025,510.0339,471.2524,504.6231,470.552,514.447" style="stroke:#A80036;stroke-width:1.0;"/><line style="stroke:#A80036;stroke-width:1.0;" x1="472.9025" x2="476.664" y1="510.0339" y2="502.973"/><polygon fill="#A80036" points="510.343,439.751,503.9916,443.1657,504.7008,450.3418,511.0522,446.9271,510.343,439.751" style="stroke:#A80036;stroke-width:1.0;"/><!--MD5=[b413b0d45410fddf7b5f451dbea43a9a]
link Square32 to Piece2--><path codeLine="115" d="M744.7601,446.2179 C744.7601,446.2179 808.443,489.075 834.963,506.921 " fill="none" id="Square32-Piece2" style="stroke:#A80036;stroke-width:1.0;"/><polygon fill="#A80036" points="846.033,514.372,840.7994,506.0288,841.8848,511.5805,836.333,512.6659,846.033,514.372" style="stroke:#A80036;stroke-width:1.0;"/><line style="stroke:#A80036;stroke-width:1.0;" x1="841.8848" x2="835.248" y1="511.5805" y2="507.1135"/><polygon fill="#A80036" points="734.804,439.519,737.5491,446.1872,744.7601,446.2179,742.015,439.5498,734.804,439.519" style="stroke:#A80036;stroke-width:1.0;"/><!--MD5=[8237126dfe67c80ca647b87dec1d2835]
link Square33 to Piece3--><path codeLine="116" d="M627.9096,450.5832 C627.9096,450.5832 645.108,486.667 652.576,502.337 " fill="none" id="Square33-Piece3" style="stroke:#A80036;stroke-width:1.0;"/><polygon fill="#A80036" points="658.348,514.447,658.0866,504.6016,656.1967,509.9335,650.8649,508.0436,658.348,514.447" style="stroke:#A80036;stroke-width:1.0;"/><line style="stroke:#A80036;stroke-width:1.0;" x1="656.1967" x2="652.755" y1="509.9335" y2="502.7115"/><polygon fill="#A80036" points="622.746,439.751,621.7171,446.8883,627.9096,450.5832,628.9385,443.4459,622.746,439.751" style="stroke:#A80036;stroke-width:1.0;"/><!--MD5=[a8cb8c73b2fd089cf7c799cdd6716bcc]
link Square11 to Piece1b--><path codeLine="118" d="M476.6291,219.5371 C476.6291,219.5371 243.854,257.849 113,289 C98.7913,292.383 83.3575,296.697 69.8106,300.704 " fill="none" id="Square11-Piece1b" style="stroke:#A80036;stroke-width:1.0;"/><polygon fill="#A80036" points="57.0078,304.562,66.7792,305.795,61.7951,303.1193,64.4709,298.1353,57.0078,304.562" style="stroke:#A80036;stroke-width:1.0;"/><line style="stroke:#A80036;stroke-width:1.0;" x1="61.7951" x2="69.455" y1="303.1193" y2="300.8105"/><polygon fill="#A80036" points="488.483,217.67,481.9337,214.6523,476.6291,219.5371,483.1784,222.5548,488.483,217.67" style="stroke:#A80036;stroke-width:1.0;"/><!--MD5=[55fd063141d7a757ca6dc8c1e47c4647]
link Square21 to Piece2b--><path codeLine="119" d="M477.2892,335.1561 C477.2892,335.1561 472.074,337.25 470,338 C367.417,375.106 333.365,357.685 232,398 C230.34,398.66 228.665,399.374 226.989,400.127 " fill="none" id="Square21-Piece2b" style="stroke:#A80036;stroke-width:1.0;"/><polygon fill="#A80036" points="215.239,405.977,225.0785,405.5472,219.7151,403.7488,221.5134,398.3855,215.239,405.977" style="stroke:#A80036;stroke-width:1.0;"/><line style="stroke:#A80036;stroke-width:1.0;" x1="219.7151" x2="226.8765" y1="403.7488" y2="400.183"/><polygon fill="#A80036" points="488.296,330.376,481.1992,329.0971,477.2892,335.1561,484.386,336.435,488.296,330.376" style="stroke:#A80036;stroke-width:1.0;"/><!--MD5=[898f2b014ef06adf85c232e068056071]
@startuml
together {
    object ":Square" as Square11
    object ":Square" as Square12
    object ":Square" as Square13

    object ":Square" as Square21
    object ":Square" as Square22
    object ":Square" as Square23

    object ":Square" as Square31
    object ":Square" as Square32
    object ":Square" as Square33

}

object ":Coordinate" as Coordinate11 {
    row = 1
    column = 1
}
object ":Coordinate" as Coordinate12 {
    row = 1
    column = 2
}
object ":Coordinate" as Coordinate13 {
    row = 1
    column = 3
}

object ":Coordinate" as Coordinate21 {
    row = 2
    column = 1
}
object ":Coordinate" as Coordinate22 {
    row = 2
    column = 2
}
object ":Coordinate" as Coordinate23 {
    row = 2
    column = 3
}

object ":Coordinate" as Coordinate31 {
    row = 3
    column = 1
}
object ":Coordinate" as Coordinate32 {
    row = 3
    column = 2
}
object ":Coordinate" as Coordinate33 {
    row = 3
    column = 3
}

object ":TicTacToe" as TicTacToe
object ":Board" as Board

TicTacToe *-down-> Board

object ":Piece" as Piece1
object ":Piece" as Piece2
object ":Piece" as Piece3

object ":X" as X

Piece1 *-down-> X
Piece2 *-down-> X
Piece3 *-down-> X

object ":Piece" as Piece1b
object ":Piece" as Piece2b

object ":O" as O

Piece1b *-down-> O
Piece2b *-down-> O


Board - ->  Square11
Board - ->  Square12
Board - ->  Square13
Board - ->  Square21
Board - ->  Square22
Board - ->  Square23
Board - ->  Square31
Board - ->  Square32
Board - ->  Square33

Square11 *-down-> Coordinate11
Square12 *-down-> Coordinate12
Square13 *-down-> Coordinate13
Square21 *-down-> Coordinate21
Square22 *-down-> Coordinate22
Square23 *-down-> Coordinate23
Square31 *-down-> Coordinate31
Square32 *-down-> Coordinate32
Square33 *-down-> Coordinate33

Square11 -[hidden]right-> Square12
Square12 -[hidden]right-> Square13
Square21 -[hidden]right-> Square22
Square22 -[hidden]right-> Square23
Square31 -[hidden]right-> Square32
Square32 -[hidden]right-> Square33

Square11 -[hidden]down-> Square21
Square12 -[hidden]down-> Square22
Square13 -[hidden]down-> Square23

Square21 -[hidden]down-> Square31
Square22 -[hidden]down-> Square32
Square23 -[hidden]down-> Square33

Square31 *-down-> Piece1
Square32 *-down-> Piece2
Square33 *-down-> Piece3

Square11 *-down-> Piece1b
Square21 *-down-> Piece2b
@enduml

PlantUML version 1.2021.4beta3(Unknown compile time)
(GPL source distribution)
Java Runtime: Java(TM) SE Runtime Environment
JVM: Java HotSpot(TM) 64-Bit Server VM
Default Encoding: UTF-8
Language: en
Country: US
--></g></svg>