<?xml version="1.0" encoding="UTF-8" standalone="no"?><svg xmlns="http://www.w3.org/2000/svg" xmlns:xlink="http://www.w3.org/1999/xlink" contentScriptType="application/ecmascript" contentStyleType="text/css" height="570px" preserveAspectRatio="none" style="width:1142px;height:570px;" version="1.1" viewBox="0 0 1142 570" width="1142px" zoomAndPan="magnify"><defs><filter height="300%" id="fa1vkjcoczdb3" width="300%" x="-1" y="-1"><feGaussianBlur result="blurOut" stdDeviation="2.0"/><feColorMatrix in="blurOut" result="blurOut2" type="matrix" values="0 0 0 0 0 0 0 0 0 0 0 0 0 0 0 0 0 0 .4 0"/><feOffset dx="4.0" dy="4.0" in="blurOut2" result="blurOut3"/><feBlend in="SourceGraphic" in2="blurOut3" mode="normal"/></filter></defs><g><rect fill="#FEFECE" filter="url(#fa1vkjcoczdb3)" height="33.9688" style="stroke:#A80036;stroke-width:1.5;" width="61" x="364.5" y="195"/><text fill="#000000" font-family="sans-serif" font-size="12" lengthAdjust="spacing" textLength="47" x="371.5" y="208.1387">:Square</text><line style="stroke:#A80036;stroke-width:1.5;" x1="365.5" x2="424.5" y1="212.9688" y2="212.9688"/><rect fill="#FEFECE" filter="url(#fa1vkjcoczdb3)" height="33.9688" style="stroke:#A80036;stroke-width:1.5;" width="61" x="460.5" y="195"/><text fill="#000000" font-family="sans-serif" font-size="12" lengthAdjust="spacing" textLength="47" x="467.5" y="208.1387">:Square</text><line style="stroke:#A80036;stroke-width:1.5;" x1="461.5" x2="520.5" y1="212.9688" y2="212.9688"/><rect fill="#FEFECE" filter="url(#fa1vkjcoczdb3)" height="33.9688" style="stroke:#A80036;stroke-width:1.5;" width="61" x="556.5" y="195"/><text fill="#000000" font-family="sans-serif" font-size="12" lengthAdjust="spacing" textLength="47" x="563.5" y="208.1387">:Square</text><line style="stroke:#A80036;stroke-width:1.5;" x1="557.5" x2="616.5" y1="212.9688" y2="212.9688"/><rect fill="#FEFECE" filter="url(#fa1vkjcoczdb3)" height="33.9688" style="stroke:#A80036;stroke-width:1.5;" width="61" x="364.5" y="296.5"/><text fill="#000000" font-family="sans-serif" font-size="12" lengthAdjust="spacing" textLength="47" x="371.5" y="309.6387">:Square</text><line style="stroke:#A80036;stroke-width:1.5;" x1="365.5" x2="424.5" y1="314.4688" y2="314.4688"/><rect fill="#FEFECE" filter="url(#fa1vkjcoczdb3)" height="33.9688" style="stroke:#A80036;stroke-width:1.5;" width="61" x="460.5" y="296.5"/><text fill="#000000" font-family="sans-serif" font-size="12" lengthAdjust="spacing" textLength="47" x="467.5" y="309.6387">:Square</text><line style="stroke:#A80036;stroke-width:1.5;" x1="461.5" x2="520.5" y1="314.4688" y2="314.4688"/><rect fill="#FEFECE" filter="url(#fa1vkjcoczdb3)" height="33.9688" style="stroke:#A80036;stroke-width:1.5;" width="61" x="556.5" y="296.5"/><text fill="#000000" font-family="sans-serif" font-size="12" lengthAdjust="spacing" textLength="47" x="563.5" y="309.6387">:Square</text><line style="stroke:#A80036;stroke-width:1.5;" x1="557.5" x2="616.5" y1="314.4688" y2="314.4688"/><rect fill="#FEFECE" filter="url(#fa1vkjcoczdb3)" height="33.9688" style="stroke:#A80036;stroke-width:1.5;" width="61" x="364.5" y="405.5"/><text fill="#000000" font-family="sans-serif" font-size="12" lengthAdjust="spacing" textLength="47" x="371.5" y="418.6387">:Square</text><line style="stroke:#A80036;stroke-width:1.5;" x1="365.5" x2="424.5" y1="423.4688" y2="423.4688"/><rect fill="#FEFECE" filter="url(#fa1vkjcoczdb3)" height="33.9688" style="stroke:#A80036;stroke-width:1.5;" width="61" x="460.5" y="405.5"/><text fill="#000000" font-family="sans-serif" font-size="12" lengthAdjust="spacing" textLength="47" x="467.5" y="418.6387">:Square</text><line style="stroke:#A80036;stroke-width:1.5;" x1="461.5" x2="520.5" y1="423.4688" y2="423.4688"/><rect fill="#FEFECE" filter="url(#fa1vkjcoczdb3)" height="33.9688" style="stroke:#A80036;stroke-width:1.5;" width="61" x="556.5" y="405.5"/><text fill="#000000" font-family="sans-serif" font-size="12" lengthAdjust="spacing" textLength="47" x="563.5" y="418.6387">:Square</text><line style="stroke:#A80036;stroke-width:1.5;" x1="557.5" x2="616.5" y1="423.4688" y2="423.4688"/><rect fill="#FEFECE" filter="url(#fa1vkjcoczdb3)" height="49.25" style="stroke:#A80036;stroke-width:1.5;" width="84" x="653" y="289"/><text fill="#000000" font-family="sans-serif" font-size="12" lengthAdjust="spacing" textLength="70" x="660" y="302.1387">:Coordinate</text><line style="stroke:#A80036;stroke-width:1.5;" x1="654" x2="736" y1="306.9688" y2="306.9688"/><text fill="#000000" font-family="sans-serif" font-size="10" lengthAdjust="spacing" textLength="40" x="659" y="320.251">row = 1</text><text fill="#000000" font-family="sans-serif" font-size="10" lengthAdjust="spacing" textLength="62" x="659" y="331.8916">column = 1</text><rect fill="#FEFECE" filter="url(#fa1vkjcoczdb3)" height="49.25" style="stroke:#A80036;stroke-width:1.5;" width="84" x="772" y="289"/><text fill="#000000" font-family="sans-serif" font-size="12" lengthAdjust="spacing" textLength="70" x="779" y="302.1387">:Coordinate</text><line style="stroke:#A80036;stroke-width:1.5;" x1="773" x2="855" y1="306.9688" y2="306.9688"/><text fill="#000000" font-family="sans-serif" font-size="10" lengthAdjust="spacing" textLength="40" x="778" y="320.251">row = 1</text><text fill="#000000" font-family="sans-serif" font-size="10" lengthAdjust="spacing" textLength="61" x="778" y="331.8916">column = 2</text><rect fill="#FEFECE" filter="url(#fa1vkjcoczdb3)" height="49.25" style="stroke:#A80036;stroke-width:1.5;" width="84" x="891" y="289"/><text fill="#000000" font-family="sans-serif" font-size="12" lengthAdjust="spacing" textLength="70" x="898" y="302.1387">:Coordinate</text><line style="stroke:#A80036;stroke-width:1.5;" x1="892" x2="974" y1="306.9688" y2="306.9688"/><text fill="#000000" font-family="sans-serif" font-size="10" lengthAdjust="spacing" textLength="40" x="897" y="320.251">row = 1</text><text fill="#000000" font-family="sans-serif" font-size="10" lengthAdjust="spacing" textLength="62" x="897" y="331.8916">column = 3</text><rect fill="#FEFECE" filter="url(#fa1vkjcoczdb3)" height="49.25" style="stroke:#A80036;stroke-width:1.5;" width="84" x="7" y="398"/><text fill="#000000" font-family="sans-serif" font-size="12" lengthAdjust="spacing" textLength="70" x="14" y="411.1387">:Coordinate</text><line style="stroke:#A80036;stroke-width:1.5;" x1="8" x2="90" y1="415.9688" y2="415.9688"/><text fill="#000000" font-family="sans-serif" font-size="10" lengthAdjust="spacing" textLength="39" x="13" y="429.251">row = 2</text><text fill="#000000" font-family="sans-serif" font-size="10" lengthAdjust="spacing" textLength="62" x="13" y="440.8916">column = 1</text><rect fill="#FEFECE" filter="url(#fa1vkjcoczdb3)" height="49.25" style="stroke:#A80036;stroke-width:1.5;" width="84" x="126" y="398"/><text fill="#000000" font-family="sans-serif" font-size="12" lengthAdjust="spacing" textLength="70" x="133" y="411.1387">:Coordinate</text><line style="stroke:#A80036;stroke-width:1.5;" x1="127" x2="209" y1="415.9688" y2="415.9688"/><text fill="#000000" font-family="sans-serif" font-size="10" lengthAdjust="spacing" textLength="39" x="132" y="429.251">row = 2</text><text fill="#000000" font-family="sans-serif" font-size="10" lengthAdjust="spacing" textLength="61" x="132" y="440.8916">column = 2</text><rect fill="#FEFECE" filter="url(#fa1vkjcoczdb3)" height="49.25" style="stroke:#A80036;stroke-width:1.5;" width="84" x="245" y="398"/><text fill="#000000" font-family="sans-serif" font-size="12" lengthAdjust="spacing" textLength="70" x="252" y="411.1387">:Coordinate</text><line style="stroke:#A80036;stroke-width:1.5;" x1="246" x2="328" y1="415.9688" y2="415.9688"/><text fill="#000000" font-family="sans-serif" font-size="10" lengthAdjust="spacing" textLength="39" x="251" y="429.251">row = 2</text><text fill="#000000" font-family="sans-serif" font-size="10" lengthAdjust="spacing" textLength="62" x="251" y="440.8916">column = 3</text><rect fill="#FEFECE" filter="url(#fa1vkjcoczdb3)" height="49.25" style="stroke:#A80036;stroke-width:1.5;" width="84" x="330" y="507"/><text fill="#000000" font-family="sans-serif" font-size="12" lengthAdjust="spacing" textLength="70" x="337" y="520.1387">:Coordinate</text><line style="stroke:#A80036;stroke-width:1.5;" x1="331" x2="413" y1="524.9688" y2="524.9688"/><text fill="#000000" font-family="sans-serif" font-size="10" lengthAdjust="spacing" textLength="40" x="336" y="538.251">row = 3</text><text fill="#000000" font-family="sans-serif" font-size="10" lengthAdjust="spacing" textLength="62" x="336" y="549.8916">column = 1</text><rect fill="#FEFECE" filter="url(#fa1vkjcoczdb3)" height="49.25" style="stroke:#A80036;stroke-width:1.5;" width="84" x="449" y="507"/><text fill="#000000" font-family="sans-serif" font-size="12" lengthAdjust="spacing" textLength="70" x="456" y="520.1387">:Coordinate</text><line style="stroke:#A80036;stroke-width:1.5;" x1="450" x2="532" y1="524.9688" y2="524.9688"/><text fill="#000000" font-family="sans-serif" font-size="10" lengthAdjust="spacing" textLength="40" x="455" y="538.251">row = 3</text><text fill="#000000" font-family="sans-serif" font-size="10" lengthAdjust="spacing" textLength="61" x="455" y="549.8916">column = 2</text><rect fill="#FEFECE" filter="url(#fa1vkjcoczdb3)" height="49.25" style="stroke:#A80036;stroke-width:1.5;" width="84" x="568" y="507"/><text fill="#000000" font-family="sans-serif" font-size="12" lengthAdjust="spacing" textLength="70" x="575" y="520.1387">:Coordinate</text><line style="stroke:#A80036;stroke-width:1.5;" x1="569" x2="651" y1="524.9688" y2="524.9688"/><text fill="#000000" font-family="sans-serif" font-size="10" lengthAdjust="spacing" textLength="40" x="574" y="538.251">row = 3</text><text fill="#000000" font-family="sans-serif" font-size="10" lengthAdjust="spacing" textLength="62" x="574" y="549.8916">column = 3</text><rect fill="#FEFECE" filter="url(#fa1vkjcoczdb3)" height="33.9688" style="stroke:#A80036;stroke-width:1.5;" width="79" x="451.5" y="7"/><text fill="#000000" font-family="sans-serif" font-size="12" lengthAdjust="spacing" textLength="65" x="458.5" y="20.1387">:TicTacToe</text><line style="stroke:#A80036;stroke-width:1.5;" x1="452.5" x2="529.5" y1="24.9688" y2="24.9688"/><rect fill="#FEFECE" filter="url(#fa1vkjcoczdb3)" height="33.9688" style="stroke:#A80036;stroke-width:1.5;" width="54" x="464" y="101"/><text fill="#000000" font-family="sans-serif" font-size="12" lengthAdjust="spacing" textLength="40" x="471" y="114.1387">:Board</text><line style="stroke:#A80036;stroke-width:1.5;" x1="465" x2="517" y1="118.9688" y2="118.9688"/><!--MD5=[a737d2231371e146ba098899a67f3b67]
link TicTacToe to Board--><path codeLine="58" d="M491,53.025 C491,53.025 491,77.034 491,87.779 " fill="none" id="TicTacToe-Board" style="stroke:#A80036;stroke-width:1.0;"/><polygon fill="#A80036" points="491,100.85,495,91.85,491,95.85,487,91.85,491,100.85" style="stroke:#A80036;stroke-width:1.0;"/><line style="stroke:#A80036;stroke-width:1.0;" x1="491" x2="491" y1="95.85" y2="87.85"/><polygon fill="#A80036" points="491,41.025,487,47.025,491,53.025,495,47.025,491,41.025" style="stroke:#A80036;stroke-width:1.0;"/><!--MD5=[9f00f453158db019cc737f926bf9b344]
link Board to Square11--><path codeLine="60" d="M474.278,135.025 C457.997,150.628 433.211,174.381 415.695,191.167 " fill="none" id="Board-to-Square11" style="stroke:#A80036;stroke-width:1.0;"/><polygon fill="#A80036" points="411.852,194.85,421.118,191.5122,415.4624,191.391,415.5836,185.7354,411.852,194.85" style="stroke:#A80036;stroke-width:1.0;"/><!--MD5=[265f7b6f317decc132767c5f623ca0bc]
link Board to Square12--><path codeLine="61" d="M491,135.025 C491,150.104 491,172.793 491,189.451 " fill="none" id="Board-to-Square12" style="stroke:#A80036;stroke-width:1.0;"/><polygon fill="#A80036" points="491,194.85,495,185.85,491,189.85,487,185.85,491,194.85" style="stroke:#A80036;stroke-width:1.0;"/><!--MD5=[a41aa9ba3b884d8d882a9db495d28b5f]
link Board to Square13--><path codeLine="62" d="M507.722,135.025 C524.003,150.628 548.789,174.381 566.305,191.167 " fill="none" id="Board-to-Square13" style="stroke:#A80036;stroke-width:1.0;"/><polygon fill="#A80036" points="570.148,194.85,566.4164,185.7354,566.5376,191.391,560.882,191.5122,570.148,194.85" style="stroke:#A80036;stroke-width:1.0;"/><!--MD5=[2a48127550db072d047e28db107daefc]
link Board to Square21--><path codeLine="63" d="M463.745,121.163 C409.354,126.104 290.455,140.248 266,171 C249.955,191.176 253.683,206.355 266,229 C285.662,265.149 328.463,288.05 359.381,300.545 " fill="none" id="Board-to-Square21" style="stroke:#A80036;stroke-width:1.0;"/><polygon fill="#A80036" points="364.235,302.461,357.3318,295.4364,359.5841,300.6255,354.395,302.8778,364.235,302.461" style="stroke:#A80036;stroke-width:1.0;"/><!--MD5=[ad753e41380b62aa8c2dbe48e4770887]
link Board to Square22--><path codeLine="64" d="M463.687,121.796 C412.851,127.623 306.873,142.919 285,171 C269.159,191.336 270.361,207.782 285,229 C327.657,290.828 374.084,259.12 443,289 C447.189,290.816 451.54,292.802 455.837,294.826 " fill="none" id="Board-to-Square22" style="stroke:#A80036;stroke-width:1.0;"/><polygon fill="#A80036" points="460.469,297.03,454.0615,289.5504,455.9543,294.8812,450.6235,296.774,460.469,297.03" style="stroke:#A80036;stroke-width:1.0;"/><!--MD5=[7da35c0c2c3faed87a2d1aaa1ed6e28c]
link Board to Square23--><path codeLine="65" d="M463.737,119.986 C429.895,122.849 373.423,133.366 347,171 C332.188,192.097 331.731,208.231 347,229 C399.957,301.031 455.944,255.915 539,289 C543.178,290.664 547.494,292.541 551.747,294.489 " fill="none" id="Board-to-Square23" style="stroke:#A80036;stroke-width:1.0;"/><polygon fill="#A80036" points="556.327,296.626,549.8624,289.1957,551.7959,294.5119,546.4798,296.4454,556.327,296.626" style="stroke:#A80036;stroke-width:1.0;"/><!--MD5=[5070af6906697e6c9c700f9ddd6704a8]
link Board to Square31--><path codeLine="66" d="M518.405,120.913 C642.013,130.47 1135.52,179.083 993,338 C910.912,429.53 561.092,363.79 443,398 C438.187,399.394 433.27,401.246 428.505,403.3 " fill="none" id="Board-to-Square31" style="stroke:#A80036;stroke-width:1.0;"/><polygon fill="#A80036" points="423.801,405.412,433.6498,405.3737,428.3621,403.3636,430.3723,398.0759,423.801,405.412" style="stroke:#A80036;stroke-width:1.0;"/><!--MD5=[1a6312cdfa05f693b263f27f42f20b15]
link Board to Square32--><path codeLine="67" d="M518.008,119.409 C625.318,121.311 1017.5,130.972 1054,171 C1104.01,225.843 1103.35,282.563 1054,338 C977.387,424.057 649.55,365.536 539,398 C534.193,399.412 529.278,401.274 524.514,403.333 " fill="none" id="Board-to-Square32" style="stroke:#A80036;stroke-width:1.0;"/><polygon fill="#A80036" points="519.811,405.448,529.6598,405.4034,524.3708,403.3967,526.3776,398.1077,519.811,405.448" style="stroke:#A80036;stroke-width:1.0;"/><!--MD5=[981ae21fb6fdb24b10d83f99158e49a7]
link Board to Square33--><path codeLine="68" d="M518.087,119.227 C630.523,120.445 1056.44,127.893 1096,171 C1111.82,188.243 1123.17,305.127 1095,338 C1033.66,409.578 728.502,419.89 622.976,421.303 " fill="none" id="Board-to-Square33" style="stroke:#A80036;stroke-width:1.0;"/><polygon fill="#A80036" points="617.804,421.367,626.8525,425.2561,622.8036,421.3056,626.7542,417.2567,617.804,421.367" style="stroke:#A80036;stroke-width:1.0;"/><!--MD5=[094fd51dec5cb6758b0902982cbf7950]
link Square11 to Coordinate11--><path codeLine="70" d="M437.0992,227.0775 C437.0992,227.0775 441.425,228.49 443,229 C527.654,256.403 549.998,259.658 634,289 C636.099,289.733 638.235,290.492 640.388,291.268 " fill="none" id="Square11-Coordinate11" style="stroke:#A80036;stroke-width:1.0;"/><polygon fill="#A80036" points="652.797,295.843,645.7364,288.9765,648.1057,294.1133,642.9689,296.4826,652.797,295.843" style="stroke:#A80036;stroke-width:1.0;"/><line style="stroke:#A80036;stroke-width:1.0;" x1="648.1057" x2="640.599" y1="294.1133" y2="291.346"/><polygon fill="#A80036" points="425.702,223.322,430.1487,228.9988,437.0992,227.0775,432.6524,221.4007,425.702,223.322" style="stroke:#A80036;stroke-width:1.0;"/><!--MD5=[ab27c5eee5da0929e420fc712adbbb26]
link Square12 to Coordinate12--><path codeLine="71" d="M533.0771,227.149 C533.0771,227.149 537.417,228.516 539,229 C633.865,258.028 659.915,257.536 754,289 C755.824,289.61 757.673,290.244 759.536,290.896 " fill="none" id="Square12-Coordinate12" style="stroke:#A80036;stroke-width:1.0;"/><polygon fill="#A80036" points="771.91,295.397,764.8197,288.5613,767.2112,293.6877,762.0848,296.0793,771.91,295.397" style="stroke:#A80036;stroke-width:1.0;"/><line style="stroke:#A80036;stroke-width:1.0;" x1="767.2112" x2="759.6935" y1="293.6877" y2="290.953"/><polygon fill="#A80036" points="521.655,223.47,526.1397,229.1169,533.0771,227.149,528.5924,221.5021,521.655,223.47" style="stroke:#A80036;stroke-width:1.0;"/><!--MD5=[ce6232b1a7de4998175bff455bbfb9fd]
link Square13 to Coordinate13--><path codeLine="72" d="M629.2093,222.4975 C629.2093,222.4975 788.814,260.869 874,289 C875.446,289.478 876.908,289.972 878.38,290.48 " fill="none" id="Square13-Coordinate13" style="stroke:#A80036;stroke-width:1.0;"/><polygon fill="#A80036" points="890.685,294.94,883.5868,288.1124,885.9843,293.2361,880.8606,295.6335,890.685,294.94" style="stroke:#A80036;stroke-width:1.0;"/><line style="stroke:#A80036;stroke-width:1.0;" x1="885.9843" x2="878.4635" y1="293.2361" y2="290.5105"/><polygon fill="#A80036" points="617.515,219.806,622.465,225.0498,629.2093,222.4975,624.2593,217.2536,617.515,219.806" style="stroke:#A80036;stroke-width:1.0;"/><!--MD5=[5852f88f6dddd41b26308efcb764cc54]
link Square21 to Coordinate21--><path codeLine="73" d="M352.5098,325.4949 C352.5098,325.4949 193.185,368.719 108,398 C106.4457,398.534 104.8725,399.086 103.2876,399.651 " fill="none" id="Square21-Coordinate21" style="stroke:#A80036;stroke-width:1.0;"/><polygon fill="#A80036" points="91.0358,404.188,100.8647,404.8139,95.7247,402.4518,98.0868,397.3117,91.0358,404.188" style="stroke:#A80036;stroke-width:1.0;"/><line style="stroke:#A80036;stroke-width:1.0;" x1="95.7247" x2="103.2269" y1="402.4518" y2="399.674"/><polygon fill="#A80036" points="364.115,322.442,357.2948,320.1001,352.5098,325.4949,359.3301,327.8369,364.115,322.442" style="stroke:#A80036;stroke-width:1.0;"/><!--MD5=[2f77f89dd4fd8aa9197ae7bcfe08a3d1]
link Square22 to Coordinate22--><path codeLine="74" d="M449.4203,335.3987 C449.4203,335.3987 444.789,337.32 443,338 C349.862,373.389 321.419,366.186 227,398 C225.443,398.525 223.866,399.068 222.279,399.626 " fill="none" id="Square22-Coordinate22" style="stroke:#A80036;stroke-width:1.0;"/><polygon fill="#A80036" points="210.014,404.125,219.841,404.781,214.7082,402.4031,217.086,397.2703,210.014,404.125" style="stroke:#A80036;stroke-width:1.0;"/><line style="stroke:#A80036;stroke-width:1.0;" x1="214.7082" x2="222.219" y1="402.4031" y2="399.648"/><polygon fill="#A80036" points="460.386,330.525,453.2786,329.3066,449.4203,335.3987,456.5277,336.6171,460.386,330.525" style="stroke:#A80036;stroke-width:1.0;"/><!--MD5=[b02370306a447e34a2c7b78048065bbb]
link Square23 to Coordinate23--><path codeLine="75" d="M545.3924,335.3144 C545.3924,335.3144 540.777,337.29 539,338 C456.363,370.99 432.002,368.658 348,398 C345.901,398.733 343.765,399.492 341.612,400.268 " fill="none" id="Square23-Coordinate23" style="stroke:#A80036;stroke-width:1.0;"/><polygon fill="#A80036" points="329.203,404.843,339.0311,405.4826,333.8943,403.1133,336.2636,397.9765,329.203,404.843" style="stroke:#A80036;stroke-width:1.0;"/><line style="stroke:#A80036;stroke-width:1.0;" x1="333.8943" x2="341.401" y1="403.1133" y2="400.346"/><polygon fill="#A80036" points="556.325,330.367,549.2095,329.1965,545.3924,335.3144,552.5078,336.4849,556.325,330.367" style="stroke:#A80036;stroke-width:1.0;"/><!--MD5=[dc01c2d16fcb2427f6a9a7949a207b43]
link Square31 to Coordinate31--><path codeLine="76" d="M388.9845,451.4829 C388.9845,451.4829 382.733,480.5691 379.824,494.0992 " fill="none" id="Square31-Coordinate31" style="stroke:#A80036;stroke-width:1.0;"/><polygon fill="#A80036" points="377.065,506.9377,382.867,498.9793,378.1157,502.0494,375.0457,497.2981,377.065,506.9377" style="stroke:#A80036;stroke-width:1.0;"/><line style="stroke:#A80036;stroke-width:1.0;" x1="378.1157" x2="379.7965" y1="502.0494" y2="494.228"/><polygon fill="#A80036" points="391.507,439.751,386.3351,444.7761,388.9845,451.4829,394.1564,446.4578,391.507,439.751" style="stroke:#A80036;stroke-width:1.0;"/><!--MD5=[ddc094be38da63e3fb056f9a1ab43589]
link Square32 to Coordinate32--><path codeLine="77" d="M491,451.751 C491,451.751 491,480.3952 491,493.7454 " fill="none" id="Square32-Coordinate32" style="stroke:#A80036;stroke-width:1.0;"/><polygon fill="#A80036" points="491,506.9377,495,497.9377,491,501.9377,487,497.9377,491,506.9377" style="stroke:#A80036;stroke-width:1.0;"/><line style="stroke:#A80036;stroke-width:1.0;" x1="491" x2="491" y1="501.9377" y2="493.9377"/><polygon fill="#A80036" points="491,439.751,487,445.751,491,451.751,495,445.751,491,439.751" style="stroke:#A80036;stroke-width:1.0;"/><!--MD5=[45fee7e179397dc4fc1c457f49931fdd]
link Square33 to Coordinate33--><path codeLine="78" d="M593.0155,451.4829 C593.0155,451.4829 599.267,480.5691 602.176,494.0992 " fill="none" id="Square33-Coordinate33" style="stroke:#A80036;stroke-width:1.0;"/><polygon fill="#A80036" points="604.935,506.9377,606.9543,497.2981,603.8843,502.0494,599.133,498.9793,604.935,506.9377" style="stroke:#A80036;stroke-width:1.0;"/><line style="stroke:#A80036;stroke-width:1.0;" x1="603.8843" x2="602.2035" y1="502.0494" y2="494.228"/><polygon fill="#A80036" points="590.493,439.751,587.8436,446.4578,593.0155,451.4829,595.6649,444.7761,590.493,439.751" style="stroke:#A80036;stroke-width:1.0;"/><!--MD5=[13a5bfcd547bcca90bd72ebe5fcbc39e]
link Square11 to Square12--><!--MD5=[bc76116199aafd8295781c7dcab3176f]
link Square12 to Square13--><!--MD5=[c89ffb18fbb7b46681bd5913015ae5e3]
link Square21 to Square22--><!--MD5=[e010c8769b92a1a5952e305a724ea8e4]
link Square22 to Square23--><!--MD5=[f50abd7b4c3d728b1750fcedc3b0f127]
link Square31 to Square32--><!--MD5=[602970f58178e45676872601d2c7aa36]
link Square32 to Square33--><!--MD5=[0f6bfcf04e14b42cde8cbfcc74aaa622]
link Square11 to Square21--><!--MD5=[25839071d6f91f37be67e06b1ae5341a]
link Square12 to Square22--><!--MD5=[f622953a480c4fc89b837fd30211fa77]
link Square13 to Square23--><!--MD5=[a91b861c62fa236fffcb0f2237862284]
link Square21 to Square31--><!--MD5=[72223308d08a89680f2dbb886c02d26d]
link Square22 to Square32--><!--MD5=[090cfe2b176d307a1968440006917c83]
link Square23 to Square33--><!--MD5=[eda270e7fc7da5cadd031a7b0d32a0eb]
@startuml
together {
    object ":Square" as Square11
    object ":Square" as Square12
    object ":Square" as Square13

    object ":Square" as Square21
    object ":Square" as Square22
    object ":Square" as Square23

    object ":Square" as Square31
    object ":Square" as Square32
    object ":Square" as Square33

}

object ":Coordinate" as Coordinate11 {
    row = 1
    column = 1
}
object ":Coordinate" as Coordinate12 {
    row = 1
    column = 2
}
object ":Coordinate" as Coordinate13 {
    row = 1
    column = 3
}

object ":Coordinate" as Coordinate21 {
    row = 2
    column = 1
}
object ":Coordinate" as Coordinate22 {
    row = 2
    column = 2
}
object ":Coordinate" as Coordinate23 {
    row = 2
    column = 3
}

object ":Coordinate" as Coordinate31 {
    row = 3
    column = 1
}
object ":Coordinate" as Coordinate32 {
    row = 3
    column = 2
}
object ":Coordinate" as Coordinate33 {
    row = 3
    column = 3
}

object ":TicTacToe" as TicTacToe
object ":Board" as Board

TicTacToe *-down-> Board

Board - ->  Square11
Board - ->  Square12
Board - ->  Square13
Board - ->  Square21
Board - ->  Square22
Board - ->  Square23
Board - ->  Square31
Board - ->  Square32
Board - ->  Square33

Square11 *-down-> Coordinate11
Square12 *-down-> Coordinate12
Square13 *-down-> Coordinate13
Square21 *-down-> Coordinate21
Square22 *-down-> Coordinate22
Square23 *-down-> Coordinate23
Square31 *-down-> Coordinate31
Square32 *-down-> Coordinate32
Square33 *-down-> Coordinate33

Square11 -[hidden]right-> Square12
Square12 -[hidden]right-> Square13
Square21 -[hidden]right-> Square22
Square22 -[hidden]right-> Square23
Square31 -[hidden]right-> Square32
Square32 -[hidden]right-> Square33

Square11 -[hidden]down-> Square21
Square12 -[hidden]down-> Square22
Square13 -[hidden]down-> Square23

Square21 -[hidden]down-> Square31
Square22 -[hidden]down-> Square32
Square23 -[hidden]down-> Square33
@enduml

PlantUML version 1.2021.4beta3(Unknown compile time)
(GPL source distribution)
Java Runtime: Java(TM) SE Runtime Environment
JVM: Java HotSpot(TM) 64-Bit Server VM
Default Encoding: UTF-8
Language: en
Country: US
--></g></svg>