<?xml version="1.0" encoding="UTF-8" standalone="no"?><svg xmlns="http://www.w3.org/2000/svg" xmlns:xlink="http://www.w3.org/1999/xlink" contentScriptType="application/ecmascript" contentStyleType="text/css" height="754px" preserveAspectRatio="none" style="width:419px;height:754px;" version="1.1" viewBox="0 0 419 754" width="419px" zoomAndPan="magnify"><defs><filter height="300%" id="f1eauue6fuw2he" width="300%" x="-1" y="-1"><feGaussianBlur result="blurOut" stdDeviation="2.0"/><feColorMatrix in="blurOut" result="blurOut2" type="matrix" values="0 0 0 0 0 0 0 0 0 0 0 0 0 0 0 0 0 0 .4 0"/><feOffset dx="4.0" dy="4.0" in="blurOut2" result="blurOut3"/><feBlend in="SourceGraphic" in2="blurOut3" mode="normal"/></filter></defs><g><g id="A"><rect fill="#FEFECE" filter="url(#f1eauue6fuw2he)" height="50" rx="12.5" ry="12.5" style="stroke:#A80036;stroke-width:1.5;" width="50" x="284.806" y="87"/><line style="stroke:#A80036;stroke-width:1.5;" x1="284.806" x2="334.806" y1="113.2969" y2="113.2969"/><text fill="#000000" font-family="sans-serif" font-size="14" lengthAdjust="spacing" textLength="0" x="311.806" y="104.9951"/></g><g id="B"><rect fill="#FEFECE" filter="url(#f1eauue6fuw2he)" height="50" rx="12.5" ry="12.5" style="stroke:#A80036;stroke-width:1.5;" width="50" x="284.806" y="214"/><line style="stroke:#A80036;stroke-width:1.5;" x1="284.806" x2="334.806" y1="240.2969" y2="240.2969"/><text fill="#000000" font-family="sans-serif" font-size="14" lengthAdjust="spacing" textLength="0" x="311.806" y="231.9951"/></g><g id="C"><rect fill="#FEFECE" filter="url(#f1eauue6fuw2he)" height="50" rx="12.5" ry="12.5" style="stroke:#A80036;stroke-width:1.5;" width="50" x="284.806" y="341"/><line style="stroke:#A80036;stroke-width:1.5;" x1="284.806" x2="334.806" y1="367.2969" y2="367.2969"/><text fill="#000000" font-family="sans-serif" font-size="14" lengthAdjust="spacing" textLength="0" x="311.806" y="358.9951"/></g><g id="D"><rect fill="#FEFECE" filter="url(#f1eauue6fuw2he)" height="50" rx="12.5" ry="12.5" style="stroke:#A80036;stroke-width:1.5;" width="50" x="115.806" y="468"/><line style="stroke:#A80036;stroke-width:1.5;" x1="115.806" x2="165.806" y1="494.2969" y2="494.2969"/><text fill="#000000" font-family="sans-serif" font-size="14" lengthAdjust="spacing" textLength="0" x="142.806" y="485.9951"/></g><g id="E"><rect fill="#FEFECE" filter="url(#f1eauue6fuw2he)" height="50" rx="12.5" ry="12.5" style="stroke:#A80036;stroke-width:1.5;" width="50" x="44.8061" y="595"/><line style="stroke:#A80036;stroke-width:1.5;" x1="44.8061" x2="94.8061" y1="621.2969" y2="621.2969"/><text fill="#000000" font-family="sans-serif" font-size="14" lengthAdjust="spacing" textLength="0" x="71.8061" y="612.9951"/></g><ellipse cx="309.806" cy="16" fill="#000000" filter="url(#f1eauue6fuw2he)" rx="10" ry="10" style="stroke:none;stroke-width:1.0;"/><ellipse cx="188.806" cy="732" filter="url(#f1eauue6fuw2he)" rx="10" ry="10" style="stroke:#000000;stroke-width:1.0;fill:none;"/><ellipse cx="189.306" cy="732.5" fill="#000000" rx="6" ry="6" style="stroke:none;stroke-width:1.0;"/><!--MD5=[ba0fdac9700f9825b754e67fda8ee1b2]
link *start to A--><path d="M309.806,26.013 C309.806,38.698 309.806,62.409 309.806,81.57 " fill="none" id="*start-to-A" style="stroke:#A80036;stroke-width:1.0;"/><polygon fill="#A80036" points="309.806,86.84,313.806,77.84,309.806,81.84,305.806,77.84,309.806,86.84" style="stroke:#A80036;stroke-width:1.0;"/><!--MD5=[5e2eec62a50b26b6b0db6c12e4ee289c]
link A to B--><path d="M284.673,135.865 C273.084,149.26 263.039,166.867 268.806,184 C271.88,193.13 277.178,201.942 282.966,209.706 " fill="none" id="A-to-B" style="stroke:#A80036;stroke-width:1.0;"/><polygon fill="#A80036" points="286.22,213.906,283.8716,204.3412,283.1584,209.9529,277.5467,209.2398,286.22,213.906" style="stroke:#A80036;stroke-width:1.0;"/><text fill="#000000" font-family="sans-serif" font-size="13" lengthAdjust="spacing" textLength="34" x="269.806" y="180.0669">put X</text><!--MD5=[2c777c0c38089c390787dfc0786ecb92]
link B to A--><path d="M309.806,213.973 C309.806,193.503 309.806,164.021 309.806,142.194 " fill="none" id="B-to-A" style="stroke:#A80036;stroke-width:1.0;"/><polygon fill="#A80036" points="309.806,137.101,305.806,146.101,309.806,142.101,313.806,146.101,309.806,137.101" style="stroke:#A80036;stroke-width:1.0;"/><text fill="#000000" font-family="sans-serif" font-size="13" lengthAdjust="spacing" textLength="35" x="310.806" y="180.0669">put O</text><!--MD5=[cd25d8247324207f828a4db9f58ed69d]
link B to C--><path d="M309.806,264.101 C309.806,284.593 309.806,314.076 309.806,335.884 " fill="none" id="B-to-C" style="stroke:#A80036;stroke-width:1.0;"/><polygon fill="#A80036" points="309.806,340.973,313.806,331.973,309.806,335.973,305.806,331.973,309.806,340.973" style="stroke:#A80036;stroke-width:1.0;"/><text fill="#000000" font-family="sans-serif" font-size="13" lengthAdjust="spacing" textLength="99" x="310.806" y="307.0669">[isCompletedX]</text><!--MD5=[95ca888c4bb7ed1df160562281720a5c]
link C to D--><path d="M284.505,385.714 C253.926,408.331 202.561,446.323 170.239,470.23 " fill="none" id="C-to-D" style="stroke:#A80036;stroke-width:1.0;"/><polygon fill="#A80036" points="166.004,473.363,175.6186,471.2278,170.0241,470.39,170.8619,464.7956,166.004,473.363" style="stroke:#A80036;stroke-width:1.0;"/><text fill="#000000" font-family="sans-serif" font-size="13" lengthAdjust="spacing" textLength="35" x="236.806" y="434.0669">put O</text><!--MD5=[6a85fad97473f3ca89fe62758889412b]
link C to *end--><path d="M314.027,391.324 C321.553,441.775 332.752,560.168 289.806,645 C270.19,683.7492 224.665,712.0781 202.048,724.311 " fill="none" id="C-to-*end" style="stroke:#A80036;stroke-width:1.0;"/><polygon fill="#A80036" points="197.587,726.675,207.4123,725.9947,202.0049,724.3336,203.666,718.9261,197.587,726.675" style="stroke:#A80036;stroke-width:1.0;"/><text fill="#000000" font-family="sans-serif" font-size="13" lengthAdjust="spacing" textLength="94" x="317.806" y="561.0669">[isTicTacToeX]</text><!--MD5=[9ee2c6850258a89d754920901add40c0]
link D to E--><path d="M115.571,496.993 C86.3353,501.961 39.4216,514.903 17.8061,548 C6,566.077 23.0726,585.831 40.7391,599.903 " fill="none" id="D-to-E" style="stroke:#A80036;stroke-width:1.0;"/><polygon fill="#A80036" points="44.7454,602.995,40.0641,594.3298,40.787,599.9403,35.1765,600.6632,44.7454,602.995" style="stroke:#A80036;stroke-width:1.0;"/><text fill="#000000" font-family="sans-serif" font-size="13" lengthAdjust="spacing" textLength="50" x="18.8061" y="561.0669">move X</text><!--MD5=[d9f0db18a21361db52f95f1c09405f86]
link E to D--><path d="M83.2741,594.982 C91.0098,581.215 100.9235,563.619 109.8061,548 C114.496,539.754 119.612,530.817 124.313,522.631 " fill="none" id="E-to-D" style="stroke:#A80036;stroke-width:1.0;"/><polygon fill="#A80036" points="126.876,518.169,118.9252,523.9815,124.3859,522.5048,125.8625,527.9656,126.876,518.169" style="stroke:#A80036;stroke-width:1.0;"/><text fill="#000000" font-family="sans-serif" font-size="13" lengthAdjust="spacing" textLength="51" x="110.8061" y="561.0669">move O</text><!--MD5=[51efe90a7f482fc138f2ff6aff84f914]
link D to *end--><path d="M154.482,518.054 C159.098,527.171 163.83,537.812 166.806,548 C184.543,608.724 188.005,684.7952 188.663,716.2961 " fill="none" id="D-to-*end" style="stroke:#A80036;stroke-width:1.0;"/><polygon fill="#A80036" points="188.755,721.6455,192.598,712.5774,188.6681,716.6463,184.5992,712.7164,188.755,721.6455" style="stroke:#A80036;stroke-width:1.0;"/><text fill="#000000" font-family="sans-serif" font-size="13" lengthAdjust="spacing" textLength="95" x="185.806" y="624.5669">[isTicTacToeO]</text><!--MD5=[b4ae64609a665d46448790142bade235]
link E to *end--><path d="M61.6926,645.2433 C58.3175,660.1019 57.1298,678.748 66.8061,692 C91.6578,726.035 146.577,731.0514 173.425,731.3615 " fill="none" id="E-to-*end" style="stroke:#A80036;stroke-width:1.0;"/><polygon fill="#A80036" points="178.707,731.365,169.707,727.365,173.707,731.365,169.707,735.365,178.707,731.365" style="stroke:#A80036;stroke-width:1.0;"/><text fill="#000000" font-family="sans-serif" font-size="13" lengthAdjust="spacing" textLength="94" x="67.8061" y="688.0669">[isTicTacToeX]</text><!--MD5=[762535ddbeca7f01020a77f7cdd73eaa]
@startuml
state A as " "
state B as " "
state C as " "
state D as " "
state E as " "
[*] - -> A
A - -> B: put X
B - -> A : put O
B - -> C : [isCompletedX]
C - -> D : put O
C - -> [*] : [isTicTacToeX]
D - -> E : move X
E - -> D : move O
D - -> [*] : [isTicTacToeO]
E - -> [*] : [isTicTacToeX]
@enduml

PlantUML version 1.2021.4beta3(Unknown compile time)
(GPL source distribution)
Java Runtime: Java(TM) SE Runtime Environment
JVM: Java HotSpot(TM) 64-Bit Server VM
Default Encoding: UTF-8
Language: en
Country: US
--></g></svg>