<?xml version="1.0" encoding="UTF-8" standalone="no"?><svg xmlns="http://www.w3.org/2000/svg" xmlns:xlink="http://www.w3.org/1999/xlink" contentScriptType="application/ecmascript" contentStyleType="text/css" height="957px" preserveAspectRatio="none" style="width:1077px;height:957px;" version="1.1" viewBox="0 0 1077 957" width="1077px" zoomAndPan="magnify"><defs><filter height="300%" id="fhtcchvn4cya8" width="300%" x="-1" y="-1"><feGaussianBlur result="blurOut" stdDeviation="2.0"/><feColorMatrix in="blurOut" result="blurOut2" type="matrix" values="0 0 0 0 0 0 0 0 0 0 0 0 0 0 0 0 0 0 .4 0"/><feOffset dx="4.0" dy="4.0" in="blurOut2" result="blurOut3"/><feBlend in="SourceGraphic" in2="blurOut3" mode="normal"/></filter></defs><g><!--MD5=[36f719b1cbc3f26b5758ea249b208fb4]
class TicTacToe--><rect fill="#FEFECE" filter="url(#fhtcchvn4cya8)" height="48" id="TicTacToe" style="stroke:#A80036;stroke-width:1.5;" width="93" x="594.5" y="7"/><ellipse cx="609.5" cy="23" fill="#ADD1B2" rx="11" ry="11" style="stroke:#A80036;stroke-width:1.0;"/><path d="M611.8438,18.6719 C610.9063,18.2344 610.3125,18.0938 609.4375,18.0938 C606.8125,18.0938 604.8125,20.1719 604.8125,22.8906 L604.8125,24.0156 C604.8125,26.5938 606.9219,28.4844 609.8125,28.4844 C611.0313,28.4844 612.1875,28.1875 612.9375,27.6406 C613.5156,27.2344 613.8438,26.7813 613.8438,26.3906 C613.8438,25.9375 613.4531,25.5469 612.9844,25.5469 C612.7656,25.5469 612.5625,25.625 612.375,25.8125 C611.9219,26.2969 611.9219,26.2969 611.7344,26.3906 C611.3125,26.6563 610.625,26.7813 609.8594,26.7813 C607.8125,26.7813 606.5156,25.6875 606.5156,23.9844 L606.5156,22.8906 C606.5156,21.1094 607.7656,19.7969 609.5,19.7969 C610.0781,19.7969 610.6875,19.9531 611.1563,20.2031 C611.6406,20.4844 611.8125,20.7031 611.9063,21.1094 C611.9688,21.5156 612,21.6406 612.1406,21.7656 C612.2813,21.9063 612.5156,22.0156 612.7344,22.0156 C613,22.0156 613.2656,21.875 613.4375,21.6563 C613.5469,21.5 613.5781,21.3125 613.5781,20.8906 L613.5781,19.4688 C613.5781,19.0313 613.5625,18.9063 613.4688,18.75 C613.3125,18.4844 613.0313,18.3438 612.7344,18.3438 C612.4375,18.3438 612.2344,18.4375 612.0156,18.75 L611.8438,18.6719 Z " fill="#000000"/><text fill="#000000" font-family="sans-serif" font-size="12" lengthAdjust="spacing" textLength="61" x="623.5" y="27.1543">TicTacToe</text><line style="stroke:#A80036;stroke-width:1.5;" x1="595.5" x2="686.5" y1="39" y2="39"/><line style="stroke:#A80036;stroke-width:1.5;" x1="595.5" x2="686.5" y1="47" y2="47"/><!--MD5=[2cb47ba637a0d19583e6199456f6ad0b]
class Player--><rect fill="#FEFECE" filter="url(#fhtcchvn4cya8)" height="48" id="Player" style="stroke:#A80036;stroke-width:1.5;" width="68" x="525" y="225"/><ellipse cx="540" cy="241" fill="#ADD1B2" rx="11" ry="11" style="stroke:#A80036;stroke-width:1.0;"/><path d="M542.3438,236.6719 C541.4063,236.2344 540.8125,236.0938 539.9375,236.0938 C537.3125,236.0938 535.3125,238.1719 535.3125,240.8906 L535.3125,242.0156 C535.3125,244.5938 537.4219,246.4844 540.3125,246.4844 C541.5313,246.4844 542.6875,246.1875 543.4375,245.6406 C544.0156,245.2344 544.3438,244.7813 544.3438,244.3906 C544.3438,243.9375 543.9531,243.5469 543.4844,243.5469 C543.2656,243.5469 543.0625,243.625 542.875,243.8125 C542.4219,244.2969 542.4219,244.2969 542.2344,244.3906 C541.8125,244.6563 541.125,244.7813 540.3594,244.7813 C538.3125,244.7813 537.0156,243.6875 537.0156,241.9844 L537.0156,240.8906 C537.0156,239.1094 538.2656,237.7969 540,237.7969 C540.5781,237.7969 541.1875,237.9531 541.6563,238.2031 C542.1406,238.4844 542.3125,238.7031 542.4063,239.1094 C542.4688,239.5156 542.5,239.6406 542.6406,239.7656 C542.7813,239.9063 543.0156,240.0156 543.2344,240.0156 C543.5,240.0156 543.7656,239.875 543.9375,239.6563 C544.0469,239.5 544.0781,239.3125 544.0781,238.8906 L544.0781,237.4688 C544.0781,237.0313 544.0625,236.9063 543.9688,236.75 C543.8125,236.4844 543.5313,236.3438 543.2344,236.3438 C542.9375,236.3438 542.7344,236.4375 542.5156,236.75 L542.3438,236.6719 Z " fill="#000000"/><text fill="#000000" font-family="sans-serif" font-size="12" lengthAdjust="spacing" textLength="36" x="554" y="245.1543">Player</text><line style="stroke:#A80036;stroke-width:1.5;" x1="526" x2="592" y1="257" y2="257"/><line style="stroke:#A80036;stroke-width:1.5;" x1="526" x2="592" y1="265" y2="265"/><!--MD5=[9563755d011c5cec7ec66dc53565a59e]
class Board--><rect fill="#FEFECE" filter="url(#fhtcchvn4cya8)" height="48" id="Board" style="stroke:#A80036;stroke-width:1.5;" width="68" x="894" y="334"/><ellipse cx="909" cy="350" fill="#ADD1B2" rx="11" ry="11" style="stroke:#A80036;stroke-width:1.0;"/><path d="M911.3438,345.6719 C910.4063,345.2344 909.8125,345.0938 908.9375,345.0938 C906.3125,345.0938 904.3125,347.1719 904.3125,349.8906 L904.3125,351.0156 C904.3125,353.5938 906.4219,355.4844 909.3125,355.4844 C910.5313,355.4844 911.6875,355.1875 912.4375,354.6406 C913.0156,354.2344 913.3438,353.7813 913.3438,353.3906 C913.3438,352.9375 912.9531,352.5469 912.4844,352.5469 C912.2656,352.5469 912.0625,352.625 911.875,352.8125 C911.4219,353.2969 911.4219,353.2969 911.2344,353.3906 C910.8125,353.6563 910.125,353.7813 909.3594,353.7813 C907.3125,353.7813 906.0156,352.6875 906.0156,350.9844 L906.0156,349.8906 C906.0156,348.1094 907.2656,346.7969 909,346.7969 C909.5781,346.7969 910.1875,346.9531 910.6563,347.2031 C911.1406,347.4844 911.3125,347.7031 911.4063,348.1094 C911.4688,348.5156 911.5,348.6406 911.6406,348.7656 C911.7813,348.9063 912.0156,349.0156 912.2344,349.0156 C912.5,349.0156 912.7656,348.875 912.9375,348.6563 C913.0469,348.5 913.0781,348.3125 913.0781,347.8906 L913.0781,346.4688 C913.0781,346.0313 913.0625,345.9063 912.9688,345.75 C912.8125,345.4844 912.5313,345.3438 912.2344,345.3438 C911.9375,345.3438 911.7344,345.4375 911.5156,345.75 L911.3438,345.6719 Z " fill="#000000"/><text fill="#000000" font-family="sans-serif" font-size="12" lengthAdjust="spacing" textLength="36" x="923" y="354.1543">Board</text><line style="stroke:#A80036;stroke-width:1.5;" x1="895" x2="961" y1="366" y2="366"/><line style="stroke:#A80036;stroke-width:1.5;" x1="895" x2="961" y1="374" y2="374"/><!--MD5=[dd91eae41778c45e12552e5329e240e8]
class Turn--><rect fill="#FEFECE" filter="url(#fhtcchvn4cya8)" height="48" id="Turn" style="stroke:#A80036;stroke-width:1.5;" width="58" x="612" y="116"/><ellipse cx="627" cy="132" fill="#ADD1B2" rx="11" ry="11" style="stroke:#A80036;stroke-width:1.0;"/><path d="M629.3438,127.6719 C628.4063,127.2344 627.8125,127.0938 626.9375,127.0938 C624.3125,127.0938 622.3125,129.1719 622.3125,131.8906 L622.3125,133.0156 C622.3125,135.5938 624.4219,137.4844 627.3125,137.4844 C628.5313,137.4844 629.6875,137.1875 630.4375,136.6406 C631.0156,136.2344 631.3438,135.7813 631.3438,135.3906 C631.3438,134.9375 630.9531,134.5469 630.4844,134.5469 C630.2656,134.5469 630.0625,134.625 629.875,134.8125 C629.4219,135.2969 629.4219,135.2969 629.2344,135.3906 C628.8125,135.6563 628.125,135.7813 627.3594,135.7813 C625.3125,135.7813 624.0156,134.6875 624.0156,132.9844 L624.0156,131.8906 C624.0156,130.1094 625.2656,128.7969 627,128.7969 C627.5781,128.7969 628.1875,128.9531 628.6563,129.2031 C629.1406,129.4844 629.3125,129.7031 629.4063,130.1094 C629.4688,130.5156 629.5,130.6406 629.6406,130.7656 C629.7813,130.9063 630.0156,131.0156 630.2344,131.0156 C630.5,131.0156 630.7656,130.875 630.9375,130.6563 C631.0469,130.5 631.0781,130.3125 631.0781,129.8906 L631.0781,128.4688 C631.0781,128.0313 631.0625,127.9063 630.9688,127.75 C630.8125,127.4844 630.5313,127.3438 630.2344,127.3438 C629.9375,127.3438 629.7344,127.4375 629.5156,127.75 L629.3438,127.6719 Z " fill="#000000"/><text fill="#000000" font-family="sans-serif" font-size="12" lengthAdjust="spacing" textLength="26" x="641" y="136.1543">Turn</text><line style="stroke:#A80036;stroke-width:1.5;" x1="613" x2="669" y1="148" y2="148"/><line style="stroke:#A80036;stroke-width:1.5;" x1="613" x2="669" y1="156" y2="156"/><!--MD5=[e05bacf3ff4416a0580578814d41bbf6]
class Piece--><rect fill="#FEFECE" filter="url(#fhtcchvn4cya8)" height="48" id="Piece" style="stroke:#A80036;stroke-width:1.5;" width="64" x="411" y="677"/><ellipse cx="426" cy="693" fill="#ADD1B2" rx="11" ry="11" style="stroke:#A80036;stroke-width:1.0;"/><path d="M428.3438,688.6719 C427.4063,688.2344 426.8125,688.0938 425.9375,688.0938 C423.3125,688.0938 421.3125,690.1719 421.3125,692.8906 L421.3125,694.0156 C421.3125,696.5938 423.4219,698.4844 426.3125,698.4844 C427.5313,698.4844 428.6875,698.1875 429.4375,697.6406 C430.0156,697.2344 430.3438,696.7813 430.3438,696.3906 C430.3438,695.9375 429.9531,695.5469 429.4844,695.5469 C429.2656,695.5469 429.0625,695.625 428.875,695.8125 C428.4219,696.2969 428.4219,696.2969 428.2344,696.3906 C427.8125,696.6563 427.125,696.7813 426.3594,696.7813 C424.3125,696.7813 423.0156,695.6875 423.0156,693.9844 L423.0156,692.8906 C423.0156,691.1094 424.2656,689.7969 426,689.7969 C426.5781,689.7969 427.1875,689.9531 427.6563,690.2031 C428.1406,690.4844 428.3125,690.7031 428.4063,691.1094 C428.4688,691.5156 428.5,691.6406 428.6406,691.7656 C428.7813,691.9063 429.0156,692.0156 429.2344,692.0156 C429.5,692.0156 429.7656,691.875 429.9375,691.6563 C430.0469,691.5 430.0781,691.3125 430.0781,690.8906 L430.0781,689.4688 C430.0781,689.0313 430.0625,688.9063 429.9688,688.75 C429.8125,688.4844 429.5313,688.3438 429.2344,688.3438 C428.9375,688.3438 428.7344,688.4375 428.5156,688.75 L428.3438,688.6719 Z " fill="#000000"/><text fill="#000000" font-family="sans-serif" font-size="12" lengthAdjust="spacing" textLength="32" x="440" y="697.1543">Piece</text><line style="stroke:#A80036;stroke-width:1.5;" x1="412" x2="474" y1="709" y2="709"/><line style="stroke:#A80036;stroke-width:1.5;" x1="412" x2="474" y1="717" y2="717"/><!--MD5=[0992d3fdc9d3d7c02b735131bb70871d]
class Goal--><rect fill="#FEFECE" filter="url(#fhtcchvn4cya8)" height="48" id="Goal" style="stroke:#A80036;stroke-width:1.5;" width="59" x="529.5" y="334"/><ellipse cx="544.5" cy="350" fill="#ADD1B2" rx="11" ry="11" style="stroke:#A80036;stroke-width:1.0;"/><path d="M546.8438,345.6719 C545.9063,345.2344 545.3125,345.0938 544.4375,345.0938 C541.8125,345.0938 539.8125,347.1719 539.8125,349.8906 L539.8125,351.0156 C539.8125,353.5938 541.9219,355.4844 544.8125,355.4844 C546.0313,355.4844 547.1875,355.1875 547.9375,354.6406 C548.5156,354.2344 548.8438,353.7813 548.8438,353.3906 C548.8438,352.9375 548.4531,352.5469 547.9844,352.5469 C547.7656,352.5469 547.5625,352.625 547.375,352.8125 C546.9219,353.2969 546.9219,353.2969 546.7344,353.3906 C546.3125,353.6563 545.625,353.7813 544.8594,353.7813 C542.8125,353.7813 541.5156,352.6875 541.5156,350.9844 L541.5156,349.8906 C541.5156,348.1094 542.7656,346.7969 544.5,346.7969 C545.0781,346.7969 545.6875,346.9531 546.1563,347.2031 C546.6406,347.4844 546.8125,347.7031 546.9063,348.1094 C546.9688,348.5156 547,348.6406 547.1406,348.7656 C547.2813,348.9063 547.5156,349.0156 547.7344,349.0156 C548,349.0156 548.2656,348.875 548.4375,348.6563 C548.5469,348.5 548.5781,348.3125 548.5781,347.8906 L548.5781,346.4688 C548.5781,346.0313 548.5625,345.9063 548.4688,345.75 C548.3125,345.4844 548.0313,345.3438 547.7344,345.3438 C547.4375,345.3438 547.2344,345.4375 547.0156,345.75 L546.8438,345.6719 Z " fill="#000000"/><text fill="#000000" font-family="sans-serif" font-size="12" lengthAdjust="spacing" textLength="27" x="558.5" y="354.1543">Goal</text><line style="stroke:#A80036;stroke-width:1.5;" x1="530.5" x2="587.5" y1="366" y2="366"/><line style="stroke:#A80036;stroke-width:1.5;" x1="530.5" x2="587.5" y1="374" y2="374"/><!--MD5=[18eee71c88ab61f27581b8cbdd3ef5ee]
class Color--><rect fill="#FEFECE" filter="url(#fhtcchvn4cya8)" height="48" id="Color" style="stroke:#A80036;stroke-width:1.5;" width="64" x="93" y="786"/><ellipse cx="108" cy="802" fill="#ADD1B2" rx="11" ry="11" style="stroke:#A80036;stroke-width:1.0;"/><path d="M110.3438,797.6719 C109.4063,797.2344 108.8125,797.0938 107.9375,797.0938 C105.3125,797.0938 103.3125,799.1719 103.3125,801.8906 L103.3125,803.0156 C103.3125,805.5938 105.4219,807.4844 108.3125,807.4844 C109.5313,807.4844 110.6875,807.1875 111.4375,806.6406 C112.0156,806.2344 112.3438,805.7813 112.3438,805.3906 C112.3438,804.9375 111.9531,804.5469 111.4844,804.5469 C111.2656,804.5469 111.0625,804.625 110.875,804.8125 C110.4219,805.2969 110.4219,805.2969 110.2344,805.3906 C109.8125,805.6563 109.125,805.7813 108.3594,805.7813 C106.3125,805.7813 105.0156,804.6875 105.0156,802.9844 L105.0156,801.8906 C105.0156,800.1094 106.2656,798.7969 108,798.7969 C108.5781,798.7969 109.1875,798.9531 109.6563,799.2031 C110.1406,799.4844 110.3125,799.7031 110.4063,800.1094 C110.4688,800.5156 110.5,800.6406 110.6406,800.7656 C110.7813,800.9063 111.0156,801.0156 111.2344,801.0156 C111.5,801.0156 111.7656,800.875 111.9375,800.6563 C112.0469,800.5 112.0781,800.3125 112.0781,799.8906 L112.0781,798.4688 C112.0781,798.0313 112.0625,797.9063 111.9688,797.75 C111.8125,797.4844 111.5313,797.3438 111.2344,797.3438 C110.9375,797.3438 110.7344,797.4375 110.5156,797.75 L110.3438,797.6719 Z " fill="#000000"/><text fill="#000000" font-family="sans-serif" font-size="12" lengthAdjust="spacing" textLength="32" x="122" y="806.1543">Color</text><line style="stroke:#A80036;stroke-width:1.5;" x1="94" x2="156" y1="818" y2="818"/><line style="stroke:#A80036;stroke-width:1.5;" x1="94" x2="156" y1="826" y2="826"/><!--MD5=[f8e7078f77c005d15b486c0c98deb1e6]
class Action--><rect fill="#FEFECE" filter="url(#fhtcchvn4cya8)" height="48" id="Action" style="stroke:#A80036;stroke-width:1.5;" width="69" x="789.5" y="334"/><ellipse cx="804.5" cy="350" fill="#ADD1B2" rx="11" ry="11" style="stroke:#A80036;stroke-width:1.0;"/><path d="M806.8438,345.6719 C805.9063,345.2344 805.3125,345.0938 804.4375,345.0938 C801.8125,345.0938 799.8125,347.1719 799.8125,349.8906 L799.8125,351.0156 C799.8125,353.5938 801.9219,355.4844 804.8125,355.4844 C806.0313,355.4844 807.1875,355.1875 807.9375,354.6406 C808.5156,354.2344 808.8438,353.7813 808.8438,353.3906 C808.8438,352.9375 808.4531,352.5469 807.9844,352.5469 C807.7656,352.5469 807.5625,352.625 807.375,352.8125 C806.9219,353.2969 806.9219,353.2969 806.7344,353.3906 C806.3125,353.6563 805.625,353.7813 804.8594,353.7813 C802.8125,353.7813 801.5156,352.6875 801.5156,350.9844 L801.5156,349.8906 C801.5156,348.1094 802.7656,346.7969 804.5,346.7969 C805.0781,346.7969 805.6875,346.9531 806.1563,347.2031 C806.6406,347.4844 806.8125,347.7031 806.9063,348.1094 C806.9688,348.5156 807,348.6406 807.1406,348.7656 C807.2813,348.9063 807.5156,349.0156 807.7344,349.0156 C808,349.0156 808.2656,348.875 808.4375,348.6563 C808.5469,348.5 808.5781,348.3125 808.5781,347.8906 L808.5781,346.4688 C808.5781,346.0313 808.5625,345.9063 808.4688,345.75 C808.3125,345.4844 808.0313,345.3438 807.7344,345.3438 C807.4375,345.3438 807.2344,345.4375 807.0156,345.75 L806.8438,345.6719 Z " fill="#000000"/><text fill="#000000" font-family="sans-serif" font-size="12" lengthAdjust="spacing" textLength="37" x="818.5" y="354.1543">Action</text><line style="stroke:#A80036;stroke-width:1.5;" x1="790.5" x2="857.5" y1="366" y2="366"/><line style="stroke:#A80036;stroke-width:1.5;" x1="790.5" x2="857.5" y1="374" y2="374"/><!--MD5=[80913b1cc667c5997af01db625a44293]
class Put--><rect fill="#FEFECE" filter="url(#fhtcchvn4cya8)" height="48" id="Put" style="stroke:#A80036;stroke-width:1.5;" width="49" x="721.5" y="443"/><ellipse cx="736.5" cy="459" fill="#ADD1B2" rx="11" ry="11" style="stroke:#A80036;stroke-width:1.0;"/><path d="M738.8438,454.6719 C737.9063,454.2344 737.3125,454.0938 736.4375,454.0938 C733.8125,454.0938 731.8125,456.1719 731.8125,458.8906 L731.8125,460.0156 C731.8125,462.5938 733.9219,464.4844 736.8125,464.4844 C738.0313,464.4844 739.1875,464.1875 739.9375,463.6406 C740.5156,463.2344 740.8438,462.7813 740.8438,462.3906 C740.8438,461.9375 740.4531,461.5469 739.9844,461.5469 C739.7656,461.5469 739.5625,461.625 739.375,461.8125 C738.9219,462.2969 738.9219,462.2969 738.7344,462.3906 C738.3125,462.6563 737.625,462.7813 736.8594,462.7813 C734.8125,462.7813 733.5156,461.6875 733.5156,459.9844 L733.5156,458.8906 C733.5156,457.1094 734.7656,455.7969 736.5,455.7969 C737.0781,455.7969 737.6875,455.9531 738.1563,456.2031 C738.6406,456.4844 738.8125,456.7031 738.9063,457.1094 C738.9688,457.5156 739,457.6406 739.1406,457.7656 C739.2813,457.9063 739.5156,458.0156 739.7344,458.0156 C740,458.0156 740.2656,457.875 740.4375,457.6563 C740.5469,457.5 740.5781,457.3125 740.5781,456.8906 L740.5781,455.4688 C740.5781,455.0313 740.5625,454.9063 740.4688,454.75 C740.3125,454.4844 740.0313,454.3438 739.7344,454.3438 C739.4375,454.3438 739.2344,454.4375 739.0156,454.75 L738.8438,454.6719 Z " fill="#000000"/><text fill="#000000" font-family="sans-serif" font-size="12" lengthAdjust="spacing" textLength="17" x="750.5" y="463.1543">Put</text><line style="stroke:#A80036;stroke-width:1.5;" x1="722.5" x2="769.5" y1="475" y2="475"/><line style="stroke:#A80036;stroke-width:1.5;" x1="722.5" x2="769.5" y1="483" y2="483"/><!--MD5=[1981719fa3982d92ef7fd3f06d73b3e7]
class Move--><rect fill="#FEFECE" filter="url(#fhtcchvn4cya8)" height="48" id="Move" style="stroke:#A80036;stroke-width:1.5;" width="65" x="877.5" y="443"/><ellipse cx="892.5" cy="459" fill="#ADD1B2" rx="11" ry="11" style="stroke:#A80036;stroke-width:1.0;"/><path d="M894.8438,454.6719 C893.9063,454.2344 893.3125,454.0938 892.4375,454.0938 C889.8125,454.0938 887.8125,456.1719 887.8125,458.8906 L887.8125,460.0156 C887.8125,462.5938 889.9219,464.4844 892.8125,464.4844 C894.0313,464.4844 895.1875,464.1875 895.9375,463.6406 C896.5156,463.2344 896.8438,462.7813 896.8438,462.3906 C896.8438,461.9375 896.4531,461.5469 895.9844,461.5469 C895.7656,461.5469 895.5625,461.625 895.375,461.8125 C894.9219,462.2969 894.9219,462.2969 894.7344,462.3906 C894.3125,462.6563 893.625,462.7813 892.8594,462.7813 C890.8125,462.7813 889.5156,461.6875 889.5156,459.9844 L889.5156,458.8906 C889.5156,457.1094 890.7656,455.7969 892.5,455.7969 C893.0781,455.7969 893.6875,455.9531 894.1563,456.2031 C894.6406,456.4844 894.8125,456.7031 894.9063,457.1094 C894.9688,457.5156 895,457.6406 895.1406,457.7656 C895.2813,457.9063 895.5156,458.0156 895.7344,458.0156 C896,458.0156 896.2656,457.875 896.4375,457.6563 C896.5469,457.5 896.5781,457.3125 896.5781,456.8906 L896.5781,455.4688 C896.5781,455.0313 896.5625,454.9063 896.4688,454.75 C896.3125,454.4844 896.0313,454.3438 895.7344,454.3438 C895.4375,454.3438 895.2344,454.4375 895.0156,454.75 L894.8438,454.6719 Z " fill="#000000"/><text fill="#000000" font-family="sans-serif" font-size="12" lengthAdjust="spacing" textLength="33" x="906.5" y="463.1543">Move</text><line style="stroke:#A80036;stroke-width:1.5;" x1="878.5" x2="941.5" y1="475" y2="475"/><line style="stroke:#A80036;stroke-width:1.5;" x1="878.5" x2="941.5" y1="483" y2="483"/><!--MD5=[b203f6b098b8dffe494a95d9c500f8e2]
class X--><rect fill="#FEFECE" filter="url(#fhtcchvn4cya8)" height="48" id="X" style="stroke:#A80036;stroke-width:1.5;" width="40" x="67" y="895"/><ellipse cx="82" cy="911" fill="#ADD1B2" rx="11" ry="11" style="stroke:#A80036;stroke-width:1.0;"/><path d="M84.3438,906.6719 C83.4063,906.2344 82.8125,906.0938 81.9375,906.0938 C79.3125,906.0938 77.3125,908.1719 77.3125,910.8906 L77.3125,912.0156 C77.3125,914.5938 79.4219,916.4844 82.3125,916.4844 C83.5313,916.4844 84.6875,916.1875 85.4375,915.6406 C86.0156,915.2344 86.3438,914.7813 86.3438,914.3906 C86.3438,913.9375 85.9531,913.5469 85.4844,913.5469 C85.2656,913.5469 85.0625,913.625 84.875,913.8125 C84.4219,914.2969 84.4219,914.2969 84.2344,914.3906 C83.8125,914.6563 83.125,914.7813 82.3594,914.7813 C80.3125,914.7813 79.0156,913.6875 79.0156,911.9844 L79.0156,910.8906 C79.0156,909.1094 80.2656,907.7969 82,907.7969 C82.5781,907.7969 83.1875,907.9531 83.6563,908.2031 C84.1406,908.4844 84.3125,908.7031 84.4063,909.1094 C84.4688,909.5156 84.5,909.6406 84.6406,909.7656 C84.7813,909.9063 85.0156,910.0156 85.2344,910.0156 C85.5,910.0156 85.7656,909.875 85.9375,909.6563 C86.0469,909.5 86.0781,909.3125 86.0781,908.8906 L86.0781,907.4688 C86.0781,907.0313 86.0625,906.9063 85.9688,906.75 C85.8125,906.4844 85.5313,906.3438 85.2344,906.3438 C84.9375,906.3438 84.7344,906.4375 84.5156,906.75 L84.3438,906.6719 Z " fill="#000000"/><text fill="#000000" font-family="sans-serif" font-size="12" lengthAdjust="spacing" textLength="8" x="96" y="915.1543">X</text><line style="stroke:#A80036;stroke-width:1.5;" x1="68" x2="106" y1="927" y2="927"/><line style="stroke:#A80036;stroke-width:1.5;" x1="68" x2="106" y1="935" y2="935"/><!--MD5=[255014859fcd18787a2ae9f2a405ae60]
class O--><rect fill="#FEFECE" filter="url(#fhtcchvn4cya8)" height="48" id="O" style="stroke:#A80036;stroke-width:1.5;" width="42" x="142" y="895"/><ellipse cx="157" cy="911" fill="#ADD1B2" rx="11" ry="11" style="stroke:#A80036;stroke-width:1.0;"/><path d="M159.3438,906.6719 C158.4063,906.2344 157.8125,906.0938 156.9375,906.0938 C154.3125,906.0938 152.3125,908.1719 152.3125,910.8906 L152.3125,912.0156 C152.3125,914.5938 154.4219,916.4844 157.3125,916.4844 C158.5313,916.4844 159.6875,916.1875 160.4375,915.6406 C161.0156,915.2344 161.3438,914.7813 161.3438,914.3906 C161.3438,913.9375 160.9531,913.5469 160.4844,913.5469 C160.2656,913.5469 160.0625,913.625 159.875,913.8125 C159.4219,914.2969 159.4219,914.2969 159.2344,914.3906 C158.8125,914.6563 158.125,914.7813 157.3594,914.7813 C155.3125,914.7813 154.0156,913.6875 154.0156,911.9844 L154.0156,910.8906 C154.0156,909.1094 155.2656,907.7969 157,907.7969 C157.5781,907.7969 158.1875,907.9531 158.6563,908.2031 C159.1406,908.4844 159.3125,908.7031 159.4063,909.1094 C159.4688,909.5156 159.5,909.6406 159.6406,909.7656 C159.7813,909.9063 160.0156,910.0156 160.2344,910.0156 C160.5,910.0156 160.7656,909.875 160.9375,909.6563 C161.0469,909.5 161.0781,909.3125 161.0781,908.8906 L161.0781,907.4688 C161.0781,907.0313 161.0625,906.9063 160.9688,906.75 C160.8125,906.4844 160.5313,906.3438 160.2344,906.3438 C159.9375,906.3438 159.7344,906.4375 159.5156,906.75 L159.3438,906.6719 Z " fill="#000000"/><text fill="#000000" font-family="sans-serif" font-size="12" lengthAdjust="spacing" textLength="10" x="171" y="915.1543">O</text><line style="stroke:#A80036;stroke-width:1.5;" x1="143" x2="183" y1="927" y2="927"/><line style="stroke:#A80036;stroke-width:1.5;" x1="143" x2="183" y1="935" y2="935"/><!--MD5=[5655ee3e2a0d028d03fe20f829576392]
class Square--><rect fill="#FEFECE" filter="url(#fhtcchvn4cya8)" height="48" id="Square" style="stroke:#A80036;stroke-width:1.5;" width="75" x="872.5" y="568"/><ellipse cx="887.5" cy="584" fill="#ADD1B2" rx="11" ry="11" style="stroke:#A80036;stroke-width:1.0;"/><path d="M889.8438,579.6719 C888.9063,579.2344 888.3125,579.0938 887.4375,579.0938 C884.8125,579.0938 882.8125,581.1719 882.8125,583.8906 L882.8125,585.0156 C882.8125,587.5938 884.9219,589.4844 887.8125,589.4844 C889.0313,589.4844 890.1875,589.1875 890.9375,588.6406 C891.5156,588.2344 891.8438,587.7813 891.8438,587.3906 C891.8438,586.9375 891.4531,586.5469 890.9844,586.5469 C890.7656,586.5469 890.5625,586.625 890.375,586.8125 C889.9219,587.2969 889.9219,587.2969 889.7344,587.3906 C889.3125,587.6563 888.625,587.7813 887.8594,587.7813 C885.8125,587.7813 884.5156,586.6875 884.5156,584.9844 L884.5156,583.8906 C884.5156,582.1094 885.7656,580.7969 887.5,580.7969 C888.0781,580.7969 888.6875,580.9531 889.1563,581.2031 C889.6406,581.4844 889.8125,581.7031 889.9063,582.1094 C889.9688,582.5156 890,582.6406 890.1406,582.7656 C890.2813,582.9063 890.5156,583.0156 890.7344,583.0156 C891,583.0156 891.2656,582.875 891.4375,582.6563 C891.5469,582.5 891.5781,582.3125 891.5781,581.8906 L891.5781,580.4688 C891.5781,580.0313 891.5625,579.9063 891.4688,579.75 C891.3125,579.4844 891.0313,579.3438 890.7344,579.3438 C890.4375,579.3438 890.2344,579.4375 890.0156,579.75 L889.8438,579.6719 Z " fill="#000000"/><text fill="#000000" font-family="sans-serif" font-size="12" lengthAdjust="spacing" textLength="43" x="901.5" y="588.1543">Square</text><line style="stroke:#A80036;stroke-width:1.5;" x1="873.5" x2="946.5" y1="600" y2="600"/><line style="stroke:#A80036;stroke-width:1.5;" x1="873.5" x2="946.5" y1="608" y2="608"/><!--MD5=[8c7d7abc12e214c3cc12c9ab70edee11]
class Coordinate--><rect fill="#FEFECE" filter="url(#fhtcchvn4cya8)" height="48" id="Coordinate" style="stroke:#A80036;stroke-width:1.5;" width="98" x="861" y="677"/><ellipse cx="876" cy="693" fill="#ADD1B2" rx="11" ry="11" style="stroke:#A80036;stroke-width:1.0;"/><path d="M878.3438,688.6719 C877.4063,688.2344 876.8125,688.0938 875.9375,688.0938 C873.3125,688.0938 871.3125,690.1719 871.3125,692.8906 L871.3125,694.0156 C871.3125,696.5938 873.4219,698.4844 876.3125,698.4844 C877.5313,698.4844 878.6875,698.1875 879.4375,697.6406 C880.0156,697.2344 880.3438,696.7813 880.3438,696.3906 C880.3438,695.9375 879.9531,695.5469 879.4844,695.5469 C879.2656,695.5469 879.0625,695.625 878.875,695.8125 C878.4219,696.2969 878.4219,696.2969 878.2344,696.3906 C877.8125,696.6563 877.125,696.7813 876.3594,696.7813 C874.3125,696.7813 873.0156,695.6875 873.0156,693.9844 L873.0156,692.8906 C873.0156,691.1094 874.2656,689.7969 876,689.7969 C876.5781,689.7969 877.1875,689.9531 877.6563,690.2031 C878.1406,690.4844 878.3125,690.7031 878.4063,691.1094 C878.4688,691.5156 878.5,691.6406 878.6406,691.7656 C878.7813,691.9063 879.0156,692.0156 879.2344,692.0156 C879.5,692.0156 879.7656,691.875 879.9375,691.6563 C880.0469,691.5 880.0781,691.3125 880.0781,690.8906 L880.0781,689.4688 C880.0781,689.0313 880.0625,688.9063 879.9688,688.75 C879.8125,688.4844 879.5313,688.3438 879.2344,688.3438 C878.9375,688.3438 878.7344,688.4375 878.5156,688.75 L878.3438,688.6719 Z " fill="#000000"/><text fill="#000000" font-family="sans-serif" font-size="12" lengthAdjust="spacing" textLength="66" x="890" y="697.1543">Coordinate</text><line style="stroke:#A80036;stroke-width:1.5;" x1="862" x2="958" y1="709" y2="709"/><line style="stroke:#A80036;stroke-width:1.5;" x1="862" x2="958" y1="717" y2="717"/><!--MD5=[05aedcff764caeeb5d443618a4d90de7]
class Row--><rect fill="#FEFECE" filter="url(#fhtcchvn4cya8)" height="48" id="Row" style="stroke:#A80036;stroke-width:1.5;" width="57" x="299.5" y="443"/><ellipse cx="314.5" cy="459" fill="#ADD1B2" rx="11" ry="11" style="stroke:#A80036;stroke-width:1.0;"/><path d="M316.8438,454.6719 C315.9063,454.2344 315.3125,454.0938 314.4375,454.0938 C311.8125,454.0938 309.8125,456.1719 309.8125,458.8906 L309.8125,460.0156 C309.8125,462.5938 311.9219,464.4844 314.8125,464.4844 C316.0313,464.4844 317.1875,464.1875 317.9375,463.6406 C318.5156,463.2344 318.8438,462.7813 318.8438,462.3906 C318.8438,461.9375 318.4531,461.5469 317.9844,461.5469 C317.7656,461.5469 317.5625,461.625 317.375,461.8125 C316.9219,462.2969 316.9219,462.2969 316.7344,462.3906 C316.3125,462.6563 315.625,462.7813 314.8594,462.7813 C312.8125,462.7813 311.5156,461.6875 311.5156,459.9844 L311.5156,458.8906 C311.5156,457.1094 312.7656,455.7969 314.5,455.7969 C315.0781,455.7969 315.6875,455.9531 316.1563,456.2031 C316.6406,456.4844 316.8125,456.7031 316.9063,457.1094 C316.9688,457.5156 317,457.6406 317.1406,457.7656 C317.2813,457.9063 317.5156,458.0156 317.7344,458.0156 C318,458.0156 318.2656,457.875 318.4375,457.6563 C318.5469,457.5 318.5781,457.3125 318.5781,456.8906 L318.5781,455.4688 C318.5781,455.0313 318.5625,454.9063 318.4688,454.75 C318.3125,454.4844 318.0313,454.3438 317.7344,454.3438 C317.4375,454.3438 317.2344,454.4375 317.0156,454.75 L316.8438,454.6719 Z " fill="#000000"/><text fill="#000000" font-family="sans-serif" font-size="12" lengthAdjust="spacing" textLength="25" x="328.5" y="463.1543">Row</text><line style="stroke:#A80036;stroke-width:1.5;" x1="300.5" x2="355.5" y1="475" y2="475"/><line style="stroke:#A80036;stroke-width:1.5;" x1="300.5" x2="355.5" y1="483" y2="483"/><!--MD5=[e06ef809dd6be8ce79b58fe0a1161eb8]
class Column--><rect fill="#FEFECE" filter="url(#fhtcchvn4cya8)" height="48" id="Column" style="stroke:#A80036;stroke-width:1.5;" width="76" x="392" y="443"/><ellipse cx="407" cy="459" fill="#ADD1B2" rx="11" ry="11" style="stroke:#A80036;stroke-width:1.0;"/><path d="M409.3438,454.6719 C408.4063,454.2344 407.8125,454.0938 406.9375,454.0938 C404.3125,454.0938 402.3125,456.1719 402.3125,458.8906 L402.3125,460.0156 C402.3125,462.5938 404.4219,464.4844 407.3125,464.4844 C408.5313,464.4844 409.6875,464.1875 410.4375,463.6406 C411.0156,463.2344 411.3438,462.7813 411.3438,462.3906 C411.3438,461.9375 410.9531,461.5469 410.4844,461.5469 C410.2656,461.5469 410.0625,461.625 409.875,461.8125 C409.4219,462.2969 409.4219,462.2969 409.2344,462.3906 C408.8125,462.6563 408.125,462.7813 407.3594,462.7813 C405.3125,462.7813 404.0156,461.6875 404.0156,459.9844 L404.0156,458.8906 C404.0156,457.1094 405.2656,455.7969 407,455.7969 C407.5781,455.7969 408.1875,455.9531 408.6563,456.2031 C409.1406,456.4844 409.3125,456.7031 409.4063,457.1094 C409.4688,457.5156 409.5,457.6406 409.6406,457.7656 C409.7813,457.9063 410.0156,458.0156 410.2344,458.0156 C410.5,458.0156 410.7656,457.875 410.9375,457.6563 C411.0469,457.5 411.0781,457.3125 411.0781,456.8906 L411.0781,455.4688 C411.0781,455.0313 411.0625,454.9063 410.9688,454.75 C410.8125,454.4844 410.5313,454.3438 410.2344,454.3438 C409.9375,454.3438 409.7344,454.4375 409.5156,454.75 L409.3438,454.6719 Z " fill="#000000"/><text fill="#000000" font-family="sans-serif" font-size="12" lengthAdjust="spacing" textLength="44" x="421" y="463.1543">Column</text><line style="stroke:#A80036;stroke-width:1.5;" x1="393" x2="467" y1="475" y2="475"/><line style="stroke:#A80036;stroke-width:1.5;" x1="393" x2="467" y1="483" y2="483"/><!--MD5=[2dff8a3d4bbb6c59757151578181d35d]
class MainDiagonal--><rect fill="#FEFECE" filter="url(#fhtcchvn4cya8)" height="48" id="MainDiagonal" style="stroke:#A80036;stroke-width:1.5;" width="111" x="503.5" y="443"/><ellipse cx="518.5" cy="459" fill="#ADD1B2" rx="11" ry="11" style="stroke:#A80036;stroke-width:1.0;"/><path d="M520.8438,454.6719 C519.9063,454.2344 519.3125,454.0938 518.4375,454.0938 C515.8125,454.0938 513.8125,456.1719 513.8125,458.8906 L513.8125,460.0156 C513.8125,462.5938 515.9219,464.4844 518.8125,464.4844 C520.0313,464.4844 521.1875,464.1875 521.9375,463.6406 C522.5156,463.2344 522.8438,462.7813 522.8438,462.3906 C522.8438,461.9375 522.4531,461.5469 521.9844,461.5469 C521.7656,461.5469 521.5625,461.625 521.375,461.8125 C520.9219,462.2969 520.9219,462.2969 520.7344,462.3906 C520.3125,462.6563 519.625,462.7813 518.8594,462.7813 C516.8125,462.7813 515.5156,461.6875 515.5156,459.9844 L515.5156,458.8906 C515.5156,457.1094 516.7656,455.7969 518.5,455.7969 C519.0781,455.7969 519.6875,455.9531 520.1563,456.2031 C520.6406,456.4844 520.8125,456.7031 520.9063,457.1094 C520.9688,457.5156 521,457.6406 521.1406,457.7656 C521.2813,457.9063 521.5156,458.0156 521.7344,458.0156 C522,458.0156 522.2656,457.875 522.4375,457.6563 C522.5469,457.5 522.5781,457.3125 522.5781,456.8906 L522.5781,455.4688 C522.5781,455.0313 522.5625,454.9063 522.4688,454.75 C522.3125,454.4844 522.0313,454.3438 521.7344,454.3438 C521.4375,454.3438 521.2344,454.4375 521.0156,454.75 L520.8438,454.6719 Z " fill="#000000"/><text fill="#000000" font-family="sans-serif" font-size="12" lengthAdjust="spacing" textLength="79" x="532.5" y="463.1543">MainDiagonal</text><line style="stroke:#A80036;stroke-width:1.5;" x1="504.5" x2="613.5" y1="475" y2="475"/><line style="stroke:#A80036;stroke-width:1.5;" x1="504.5" x2="613.5" y1="483" y2="483"/><!--MD5=[0f6df31fde49cef09278e2483512ca7d]
class InvertedDiagonal--><rect fill="#FEFECE" filter="url(#fhtcchvn4cya8)" height="48" id="InvertedDiagonal" style="stroke:#A80036;stroke-width:1.5;" width="134" x="130" y="443"/><ellipse cx="145" cy="459" fill="#ADD1B2" rx="11" ry="11" style="stroke:#A80036;stroke-width:1.0;"/><path d="M147.3438,454.6719 C146.4063,454.2344 145.8125,454.0938 144.9375,454.0938 C142.3125,454.0938 140.3125,456.1719 140.3125,458.8906 L140.3125,460.0156 C140.3125,462.5938 142.4219,464.4844 145.3125,464.4844 C146.5313,464.4844 147.6875,464.1875 148.4375,463.6406 C149.0156,463.2344 149.3438,462.7813 149.3438,462.3906 C149.3438,461.9375 148.9531,461.5469 148.4844,461.5469 C148.2656,461.5469 148.0625,461.625 147.875,461.8125 C147.4219,462.2969 147.4219,462.2969 147.2344,462.3906 C146.8125,462.6563 146.125,462.7813 145.3594,462.7813 C143.3125,462.7813 142.0156,461.6875 142.0156,459.9844 L142.0156,458.8906 C142.0156,457.1094 143.2656,455.7969 145,455.7969 C145.5781,455.7969 146.1875,455.9531 146.6563,456.2031 C147.1406,456.4844 147.3125,456.7031 147.4063,457.1094 C147.4688,457.5156 147.5,457.6406 147.6406,457.7656 C147.7813,457.9063 148.0156,458.0156 148.2344,458.0156 C148.5,458.0156 148.7656,457.875 148.9375,457.6563 C149.0469,457.5 149.0781,457.3125 149.0781,456.8906 L149.0781,455.4688 C149.0781,455.0313 149.0625,454.9063 148.9688,454.75 C148.8125,454.4844 148.5313,454.3438 148.2344,454.3438 C147.9375,454.3438 147.7344,454.4375 147.5156,454.75 L147.3438,454.6719 Z " fill="#000000"/><text fill="#000000" font-family="sans-serif" font-size="12" lengthAdjust="spacing" textLength="102" x="159" y="463.1543">InvertedDiagonal</text><line style="stroke:#A80036;stroke-width:1.5;" x1="131" x2="263" y1="475" y2="475"/><line style="stroke:#A80036;stroke-width:1.5;" x1="131" x2="263" y1="483" y2="483"/><!--MD5=[434cd2fe8549537c128785c8ce0a3fa2]
link TicTacToe to Player--><path codeLine="1" d="M619.7866,65.3828 C619.7866,65.3828 600.878,99.011 594,116 C581.348,147.252 571.952,184.517 566.099,211.47 " fill="none" id="TicTacToe-Player" style="stroke:#A80036;stroke-width:1.0;"/><polygon fill="#A80036" points="563.362,224.538,569.1216,216.5488,564.3867,219.6441,561.2914,214.9093,563.362,224.538" style="stroke:#A80036;stroke-width:1.0;"/><line style="stroke:#A80036;stroke-width:1.0;" x1="564.3867" x2="566.0265" y1="219.6441" y2="211.8135"/><polygon fill="#A80036" points="625.984,55.107,619.46,58.1791,619.7866,65.3828,626.3106,62.3107,625.984,55.107" style="stroke:#A80036;stroke-width:1.0;"/><text fill="#000000" font-family="sans-serif" font-size="13" lengthAdjust="spacing" textLength="8" x="555.4502" y="213.8303">2</text><!--MD5=[a737d2231371e146ba098899a67f3b67]
link TicTacToe to Board--><path codeLine="2" d="M669.3535,64.1075 C669.3535,64.1075 843.418,261.219 898.586,323.692 " fill="none" id="TicTacToe-Board" style="stroke:#A80036;stroke-width:1.0;"/><polygon fill="#A80036" points="907.502,333.788,904.5433,324.3941,904.1925,330.04,898.5465,329.6892,907.502,333.788" style="stroke:#A80036;stroke-width:1.0;"/><line style="stroke:#A80036;stroke-width:1.0;" x1="904.1925" x2="898.8965" y1="330.04" y2="324.0435"/><polygon fill="#A80036" points="661.41,55.113,662.3836,62.2581,669.3535,64.1075,668.3799,56.9624,661.41,55.113" style="stroke:#A80036;stroke-width:1.0;"/><!--MD5=[02ea7f29950e23bda8c82d72bcbd4b5e]
link TicTacToe to Turn--><path codeLine="3" d="M641,67.217 C641,67.217 641,91.502 641,102.563 " fill="none" id="TicTacToe-Turn" style="stroke:#A80036;stroke-width:1.0;"/><polygon fill="#A80036" points="641,115.828,645,106.828,641,110.828,637,106.828,641,115.828" style="stroke:#A80036;stroke-width:1.0;"/><line style="stroke:#A80036;stroke-width:1.0;" x1="641" x2="641" y1="110.828" y2="102.828"/><polygon fill="#A80036" points="641,55.217,637,61.217,641,67.217,645,61.217,641,55.217" style="stroke:#A80036;stroke-width:1.0;"/><!--MD5=[d81713d91ad05be3b975338c4816ee0b]
link Turn to Player--><path codeLine="5" d="M623.207,164.217 C610.528,180.763 593.433,203.07 580.07,220.506 " fill="none" id="Turn-to-Player" style="stroke:#A80036;stroke-width:1.0;"/><polygon fill="#A80036" points="576.758,224.828,585.4075,220.1177,579.7994,220.8594,579.0577,215.2514,576.758,224.828" style="stroke:#A80036;stroke-width:1.0;"/><text fill="#000000" font-family="sans-serif" font-size="13" lengthAdjust="spacing" textLength="8" x="572.2835" y="213.796">2</text><!--MD5=[c1f7e88598f78d9459764ed93737eb14]
link Player to Board--><path codeLine="7" d="M593.309,257.226 C652.047,270.009 775.279,298.628 876,334 C880.309,335.513 884.759,337.231 889.158,339.029 " fill="none" id="Player-to-Board" style="stroke:#A80036;stroke-width:1.0;"/><polygon fill="#A80036" points="893.903,341.007,887.1352,333.8518,889.288,339.083,884.0568,341.2358,893.903,341.007" style="stroke:#A80036;stroke-width:1.0;"/><!--MD5=[3ada97fffb5bcc4da390db27b64fa26e]
link Player to Piece--><path codeLine="8" d="M512.7242,250.5138 C512.7242,250.5138 77,268.583 77,357 C77,357 77,357 77,593 C77,659.084 299.598,687.171 397.601,696.335 " fill="none" id="Player-Piece" style="stroke:#A80036;stroke-width:1.0;"/><polygon fill="#A80036" points="410.841,697.528,402.2364,692.7362,405.8612,697.0791,401.5182,700.7039,410.841,697.528" style="stroke:#A80036;stroke-width:1.0;"/><line style="stroke:#A80036;stroke-width:1.0;" x1="405.8612" x2="397.8935" y1="697.0791" y2="696.361"/><polygon fill="#FFFFFF" points="524.722,250.283,518.6462,246.3991,512.7242,250.5138,518.8,254.3976,524.722,250.283" style="stroke:#A80036;stroke-width:1.0;"/><text fill="#000000" font-family="sans-serif" font-size="13" lengthAdjust="spacing" textLength="24" x="378.9752" y="692.6523">0..3</text><!--MD5=[1571e4e0b7cdbae74b04c97a95677c54]
link Player to Goal--><path codeLine="9" d="M559,285.217 C559,285.217 559,309.502 559,320.563 " fill="none" id="Player-Goal" style="stroke:#A80036;stroke-width:1.0;"/><polygon fill="#A80036" points="559,333.828,563,324.828,559,328.828,555,324.828,559,333.828" style="stroke:#A80036;stroke-width:1.0;"/><line style="stroke:#A80036;stroke-width:1.0;" x1="559" x2="559" y1="328.828" y2="320.828"/><polygon fill="#FFFFFF" points="559,273.217,555,279.217,559,285.217,563,279.217,559,273.217" style="stroke:#A80036;stroke-width:1.0;"/><!--MD5=[ebf52a6f230ff8b0d594dd9ce4cd7c5b]
link Player to Color--><path codeLine="10" d="M512.8256,249.1884 C512.8256,249.1884 6,254.409 6,357 C6,357 6,357 6,702 C6,743.694 46.8937,773.275 80.7364,790.617 " fill="none" id="Player-Color" style="stroke:#A80036;stroke-width:1.0;"/><polygon fill="#A80036" points="92.7969,796.452,86.4372,788.9317,88.296,794.2745,82.9532,796.1332,92.7969,796.452" style="stroke:#A80036;stroke-width:1.0;"/><line style="stroke:#A80036;stroke-width:1.0;" x1="88.296" x2="81.0945" y1="794.2745" y2="790.79"/><polygon fill="#A80036" points="524.825,249.311,518.8662,245.2499,512.8256,249.1884,518.7844,253.2495,524.825,249.311" style="stroke:#A80036;stroke-width:1.0;"/><!--MD5=[0fd805d603401fe9f720e4f7e914a092]
reverse link Action to Put--><path codeLine="13" d="M795.084,398.667 C784.244,413.537 772.289,429.936 762.892,442.828 " fill="none" id="Action-backto-Put" style="stroke:#A80036;stroke-width:1.0;"/><polygon fill="none" points="789.637,394.256,807.075,382.217,800.95,402.503,789.637,394.256" style="stroke:#A80036;stroke-width:1.0;"/><!--MD5=[41de15b107b23d1b7c92311761b50ccb]
reverse link Action to Move--><path codeLine="14" d="M855.493,398.183 C867.546,413.18 880.902,429.796 891.376,442.828 " fill="none" id="Action-backto-Move" style="stroke:#A80036;stroke-width:1.0;"/><polygon fill="none" points="849.734,402.192,842.661,382.217,860.646,393.421,849.734,402.192" style="stroke:#A80036;stroke-width:1.0;"/><!--MD5=[2f378bb2f56593d68624f1790be1dbac]
link Piece to Color--><path codeLine="16" d="M399.3845,716.6758 C399.3845,716.6758 230.393,773.538 169.861,793.905 " fill="none" id="Piece-Color" style="stroke:#A80036;stroke-width:1.0;"/><polygon fill="#A80036" points="157.327,798.123,167.1327,799.0441,162.0659,796.5285,164.5815,791.4618,157.327,798.123" style="stroke:#A80036;stroke-width:1.0;"/><line style="stroke:#A80036;stroke-width:1.0;" x1="162.0659" x2="169.648" y1="796.5285" y2="793.9765"/><polygon fill="#A80036" points="410.758,712.849,403.7957,710.9712,399.3845,716.6758,406.3469,718.5535,410.758,712.849" style="stroke:#A80036;stroke-width:1.0;"/><!--MD5=[cadd997a6c0d1b409cb2c707bfea899e]
reverse link Color to X--><path codeLine="18" d="M110.047,853.1046 C105.0025,867.3088 99.5588,882.637 95.2293,894.8279 " fill="none" id="Color-backto-X" style="stroke:#A80036;stroke-width:1.0;"/><polygon fill="none" points="103.4649,850.7215,116.755,834.217,116.658,855.4068,103.4649,850.7215" style="stroke:#A80036;stroke-width:1.0;"/><!--MD5=[da3122694a19f792a32b14ff12c4d304]
reverse link Color to O--><path codeLine="19" d="M139.953,853.1046 C144.998,867.3088 150.441,882.637 154.771,894.8279 " fill="none" id="Color-backto-O" style="stroke:#A80036;stroke-width:1.0;"/><polygon fill="none" points="133.342,855.4068,133.245,834.217,146.535,850.7215,133.342,855.4068" style="stroke:#A80036;stroke-width:1.0;"/><!--MD5=[de88a6c8dfa24fcf27ee3e8ebe03a649]
link Goal to Put--><path codeLine="21" d="M588.678,369.594 C613.641,379.086 649.825,394.227 679,412 C692.295,420.099 705.868,430.552 717.289,440.1 " fill="none" id="Goal-to-Put" style="stroke:#A80036;stroke-width:1.0;stroke-dasharray:7.0,7.0;"/><polygon fill="#A80036" points="721.395,443.571,717.1029,434.7066,717.5761,440.3436,711.9391,440.8168,721.395,443.571" style="stroke:#A80036;stroke-width:1.0;"/><text fill="#000000" font-family="sans-serif" font-size="13" lengthAdjust="spacing" textLength="8" x="705.3498" y="431.9578">3</text><!--MD5=[4b1f7a9ffece4d2d0cb1da7affd14ba5]
link Goal to Move--><path codeLine="22" d="M588.624,368.031 C652.297,387.441 802.105,433.109 872.373,454.53 " fill="none" id="Goal-to-Move" style="stroke:#A80036;stroke-width:1.0;stroke-dasharray:7.0,7.0;"/><polygon fill="#A80036" points="877.293,456.03,869.8517,449.5781,872.5106,454.5711,867.5175,457.23,877.293,456.03" style="stroke:#A80036;stroke-width:1.0;"/><text fill="#000000" font-family="sans-serif" font-size="13" lengthAdjust="spacing" textLength="7" x="862.3727" y="449.0711">*</text><!--MD5=[15df82f68831714e43f722f58194f411]
link Goal to Square--><path codeLine="23" d="M580.399,382.198 C607.295,410.43 655.798,458.361 704,491 C756.775,526.736 824.241,556.932 867.299,574.511 " fill="none" id="Goal-to-Square" style="stroke:#A80036;stroke-width:1.0;stroke-dasharray:7.0,7.0;"/><polygon fill="#A80036" points="872.167,576.487,865.3316,569.3964,867.5339,574.6069,862.3234,576.8093,872.167,576.487" style="stroke:#A80036;stroke-width:1.0;"/><text fill="#000000" font-family="sans-serif" font-size="13" lengthAdjust="spacing" textLength="8" x="856.454" y="569.3231">3</text><!--MD5=[4ad96441c8a01d959d4bf4f2a5e1a798]
link Board to Square--><path codeLine="25" d="M973.1561,374.7028 C973.1561,374.7028 1019.94,396.299 1039,412 C1067.23,435.248 1070.25,455.374 1062,491 C1056.75,513.656 1055.97,522.101 1039,538 C1017.16,558.462 986.33,571.521 960.289,579.555 " fill="none" id="Board-Square" style="stroke:#A80036;stroke-width:1.0;"/><polygon fill="#A80036" points="947.566,583.208,957.3205,584.5681,952.3717,581.8277,955.112,576.8789,947.566,583.208" style="stroke:#A80036;stroke-width:1.0;"/><line style="stroke:#A80036;stroke-width:1.0;" x1="952.3717" x2="960.061" y1="581.8277" y2="579.62"/><polygon fill="#A80036" points="962.006,370.267,966.1024,376.2016,973.1561,374.7028,969.0596,368.7682,962.006,370.267" style="stroke:#A80036;stroke-width:1.0;"/><text fill="#000000" font-family="sans-serif" font-size="13" lengthAdjust="spacing" textLength="24" x="955.4656" y="577.6889">3x3</text><!--MD5=[d1718f8040beedd4df7f7517ac9b645a]
link Square to Coordinate--><path codeLine="26" d="M910,628.217 C910,628.217 910,652.502 910,663.563 " fill="none" id="Square-Coordinate" style="stroke:#A80036;stroke-width:1.0;"/><polygon fill="#A80036" points="910,676.828,914,667.828,910,671.828,906,667.828,910,676.828" style="stroke:#A80036;stroke-width:1.0;"/><line style="stroke:#A80036;stroke-width:1.0;" x1="910" x2="910" y1="671.828" y2="663.828"/><polygon fill="#A80036" points="910,616.217,906,622.217,910,628.217,914,622.217,910,616.217" style="stroke:#A80036;stroke-width:1.0;"/><!--MD5=[f6467046f93aba88bed66e3f7374a456]
link Square to Piece--><path codeLine="27" d="M872.3871,623.1654 C872.3871,623.1654 843.791,641.395 829,647 C711.936,691.361 562.393,699.282 488.514,700.265 " fill="none" id="Square-Piece" style="stroke:#A80036;stroke-width:1.0;"/><polygon fill="#A80036" points="475.202,700.377,484.2351,704.3017,480.2018,700.3352,484.1683,696.302,475.202,700.377" style="stroke:#A80036;stroke-width:1.0;"/><line style="stroke:#A80036;stroke-width:1.0;" x1="480.2018" x2="488.201" y1="700.3352" y2="700.2675"/><polygon fill="#FFFFFF" points="882.135,616.167,874.9282,616.4169,872.3871,623.1654,879.5938,622.9155,882.135,616.167" style="stroke:#A80036;stroke-width:1.0;"/><text fill="#000000" font-family="sans-serif" font-size="13" lengthAdjust="spacing" textLength="24" x="483.0755" y="696.0088">0..1</text><!--MD5=[5dd37025bd56d3ce0dc94ae780f62769]
link Action to Piece--><path codeLine="29" d="M822.818,382.268 C820.305,410.569 812.458,458.571 788,491 C706.464,599.108 551.278,663.139 480.215,688.002 " fill="none" id="Action-to-Piece" style="stroke:#A80036;stroke-width:1.0;stroke-dasharray:7.0,7.0;"/><polygon fill="#A80036" points="475.246,689.724,485.0596,690.5566,479.9704,688.0868,482.4401,682.9976,475.246,689.724" style="stroke:#A80036;stroke-width:1.0;"/><!--MD5=[d5b732a636ecb7f30d2b5d18fc14c0cd]
link Action to Square--><path codeLine="30" d="M858.778,375.552 C895.251,393.713 948.814,422.944 960,443 C980.594,479.926 971.658,499.139 955,538 C951.068,547.174 944.981,555.95 938.542,563.63 " fill="none" id="Action-to-Square" style="stroke:#A80036;stroke-width:1.0;stroke-dasharray:7.0,7.0;"/><polygon fill="#A80036" points="934.939,567.779,943.8601,563.606,938.2172,564.0037,937.8196,558.3608,934.939,567.779" style="stroke:#A80036;stroke-width:1.0;"/><text fill="#000000" font-family="sans-serif" font-size="13" lengthAdjust="spacing" textLength="39" x="973" y="471.5669">target</text><!--MD5=[419ef2ad2139c0ed3980cc1caad2424e]
link Move to Square--><path codeLine="31" d="M910,491.135 C910,511.494 910,541.191 910,562.908 " fill="none" id="Move-to-Square" style="stroke:#A80036;stroke-width:1.0;stroke-dasharray:7.0,7.0;"/><polygon fill="#A80036" points="910,567.968,914,558.968,910,562.968,906,558.968,910,567.968" style="stroke:#A80036;stroke-width:1.0;"/><text fill="#000000" font-family="sans-serif" font-size="13" lengthAdjust="spacing" textLength="35" x="911" y="534.0669">origin</text><!--MD5=[cc08ae77311d3850838d7f60cf979d27]
reverse link Goal to Row--><path codeLine="33" d="M511.078,380.168 C473.595,396.868 420.258,420.943 374,443 C368.358,445.69 362.363,448.629 356.628,451.479 " fill="none" id="Goal-backto-Row" style="stroke:#A80036;stroke-width:1.0;"/><polygon fill="none" points="508.245,373.767,529.365,372.046,513.928,386.562,508.245,373.767" style="stroke:#A80036;stroke-width:1.0;"/><!--MD5=[21350569656573e18760c9f22b4a0078]
reverse link Goal to Column--><path codeLine="34" d="M515.521,395.064 C496.502,410.839 474.746,428.885 457.936,442.828 " fill="none" id="Goal-backto-Column" style="stroke:#A80036;stroke-width:1.0;"/><polygon fill="none" points="511.146,389.598,531.009,382.217,520.084,400.374,511.146,389.598" style="stroke:#A80036;stroke-width:1.0;"/><!--MD5=[a1bc088bb2b052fba23f5b19d584ba88]
reverse link Goal to MainDiagonal--><path codeLine="35" d="M559,402.578 C559,416.362 559,431.057 559,442.828 " fill="none" id="Goal-backto-MainDiagonal" style="stroke:#A80036;stroke-width:1.0;"/><polygon fill="none" points="552,402.217,559,382.217,566,402.217,552,402.217" style="stroke:#A80036;stroke-width:1.0;"/><!--MD5=[29f9a0939f51e848196471c67d635130]
reverse link Goal to InvertedDiagonal--><path codeLine="36" d="M510.182,373.43 C446.718,392.188 335.581,425.038 264.191,446.14 " fill="none" id="Goal-backto-InvertedDiagonal" style="stroke:#A80036;stroke-width:1.0;"/><polygon fill="none" points="508.212,366.713,529.376,367.756,512.181,380.138,508.212,366.713" style="stroke:#A80036;stroke-width:1.0;"/><!--MD5=[30c9223d5e1c9aa7af609bce1dbc59e9]
@startuml
TicTacToe *-down-> "2" Player
TicTacToe *-down-> Board
TicTacToe *-down-> Turn

Turn -down-> "2" Player

Player -down-> Board
Player o-down-> "0..3" Piece
Player o-down-> Goal
Player *-down-> Color


Action <|-down- Put
Action <|-down- Move

Piece *-down-> Color

Color <|-down- X
Color <|-down- O

Goal ..> "3" Put
Goal ..> "*" Move
Goal ..> "3" Square

Board *-down-> "3x3" Square
Square *-down-> Coordinate
Square o-down-> "0..1" Piece

Action .down.> Piece
Action .down.> Square : target
Move .down.> Square : origin

Goal <|-down- Row
Goal <|-down- Column
Goal <|-down- MainDiagonal
Goal <|-down- InvertedDiagonal
@enduml

PlantUML version 1.2021.4beta3(Unknown compile time)
(GPL source distribution)
Java Runtime: Java(TM) SE Runtime Environment
JVM: Java HotSpot(TM) 64-Bit Server VM
Default Encoding: UTF-8
Language: en
Country: US
--></g></svg>