<?xml version="1.0" encoding="UTF-8" standalone="no"?><svg xmlns="http://www.w3.org/2000/svg" xmlns:xlink="http://www.w3.org/1999/xlink" contentScriptType="application/ecmascript" contentStyleType="text/css" height="670px" preserveAspectRatio="none" style="width:474px;height:670px;" version="1.1" viewBox="0 0 474 670" width="474px" zoomAndPan="magnify"><defs><filter height="300%" id="f1wo1xg44e5xj" width="300%" x="-1" y="-1"><feGaussianBlur result="blurOut" stdDeviation="2.0"/><feColorMatrix in="blurOut" result="blurOut2" type="matrix" values="0 0 0 0 0 0 0 0 0 0 0 0 0 0 0 0 0 0 .4 0"/><feOffset dx="4.0" dy="4.0" in="blurOut2" result="blurOut3"/><feBlend in="SourceGraphic" in2="blurOut3" mode="normal"/></filter></defs><g><g id="A"><rect fill="#FEFECE" filter="url(#f1wo1xg44e5xj)" height="50" rx="12.5" ry="12.5" style="stroke:#A80036;stroke-width:1.5;" width="83" x="112.5" y="87"/><line style="stroke:#A80036;stroke-width:1.5;" x1="112.5" x2="195.5" y1="113.2969" y2="113.2969"/><text fill="#000000" font-family="sans-serif" font-size="14" lengthAdjust="spacing" textLength="63" x="122.5" y="104.9951">IN_GAME</text></g><g id="B"><rect fill="#FEFECE" filter="url(#f1wo1xg44e5xj)" height="50" rx="12.5" ry="12.5" style="stroke:#A80036;stroke-width:1.5;" width="50" x="129" y="214"/><line style="stroke:#A80036;stroke-width:1.5;" x1="129" x2="179" y1="240.2969" y2="240.2969"/><text fill="#000000" font-family="sans-serif" font-size="14" lengthAdjust="spacing" textLength="0" x="156" y="231.9951"/></g><g id="C"><rect fill="#FEFECE" filter="url(#f1wo1xg44e5xj)" height="50" rx="12.5" ry="12.5" style="stroke:#A80036;stroke-width:1.5;" width="50" x="7" y="481"/><line style="stroke:#A80036;stroke-width:1.5;" x1="7" x2="57" y1="507.2969" y2="507.2969"/><text fill="#000000" font-family="sans-serif" font-size="14" lengthAdjust="spacing" textLength="0" x="34" y="498.9951"/></g><g id="E"><rect fill="#FEFECE" filter="url(#f1wo1xg44e5xj)" height="50" rx="12.5" ry="12.5" style="stroke:#A80036;stroke-width:1.5;" width="50" x="251" y="481"/><line style="stroke:#A80036;stroke-width:1.5;" x1="251" x2="301" y1="507.2969" y2="507.2969"/><text fill="#000000" font-family="sans-serif" font-size="14" lengthAdjust="spacing" textLength="0" x="278" y="498.9951"/></g><polygon fill="#FEFECE" filter="url(#f1wo1xg44e5xj)" points="154,341,166,353,154,365,142,353,154,341" style="stroke:#A80036;stroke-width:1.5;"/><ellipse cx="154" cy="16" fill="#000000" filter="url(#f1wo1xg44e5xj)" rx="10" ry="10" style="stroke:none;stroke-width:1.0;"/><ellipse cx="154" cy="648" filter="url(#f1wo1xg44e5xj)" rx="10" ry="10" style="stroke:#000000;stroke-width:1.0;fill:none;"/><ellipse cx="154.5" cy="648.5" fill="#000000" rx="6" ry="6" style="stroke:none;stroke-width:1.0;"/><!--MD5=[ba0fdac9700f9825b754e67fda8ee1b2]
link *start to A--><path d="M154,26.013 C154,38.698 154,62.409 154,81.57 " fill="none" id="*start-to-A" style="stroke:#A80036;stroke-width:1.0;"/><polygon fill="#A80036" points="154,86.84,158,77.84,154,81.84,150,77.84,154,86.84" style="stroke:#A80036;stroke-width:1.0;"/><!--MD5=[5e2eec62a50b26b6b0db6c12e4ee289c]
link A to B--><path d="M154,137.101 C154,157.593 154,187.076 154,208.884 " fill="none" id="A-to-B" style="stroke:#A80036;stroke-width:1.0;"/><polygon fill="#A80036" points="154,213.973,158,204.973,154,208.973,150,204.973,154,213.973" style="stroke:#A80036;stroke-width:1.0;"/><text fill="#000000" font-family="sans-serif" font-size="13" lengthAdjust="spacing" textLength="219" x="155" y="180.0669">Current turn player requests Undo</text><!--MD5=[422745d42cbca4f6ecc2b1bb02aec555]
link B to if--><path d="M154,264.027 C154,285.579 154,316.634 154,335.501 " fill="none" id="B-to-if" style="stroke:#A80036;stroke-width:1.0;"/><polygon fill="#A80036" points="154,340.941,158,331.941,154,335.941,150,331.941,154,340.941" style="stroke:#A80036;stroke-width:1.0;"/><text fill="#000000" font-family="sans-serif" font-size="13" lengthAdjust="spacing" textLength="192" x="155" y="307.0669">System shows updated board</text><!--MD5=[f9048a51dcd4704a001a3cf3d3813ebf]
link if to C--><path d="M142.519,353.717 C117.018,353.792 55.7973,358.008 29,395 C12.2585,418.11 16.0756,451.703 22.1595,475.676 " fill="none" id="if-to-C" style="stroke:#A80036;stroke-width:1.0;"/><polygon fill="#A80036" points="23.4856,480.638,25.0254,470.9103,22.1942,475.8076,17.2968,472.9765,23.4856,480.638" style="stroke:#A80036;stroke-width:1.0;"/><text fill="#000000" font-family="sans-serif" font-size="13" lengthAdjust="spacing" textLength="69" x="105" y="408.0669">[undoable]</text><path d="M34,417.1328 L34,442.1328 L241,442.1328 L241,427.1328 L231,417.1328 L34,417.1328 " fill="#FBFB77" filter="url(#f1wo1xg44e5xj)" style="stroke:#A80036;stroke-width:1.0;"/><path d="M231,417.1328 L231,427.1328 L241,427.1328 L231,417.1328 " fill="#FBFB77" style="stroke:#A80036;stroke-width:1.0;"/><text fill="#000000" font-family="sans-serif" font-size="13" lengthAdjust="spacing" textLength="186" x="40" y="434.1997">currentTurnPlayer.Pieces &gt; 0</text><!--MD5=[fbcf4d8b63b0d06d3e3c8b74b14e3ec9]
link if to E--><path d="M164.049,355.025 C184.415,357.666 230.603,366.625 254,395 C272.623,417.585 276.962,451.57 277.37,475.782 " fill="none" id="if-to-E" style="stroke:#A80036;stroke-width:1.0;"/><polygon fill="#A80036" points="277.401,480.793,281.3444,471.768,277.3696,475.7931,273.3445,471.8183,277.401,480.793" style="stroke:#A80036;stroke-width:1.0;"/><!--MD5=[6a85fad97473f3ca89fe62758889412b]
link C to *end--><path d="M23.5617,531.103 C17.446,553.272 12.785,585.955 29,608 C54.6348,642.8515 111.237,647.4388 138.597,647.4983 " fill="none" id="C-to-*end" style="stroke:#A80036;stroke-width:1.0;"/><polygon fill="#A80036" points="143.661,647.4575,134.6282,643.5322,138.6612,647.4989,134.6945,651.5319,143.661,647.4575" style="stroke:#A80036;stroke-width:1.0;"/><text fill="#000000" font-family="sans-serif" font-size="13" lengthAdjust="spacing" textLength="124" x="69" y="574.0669">System allows Play</text><text fill="#000000" font-family="sans-serif" font-size="13" lengthAdjust="spacing" textLength="202" x="30" y="589.1997">System allows Redo if redoable</text><text fill="#000000" font-family="sans-serif" font-size="13" lengthAdjust="spacing" textLength="130" x="66" y="604.3325">System allows Undo</text><!--MD5=[b4ae64609a665d46448790142bade235]
link E to *end--><path d="M271.946,531.373 C267.098,553.733 256.988,586.5453 237,608 C218.313,628.0584 187.215,638.7776 168.855,643.6464 " fill="none" id="E-to-*end" style="stroke:#A80036;stroke-width:1.0;"/><polygon fill="#A80036" points="163.594,644.9734,173.299,646.6508,168.4422,643.7505,171.3424,638.8937,163.594,644.9734" style="stroke:#A80036;stroke-width:1.0;"/><text fill="#000000" font-family="sans-serif" font-size="13" lengthAdjust="spacing" textLength="124" x="303" y="581.5669">System allows Play</text><text fill="#000000" font-family="sans-serif" font-size="13" lengthAdjust="spacing" textLength="202" x="264" y="596.6997">System allows Redo if redoable</text><!--MD5=[a66ab9690fbcbfbbc8d7f58fbcf8901b]
@startuml
state A as "IN_GAME"
state B as " "
state C as " "
state E as " "
state if <<choice>>

[*] - -> A
A - -> B: Current turn player requests Undo
B - -> if: System shows updated board
if - -> C: [undoable]
note on link
    currentTurnPlayer.Pieces > 0
end note
if - -> E
C - -> [*]: System allows Play\nSystem allows Redo if redoable\nSystem allows Undo
E - -> [*]:  System allows Play\nSystem allows Redo if redoable
@enduml

PlantUML version 1.2021.4beta3(Unknown compile time)
(GPL source distribution)
Java Runtime: Java(TM) SE Runtime Environment
JVM: Java HotSpot(TM) 64-Bit Server VM
Default Encoding: UTF-8
Language: en
Country: US
--></g></svg>