<?xml version="1.0" encoding="UTF-8" standalone="no"?><svg xmlns="http://www.w3.org/2000/svg" xmlns:xlink="http://www.w3.org/1999/xlink" contentScriptType="application/ecmascript" contentStyleType="text/css" height="303px" preserveAspectRatio="none" style="width:227px;height:303px;" version="1.1" viewBox="0 0 227 303" width="227px" zoomAndPan="magnify"><defs><filter height="300%" id="f3py8fxpktggy" width="300%" x="-1" y="-1"><feGaussianBlur result="blurOut" stdDeviation="2.0"/><feColorMatrix in="blurOut" result="blurOut2" type="matrix" values="0 0 0 0 0 0 0 0 0 0 0 0 0 0 0 0 0 0 .4 0"/><feOffset dx="4.0" dy="4.0" in="blurOut2" result="blurOut3"/><feBlend in="SourceGraphic" in2="blurOut3" mode="normal"/></filter></defs><g><!--MD5=[de2effd8dc5bf946a609466312d0f75f]
entity Player--><ellipse cx="28" cy="117.5" fill="#FEFECE" filter="url(#f3py8fxpktggy)" rx="8" ry="8" style="stroke:#A80036;stroke-width:1.5;"/><path d="M28,125.5 L28,152.5 M15,133.5 L41,133.5 M28,152.5 L15,167.5 M28,152.5 L41,167.5 " fill="none" filter="url(#f3py8fxpktggy)" style="stroke:#A80036;stroke-width:1.5;"/><text fill="#000000" font-family="sans-serif" font-size="14" lengthAdjust="spacing" textLength="44" x="6" y="185.9951">Player</text><ellipse cx="162.7231" cy="20.5485" fill="#FEFECE" filter="url(#f3py8fxpktggy)" rx="37.7231" ry="14.5485" style="stroke:#A80036;stroke-width:1.5;"/><text fill="#000000" font-family="sans-serif" font-size="14" lengthAdjust="spacing" textLength="37" x="142.6116" y="23.9312">Start</text><ellipse cx="162.4914" cy="84.5236" fill="#FEFECE" filter="url(#f3py8fxpktggy)" rx="31.9914" ry="14.5236" style="stroke:#A80036;stroke-width:1.5;"/><text fill="#000000" font-family="sans-serif" font-size="14" lengthAdjust="spacing" textLength="29" x="147.9914" y="87.3703">Play</text><ellipse cx="162.6007" cy="148.715" fill="#FEFECE" filter="url(#f3py8fxpktggy)" rx="52.6007" ry="14.715" style="stroke:#A80036;stroke-width:1.5;"/><text fill="#000000" font-family="sans-serif" font-size="14" lengthAdjust="spacing" textLength="57" x="131.1007" y="152.4626">Resume</text><ellipse cx="162.4961" cy="212.5423" fill="#FEFECE" filter="url(#f3py8fxpktggy)" rx="36.9961" ry="14.5423" style="stroke:#A80036;stroke-width:1.5;"/><text fill="#000000" font-family="sans-serif" font-size="14" lengthAdjust="spacing" textLength="36" x="143.1301" y="215.8527">Undo</text><ellipse cx="162.7231" cy="276.5485" fill="#FEFECE" filter="url(#f3py8fxpktggy)" rx="37.7231" ry="14.5485" style="stroke:#A80036;stroke-width:1.5;"/><text fill="#000000" font-family="sans-serif" font-size="14" lengthAdjust="spacing" textLength="37" x="142.6116" y="279.9312">Redo</text><!--MD5=[39353cd92ba960c69c4d2a9385fee2c7]
link Player to Start--><path d="M50.2544,118.659 C65.4773,98.542 87.2366,72.183 110,52.5 C117.592,45.936 126.672,39.822 135.079,34.734 " fill="none" id="Player-to-Start" style="stroke:#A80036;stroke-width:1.0;"/><polygon fill="#A80036" points="139.667,32.017,129.8849,33.1619,135.365,34.5651,133.9618,40.0451,139.667,32.017" style="stroke:#A80036;stroke-width:1.0;"/><!--MD5=[9a505df3ac87f02537cb93af365c2474]
link Player to Play--><path d="M50.2884,138.217 C73.4278,127.041 110.423,109.171 135.322,97.145 " fill="none" id="Player-to-Play" style="stroke:#A80036;stroke-width:1.0;"/><polygon fill="#A80036" points="139.824,94.97,129.9801,95.2826,135.3217,97.1447,133.4596,102.4863,139.824,94.97" style="stroke:#A80036;stroke-width:1.0;"/><!--MD5=[5fec2ab2a197ce562aec9d83f689b0ce]
link Player to Resume--><path d="M50.2884,148.5 C64.9992,148.5 85.3099,148.5 104.5525,148.5 " fill="none" id="Player-to-Resume" style="stroke:#A80036;stroke-width:1.0;"/><polygon fill="#A80036" points="109.946,148.5,100.946,144.5,104.946,148.5,100.946,152.5,109.946,148.5" style="stroke:#A80036;stroke-width:1.0;"/><!--MD5=[0380c48cc03698e9c08b2a5affc527cb]
link Player to Undo--><path d="M50.2884,158.783 C73.0146,169.76 109.106,187.193 133.977,199.2057 " fill="none" id="Player-to-Undo" style="stroke:#A80036;stroke-width:1.0;"/><polygon fill="#A80036" points="138.484,201.3829,132.119,193.8671,133.9815,199.2086,128.6401,201.0711,138.484,201.3829" style="stroke:#A80036;stroke-width:1.0;"/><!--MD5=[714833a1def7c2d3f9278f33fd9da27b]
link Player to Redo--><path d="M50.2544,178.341 C65.4773,198.458 87.2366,224.8168 110,244.5 C117.592,251.0645 126.672,257.1779 135.079,262.2658 " fill="none" id="Player-to-Redo" style="stroke:#A80036;stroke-width:1.0;"/><polygon fill="#A80036" points="139.667,264.9832,133.9627,256.9545,135.3652,262.4347,129.885,263.8373,139.667,264.9832" style="stroke:#A80036;stroke-width:1.0;"/><!--MD5=[51237c0b39e972f2a2082bcb4bdd67de]
@startuml
left to right direction
actor Player
usecase Start
usecase Play
usecase Resume
usecase Undo
usecase Redo

Player - -> Start
Player - -> Play
Player - -> Resume
Player - -> Undo
Player - -> Redo
@enduml

PlantUML version 1.2021.4beta1(Unknown compile time)
(GPL source distribution)
Java Runtime: Java(TM) SE Runtime Environment
JVM: Java HotSpot(TM) 64-Bit Server VM
Default Encoding: UTF-8
Language: en
Country: US
--></g></svg>