<?xml version="1.0" encoding="UTF-8" standalone="no"?><svg xmlns="http://www.w3.org/2000/svg" xmlns:xlink="http://www.w3.org/1999/xlink" contentScriptType="application/ecmascript" contentStyleType="text/css" height="797px" preserveAspectRatio="none" style="width:240px;height:797px;" version="1.1" viewBox="0 0 240 797" width="240px" zoomAndPan="magnify"><defs><filter height="300%" id="fxli59hc4zo99" width="300%" x="-1" y="-1"><feGaussianBlur result="blurOut" stdDeviation="2.0"/><feColorMatrix in="blurOut" result="blurOut2" type="matrix" values="0 0 0 0 0 0 0 0 0 0 0 0 0 0 0 0 0 0 .4 0"/><feOffset dx="4.0" dy="4.0" in="blurOut2" result="blurOut3"/><feBlend in="SourceGraphic" in2="blurOut3" mode="normal"/></filter></defs><g><g id="INITIAL"><rect fill="#FEFECE" filter="url(#fxli59hc4zo99)" height="50" rx="12.5" ry="12.5" style="stroke:#A80036;stroke-width:1.5;" width="69" x="94.5" y="87"/><line style="stroke:#A80036;stroke-width:1.5;" x1="94.5" x2="163.5" y1="113.2969" y2="113.2969"/><text fill="#000000" font-family="sans-serif" font-size="14" lengthAdjust="spacing" textLength="49" x="104.5" y="104.9951">INITIAL</text></g><g id="IN_GAME"><rect fill="#FEFECE" filter="url(#fxli59hc4zo99)" height="50" rx="12.5" ry="12.5" style="stroke:#A80036;stroke-width:1.5;" width="83" x="21.5" y="214"/><line style="stroke:#A80036;stroke-width:1.5;" x1="21.5" x2="104.5" y1="240.2969" y2="240.2969"/><text fill="#000000" font-family="sans-serif" font-size="14" lengthAdjust="spacing" textLength="63" x="31.5" y="231.9951">IN_GAME</text></g><g id="OUT_GAME"><rect fill="#FEFECE" filter="url(#fxli59hc4zo99)" height="50" rx="12.5" ry="12.5" style="stroke:#A80036;stroke-width:1.5;" width="98" x="7" y="442"/><line style="stroke:#A80036;stroke-width:1.5;" x1="7" x2="105" y1="468.2969" y2="468.2969"/><text fill="#000000" font-family="sans-serif" font-size="14" lengthAdjust="spacing" textLength="78" x="17" y="459.9951">OUT_GAME</text></g><g id="EXIT"><rect fill="#FEFECE" filter="url(#fxli59hc4zo99)" height="50" rx="12.5" ry="12.5" style="stroke:#A80036;stroke-width:1.5;" width="52" x="87" y="654"/><line style="stroke:#A80036;stroke-width:1.5;" x1="87" x2="139" y1="680.2969" y2="680.2969"/><text fill="#000000" font-family="sans-serif" font-size="14" lengthAdjust="spacing" textLength="32" x="97" y="671.9951">EXIT</text></g><polygon fill="#FEFECE" filter="url(#fxli59hc4zo99)" points="56,341,68,353,56,365,44,353,56,341" style="stroke:#A80036;stroke-width:1.5;"/><polygon fill="#FEFECE" filter="url(#fxli59hc4zo99)" points="113,569,125,581,113,593,101,581,113,569" style="stroke:#A80036;stroke-width:1.5;"/><ellipse cx="129" cy="16" fill="#000000" filter="url(#fxli59hc4zo99)" rx="10" ry="10" style="stroke:none;stroke-width:1.0;"/><ellipse cx="113" cy="775" filter="url(#fxli59hc4zo99)" rx="10" ry="10" style="stroke:#000000;stroke-width:1.0;fill:none;"/><ellipse cx="113.5" cy="775.5" fill="#000000" rx="6" ry="6" style="stroke:none;stroke-width:1.0;"/><!--MD5=[06c3f2024f4ea60966e79307ee69ec5f]
link *start to INITIAL--><path d="M129,26.013 C129,38.698 129,62.409 129,81.57 " fill="none" id="*start-to-INITIAL" style="stroke:#A80036;stroke-width:1.0;"/><polygon fill="#A80036" points="129,86.84,133,77.84,129,81.84,125,77.84,129,86.84" style="stroke:#A80036;stroke-width:1.0;"/><!--MD5=[c6210ae09f2e397a3dfeeac0c7e340d4]
link INITIAL to IN_GAME--><path d="M115.363,137.086 C110.163,146.39 104.2313,157.149 99,167 C91.6682,180.806 83.7875,196.273 77.2742,209.237 " fill="none" id="INITIAL-to-IN_GAME" style="stroke:#A80036;stroke-width:1.0;"/><polygon fill="#A80036" points="74.9399,213.893,82.5484,207.6391,77.1801,209.423,75.3963,204.0547,74.9399,213.893" style="stroke:#A80036;stroke-width:1.0;"/><text fill="#000000" font-family="sans-serif" font-size="13" lengthAdjust="spacing" textLength="31" x="100" y="180.0669">Start</text><!--MD5=[200846c1dd6de3f2a37d61d02f348d5e]
link IN_GAME to if_finished--><path d="M45.0423,264.01 C39.3931,272.951 33.8802,283.49 31,294 C26.1901,311.551 38.1247,330.723 47.114,342.037 " fill="none" id="IN_GAME-to-if_finished" style="stroke:#A80036;stroke-width:1.0;"/><polygon fill="#A80036" points="50.4921,346.105,47.8198,336.6256,47.2979,342.2583,41.6651,341.7364,50.4921,346.105" style="stroke:#A80036;stroke-width:1.0;"/><text fill="#000000" font-family="sans-serif" font-size="13" lengthAdjust="spacing" textLength="27" x="32" y="307.0669">Play</text><!--MD5=[5848ef64f427518330d05d0e49dfaccc]
link if_finished to IN_GAME--><path d="M58.2863,342.955 C60.2488,334.696 62.9256,322.117 64,311 C65.3179,297.364 65.3032,282.188 64.8645,269.379 " fill="none" id="if_finished-to-IN_GAME" style="stroke:#A80036;stroke-width:1.0;"/><polygon fill="#A80036" points="64.6532,264.045,61.0112,273.1957,64.8503,269.0411,69.005,272.8803,64.6532,264.045" style="stroke:#A80036;stroke-width:1.0;"/><!--MD5=[fb580c452284ecb35857e88f372e8dbe]
link if_finished to OUT_GAME--><path d="M56,365.148 C56,381.609 56,412.991 56,436.396 " fill="none" id="if_finished-to-OUT_GAME" style="stroke:#A80036;stroke-width:1.0;"/><polygon fill="#A80036" points="56,441.56,60,432.56,56,436.56,52,432.56,56,441.56" style="stroke:#A80036;stroke-width:1.0;"/><text fill="#000000" font-family="sans-serif" font-size="13" lengthAdjust="spacing" textLength="60" x="57" y="408.0669">[finished]</text><!--MD5=[636b806927507f296b22f82987e0fbb2]
link OUT_GAME to if_resumed--><path d="M60.3884,492.034 C63.6398,506.287 68.929,524.368 77,539 C83.9199,551.545 95.2294,563.578 103.3261,571.325 " fill="none" id="OUT_GAME-to-if_resumed" style="stroke:#A80036;stroke-width:1.0;"/><polygon fill="#A80036" points="107.009,574.768,103.165,565.7003,103.3561,571.3539,97.7024,571.545,107.009,574.768" style="stroke:#A80036;stroke-width:1.0;"/><text fill="#000000" font-family="sans-serif" font-size="13" lengthAdjust="spacing" textLength="53" x="78" y="535.0669">Resume</text><!--MD5=[36553ab13ef484d8e624246e921f8591]
link if_resumed to INITIAL--><path d="M117.816,573.305 C129.425,556.488 158,510.749 158,468 C158,238 158,238 158,238 C158,204.375 147.919,166.947 139.644,141.889 " fill="none" id="if_resumed-to-INITIAL" style="stroke:#A80036;stroke-width:1.0;"/><polygon fill="#A80036" points="138.017,137.048,137.0922,146.8533,139.6097,141.7875,144.6755,144.305,138.017,137.048" style="stroke:#A80036;stroke-width:1.0;"/><text fill="#000000" font-family="sans-serif" font-size="13" lengthAdjust="spacing" textLength="73" x="159" y="357.5669">[continued]</text><!--MD5=[00ace724ee34ef802585e1261ed65fdc]
link if_resumed to EXIT--><path d="M113,593.012 C113,606.518 113,629.935 113,648.773 " fill="none" id="if_resumed-to-EXIT" style="stroke:#A80036;stroke-width:1.0;"/><polygon fill="#A80036" points="113,653.953,117,644.953,113,648.953,109,644.953,113,653.953" style="stroke:#A80036;stroke-width:1.0;"/><!--MD5=[bd19b40b84bbe903342104a02ae53ed4]
link EXIT to *end--><path d="M113,704.2073 C113,721.8423 113,745.1261 113,759.8351 " fill="none" id="EXIT-to-*end" style="stroke:#A80036;stroke-width:1.0;"/><polygon fill="#A80036" points="113,764.8399,117,755.8399,113,759.8399,109,755.8399,113,764.8399" style="stroke:#A80036;stroke-width:1.0;"/><!--MD5=[089877a6c39b3cb3d8802f8902fe1f9e]
@startuml
state INITIAL
state IN_GAME
state OUT_GAME
state EXIT
state if_finished <<choice>>
state if_resumed <<choice>>

[*] - -> INITIAL
INITIAL - -> IN_GAME: Start
IN_GAME - -> if_finished: Play
if_finished - -> IN_GAME
if_finished - -> OUT_GAME: [finished]
OUT_GAME - -> if_resumed: Resume
if_resumed - -> INITIAL: [continued]
if_resumed - -> EXIT
EXIT - -> [*]
@enduml

PlantUML version 1.2021.4beta3(Unknown compile time)
(GPL source distribution)
Java Runtime: Java(TM) SE Runtime Environment
JVM: Java HotSpot(TM) 64-Bit Server VM
Default Encoding: UTF-8
Language: en
Country: US
--></g></svg>