<?xml version="1.0" encoding="UTF-8" standalone="no"?><svg xmlns="http://www.w3.org/2000/svg" xmlns:xlink="http://www.w3.org/1999/xlink" contentScriptType="application/ecmascript" contentStyleType="text/css" height="797px" preserveAspectRatio="none" style="width:364px;height:797px;" version="1.1" viewBox="0 0 364 797" width="364px" zoomAndPan="magnify"><defs><filter height="300%" id="fx4drs61qt165" width="300%" x="-1" y="-1"><feGaussianBlur result="blurOut" stdDeviation="2.0"/><feColorMatrix in="blurOut" result="blurOut2" type="matrix" values="0 0 0 0 0 0 0 0 0 0 0 0 0 0 0 0 0 0 .4 0"/><feOffset dx="4.0" dy="4.0" in="blurOut2" result="blurOut3"/><feBlend in="SourceGraphic" in2="blurOut3" mode="normal"/></filter></defs><g><g id="INITIAL"><rect fill="#FEFECE" filter="url(#fx4drs61qt165)" height="50" rx="12.5" ry="12.5" style="stroke:#A80036;stroke-width:1.5;" width="69" x="218.8129" y="87"/><line style="stroke:#A80036;stroke-width:1.5;" x1="218.8129" x2="287.8129" y1="113.2969" y2="113.2969"/><text fill="#000000" font-family="sans-serif" font-size="14" lengthAdjust="spacing" textLength="49" x="228.8129" y="104.9951">INITIAL</text></g><g id="IN_GAME"><rect fill="#FEFECE" filter="url(#fx4drs61qt165)" height="50" rx="12.5" ry="12.5" style="stroke:#A80036;stroke-width:1.5;" width="83" x="141.8129" y="214"/><line style="stroke:#A80036;stroke-width:1.5;" x1="141.8129" x2="224.8129" y1="240.2969" y2="240.2969"/><text fill="#000000" font-family="sans-serif" font-size="14" lengthAdjust="spacing" textLength="63" x="151.8129" y="231.9951">IN_GAME</text></g><g id="OUT_GAME"><rect fill="#FEFECE" filter="url(#fx4drs61qt165)" height="50" rx="12.5" ry="12.5" style="stroke:#A80036;stroke-width:1.5;" width="98" x="131.3129" y="442"/><line style="stroke:#A80036;stroke-width:1.5;" x1="131.3129" x2="229.3129" y1="468.2969" y2="468.2969"/><text fill="#000000" font-family="sans-serif" font-size="14" lengthAdjust="spacing" textLength="78" x="141.3129" y="459.9951">OUT_GAME</text></g><g id="EXIT"><rect fill="#FEFECE" filter="url(#fx4drs61qt165)" height="50" rx="12.5" ry="12.5" style="stroke:#A80036;stroke-width:1.5;" width="52" x="211.3129" y="654"/><line style="stroke:#A80036;stroke-width:1.5;" x1="211.3129" x2="263.3129" y1="680.2969" y2="680.2969"/><text fill="#000000" font-family="sans-serif" font-size="14" lengthAdjust="spacing" textLength="32" x="221.3129" y="671.9951">EXIT</text></g><polygon fill="#FEFECE" filter="url(#fx4drs61qt165)" points="180.3129,341,192.3129,353,180.3129,365,168.3129,353,180.3129,341" style="stroke:#A80036;stroke-width:1.5;"/><polygon fill="#FEFECE" filter="url(#fx4drs61qt165)" points="237.3129,569,249.3129,581,237.3129,593,225.3129,581,237.3129,569" style="stroke:#A80036;stroke-width:1.5;"/><ellipse cx="253.3129" cy="16" fill="#000000" filter="url(#fx4drs61qt165)" rx="10" ry="10" style="stroke:none;stroke-width:1.0;"/><ellipse cx="237.3129" cy="775" filter="url(#fx4drs61qt165)" rx="10" ry="10" style="stroke:#000000;stroke-width:1.0;fill:none;"/><ellipse cx="237.8129" cy="775.5" fill="#000000" rx="6" ry="6" style="stroke:none;stroke-width:1.0;"/><!--MD5=[06c3f2024f4ea60966e79307ee69ec5f]
link *start to INITIAL--><path d="M253.3129,26.013 C253.3129,38.698 253.3129,62.409 253.3129,81.57 " fill="none" id="*start-to-INITIAL" style="stroke:#A80036;stroke-width:1.0;"/><polygon fill="#A80036" points="253.3129,86.84,257.3129,77.84,253.3129,81.84,249.3129,77.84,253.3129,86.84" style="stroke:#A80036;stroke-width:1.0;"/><!--MD5=[c6210ae09f2e397a3dfeeac0c7e340d4]
link INITIAL to IN_GAME--><path d="M239.8159,137.101 C228.2439,157.766 211.5509,187.575 199.3089,209.435 " fill="none" id="INITIAL-to-IN_GAME" style="stroke:#A80036;stroke-width:1.0;"/><polygon fill="#A80036" points="196.7679,213.973,204.655,208.0744,199.2107,209.6103,197.6747,204.166,196.7679,213.973" style="stroke:#A80036;stroke-width:1.0;"/><text fill="#000000" font-family="sans-serif" font-size="13" lengthAdjust="spacing" textLength="31" x="224.3129" y="180.0669">Start</text><!--MD5=[200846c1dd6de3f2a37d61d02f348d5e]
link IN_GAME to if_finished--><path d="M141.7719,244.609 C88.3924,252.245 6,270.852 36.3128,311 C52.0722,331.873 132.0349,345.265 165.5259,350.039 " fill="none" id="IN_GAME-to-if_finished" style="stroke:#A80036;stroke-width:1.0;"/><polygon fill="#A80036" points="170.4849,350.732,162.1244,345.5261,165.5329,350.0407,161.0183,353.4492,170.4849,350.732" style="stroke:#A80036;stroke-width:1.0;"/><text fill="#000000" font-family="sans-serif" font-size="13" lengthAdjust="spacing" textLength="27" x="37.3128" y="307.0669">Play</text><!--MD5=[200846c1dd6de3f2a37d61d02f348d5e]
link IN_GAME to if_finished--><path d="M141.4689,258.707 C127.3505,267.297 113.186,278.973 105.3128,294 C90.5496,322.176 140.8159,340.865 166.3439,348.333 " fill="none" id="IN_GAME-to-if_finished-1" style="stroke:#A80036;stroke-width:1.0;"/><polygon fill="#A80036" points="171.3839,349.756,163.8095,343.4609,166.572,348.3973,161.6356,351.1598,171.3839,349.756" style="stroke:#A80036;stroke-width:1.0;"/><text fill="#000000" font-family="sans-serif" font-size="13" lengthAdjust="spacing" textLength="33" x="106.3128" y="307.0669">Undo</text><!--MD5=[200846c1dd6de3f2a37d61d02f348d5e]
link IN_GAME to if_finished--><path d="M181.6829,264.181 C181.1299,273.496 180.5839,284.239 180.3129,294 C179.9199,308.141 179.9589,324.228 180.0729,335.867 " fill="none" id="IN_GAME-to-if_finished-2" style="stroke:#A80036;stroke-width:1.0;"/><polygon fill="#A80036" points="180.1299,340.878,184.0268,331.8329,180.0728,335.8783,176.0273,331.9243,180.1299,340.878" style="stroke:#A80036;stroke-width:1.0;"/><text fill="#000000" font-family="sans-serif" font-size="13" lengthAdjust="spacing" textLength="33" x="181.3129" y="307.0669">Redo</text><!--MD5=[5848ef64f427518330d05d0e49dfaccc]
link if_finished to IN_GAME--><path d="M187.1609,347.423 C196.5029,340.717 212.8229,327.238 219.3129,311 C225.0729,296.587 218.8509,281.156 210.0509,268.374 " fill="none" id="if_finished-to-IN_GAME" style="stroke:#A80036;stroke-width:1.0;"/><polygon fill="#A80036" points="206.9819,264.146,209.0308,273.7794,209.9187,268.1926,215.5054,269.0805,206.9819,264.146" style="stroke:#A80036;stroke-width:1.0;"/><!--MD5=[fb580c452284ecb35857e88f372e8dbe]
link if_finished to OUT_GAME--><path d="M180.3129,365.148 C180.3129,381.609 180.3129,412.991 180.3129,436.396 " fill="none" id="if_finished-to-OUT_GAME" style="stroke:#A80036;stroke-width:1.0;"/><polygon fill="#A80036" points="180.3129,441.56,184.3129,432.56,180.3129,436.56,176.3129,432.56,180.3129,441.56" style="stroke:#A80036;stroke-width:1.0;"/><text fill="#000000" font-family="sans-serif" font-size="13" lengthAdjust="spacing" textLength="60" x="181.3129" y="408.0669">[finished]</text><!--MD5=[636b806927507f296b22f82987e0fbb2]
link OUT_GAME to if_resumed--><path d="M184.7009,492.034 C187.9529,506.287 193.2419,524.368 201.3129,539 C208.2329,551.545 219.5419,563.578 227.6389,571.325 " fill="none" id="OUT_GAME-to-if_resumed" style="stroke:#A80036;stroke-width:1.0;"/><polygon fill="#A80036" points="231.3219,574.768,227.4782,565.7001,227.6691,571.3538,222.0155,571.5446,231.3219,574.768" style="stroke:#A80036;stroke-width:1.0;"/><text fill="#000000" font-family="sans-serif" font-size="13" lengthAdjust="spacing" textLength="53" x="202.3129" y="535.0669">Resume</text><!--MD5=[36553ab13ef484d8e624246e921f8591]
link if_resumed to INITIAL--><path d="M242.1289,573.305 C253.7369,556.488 282.3129,510.749 282.3129,468 C282.3129,238 282.3129,238 282.3129,238 C282.3129,204.375 272.2319,166.947 263.9569,141.889 " fill="none" id="if_resumed-to-INITIAL" style="stroke:#A80036;stroke-width:1.0;"/><polygon fill="#A80036" points="262.3299,137.048,261.4051,146.8533,263.9226,141.7875,268.9884,144.305,262.3299,137.048" style="stroke:#A80036;stroke-width:1.0;"/><text fill="#000000" font-family="sans-serif" font-size="13" lengthAdjust="spacing" textLength="73" x="283.3129" y="357.5669">[continued]</text><!--MD5=[00ace724ee34ef802585e1261ed65fdc]
link if_resumed to EXIT--><path d="M237.3129,593.012 C237.3129,606.518 237.3129,629.935 237.3129,648.773 " fill="none" id="if_resumed-to-EXIT" style="stroke:#A80036;stroke-width:1.0;"/><polygon fill="#A80036" points="237.3129,653.953,241.3129,644.953,237.3129,648.953,233.3129,644.953,237.3129,653.953" style="stroke:#A80036;stroke-width:1.0;"/><!--MD5=[bd19b40b84bbe903342104a02ae53ed4]
link EXIT to *end--><path d="M237.3129,704.2073 C237.3129,721.8423 237.3129,745.1261 237.3129,759.8351 " fill="none" id="EXIT-to-*end" style="stroke:#A80036;stroke-width:1.0;"/><polygon fill="#A80036" points="237.3129,764.8399,241.3129,755.8399,237.3129,759.8399,233.3129,755.8399,237.3129,764.8399" style="stroke:#A80036;stroke-width:1.0;"/><!--MD5=[e22b4b697e01fb5dc7600b07cd9c8fdf]
@startuml
state INITIAL
state IN_GAME
state OUT_GAME
state EXIT
state if_finished <<choice>>
state if_resumed <<choice>>

[*] - -> INITIAL
INITIAL - -> IN_GAME: Start
IN_GAME - -> if_finished: Play
IN_GAME - -> if_finished: Undo
IN_GAME - -> if_finished: Redo
if_finished - -> IN_GAME
if_finished - -> OUT_GAME: [finished]
OUT_GAME - -> if_resumed: Resume
if_resumed - -> INITIAL: [continued]
if_resumed - -> EXIT
EXIT - -> [*]
@enduml

PlantUML version 1.2021.4beta1(Unknown compile time)
(GPL source distribution)
Java Runtime: Java(TM) SE Runtime Environment
JVM: Java HotSpot(TM) 64-Bit Server VM
Default Encoding: UTF-8
Language: en
Country: US
--></g></svg>