<?xml version="1.0" encoding="UTF-8" standalone="no"?><svg xmlns="http://www.w3.org/2000/svg" xmlns:xlink="http://www.w3.org/1999/xlink" contentScriptType="application/ecmascript" contentStyleType="text/css" height="670px" preserveAspectRatio="none" style="width:486px;height:670px;" version="1.1" viewBox="0 0 486 670" width="486px" zoomAndPan="magnify"><defs><filter height="300%" id="f17ouwdmq5fawk" width="300%" x="-1" y="-1"><feGaussianBlur result="blurOut" stdDeviation="2.0"/><feColorMatrix in="blurOut" result="blurOut2" type="matrix" values="0 0 0 0 0 0 0 0 0 0 0 0 0 0 0 0 0 0 .4 0"/><feOffset dx="4.0" dy="4.0" in="blurOut2" result="blurOut3"/><feBlend in="SourceGraphic" in2="blurOut3" mode="normal"/></filter></defs><g><g id="A"><rect fill="#FEFECE" filter="url(#f17ouwdmq5fawk)" height="50" rx="12.5" ry="12.5" style="stroke:#A80036;stroke-width:1.5;" width="83" x="116.5742" y="87"/><line style="stroke:#A80036;stroke-width:1.5;" x1="116.5742" x2="199.5742" y1="113.2969" y2="113.2969"/><text fill="#000000" font-family="sans-serif" font-size="14" lengthAdjust="spacing" textLength="63" x="126.5742" y="104.9951">IN_GAME</text></g><g id="B"><rect fill="#FEFECE" filter="url(#f17ouwdmq5fawk)" height="50" rx="12.5" ry="12.5" style="stroke:#A80036;stroke-width:1.5;" width="50" x="133.0742" y="214"/><line style="stroke:#A80036;stroke-width:1.5;" x1="133.0742" x2="183.0742" y1="240.2969" y2="240.2969"/><text fill="#000000" font-family="sans-serif" font-size="14" lengthAdjust="spacing" textLength="0" x="160.0742" y="231.9951"/></g><g id="C"><rect fill="#FEFECE" filter="url(#f17ouwdmq5fawk)" height="50" rx="12.5" ry="12.5" style="stroke:#A80036;stroke-width:1.5;" width="50" x="9.0742" y="481"/><line style="stroke:#A80036;stroke-width:1.5;" x1="9.0742" x2="59.0742" y1="507.2969" y2="507.2969"/><text fill="#000000" font-family="sans-serif" font-size="14" lengthAdjust="spacing" textLength="0" x="36.0742" y="498.9951"/></g><g id="E"><rect fill="#FEFECE" filter="url(#f17ouwdmq5fawk)" height="50" rx="12.5" ry="12.5" style="stroke:#A80036;stroke-width:1.5;" width="50" x="263.0742" y="481"/><line style="stroke:#A80036;stroke-width:1.5;" x1="263.0742" x2="313.0742" y1="507.2969" y2="507.2969"/><text fill="#000000" font-family="sans-serif" font-size="14" lengthAdjust="spacing" textLength="0" x="290.0742" y="498.9951"/></g><polygon fill="#FEFECE" filter="url(#f17ouwdmq5fawk)" points="158.0742,341,170.0742,353,158.0742,365,146.0742,353,158.0742,341" style="stroke:#A80036;stroke-width:1.5;"/><ellipse cx="158.0742" cy="16" fill="#000000" filter="url(#f17ouwdmq5fawk)" rx="10" ry="10" style="stroke:none;stroke-width:1.0;"/><ellipse cx="160.0742" cy="648" filter="url(#f17ouwdmq5fawk)" rx="10" ry="10" style="stroke:#000000;stroke-width:1.0;fill:none;"/><ellipse cx="160.5742" cy="648.5" fill="#000000" rx="6" ry="6" style="stroke:none;stroke-width:1.0;"/><!--MD5=[ba0fdac9700f9825b754e67fda8ee1b2]
link *start to A--><path d="M158.0742,26.013 C158.0742,38.698 158.0742,62.409 158.0742,81.57 " fill="none" id="*start-to-A" style="stroke:#A80036;stroke-width:1.0;"/><polygon fill="#A80036" points="158.0742,86.84,162.0742,77.84,158.0742,81.84,154.0742,77.84,158.0742,86.84" style="stroke:#A80036;stroke-width:1.0;"/><!--MD5=[5e2eec62a50b26b6b0db6c12e4ee289c]
link A to B--><path d="M158.0742,137.101 C158.0742,157.593 158.0742,187.076 158.0742,208.884 " fill="none" id="A-to-B" style="stroke:#A80036;stroke-width:1.0;"/><polygon fill="#A80036" points="158.0742,213.973,162.0742,204.973,158.0742,208.973,154.0742,204.973,158.0742,213.973" style="stroke:#A80036;stroke-width:1.0;"/><text fill="#000000" font-family="sans-serif" font-size="13" lengthAdjust="spacing" textLength="219" x="159.0742" y="180.0669">Current turn player requests Redo</text><!--MD5=[422745d42cbca4f6ecc2b1bb02aec555]
link B to if--><path d="M158.0742,264.027 C158.0742,285.579 158.0742,316.634 158.0742,335.501 " fill="none" id="B-to-if" style="stroke:#A80036;stroke-width:1.0;"/><polygon fill="#A80036" points="158.0742,340.941,162.0742,331.941,158.0742,335.941,154.0742,331.941,158.0742,340.941" style="stroke:#A80036;stroke-width:1.0;"/><text fill="#000000" font-family="sans-serif" font-size="13" lengthAdjust="spacing" textLength="192" x="159.0742" y="307.0669">System shows updated board</text><!--MD5=[f9048a51dcd4704a001a3cf3d3813ebf]
link if to C--><path d="M146.1182,353.388 C118.8972,352.731 52.3964,355.45 23.0742,395 C6,418.03 12.5964,451.635 21.0532,475.634 " fill="none" id="if-to-C" style="stroke:#A80036;stroke-width:1.0;"/><polygon fill="#A80036" points="22.8782,480.602,23.5291,470.7747,21.1539,475.9087,16.0199,473.5335,22.8782,480.602" style="stroke:#A80036;stroke-width:1.0;"/><text fill="#000000" font-family="sans-serif" font-size="13" lengthAdjust="spacing" textLength="66" x="110.5742" y="408.0669">[redoable]</text><path d="M28.0742,417.1328 L28.0742,442.1328 L255.0742,442.1328 L255.0742,427.1328 L245.0742,417.1328 L28.0742,417.1328 " fill="#FBFB77" filter="url(#f17ouwdmq5fawk)" style="stroke:#A80036;stroke-width:1.0;"/><path d="M245.0742,417.1328 L245.0742,427.1328 L255.0742,427.1328 L245.0742,417.1328 " fill="#FBFB77" style="stroke:#A80036;stroke-width:1.0;"/><text fill="#000000" font-family="sans-serif" font-size="13" lengthAdjust="spacing" textLength="206" x="34.0742" y="434.1997">undo has been made previously</text><!--MD5=[fbcf4d8b63b0d06d3e3c8b74b14e3ec9]
link if to E--><path d="M168.8032,354.624 C191.0562,356.53 242.3032,364.213 268.0742,395 C286.8012,417.372 290.4322,451.394 290.2382,475.673 " fill="none" id="if-to-E" style="stroke:#A80036;stroke-width:1.0;"/><polygon fill="#A80036" points="290.1422,480.698,294.3112,471.775,290.2365,475.6989,286.3126,471.6242,290.1422,480.698" style="stroke:#A80036;stroke-width:1.0;"/><!--MD5=[6a85fad97473f3ca89fe62758889412b]
link C to *end--><path d="M26.6434,531.115 C21.3924,553.294 17.8414,585.983 34.0742,608 C60.0629,643.2493 117.5432,647.5976 144.9572,647.5423 " fill="none" id="C-to-*end" style="stroke:#A80036;stroke-width:1.0;"/><polygon fill="#A80036" points="150.0212,647.4803,140.9727,643.5912,145.0216,647.5417,141.071,651.5906,150.0212,647.4803" style="stroke:#A80036;stroke-width:1.0;"/><text fill="#000000" font-family="sans-serif" font-size="13" lengthAdjust="spacing" textLength="124" x="75.5742" y="574.0669">System allows Play</text><text fill="#000000" font-family="sans-serif" font-size="13" lengthAdjust="spacing" textLength="130" x="72.5742" y="589.1997">System allows Redo</text><text fill="#000000" font-family="sans-serif" font-size="13" lengthAdjust="spacing" textLength="205" x="35.0742" y="604.3325">System allows Undo if undoable</text><!--MD5=[b4ae64609a665d46448790142bade235]
link E to *end--><path d="M283.1162,531.009 C277.3832,553.424 265.9362,586.5523 245.0742,608 C225.4132,628.2126 193.3082,638.9497 174.6922,643.7652 " fill="none" id="E-to-*end" style="stroke:#A80036;stroke-width:1.0;"/><polygon fill="#A80036" points="169.8212,644.9693,179.5181,646.6925,174.6751,643.7693,177.5982,638.9263,169.8212,644.9693" style="stroke:#A80036;stroke-width:1.0;"/><text fill="#000000" font-family="sans-serif" font-size="13" lengthAdjust="spacing" textLength="124" x="313.5742" y="581.5669">System allows Play</text><text fill="#000000" font-family="sans-serif" font-size="13" lengthAdjust="spacing" textLength="205" x="273.0742" y="596.6997">System allows Undo if undoable</text><!--MD5=[a25ed970bb71782062bc21e0e4718b3f]
@startuml
state A as "IN_GAME"
state B as " "
state C as " "
state E as " "
state if <<choice>>

[*] - -> A
A - -> B: Current turn player requests Redo
B - -> if: System shows updated board
if - -> C: [redoable]
note on link
    undo has been made previously
end note
if - -> E
C - -> [*]: System allows Play\nSystem allows Redo\nSystem allows Undo if undoable
E - -> [*]:  System allows Play\nSystem allows Undo if undoable
@enduml

PlantUML version 1.2021.4beta3(Unknown compile time)
(GPL source distribution)
Java Runtime: Java(TM) SE Runtime Environment
JVM: Java HotSpot(TM) 64-Bit Server VM
Default Encoding: UTF-8
Language: en
Country: US
--></g></svg>