<?xml version="1.0" encoding="UTF-8" standalone="no"?><svg xmlns="http://www.w3.org/2000/svg" xmlns:xlink="http://www.w3.org/1999/xlink" contentScriptType="application/ecmascript" contentStyleType="text/css" height="992px" preserveAspectRatio="none" style="width:354px;height:992px;" version="1.1" viewBox="0 0 354 992" width="354px" zoomAndPan="magnify"><defs><filter height="300%" id="f1mn7x3h4q2mdj" width="300%" x="-1" y="-1"><feGaussianBlur result="blurOut" stdDeviation="2.0"/><feColorMatrix in="blurOut" result="blurOut2" type="matrix" values="0 0 0 0 0 0 0 0 0 0 0 0 0 0 0 0 0 0 .4 0"/><feOffset dx="4.0" dy="4.0" in="blurOut2" result="blurOut3"/><feBlend in="SourceGraphic" in2="blurOut3" mode="normal"/></filter></defs><g><g id="OUT_GAME"><rect fill="#FEFECE" filter="url(#f1mn7x3h4q2mdj)" height="50" rx="12.5" ry="12.5" style="stroke:#A80036;stroke-width:1.5;" width="98" x="7" y="87"/><line style="stroke:#A80036;stroke-width:1.5;" x1="7" x2="105" y1="113.2969" y2="113.2969"/><text fill="#000000" font-family="sans-serif" font-size="14" lengthAdjust="spacing" textLength="78" x="17" y="104.9951">OUT_GAME</text></g><g id="FINAL"><rect fill="#FEFECE" filter="url(#f1mn7x3h4q2mdj)" height="50" rx="12.5" ry="12.5" style="stroke:#A80036;stroke-width:1.5;" width="60" x="42" y="849"/><line style="stroke:#A80036;stroke-width:1.5;" x1="42" x2="102" y1="875.2969" y2="875.2969"/><text fill="#000000" font-family="sans-serif" font-size="14" lengthAdjust="spacing" textLength="40" x="52" y="866.9951">FINAL</text></g><g id="requested"><rect fill="#FEFECE" filter="url(#f1mn7x3h4q2mdj)" height="50" rx="12.5" ry="12.5" style="stroke:#A80036;stroke-width:1.5;" width="50" x="31" y="214"/><line style="stroke:#A80036;stroke-width:1.5;" x1="31" x2="81" y1="240.2969" y2="240.2969"/><text fill="#000000" font-family="sans-serif" font-size="14" lengthAdjust="spacing" textLength="0" x="58" y="231.9951"/></g><g id="allowed"><rect fill="#FEFECE" filter="url(#f1mn7x3h4q2mdj)" height="50" rx="12.5" ry="12.5" style="stroke:#A80036;stroke-width:1.5;" width="50" x="31" y="341"/><line style="stroke:#A80036;stroke-width:1.5;" x1="31" x2="81" y1="367.2969" y2="367.2969"/><text fill="#000000" font-family="sans-serif" font-size="14" lengthAdjust="spacing" textLength="0" x="58" y="358.9951"/></g><g id="gameName"><rect fill="#FEFECE" filter="url(#f1mn7x3h4q2mdj)" height="50" rx="12.5" ry="12.5" style="stroke:#A80036;stroke-width:1.5;" width="50" x="47" y="722"/><line style="stroke:#A80036;stroke-width:1.5;" x1="47" x2="97" y1="748.2969" y2="748.2969"/><text fill="#000000" font-family="sans-serif" font-size="14" lengthAdjust="spacing" textLength="0" x="74" y="739.9951"/></g><g id="playerGameName"><rect fill="#FEFECE" filter="url(#f1mn7x3h4q2mdj)" height="50" rx="12.5" ry="12.5" style="stroke:#A80036;stroke-width:1.5;" width="50" x="127" y="595"/><line style="stroke:#A80036;stroke-width:1.5;" x1="127" x2="177" y1="621.2969" y2="621.2969"/><text fill="#000000" font-family="sans-serif" font-size="14" lengthAdjust="spacing" textLength="0" x="154" y="612.9951"/></g><g id="resume"><rect fill="#FEFECE" filter="url(#f1mn7x3h4q2mdj)" height="50" rx="12.5" ry="12.5" style="stroke:#A80036;stroke-width:1.5;" width="50" x="127" y="468"/><line style="stroke:#A80036;stroke-width:1.5;" x1="127" x2="177" y1="494.2969" y2="494.2969"/><text fill="#000000" font-family="sans-serif" font-size="14" lengthAdjust="spacing" textLength="0" x="154" y="485.9951"/></g><ellipse cx="56" cy="16" fill="#000000" filter="url(#f1mn7x3h4q2mdj)" rx="10" ry="10" style="stroke:none;stroke-width:1.0;"/><ellipse cx="72" cy="970" filter="url(#f1mn7x3h4q2mdj)" rx="10" ry="10" style="stroke:#000000;stroke-width:1.0;fill:none;"/><ellipse cx="72.5" cy="970.5" fill="#000000" rx="6" ry="6" style="stroke:none;stroke-width:1.0;"/><!--MD5=[7c19ab49203e8050f03a6b6cfb3bf521]
link *start to OUT_GAME--><path d="M56,26.013 C56,38.698 56,62.409 56,81.57 " fill="none" id="*start-to-OUT_GAME" style="stroke:#A80036;stroke-width:1.0;"/><polygon fill="#A80036" points="56,86.84,60,77.84,56,81.84,52,77.84,56,86.84" style="stroke:#A80036;stroke-width:1.0;"/><!--MD5=[3702387100ac199117ed8c3fc5d870aa]
link OUT_GAME to requested--><path d="M56,137.101 C56,157.593 56,187.076 56,208.884 " fill="none" id="OUT_GAME-to-requested" style="stroke:#A80036;stroke-width:1.0;"/><polygon fill="#A80036" points="56,213.973,60,204.973,56,208.973,52,204.973,56,213.973" style="stroke:#A80036;stroke-width:1.0;"/><text fill="#000000" font-family="sans-serif" font-size="13" lengthAdjust="spacing" textLength="198" x="57" y="180.0669">Player request to save a game</text><!--MD5=[88d5e542042b4fb9fa98fbbb3d94e471]
link requested to allowed--><path d="M56,264.101 C56,284.593 56,314.076 56,335.884 " fill="none" id="requested-to-allowed" style="stroke:#A80036;stroke-width:1.0;"/><polygon fill="#A80036" points="56,340.973,60,331.973,56,335.973,52,331.973,56,340.973" style="stroke:#A80036;stroke-width:1.0;"/><text fill="#000000" font-family="sans-serif" font-size="13" lengthAdjust="spacing" textLength="179" x="57" y="307.0669">System requests to confirm</text><!--MD5=[b5bbec2654ca97b999d0150fd52dc58d]
link allowed to resume--><path d="M74.5098,391.101 C90.5131,411.939 113.657,442.074 130.482,463.982 " fill="none" id="allowed-to-resume" style="stroke:#A80036;stroke-width:1.0;"/><polygon fill="#A80036" points="133.547,467.973,131.2358,458.3992,130.5008,464.0081,124.8919,463.2731,133.547,467.973" style="stroke:#A80036;stroke-width:1.0;"/><text fill="#000000" font-family="sans-serif" font-size="13" lengthAdjust="spacing" textLength="138" x="110" y="434.0669">Player introduces yes</text><!--MD5=[ced5c3ca36b7dcd483b703a01a23eef7]
link resume to playerGameName--><path d="M156.889,518.086 C158.547,527.39 160.185,538.149 161,548 C162.14,561.774 160.59,576.983 158.473,589.779 " fill="none" id="resume-to-playerGameName" style="stroke:#A80036;stroke-width:1.0;"/><polygon fill="#A80036" points="157.604,594.738,163.0969,586.5632,158.4667,589.813,155.2169,585.1828,157.604,594.738" style="stroke:#A80036;stroke-width:1.0;"/><text fill="#000000" font-family="sans-serif" font-size="13" lengthAdjust="spacing" textLength="184" x="162" y="561.0669">System request game name</text><!--MD5=[6452e66656ddac14f6bdfcd1021a4540]
link playerGameName to gameName--><path d="M136.575,645.101 C123.294,665.853 104.1125,695.824 90.1064,717.709 " fill="none" id="playerGameName-to-gameName" style="stroke:#A80036;stroke-width:1.0;"/><polygon fill="#A80036" points="87.3775,721.973,95.5985,716.5495,90.0731,717.7619,88.8607,712.2365,87.3775,721.973" style="stroke:#A80036;stroke-width:1.0;"/><text fill="#000000" font-family="sans-serif" font-size="13" lengthAdjust="spacing" textLength="186" x="117" y="688.0669">Player introduce game name</text><!--MD5=[75e934a6d953ce0683437a3e5a0bdca6]
link allowed to gameName--><path d="M46.4925,391.284 C33.0701,428.522 11.1343,502.033 20,565 C27.7336,619.927 48.0551,681.546 60.8833,716.864 " fill="none" id="allowed-to-gameName" style="stroke:#A80036;stroke-width:1.0;"/><polygon fill="#A80036" points="62.7193,721.88,63.3821,712.0535,61.0007,717.1846,55.8695,714.8032,62.7193,721.88" style="stroke:#A80036;stroke-width:1.0;"/><text fill="#000000" font-family="sans-serif" font-size="13" lengthAdjust="spacing" textLength="131" x="21" y="561.0669">Player introduces no</text><!--MD5=[ee351f3ef8d4c8e3eb59ad655d9e3f12]
link gameName to FINAL--><path d="M72,772.101 C72,792.593 72,822.076 72,843.884 " fill="none" id="gameName-to-FINAL" style="stroke:#A80036;stroke-width:1.0;"/><polygon fill="#A80036" points="72,848.973,76,839.973,72,843.973,68,839.973,72,848.973" style="stroke:#A80036;stroke-width:1.0;"/><text fill="#000000" font-family="sans-serif" font-size="13" lengthAdjust="spacing" textLength="150" x="73" y="815.0669">System allows Resume</text><!--MD5=[374d441c28ba7e7a281df065514906a0]
link FINAL to *end--><path d="M72,899.2073 C72,916.8423 72,940.1261 72,954.8351 " fill="none" id="FINAL-to-*end" style="stroke:#A80036;stroke-width:1.0;"/><polygon fill="#A80036" points="72,959.8399,76,950.8399,72,954.8399,68,950.8399,72,959.8399" style="stroke:#A80036;stroke-width:1.0;"/><!--MD5=[cff426ad7d9fb13eb253747ed4274d58]
@startuml
state OUT_GAME
state FINAL
state requested as " "
state allowed as " "
state gameName as " "
state playerGameName as " "
state resume as " "

[*] - -> OUT_GAME
OUT_GAME - -> requested: Player request to save a game
requested - -> allowed: System requests to confirm
allowed - -> resume: Player introduces yes
resume - -> playerGameName: System request game name
playerGameName - -> gameName: Player introduce game name
allowed - -> gameName: Player introduces no
gameName - -> FINAL: System allows Resume
FINAL - -> [*]
@enduml

PlantUML version 1.2021.4beta3(Unknown compile time)
(GPL source distribution)
Java Runtime: Java(TM) SE Runtime Environment
JVM: Java HotSpot(TM) 64-Bit Server VM
Default Encoding: UTF-8
Language: en
Country: US
--></g></svg>