<?xml version="1.0" encoding="UTF-8" standalone="no"?><svg xmlns="http://www.w3.org/2000/svg" xmlns:xlink="http://www.w3.org/1999/xlink" contentScriptType="application/ecmascript" contentStyleType="text/css" height="1761px" preserveAspectRatio="none" style="width:682px;height:1761px;" version="1.1" viewBox="0 0 682 1761" width="682px" zoomAndPan="magnify"><defs><filter height="300%" id="f1dynucrcnaf7h" width="300%" x="-1" y="-1"><feGaussianBlur result="blurOut" stdDeviation="2.0"/><feColorMatrix in="blurOut" result="blurOut2" type="matrix" values="0 0 0 0 0 0 0 0 0 0 0 0 0 0 0 0 0 0 .4 0"/><feOffset dx="4.0" dy="4.0" in="blurOut2" result="blurOut3"/><feBlend in="SourceGraphic" in2="blurOut3" mode="normal"/></filter></defs><g><g id="A"><rect fill="#FEFECE" filter="url(#f1dynucrcnaf7h)" height="50" rx="12.5" ry="12.5" style="stroke:#A80036;stroke-width:1.5;" width="83" x="149.5" y="87"/><line style="stroke:#A80036;stroke-width:1.5;" x1="149.5" x2="232.5" y1="113.2969" y2="113.2969"/><text fill="#000000" font-family="sans-serif" font-size="14" lengthAdjust="spacing" textLength="63" x="159.5" y="104.9951">IN_GAME</text></g><g id="B"><rect fill="#FEFECE" filter="url(#f1dynucrcnaf7h)" height="50" rx="12.5" ry="12.5" style="stroke:#A80036;stroke-width:1.5;" width="50" x="11" y="315"/><line style="stroke:#A80036;stroke-width:1.5;" x1="11" x2="61" y1="341.2969" y2="341.2969"/><text fill="#000000" font-family="sans-serif" font-size="14" lengthAdjust="spacing" textLength="0" x="38" y="332.9951"/></g><g id="C"><rect fill="#FEFECE" filter="url(#f1dynucrcnaf7h)" height="50" rx="12.5" ry="12.5" style="stroke:#A80036;stroke-width:1.5;" width="50" x="325" y="315"/><line style="stroke:#A80036;stroke-width:1.5;" x1="325" x2="375" y1="341.2969" y2="341.2969"/><text fill="#000000" font-family="sans-serif" font-size="14" lengthAdjust="spacing" textLength="0" x="352" y="332.9951"/></g><g id="D"><rect fill="#FEFECE" filter="url(#f1dynucrcnaf7h)" height="50" rx="12.5" ry="12.5" style="stroke:#A80036;stroke-width:1.5;" width="50" x="7" y="522"/><line style="stroke:#A80036;stroke-width:1.5;" x1="7" x2="57" y1="548.2969" y2="548.2969"/><text fill="#000000" font-family="sans-serif" font-size="14" lengthAdjust="spacing" textLength="0" x="34" y="539.9951"/></g><g id="E"><rect fill="#FEFECE" filter="url(#f1dynucrcnaf7h)" height="50" rx="12.5" ry="12.5" style="stroke:#A80036;stroke-width:1.5;" width="50" x="239" y="1294"/><line style="stroke:#A80036;stroke-width:1.5;" x1="239" x2="289" y1="1320.2969" y2="1320.2969"/><text fill="#000000" font-family="sans-serif" font-size="14" lengthAdjust="spacing" textLength="0" x="266" y="1311.9951"/></g><g id="F"><rect fill="#FEFECE" filter="url(#f1dynucrcnaf7h)" height="50" rx="12.5" ry="12.5" style="stroke:#A80036;stroke-width:1.5;" width="50" x="25" y="1214"/><line style="stroke:#A80036;stroke-width:1.5;" x1="25" x2="75" y1="1240.2969" y2="1240.2969"/><text fill="#000000" font-family="sans-serif" font-size="14" lengthAdjust="spacing" textLength="0" x="52" y="1231.9951"/></g><g id="I"><rect fill="#FEFECE" filter="url(#f1dynucrcnaf7h)" height="50" rx="12.5" ry="12.5" style="stroke:#A80036;stroke-width:1.5;" width="50" x="343" y="442"/><line style="stroke:#A80036;stroke-width:1.5;" x1="343" x2="393" y1="468.2969" y2="468.2969"/><text fill="#000000" font-family="sans-serif" font-size="14" lengthAdjust="spacing" textLength="0" x="370" y="459.9951"/></g><g id="J"><rect fill="#FEFECE" filter="url(#f1dynucrcnaf7h)" height="50" rx="12.5" ry="12.5" style="stroke:#A80036;stroke-width:1.5;" width="50" x="423" y="852"/><line style="stroke:#A80036;stroke-width:1.5;" x1="423" x2="473" y1="878.2969" y2="878.2969"/><text fill="#000000" font-family="sans-serif" font-size="14" lengthAdjust="spacing" textLength="0" x="450" y="869.9951"/></g><g id="K"><rect fill="#FEFECE" filter="url(#f1dynucrcnaf7h)" height="50" rx="12.5" ry="12.5" style="stroke:#A80036;stroke-width:1.5;" width="50" x="345" y="772"/><line style="stroke:#A80036;stroke-width:1.5;" x1="345" x2="395" y1="798.2969" y2="798.2969"/><text fill="#000000" font-family="sans-serif" font-size="14" lengthAdjust="spacing" textLength="0" x="372" y="789.9951"/></g><g id="L"><rect fill="#FEFECE" filter="url(#f1dynucrcnaf7h)" height="50" rx="12.5" ry="12.5" style="stroke:#A80036;stroke-width:1.5;" width="50" x="85" y="932"/><line style="stroke:#A80036;stroke-width:1.5;" x1="85" x2="135" y1="958.2969" y2="958.2969"/><text fill="#000000" font-family="sans-serif" font-size="14" lengthAdjust="spacing" textLength="0" x="112" y="949.9951"/></g><g id="O"><rect fill="#FEFECE" filter="url(#f1dynucrcnaf7h)" height="50" rx="12.5" ry="12.5" style="stroke:#A80036;stroke-width:1.5;" width="50" x="12" y="1475"/><line style="stroke:#A80036;stroke-width:1.5;" x1="12" x2="62" y1="1501.2969" y2="1501.2969"/><text fill="#000000" font-family="sans-serif" font-size="14" lengthAdjust="spacing" textLength="0" x="39" y="1492.9951"/></g><g id="P"><rect fill="#FEFECE" filter="url(#f1dynucrcnaf7h)" height="50" rx="12.5" ry="12.5" style="stroke:#A80036;stroke-width:1.5;" width="50" x="240" y="1475"/><line style="stroke:#A80036;stroke-width:1.5;" x1="240" x2="290" y1="1501.2969" y2="1501.2969"/><text fill="#000000" font-family="sans-serif" font-size="14" lengthAdjust="spacing" textLength="0" x="267" y="1492.9951"/></g><g id="Q"><rect fill="#FEFECE" filter="url(#f1dynucrcnaf7h)" height="50" rx="12.5" ry="12.5" style="stroke:#A80036;stroke-width:1.5;" width="50" x="26" y="1602"/><line style="stroke:#A80036;stroke-width:1.5;" x1="26" x2="76" y1="1628.2969" y2="1628.2969"/><text fill="#000000" font-family="sans-serif" font-size="14" lengthAdjust="spacing" textLength="0" x="53" y="1619.9951"/></g><polygon fill="#FEFECE" filter="url(#f1dynucrcnaf7h)" points="191,214,203,226,191,238,179,226,191,214" style="stroke:#A80036;stroke-width:1.5;"/><polygon fill="#FEFECE" filter="url(#f1dynucrcnaf7h)" points="89,1059,101,1071,89,1083,77,1071,89,1059" style="stroke:#A80036;stroke-width:1.5;"/><polygon fill="#FEFECE" filter="url(#f1dynucrcnaf7h)" points="370,602,382,614,370,626,358,614,370,602" style="stroke:#A80036;stroke-width:1.5;"/><polygon fill="#FEFECE" filter="url(#f1dynucrcnaf7h)" points="40,1374,52,1386,40,1398,28,1386,40,1374" style="stroke:#A80036;stroke-width:1.5;"/><ellipse cx="191" cy="16" fill="#000000" filter="url(#f1dynucrcnaf7h)" rx="10" ry="10" style="stroke:none;stroke-width:1.0;"/><ellipse cx="172" cy="1739" filter="url(#f1dynucrcnaf7h)" rx="10" ry="10" style="stroke:#000000;stroke-width:1.0;fill:none;"/><ellipse cx="172.5" cy="1739.5" fill="#000000" rx="6" ry="6" style="stroke:none;stroke-width:1.0;"/><!--MD5=[ba0fdac9700f9825b754e67fda8ee1b2]
link *start to A--><path d="M191,26.01 C191,38.7 191,62.41 191,81.57 " fill="none" id="*start-to-A" style="stroke:#A80036;stroke-width:1.0;"/><polygon fill="#A80036" points="191,86.84,195,77.84,191,81.84,187,77.84,191,86.84" style="stroke:#A80036;stroke-width:1.0;"/><!--MD5=[b08c169375971c036aa5498b0b0884cf]
link A to if--><path d="M191,137.03 C191,158.58 191,189.63 191,208.5 " fill="none" id="A-to-if" style="stroke:#A80036;stroke-width:1.0;"/><polygon fill="#A80036" points="191,213.94,195,204.94,191,208.94,187,204.94,191,213.94" style="stroke:#A80036;stroke-width:1.0;"/><text fill="#000000" font-family="sans-serif" font-size="13" lengthAdjust="spacing" textLength="213" x="192" y="180.0669">Current turn player requests Play</text><!--MD5=[4f0380399d6304d9deff548af9e8d040]
link if to B--><path d="M180.758,228.23 C149.786,232.19 58.1274,245.63 40,268 C30.7242,279.45 29.2276,295.65 30.2729,309.69 " fill="none" id="if-to-B" style="stroke:#A80036;stroke-width:1.0;"/><polygon fill="#A80036" points="30.7634,314.75,33.8968,305.4129,30.2919,309.7723,25.9325,306.1673,30.7634,314.75" style="stroke:#A80036;stroke-width:1.0;"/><text fill="#000000" font-family="sans-serif" font-size="13" lengthAdjust="spacing" textLength="281" x="41" y="281.0669">[pieces of current turn player on board 0..2]</text><!--MD5=[f9048a51dcd4704a001a3cf3d3813ebf]
link if to C--><path d="M202.232,227.06 C227.946,227.82 291.593,233.31 327,268 C338.21,278.98 343.962,295.47 346.91,309.79 " fill="none" id="if-to-C" style="stroke:#A80036;stroke-width:1.0;"/><polygon fill="#A80036" points="347.874,314.95,350.1603,305.3702,346.9595,310.0343,342.2953,306.8335,347.874,314.95" style="stroke:#A80036;stroke-width:1.0;"/><!--MD5=[635162b0568dccf9b81699e51957888e]
link B to D--><path d="M35.5254,365.32 C34.7887,403.08 33.372,475.69 32.5771,516.42 " fill="none" id="B-to-D" style="stroke:#A80036;stroke-width:1.0;"/><polygon fill="#A80036" points="32.4739,521.71,36.6531,512.7918,32.5739,516.711,28.6547,512.6318,32.4739,521.71" style="stroke:#A80036;stroke-width:1.0;"/><text fill="#000000" font-family="sans-serif" font-size="13" lengthAdjust="spacing" textLength="274" x="36" y="408.0669">System requests to introduce a coordinate</text><!--MD5=[72e9e687c2ff2b546080c460bf01ee17]
link D to if2--><path d="M31.7399,572.16 C31.4436,601.8 31,653.6 31,698 C31,698 31,698 31,958 C31,999.936 63.4606,1041.809 79.8137,1060.244 " fill="none" id="D-to-if2" style="stroke:#A80036;stroke-width:1.0;"/><polygon fill="#A80036" points="83.2267,1064.014,80.152,1054.6574,79.8711,1060.3073,74.2212,1060.0264,83.2267,1064.014" style="stroke:#A80036;stroke-width:1.0;"/><text fill="#000000" font-family="sans-serif" font-size="13" lengthAdjust="spacing" textLength="277" x="32" y="801.5669">Current turn player introduces a coordinate</text><!--MD5=[a4292983f5a4db17aa7b8f7f6cf7e09a]
link if2 to E--><path d="M93.6808,1078.58 C114.977,1108.516 203.413,1232.832 243.765,1289.556 " fill="none" id="if2-to-E" style="stroke:#A80036;stroke-width:1.0;"/><polygon fill="#A80036" points="246.819,1293.849,244.8611,1284.1967,243.9205,1289.7748,238.3424,1288.8343,246.819,1293.849" style="stroke:#A80036;stroke-width:1.0;"/><text fill="#000000" font-family="sans-serif" font-size="13" lengthAdjust="spacing" textLength="41" x="234.5" y="1126.0669">[error]</text><path d="M171,1135.1328 L171,1175.1328 L335,1175.1328 L335,1145.1328 L325,1135.1328 L171,1135.1328 " fill="#FBFB77" filter="url(#f1dynucrcnaf7h)" style="stroke:#A80036;stroke-width:1.0;"/><path d="M325,1135.1328 L325,1145.1328 L335,1145.1328 L325,1135.1328 " fill="#FBFB77" style="stroke:#A80036;stroke-width:1.0;"/><text fill="#000000" font-family="sans-serif" font-size="13" lengthAdjust="spacing" textLength="143" x="177" y="1152.1997">Coordinate is not valid</text><text fill="#000000" font-family="sans-serif" font-size="13" lengthAdjust="spacing" textLength="142" x="177" y="1167.3325">Coordinate is occuped</text><!--MD5=[cc1abbd5c7ed3a808edbd58025ba5132]
link if2 to F--><path d="M86.9032,1080.925 C81.3159,1104.707 65.8799,1170.408 56.8394,1208.889 " fill="none" id="if2-to-F" style="stroke:#A80036;stroke-width:1.0;"/><polygon fill="#A80036" points="55.6618,1213.901,61.6153,1206.0552,56.806,1209.0337,53.8276,1204.2245,55.6618,1213.901" style="stroke:#A80036;stroke-width:1.0;"/><!--MD5=[eae23ab883900b63609d8dffdc4ab822]
link E to P--><path d="M264.135,1344.141 C264.317,1376.66 264.64,1434.491 264.835,1469.535 " fill="none" id="E-to-P" style="stroke:#A80036;stroke-width:1.0;"/><polygon fill="#A80036" points="264.866,1474.957,268.8171,1465.9354,264.8389,1469.9571,260.8172,1465.9788,264.866,1474.957" style="stroke:#A80036;stroke-width:1.0;"/><text fill="#000000" font-family="sans-serif" font-size="13" lengthAdjust="spacing" textLength="129" x="265" y="1390.5669">System shows error</text><!--MD5=[70a8e270759a69ef06c33f275000f134]
link F to if5--><path d="M37.8494,1264.113 C33.8807,1273.236 29.9849,1283.867 28,1294 C23.7281,1315.808 24.847,1322.003 28,1344 C29.368,1353.544 32.4411,1363.968 35.1348,1371.917 " fill="none" id="F-to-if5" style="stroke:#A80036;stroke-width:1.0;"/><polygon fill="#A80036" points="36.9134,1376.983,37.7073,1367.1662,35.2576,1372.2651,30.1587,1369.8154,36.9134,1376.983" style="stroke:#A80036;stroke-width:1.0;"/><text fill="#000000" font-family="sans-serif" font-size="13" lengthAdjust="spacing" textLength="192" x="29" y="1323.5669">System shows updated board</text><!--MD5=[199524e6c39ae6083a65dcba8f4f4738]
link C to I--><path d="M353.471,365.1 C356.421,385.59 360.667,415.08 363.807,436.88 " fill="none" id="C-to-I" style="stroke:#A80036;stroke-width:1.0;"/><polygon fill="#A80036" points="364.54,441.97,367.2132,432.4909,363.8257,437.0213,359.2953,433.6338,364.54,441.97" style="stroke:#A80036;stroke-width:1.0;"/><text fill="#000000" font-family="sans-serif" font-size="13" lengthAdjust="spacing" textLength="301" x="361" y="408.0669">System requests to introduce origin coordinate</text><!--MD5=[632236cb211cf936ecc522612b5b41a3]
link I to if3--><path d="M368.335,492.27 C368.746,522.08 369.432,571.79 369.781,597.11 " fill="none" id="I-to-if3" style="stroke:#A80036;stroke-width:1.0;"/><polygon fill="#A80036" points="369.85,602.13,373.721,593.0738,369.7786,597.1305,365.7218,593.1881,369.85,602.13" style="stroke:#A80036;stroke-width:1.0;"/><text fill="#000000" font-family="sans-serif" font-size="13" lengthAdjust="spacing" textLength="304" x="370" y="551.5669">Current turn player introduces origin coordinate</text><!--MD5=[42310412a51d79bc6d9e96b7d81308fa]
link if3 to J--><path d="M374.948,621.3 C380.798,629.05 390.438,642.79 396,656 C423.448,721.17 438.018,803.582 444.241,846.684 " fill="none" id="if3-to-J" style="stroke:#A80036;stroke-width:1.0;"/><polygon fill="#A80036" points="444.958,851.742,447.653,842.2691,444.2551,846.7917,439.7325,843.3937,444.958,851.742" style="stroke:#A80036;stroke-width:1.0;"/><text fill="#000000" font-family="sans-serif" font-size="13" lengthAdjust="spacing" textLength="41" x="508.5" y="669.0669">[error]</text><path d="M428,678.1328 L428,733.1328 L626,733.1328 L626,688.1328 L616,678.1328 L428,678.1328 " fill="#FBFB77" filter="url(#f1dynucrcnaf7h)" style="stroke:#A80036;stroke-width:1.0;"/><path d="M616,678.1328 L616,688.1328 L626,688.1328 L616,678.1328 " fill="#FBFB77" style="stroke:#A80036;stroke-width:1.0;"/><text fill="#000000" font-family="sans-serif" font-size="13" lengthAdjust="spacing" textLength="143" x="434" y="695.1997">Coordinate is not valid</text><text fill="#000000" font-family="sans-serif" font-size="13" lengthAdjust="spacing" textLength="130" x="434" y="710.3325">Coordinate is empty</text><text fill="#000000" font-family="sans-serif" font-size="13" lengthAdjust="spacing" textLength="177" x="434" y="725.4653">Piece is not of active player</text><!--MD5=[6bae2bd13401cbaea3aa64a640d1a2a5]
link if3 to K--><path d="M370,626.05 C370,653.52 370,725.64 370,766.557 " fill="none" id="if3-to-K" style="stroke:#A80036;stroke-width:1.0;"/><polygon fill="#A80036" points="370,771.873,374,762.873,370,766.873,366,762.873,370,771.873" style="stroke:#A80036;stroke-width:1.0;"/><!--MD5=[a9d7580a5e29a657f7fd1b01ae662b71]
link J to P--><path d="M448,902.035 C448,930.187 448,978.229 448,1019.5 C448,1019.5 448,1019.5 448,1387 C448,1457.764 347.222,1485.179 295.239,1494.614 " fill="none" id="J-to-P" style="stroke:#A80036;stroke-width:1.0;"/><polygon fill="#A80036" points="290.062,1495.523,299.6187,1497.9042,294.9865,1494.6573,298.2335,1490.0251,290.062,1495.523" style="stroke:#A80036;stroke-width:1.0;"/><text fill="#000000" font-family="sans-serif" font-size="13" lengthAdjust="spacing" textLength="129" x="449" y="1153.0669">System shows error</text><!--MD5=[eada28b63b3843c3c30fc61fede252c5]
link K to L--><path d="M344.926,811.394 C336.565,815.363 327.067,819.351 318,822 C270.85,835.777 131.291,814.984 99,852 C81.2828,872.31 87.8107,904.034 96.4237,927.106 " fill="none" id="K-to-L" style="stroke:#A80036;stroke-width:1.0;"/><polygon fill="#A80036" points="98.2852,931.891,98.7498,922.0531,96.4723,927.2312,91.2942,924.9537,98.2852,931.891" style="stroke:#A80036;stroke-width:1.0;"/><text fill="#000000" font-family="sans-serif" font-size="13" lengthAdjust="spacing" textLength="305" x="100" y="881.5669">System requests to introduce target coordinate</text><!--MD5=[f739a58fdaa6bf26095f06d8cb4898c6]
link L to if2--><path d="M105.495,982.027 C101.3228,1004.278 95.2515,1036.658 91.7567,1055.297 " fill="none" id="L-to-if2" style="stroke:#A80036;stroke-width:1.0;"/><polygon fill="#A80036" points="90.7598,1060.614,96.3521,1052.5068,91.6826,1055.6999,88.4895,1051.0304,90.7598,1060.614" style="stroke:#A80036;stroke-width:1.0;"/><text fill="#000000" font-family="sans-serif" font-size="13" lengthAdjust="spacing" textLength="308" x="101" y="1025.0669">Current turn player introduces target coordinate</text><!--MD5=[01720f07c43e9fab5de4881f7020f0bd]
link if5 to O--><path d="M39.7123,1397.739 C39.2733,1414.129 38.4204,1445.97 37.7877,1469.591 " fill="none" id="if5-to-O" style="stroke:#A80036;stroke-width:1.0;"/><polygon fill="#A80036" points="37.6482,1474.799,41.8885,1465.9097,37.7825,1469.8008,33.8914,1465.6948,37.6482,1474.799" style="stroke:#A80036;stroke-width:1.0;"/><text fill="#000000" font-family="sans-serif" font-size="13" lengthAdjust="spacing" textLength="53" x="40" y="1441.0669">[winner]</text><!--MD5=[ab57eb48dd435761d2e729918c8e482b]
link O to Q--><path d="M33.6693,1525.119 C32.3396,1538.919 31.6199,1556.513 34,1572 C35.2735,1580.286 37.5856,1589.045 40.1029,1597.043 " fill="none" id="O-to-Q" style="stroke:#A80036;stroke-width:1.0;"/><polygon fill="#A80036" points="41.6893,1601.913,42.7025,1592.1164,40.1394,1597.1593,35.0966,1594.5962,41.6893,1601.913" style="stroke:#A80036;stroke-width:1.0;"/><text fill="#000000" font-family="sans-serif" font-size="13" lengthAdjust="spacing" textLength="204" x="35" y="1568.0669">System shows winner message</text><!--MD5=[80a7f67af607e34737e4d3a6ffb8dfd8]
link if5 to P--><path d="M47.4862,1390.726 C76.5012,1405.169 182.53,1457.948 235.074,1484.103 " fill="none" id="if5-to-P" style="stroke:#A80036;stroke-width:1.0;"/><polygon fill="#A80036" points="239.681,1486.397,233.4074,1478.8048,235.2052,1484.1684,229.8416,1485.9661,239.681,1486.397" style="stroke:#A80036;stroke-width:1.0;"/><!--MD5=[1829e8d01ad626ab2023d1529b515cef]
link Q to *end--><path d="M59.0239,1652.2399 C65.0258,1667.2843 74.532,1686.1343 88,1699 C108.019,1718.1236 139.11,1729.1655 157.322,1734.3458 " fill="none" id="Q-to-*end" style="stroke:#A80036;stroke-width:1.0;"/><polygon fill="#A80036" points="162.534,1735.7677,154.9038,1729.5404,157.7102,1734.452,152.7986,1737.2584,162.534,1735.7677" style="stroke:#A80036;stroke-width:1.0;"/><text fill="#000000" font-family="sans-serif" font-size="13" lengthAdjust="spacing" textLength="150" x="89" y="1695.0669">System allows Resume</text><!--MD5=[48bca50d9895b2b86770dc0a74bb0dba]
link P to *end--><path d="M269.128,1525.012 C274.621,1564.828 279.869,1645.431 244,1699 C230.596,1719.0185 203.386,1729.6239 186.523,1734.5062 " fill="none" id="P-to-*end" style="stroke:#A80036;stroke-width:1.0;"/><polygon fill="#A80036" points="181.649,1735.8418,191.3861,1737.321,186.4712,1734.5204,189.2719,1729.6055,181.649,1735.8418" style="stroke:#A80036;stroke-width:1.0;"/><text fill="#000000" font-family="sans-serif" font-size="13" lengthAdjust="spacing" textLength="124" x="273" y="1631.5669">System allows Play</text><!--MD5=[47624d5ff7d7a48762597e6f56b8a315]
@startuml
state A as "IN_GAME"
state B as " "
state C as " "
state D as " "
state E as " "
state F as " "
state I as " "
state J as " "
state K as " "
state L as " "
state O as " "
state P as " "
state Q as " "
state if <<choice>>
state if2 <<choice>>
state if3 <<choice>>
state if5 <<choice>>

[*] - -> A
A - -> if: Current turn player requests Play
if - -> B: [pieces of current turn player on board 0..2]
if - -> C
B - -> D: System requests to introduce a coordinate
D - -> if2: Current turn player introduces a coordinate
if2 - -> E: [error]
note on link
    Coordinate is not valid
    Coordinate is occuped
end note
if2 - -> F
E - -> P: System shows error
F - -> if5: System shows updated board
C - -> I: System requests to introduce origin coordinate
I - -> if3: Current turn player introduces origin coordinate
if3 - -> J: [error]
note on link
    Coordinate is not valid
    Coordinate is empty
    Piece is not of active player
end note
if3 - -> K
J - -> P: System shows error
K - -> L: System requests to introduce target coordinate
L - -> if2: Current turn player introduces target coordinate
if5 - -> O: [winner]
O - -> Q: System shows winner message
if5 - -> P
Q - -> [*]: System allows Resume
P - -> [*]: System allows Play
@enduml

PlantUML version 1.2021.4beta1(Unknown compile time)
(GPL source distribution)
Java Runtime: Java(TM) SE Runtime Environment
JVM: Java HotSpot(TM) 64-Bit Server VM
Default Encoding: UTF-8
Language: en
Country: US
--></g></svg>