<?xml version="1.0" encoding="UTF-8" standalone="no"?><svg xmlns="http://www.w3.org/2000/svg" xmlns:xlink="http://www.w3.org/1999/xlink" contentScriptType="application/ecmascript" contentStyleType="text/css" height="759px" preserveAspectRatio="none" style="width:368px;height:759px;background:#FFFFFF;" version="1.1" viewBox="0 0 368 759" width="368px" zoomAndPan="magnify"><defs><filter height="300%" id="f1q2c2v6b70g72" width="300%" x="-1" y="-1"><feGaussianBlur result="blurOut" stdDeviation="2.0"/><feColorMatrix in="blurOut" result="blurOut2" type="matrix" values="0 0 0 0 0 0 0 0 0 0 0 0 0 0 0 0 0 0 .4 0"/><feOffset dx="4.0" dy="4.0" in="blurOut2" result="blurOut3"/><feBlend in="SourceGraphic" in2="blurOut3" mode="normal"/></filter></defs><g><g id="A"><rect fill="#FEFECE" filter="url(#f1q2c2v6b70g72)" height="50" rx="12.5" ry="12.5" style="stroke:#A80036;stroke-width:1.5;" width="50" x="200.8" y="87"/><line style="stroke:#A80036;stroke-width:1.5;" x1="200.8" x2="250.8" y1="114.6094" y2="114.6094"/><text fill="#000000" font-family="sans-serif" font-size="14" lengthAdjust="spacing" textLength="0" x="227.8" y="106.5332"/></g><g id="B"><rect fill="#FEFECE" filter="url(#f1q2c2v6b70g72)" height="50" rx="12.5" ry="12.5" style="stroke:#A80036;stroke-width:1.5;" width="50" x="200.8" y="215"/><line style="stroke:#A80036;stroke-width:1.5;" x1="200.8" x2="250.8" y1="242.6094" y2="242.6094"/><text fill="#000000" font-family="sans-serif" font-size="14" lengthAdjust="spacing" textLength="0" x="227.8" y="234.5332"/></g><g id="C"><rect fill="#FEFECE" filter="url(#f1q2c2v6b70g72)" height="50" rx="12.5" ry="12.5" style="stroke:#A80036;stroke-width:1.5;" width="50" x="200.8" y="343"/><line style="stroke:#A80036;stroke-width:1.5;" x1="200.8" x2="250.8" y1="370.6094" y2="370.6094"/><text fill="#000000" font-family="sans-serif" font-size="14" lengthAdjust="spacing" textLength="0" x="227.8" y="362.5332"/></g><g id="D"><rect fill="#FEFECE" filter="url(#f1q2c2v6b70g72)" height="50" rx="12.5" ry="12.5" style="stroke:#A80036;stroke-width:1.5;" width="50" x="112.8" y="471"/><line style="stroke:#A80036;stroke-width:1.5;" x1="112.8" x2="162.8" y1="498.6094" y2="498.6094"/><text fill="#000000" font-family="sans-serif" font-size="14" lengthAdjust="spacing" textLength="0" x="139.8" y="490.5332"/></g><g id="E"><rect fill="#FEFECE" filter="url(#f1q2c2v6b70g72)" height="50" rx="12.5" ry="12.5" style="stroke:#A80036;stroke-width:1.5;" width="50" x="37.8" y="599"/><line style="stroke:#A80036;stroke-width:1.5;" x1="37.8" x2="87.8" y1="626.6094" y2="626.6094"/><text fill="#000000" font-family="sans-serif" font-size="14" lengthAdjust="spacing" textLength="0" x="64.8" y="618.5332"/></g><ellipse cx="225.8" cy="16" fill="#000000" filter="url(#f1q2c2v6b70g72)" rx="10" ry="10" style="stroke:none;stroke-width:1.0;"/><ellipse cx="171.8" cy="737" filter="url(#f1q2c2v6b70g72)" rx="10" ry="10" style="stroke:#000000;stroke-width:1.0;fill:none;"/><ellipse cx="172.3" cy="737.5" fill="#000000" rx="6" ry="6" style="stroke:none;stroke-width:1.0;"/><!--MD5=[ba0fdac9700f9825b754e67fda8ee1b2]
link *start to A--><path d="M225.8,26.01 C225.8,38.7 225.8,62.41 225.8,81.57 " fill="none" id="*start-to-A" style="stroke:#A80036;stroke-width:1.0;"/><polygon fill="#A80036" points="225.8,86.84,229.8,77.84,225.8,81.84,221.8,77.84,225.8,86.84" style="stroke:#A80036;stroke-width:1.0;"/><!--MD5=[5e2eec62a50b26b6b0db6c12e4ee289c]
link A to B--><path d="M204.11,137.08 C197.55,145.87 191.19,156.29 187.8,167 C183,182.13 189.73,197.84 198.79,210.72 " fill="none" id="A-to-B" style="stroke:#A80036;stroke-width:1.0;"/><polygon fill="#A80036" points="201.94,214.97,199.8005,205.3563,198.9652,210.9512,193.3704,210.116,201.94,214.97" style="stroke:#A80036;stroke-width:1.0;"/><text fill="#000000" font-family="sans-serif" font-size="13" lengthAdjust="spacing" textLength="29" x="188.8" y="181.4951">put X</text><!--MD5=[2c777c0c38089c390787dfc0786ecb92]
link B to A--><path d="M225.8,214.78 C225.8,194.15 225.8,164.43 225.8,142.43 " fill="none" id="B-to-A" style="stroke:#A80036;stroke-width:1.0;"/><polygon fill="#A80036" points="225.8,137.29,221.8,146.29,225.8,142.29,229.8,146.29,225.8,137.29" style="stroke:#A80036;stroke-width:1.0;"/><text fill="#000000" font-family="sans-serif" font-size="13" lengthAdjust="spacing" textLength="32" x="226.8" y="181.4951">put O</text><!--MD5=[cd25d8247324207f828a4db9f58ed69d]
link B to C--><path d="M225.8,265.29 C225.8,285.95 225.8,315.67 225.8,337.65 " fill="none" id="B-to-C" style="stroke:#A80036;stroke-width:1.0;"/><polygon fill="#A80036" points="225.8,342.78,229.8,333.78,225.8,337.78,221.8,333.78,225.8,342.78" style="stroke:#A80036;stroke-width:1.0;"/><text fill="#000000" font-family="sans-serif" font-size="13" lengthAdjust="spacing" textLength="87" x="226.8" y="309.4951">[isCompletedX]</text><!--MD5=[95ca888c4bb7ed1df160562281720a5c]
link C to D--><path d="M208.83,393.29 C194.22,414.21 173.12,444.42 157.71,466.48 " fill="none" id="C-to-D" style="stroke:#A80036;stroke-width:1.0;"/><polygon fill="#A80036" points="154.71,470.78,163.1374,465.683,157.5687,466.6778,156.5739,461.1091,154.71,470.78" style="stroke:#A80036;stroke-width:1.0;"/><text fill="#000000" font-family="sans-serif" font-size="13" lengthAdjust="spacing" textLength="32" x="188.8" y="437.4951">put O</text><!--MD5=[6a85fad97473f3ca89fe62758889412b]
link C to *end--><path d="M236.8,393.35 C257.74,443.38 298.04,560.5 260.8,649 C245.13,686.22 204.91,715.46 184.33,728.53 " fill="none" id="C-to-*end" style="stroke:#A80036;stroke-width:1.0;"/><polygon fill="#A80036" points="180.02,731.22,189.7741,729.8568,184.264,728.5764,185.5443,723.0664,180.02,731.22" style="stroke:#A80036;stroke-width:1.0;"/><text fill="#000000" font-family="sans-serif" font-size="13" lengthAdjust="spacing" textLength="84" x="276.8" y="565.4951">[isTicTacToeX]</text><!--MD5=[9ee2c6850258a89d754920901add40c0]
link D to E--><path d="M112.7,500.17 C83.91,505.3 37.96,518.39 16.8,551 C6,567.63 19.02,586.53 33.93,600.79 " fill="none" id="D-to-E" style="stroke:#A80036;stroke-width:1.0;"/><polygon fill="#A80036" points="37.75,604.31,33.8455,595.2682,34.0743,600.9204,28.4221,601.1492,37.75,604.31" style="stroke:#A80036;stroke-width:1.0;"/><text fill="#000000" font-family="sans-serif" font-size="13" lengthAdjust="spacing" textLength="41" x="17.8" y="565.4951">move X</text><!--MD5=[d9f0db18a21361db52f95f1c09405f86]
link E to D--><path d="M74.15,598.88 C81.09,584.67 90.41,566.51 99.8,551 C104.9,542.56 110.87,533.69 116.54,525.63 " fill="none" id="E-to-D" style="stroke:#A80036;stroke-width:1.0;"/><polygon fill="#A80036" points="119.66,521.25,111.1889,526.2739,116.766,525.3273,117.7126,530.9044,119.66,521.25" style="stroke:#A80036;stroke-width:1.0;"/><text fill="#000000" font-family="sans-serif" font-size="13" lengthAdjust="spacing" textLength="44" x="100.8" y="565.4951">move O</text><!--MD5=[51efe90a7f482fc138f2ff6aff84f914]
link D to *end--><path d="M143.69,521.09 C145.83,530.4 148.12,541.15 149.8,551 C160.52,614.04 167.8,690.04 170.56,721.39 " fill="none" id="D-to-*end" style="stroke:#A80036;stroke-width:1.0;"/><polygon fill="#A80036" points="171.02,726.71,174.2322,717.3997,170.5906,721.7285,166.2618,718.0868,171.02,726.71" style="stroke:#A80036;stroke-width:1.0;"/><text fill="#000000" font-family="sans-serif" font-size="13" lengthAdjust="spacing" textLength="87" x="164.8" y="629.4951">[isTicTacToeO]</text><!--MD5=[b4ae64609a665d46448790142bade235]
link E to *end--><path d="M54.78,649.16 C51.36,664.25 50.08,683.33 59.8,697 C82.08,728.36 131.51,734.72 156.58,735.87 " fill="none" id="E-to-*end" style="stroke:#A80036;stroke-width:1.0;"/><polygon fill="#A80036" points="161.83,736.04,152.9723,731.734,156.8329,735.8687,152.6982,739.7293,161.83,736.04" style="stroke:#A80036;stroke-width:1.0;"/><text fill="#000000" font-family="sans-serif" font-size="13" lengthAdjust="spacing" textLength="84" x="60.8" y="693.4951">[isTicTacToeX]</text><!--MD5=[ee14bb466c203e56ea3d2b580294099f]
@startuml instructionsState

state A as " "
state B as " "
state C as " "
state D as " "
state E as " "
[*] - -> A
A - -> B: put X
B - -> A : put O
B - -> C : [isCompletedX]
C - -> D : put O
C - -> [*] : [isTicTacToeX]
D - -> E : move X
E - -> D : move O
D - -> [*] : [isTicTacToeO]
E - -> [*] : [isTicTacToeX]

@enduml

PlantUML version 1.2021.16(Wed Dec 08 18:25:22 CET 2021)
(GPL source distribution)
Java Runtime: Java(TM) SE Runtime Environment
JVM: Java HotSpot(TM) Client VM
Default Encoding: Cp1252
Language: es
Country: ES
--></g></svg>